<svg width="90" height="90" viewBox="0 0 90 90" fill="none" xmlns="http://www.w3.org/2000/svg">
<g filter="url(#filter0_d_1632_3975)">
<circle cx="45" cy="45" r="40" fill="#FDFDFD"/>
</g>
<g filter="url(#filter1_d_1632_3975)">
<path d="M18.7635 14.8065C26.6082 7.98992 36.7979 4.49408 47.175 5.05918C57.5521 5.62427 67.3019 10.2059 74.36 17.834L67.0845 24.5659C61.7754 18.8281 54.4417 15.3818 46.636 14.9567C38.8304 14.5316 31.1658 17.1612 25.2651 22.2886L18.7635 14.8065Z" fill="#F37329"/>
</g>
<g filter="url(#filter2_d_1632_3975)">
<path d="M71.8987 74.605C64.207 81.5937 54.0972 85.3143 43.7101 84.9792C33.323 84.6441 23.4741 80.2795 16.2489 72.8096L23.3735 65.9182C28.8083 71.5371 36.2166 74.8201 44.0298 75.0722C51.8429 75.3242 59.4474 72.5256 65.2331 67.2688L71.8987 74.605Z" fill="#F37329"/>
</g>
<g filter="url(#filter3_d_1632_3975)">
<circle cx="45" cy="45" r="30" fill="#FDFDFD"/>
</g>
<path d="M56.2969 33.7656H55.1679V55.3555C55.1679 56.8094 53.9851 57.9922 52.5312 57.9922H36.5898V59.1211C36.5898 59.6065 36.9834 60 37.4688 60H56.2969C56.7822 60 57.1758 59.6065 57.1758 59.1211V34.6445C57.1758 34.1591 56.7822 33.7656 56.2969 33.7656Z" fill="#F37329"/>
<path d="M53.4101 55.3554V30.8789C53.4101 30.3935 53.0166 30 52.5312 30H33.7031C33.2177 30 32.8242 30.3935 32.8242 30.8789V55.3554C32.8242 55.8408 33.2177 56.2344 33.7031 56.2344H52.5312C53.0166 56.2344 53.4101 55.8409 53.4101 55.3554ZM40.9144 50.3285L39.0316 52.2113C38.7043 52.5517 38.1159 52.5518 37.7887 52.2113L36.8473 51.2699C36.0545 50.4163 37.2363 49.2339 38.0903 50.0269L38.4102 50.3469L39.6715 49.0856C40.5254 48.2924 41.7074 49.4749 40.9144 50.3285ZM40.9144 45.1508L39.0316 47.0336C38.7043 47.374 38.1159 47.374 37.7887 47.0336L36.8473 46.0921C36.0545 45.2386 37.2363 44.0561 38.0903 44.8492L38.4102 45.1691L39.6715 43.9078C40.5254 43.1147 41.7074 44.2972 40.9144 45.1508ZM40.9144 39.9731L39.0316 41.8559C38.7043 42.1962 38.1159 42.1963 37.7887 41.8559L36.8473 40.9144C36.0545 40.0609 37.2363 38.8784 38.0903 39.6715L38.4102 39.9914L39.6715 38.7301C40.5254 37.937 41.7074 39.1195 40.9144 39.9731ZM40.9144 34.7953L39.0316 36.6781C38.7043 37.0185 38.1159 37.0186 37.7887 36.6781L36.8473 35.7367C36.0545 34.8831 37.2363 33.7007 38.0903 34.4937L38.4102 34.8137L39.6715 33.5524C40.5254 32.7592 41.7074 33.9417 40.9144 34.7953ZM48.7656 51.998H44.0586C42.8953 51.9555 42.8932 50.2836 44.0586 50.2402H48.7656C49.251 50.2402 49.6446 50.6337 49.6446 51.1191C49.6446 51.6045 49.251 51.998 48.7656 51.998ZM48.7656 46.8203H44.0586C42.8953 46.7779 42.8932 45.1059 44.0586 45.0625H48.7656C49.251 45.0625 49.6446 45.456 49.6446 45.9414C49.6446 46.4268 49.251 46.8203 48.7656 46.8203ZM48.7656 41.6426H44.0586C42.8953 41.6001 42.8932 39.9281 44.0586 39.8848H48.7656C49.251 39.8848 49.6446 40.2783 49.6446 40.7637C49.6446 41.2491 49.251 41.6426 48.7656 41.6426ZM48.7656 36.4648H44.0586C42.8953 36.4223 42.8932 34.7504 44.0586 34.707H48.7656C49.251 34.707 49.6446 35.1005 49.6446 35.5859C49.6446 36.0713 49.251 36.4648 48.7656 36.4648Z" fill="#F37329"/>
<defs>
<filter id="filter0_d_1632_3975" x="0" y="0" width="90" height="90" filterUnits="userSpaceOnUse" color-interpolation-filters="sRGB">
<feFlood flood-opacity="0" result="BackgroundImageFix"/>
<feColorMatrix in="SourceAlpha" type="matrix" values="0 0 0 0 0 0 0 0 0 0 0 0 0 0 0 0 0 0 127 0" result="hardAlpha"/>
<feOffset/>
<feGaussianBlur stdDeviation="2.5"/>
<feComposite in2="hardAlpha" operator="out"/>
<feColorMatrix type="matrix" values="0 0 0 0 0 0 0 0 0 0 0 0 0 0 0 0 0 0 0.2 0"/>
<feBlend mode="normal" in2="BackgroundImageFix" result="effect1_dropShadow_1632_3975"/>
<feBlend mode="normal" in="SourceGraphic" in2="effect1_dropShadow_1632_3975" result="shape"/>
</filter>
<filter id="filter1_d_1632_3975" x="13.7637" y="0" width="65.5962" height="29.5659" filterUnits="userSpaceOnUse" color-interpolation-filters="sRGB">
<feFlood flood-opacity="0" result="BackgroundImageFix"/>
<feColorMatrix in="SourceAlpha" type="matrix" values="0 0 0 0 0 0 0 0 0 0 0 0 0 0 0 0 0 0 127 0" result="hardAlpha"/>
<feOffset/>
<feGaussianBlur stdDeviation="2.5"/>
<feComposite in2="hardAlpha" operator="out"/>
<feColorMatrix type="matrix" values="0 0 0 0 0 0 0 0 0 0 0 0 0 0 0 0 0 0 0.2 0"/>
<feBlend mode="normal" in2="BackgroundImageFix" result="effect1_dropShadow_1632_3975"/>
<feBlend mode="normal" in="SourceGraphic" in2="effect1_dropShadow_1632_3975" result="shape"/>
</filter>
<filter id="filter2_d_1632_3975" x="11.249" y="60.9182" width="65.6499" height="29.0818" filterUnits="userSpaceOnUse" color-interpolation-filters="sRGB">
<feFlood flood-opacity="0" result="BackgroundImageFix"/>
<feColorMatrix in="SourceAlpha" type="matrix" values="0 0 0 0 0 0 0 0 0 0 0 0 0 0 0 0 0 0 127 0" result="hardAlpha"/>
<feOffset/>
<feGaussianBlur stdDeviation="2.5"/>
<feComposite in2="hardAlpha" operator="out"/>
<feColorMatrix type="matrix" values="0 0 0 0 0 0 0 0 0 0 0 0 0 0 0 0 0 0 0.2 0"/>
<feBlend mode="normal" in2="BackgroundImageFix" result="effect1_dropShadow_1632_3975"/>
<feBlend mode="normal" in="SourceGraphic" in2="effect1_dropShadow_1632_3975" result="shape"/>
</filter>
<filter id="filter3_d_1632_3975" x="10" y="10" width="70" height="70" filterUnits="userSpaceOnUse" color-interpolation-filters="sRGB">
<feFlood flood-opacity="0" result="BackgroundImageFix"/>
<feColorMatrix in="SourceAlpha" type="matrix" values="0 0 0 0 0 0 0 0 0 0 0 0 0 0 0 0 0 0 127 0" result="hardAlpha"/>
<feOffset/>
<feGaussianBlur stdDeviation="2.5"/>
<feComposite in2="hardAlpha" operator="out"/>
<feColorMatrix type="matrix" values="0 0 0 0 0 0 0 0 0 0 0 0 0 0 0 0 0 0 0.2 0"/>
<feBlend mode="normal" in2="BackgroundImageFix" result="effect1_dropShadow_1632_3975"/>
<feBlend mode="normal" in="SourceGraphic" in2="effect1_dropShadow_1632_3975" result="shape"/>
</filter>
</defs>
</svg>
