<svg width="30" height="30" viewBox="0 0 30 30" fill="none" xmlns="http://www.w3.org/2000/svg">
<path d="M26.2969 3.76562H25.1679V25.3555C25.1679 26.8094 23.9851 27.9922 22.5312 27.9922H6.58984V29.1211C6.58984 29.6065 6.98336 30 7.46875 30H26.2969C26.7822 30 27.1758 29.6065 27.1758 29.1211V4.64453C27.1758 4.15908 26.7822 3.76562 26.2969 3.76562Z" fill="#F37329"/>
<path d="M23.4101 25.3554V0.878906C23.4101 0.393516 23.0166 0 22.5312 0H3.70312C3.21773 0 2.82422 0.393516 2.82422 0.878906V25.3554C2.82422 25.8408 3.21773 26.2344 3.70312 26.2344H22.5312C23.0166 26.2344 23.4101 25.8409 23.4101 25.3554ZM10.9144 20.3285L9.03164 22.2113C8.70434 22.5517 8.11594 22.5518 7.78869 22.2113L6.84732 21.2699C6.05449 20.4163 7.23627 19.2339 8.09033 20.0269L8.4102 20.3469L9.67154 19.0856C10.5254 18.2924 11.7074 19.4749 10.9144 20.3285ZM10.9144 15.1508L9.03164 17.0336C8.70434 17.374 8.11594 17.374 7.78869 17.0336L6.84732 16.0921C6.05449 15.2386 7.23627 14.0561 8.09033 14.8492L8.4102 15.1691L9.67154 13.9078C10.5254 13.1147 11.7074 14.2972 10.9144 15.1508ZM10.9144 9.97307L9.03164 11.8559C8.70434 12.1962 8.11594 12.1963 7.78869 11.8559L6.84732 10.9144C6.05449 10.0609 7.23627 8.87842 8.09033 9.67148L8.4102 9.99141L9.67154 8.73012C10.5254 7.93699 11.7074 9.11947 10.9144 9.97307ZM10.9144 4.79531L9.03164 6.67811C8.70434 7.01854 8.11594 7.01859 7.78869 6.67811L6.84732 5.73668C6.05449 4.88314 7.23627 3.70066 8.09033 4.49373L8.4102 4.81365L9.67154 3.55236C10.5254 2.75924 11.7074 3.94172 10.9144 4.79531ZM18.7656 21.998H14.0586C12.8953 21.9555 12.8932 20.2836 14.0586 20.2402H18.7656C19.251 20.2402 19.6446 20.6337 19.6446 21.1191C19.6446 21.6045 19.251 21.998 18.7656 21.998ZM18.7656 16.8203H14.0586C12.8953 16.7779 12.8932 15.1059 14.0586 15.0625H18.7656C19.251 15.0625 19.6446 15.456 19.6446 15.9414C19.6446 16.4268 19.251 16.8203 18.7656 16.8203ZM18.7656 11.6426H14.0586C12.8953 11.6001 12.8932 9.92812 14.0586 9.88477H18.7656C19.251 9.88477 19.6446 10.2783 19.6446 10.7637C19.6446 11.2491 19.251 11.6426 18.7656 11.6426ZM18.7656 6.46482H14.0586C12.8953 6.42234 12.8932 4.75037 14.0586 4.70701H18.7656C19.251 4.70701 19.6446 5.10053 19.6446 5.58592C19.6446 6.07131 19.251 6.46482 18.7656 6.46482Z" fill="#F37329"/>
</svg>
