<svg width="30" height="30" viewBox="0 0 30 30" fill="none" xmlns="http://www.w3.org/2000/svg">
<path d="M18.1817 26.4092C18.1362 26.591 17.9998 26.7274 17.818 26.7274L16.1362 27.0456L15.4544 28.6365C15.3635 28.7728 15.2271 28.9092 15.0453 28.9092C14.8635 28.9092 14.7271 28.8183 14.6362 28.6819L13.818 27.1819L12.1362 27.0001C11.9544 27.0001 11.818 26.8637 11.7726 26.7274C11.7271 26.5456 11.7726 26.3637 11.8635 26.2728L13.0453 25.0456L12.6817 23.3637C12.6362 23.1819 12.6817 23.0001 12.8635 22.9092C12.9998 22.8183 13.1817 22.7728 13.318 22.8637L14.8635 23.591L16.318 22.7274C16.4544 22.6365 16.6362 22.6365 16.818 22.7274C16.9998 22.8183 17.0453 23.0001 16.9998 23.1819L16.7726 24.8637L18.0453 26.0001C18.1362 26.0456 18.1817 26.2728 18.1817 26.4092ZM6.5453 19.7728L4.86348 20.091L4.18166 21.6365C4.13621 21.7728 3.95439 21.9092 3.77257 21.9092C3.59075 21.9092 3.45439 21.8183 3.36348 21.6819L2.5453 20.1819L0.863478 20.0001C0.68166 20.0001 0.545296 19.8637 0.499842 19.6819C0.454387 19.5001 0.499842 19.3183 0.590751 19.2274L1.77257 18.0001L1.36348 16.3637C1.31802 16.1819 1.40893 16.0001 1.5453 15.9092C1.68166 15.8183 1.86348 15.7728 1.99984 15.8637L3.5453 16.591L4.99984 15.7274C5.13621 15.6365 5.31802 15.6365 5.49984 15.7274C5.63621 15.8183 5.72711 16.0001 5.68166 16.1819L5.45439 17.8637L6.72711 19.0001C6.86348 19.091 6.90893 19.3183 6.86348 19.4547C6.86348 19.6365 6.72711 19.7728 6.5453 19.7728ZM5.18166 5.4092C5.0453 5.27284 4.99984 5.09102 5.09075 4.95466C5.13621 4.77284 5.27257 4.68193 5.45439 4.68193L7.13621 4.50011L7.95439 3.00011C8.0453 2.86375 8.18166 2.77284 8.36348 2.77284C8.5453 2.77284 8.68166 2.86375 8.77257 3.04557L9.45439 4.59102L11.1362 4.9092C11.318 4.95466 11.4544 5.09102 11.4998 5.22738C11.5453 5.4092 11.4998 5.59102 11.3635 5.68193L10.0908 6.81829L10.318 8.50011C10.318 8.68193 10.2726 8.86375 10.1362 8.95466C10.0453 9.00011 9.95439 9.04557 9.86348 9.04557C9.77257 9.04557 9.72712 9.04557 9.63621 9.00011L8.18166 8.13647L6.63621 8.86375C6.45439 8.95466 6.27257 8.9092 6.13621 8.81829C5.99984 8.72738 5.95439 8.54557 5.95439 8.36375L6.31802 6.72738L5.18166 5.4092ZM0.590751 10.7274C0.454387 10.591 0.454387 10.4092 0.499842 10.2728C0.545296 10.091 0.727114 10.0001 0.863478 10.0001L2.5453 9.81829L3.36348 8.31829C3.45439 8.18193 3.59075 8.09102 3.77257 8.09102C3.95439 8.09102 4.09075 8.18193 4.18166 8.36375L4.86348 9.9092L6.5453 10.2274C6.72711 10.2728 6.86348 10.4092 6.90893 10.5456C6.95439 10.7274 6.90893 10.9092 6.77257 11.0001L5.49984 12.1365L5.72711 13.8183C5.77257 14.0001 5.68166 14.1819 5.5453 14.2728C5.45439 14.3183 5.36348 14.3637 5.27257 14.3637C5.18166 14.3637 5.09075 14.3637 5.0453 14.3183L3.59075 13.4547L2.0453 14.1819C1.90893 14.2728 1.68166 14.2274 1.59075 14.1365C1.40893 13.9547 1.36348 13.7728 1.36348 13.6365L1.72711 12.0001L0.590751 10.7274ZM11.3635 24.3183C11.4998 24.4547 11.5453 24.6365 11.4998 24.7728C11.4544 24.9547 11.318 25.0456 11.1362 25.091L9.45439 25.4092L8.77257 26.9547C8.72711 27.091 8.5453 27.2274 8.36348 27.2274C8.18166 27.2274 8.0453 27.1365 7.95439 27.0001L7.13621 25.5001L5.45439 25.3183C5.27257 25.3183 5.13621 25.1819 5.09075 25.0001C5.0453 24.8637 5.0453 24.6365 5.18166 24.5456L6.36348 23.3183L5.99984 21.6365C5.95439 21.4547 6.0453 21.2728 6.18166 21.1819C6.31802 21.091 6.49984 21.0456 6.68166 21.1365L8.22712 21.8637L9.68166 21.0001C9.81802 20.9092 9.99984 20.9092 10.1817 21.0001C10.318 21.091 10.4089 21.2728 10.3635 21.4547L10.0908 23.1819L11.3635 24.3183ZM24.8635 24.3183C24.9998 24.4547 25.0453 24.6365 24.9998 24.7728C24.9544 24.9547 24.818 25.0456 24.6362 25.091L22.9544 25.4092L22.2726 26.9547C22.1817 27.091 22.0453 27.2274 21.8635 27.2274C21.6817 27.2274 21.5453 27.1365 21.4544 27.0001L20.6362 25.5001L18.9544 25.3183C18.7726 25.3183 18.6362 25.1819 18.5908 25.0001C18.5453 24.8637 18.5908 24.6365 18.6817 24.5456L19.8635 23.3183L19.4998 21.6365C19.4544 21.4547 19.5453 21.2728 19.6817 21.1819C19.818 21.091 19.9998 21.0456 20.1362 21.1365L21.6817 21.8637L23.1362 21.0001C23.2726 20.9092 23.4544 20.9092 23.5908 21.0001C23.7271 21.091 23.818 21.2728 23.7726 21.4547L23.5908 23.1819L24.8635 24.3183ZM23.4998 9.95466L25.1817 9.77284L25.9998 8.27284C26.0908 8.13648 26.2271 8.04557 26.4089 8.04557C26.5908 8.04557 26.7271 8.13647 26.818 8.31829L27.4998 9.86375L29.1817 10.1819C29.3635 10.2274 29.4998 10.3637 29.5453 10.5001C29.5908 10.6819 29.5453 10.8637 29.4089 10.9547L28.1362 12.091L28.3635 13.7728C28.3635 13.9547 28.318 14.1365 28.1817 14.2274C28.0908 14.2728 27.9998 14.3183 27.9544 14.3183C27.8635 14.3183 27.818 14.3183 27.7271 14.2728L26.2726 13.4092L24.7271 14.1365C24.5908 14.2274 24.3635 14.1819 24.2726 14.091C24.1362 14.0001 24.0908 13.8183 24.1362 13.6365L24.4998 12.0001L23.1817 10.7274C23.0453 10.591 23.0453 10.4092 23.0908 10.2728C23.1817 10.091 23.318 10.0001 23.4998 9.95466ZM18.6362 5.4092C18.4998 5.27284 18.4998 5.09102 18.5453 4.95466C18.5908 4.77284 18.7726 4.68193 18.9089 4.68193L20.5908 4.50011L21.4089 3.00011C21.4998 2.86375 21.6362 2.77284 21.818 2.77284C21.9998 2.77284 22.1362 2.86375 22.2271 3.04557L22.9089 4.59102L24.5908 4.9092C24.7726 4.95466 24.9089 5.09102 24.9544 5.22738C24.9998 5.4092 24.9544 5.59102 24.818 5.68193L23.5908 6.81829L23.818 8.50011C23.818 8.68193 23.7726 8.86375 23.6362 8.95466C23.5453 9.00011 23.4544 9.04557 23.4089 9.04557C23.318 9.04557 23.2726 9.04557 23.1817 9.00011L21.7271 8.13647L20.1817 8.86375C20.0453 8.95466 19.818 8.9092 19.7271 8.81829C19.5908 8.72738 19.5453 8.54557 19.5453 8.36375L19.9089 6.72738L18.6362 5.4092ZM29.4089 19.0001C29.5453 19.091 29.5908 19.3183 29.5453 19.4547C29.4998 19.6365 29.3635 19.7728 29.1817 19.7728L27.4998 20.091L26.818 21.6819C26.7271 21.8183 26.5908 21.9547 26.4089 21.9547C26.2271 21.9547 26.0908 21.8637 25.9998 21.7274L25.1817 20.2274L23.4998 20.0456C23.318 20.0456 23.1817 19.9092 23.1362 19.7274C23.0908 19.5456 23.1362 19.3637 23.2271 19.2728L24.4089 18.0456L23.9998 16.3637C23.9544 16.1819 24.0453 16.0001 24.1362 15.9092C24.2726 15.8183 24.4544 15.7728 24.5908 15.8637L26.1362 16.591L27.5908 15.7274C27.7271 15.6365 27.9089 15.6365 28.0453 15.7274C28.1817 15.8183 28.2726 16.0001 28.2271 16.1819L27.9998 17.8637L29.4089 19.0001ZM18.0453 4.04557L16.7726 5.18193L16.9998 6.86375C16.9998 7.04557 16.9544 7.22738 16.818 7.31829C16.7271 7.36375 16.6362 7.4092 16.5908 7.4092C16.4998 7.4092 16.4544 7.4092 16.3635 7.36375L14.9089 6.50011L13.3635 7.22738C13.1817 7.31829 12.9998 7.27284 12.9089 7.18193C12.818 7.09102 12.7271 6.9092 12.7271 6.72738L13.0908 5.09102L11.818 3.77284C11.6817 3.63647 11.6817 3.45466 11.7271 3.31829C11.7726 3.13647 11.9544 3.04557 12.0908 3.04557L13.7726 2.86375L14.6362 1.36375C14.7271 1.22738 14.8635 1.13647 15.0453 1.13647C15.2271 1.13647 15.3635 1.22738 15.4544 1.4092L16.1362 2.95466L17.818 3.27284C17.9998 3.31829 18.1362 3.4092 18.1817 3.59102C18.1817 3.72738 18.1362 3.9092 18.0453 4.04557ZM14.9089 8.68193C11.318 8.68193 8.40893 11.591 8.40893 15.1819C8.40893 18.7728 11.318 21.6819 14.9089 21.6819C18.4998 21.6819 21.4089 18.7728 21.4089 15.1819C21.4089 11.591 18.4998 8.68193 14.9089 8.68193ZM14.9089 20.8183C11.818 20.8183 9.31802 18.3183 9.31802 15.2274C9.31802 12.1365 11.818 9.59102 14.9089 9.59102C17.9998 9.59102 20.4998 12.091 20.4998 15.1819C20.4998 18.2728 17.9998 20.8183 14.9089 20.8183Z" fill="#F37329"/>
<path d="M17.682 12.682L13.6365 16.7275L12.0911 15.182C11.9093 15.0002 11.6365 15.0002 11.4547 15.182C11.2729 15.3638 11.2729 15.6366 11.4547 15.8184L13.3184 17.682C13.4093 17.7729 13.5456 17.8184 13.6365 17.8184C13.7275 17.8184 13.8638 17.7729 13.9547 17.682L18.3184 13.3184C18.5002 13.1366 18.5002 12.8638 18.3184 12.682C18.1365 12.5002 17.8638 12.5002 17.682 12.682Z" fill="#F37329"/>
</svg>
