<svg width="30" height="30" viewBox="0 0 30 30" fill="none" xmlns="http://www.w3.org/2000/svg">
<path fillRule="evenodd" clipRule="evenodd" d="M24.4447 23.602V19.0397L21.4424 22.042L19.1283 22.8764C18.9013 22.9582 18.6557 22.9738 18.4202 22.9212C18.1847 22.8686 17.969 22.7501 17.7984 22.5795C17.6278 22.4088 17.5092 22.1932 17.4567 21.9577C17.4041 21.7222 17.4196 21.4766 17.5015 21.2496L17.5968 20.9853C17.5166 21.0443 17.4198 21.0761 17.3203 21.0761H13.7799C13.6556 21.0761 13.5364 21.0267 13.4484 20.9388C13.3605 20.8509 13.3112 20.7317 13.3112 20.6073C13.3112 20.483 13.3605 20.3638 13.4484 20.2759C13.5364 20.188 13.6556 20.1386 13.7799 20.1386H17.3203C17.4247 20.1386 17.526 20.1734 17.6084 20.2375C17.6907 20.3016 17.7493 20.3914 17.7748 20.4926L18.2823 19.0853H13.7799C13.6556 19.0853 13.5364 19.0359 13.4484 18.948C13.3605 18.8601 13.3112 18.7408 13.3112 18.6165C13.3112 18.4922 13.3605 18.373 13.4484 18.285C13.5364 18.1971 13.6556 18.1478 13.7799 18.1478H19.1237L24.4444 12.827V3.59002C24.4427 3.12901 24.2588 2.68737 23.9328 2.36138C23.6069 2.03539 23.1652 1.8515 22.7042 1.84979H4.29949C4.71647 2.33368 4.94578 2.95125 4.94566 3.59002V26.4098C4.94566 26.8714 5.12903 27.3141 5.45543 27.6405C5.78182 27.9669 6.22451 28.1503 6.6861 28.1503C7.1477 28.1503 7.59038 27.9669 7.91678 27.6405C8.24318 27.3141 8.42654 26.8714 8.42654 26.4098V24.0707C8.42654 23.9464 8.47593 23.8272 8.56384 23.7392C8.65174 23.6513 8.77097 23.602 8.89529 23.602H24.4447ZM19.4774 19.1198L26.2781 12.3193L28.0587 14.0999L21.2578 20.9003L19.4771 19.1196L19.4774 19.1198ZM26.9409 11.6564L28.7215 13.4371L29.3055 12.853C29.4126 12.7456 29.4727 12.6001 29.4727 12.4485C29.4727 12.2968 29.4126 12.1513 29.3055 12.0439L28.3341 11.0724C28.2267 10.9654 28.0812 10.9053 27.9295 10.9053C27.7779 10.9053 27.6324 10.9654 27.5249 11.0724L26.9409 11.6564ZM20.4391 21.4072L18.8102 21.9945C18.7506 22.016 18.6862 22.02 18.6244 22.0062C18.5626 21.9924 18.506 21.9613 18.4612 21.9165C18.4164 21.8718 18.3853 21.8152 18.3715 21.7534C18.3577 21.6916 18.3618 21.6271 18.3833 21.5676L18.9706 19.9387L20.439 21.4071L20.4391 21.4072ZM25.9375 28.1502H8.71787C9.13483 27.6663 9.36413 27.0488 9.36404 26.41V24.5395H27.6779V26.4098C27.6762 26.8708 27.4923 27.3125 27.1663 27.6385C26.8403 27.9645 26.3987 28.1483 25.9377 28.1501L25.9375 28.1502ZM2.26758 1.84961C1.80654 1.85132 1.36487 2.03524 1.03888 2.36127C0.712886 2.68729 0.529011 3.12898 0.527344 3.59002V5.46039H4.00816V3.59002C4.00645 3.12901 3.82255 2.68737 3.49657 2.36138C3.17058 2.03539 2.72894 1.8515 2.26793 1.84979L2.26758 1.84961ZM11.0918 18.332C11.1792 18.2441 11.298 18.1946 11.4219 18.1942C11.5459 18.1939 11.6649 18.2428 11.7528 18.3302C11.8407 18.4176 11.8903 18.5364 11.8906 18.6603C11.891 18.7843 11.8421 18.9033 11.7547 18.9912L9.87217 20.8913C9.78539 20.9786 9.6677 21.0281 9.54464 21.0291C9.42158 21.0302 9.30308 20.9826 9.21486 20.8968L8.16475 19.8733C8.07607 19.7868 8.02534 19.6687 8.02371 19.5448C8.02207 19.4209 8.06966 19.3015 8.15603 19.2127C8.24239 19.1239 8.36047 19.073 8.48433 19.0712C8.60818 19.0694 8.72769 19.1168 8.8166 19.2031L9.53502 19.9034L11.0918 18.332V18.332ZM11.0918 4.71215C11.1792 4.62425 11.298 4.57467 11.4219 4.57432C11.5459 4.57398 11.6649 4.62289 11.7528 4.7103C11.8407 4.79772 11.8903 4.91647 11.8906 5.04043C11.891 5.1644 11.8421 5.28343 11.7547 5.37133L9.87223 7.27141C9.78545 7.35866 9.66775 7.40818 9.54469 7.4092C9.42163 7.41022 9.30314 7.36266 9.21492 7.27686L8.1648 6.25328C8.12012 6.21064 8.08433 6.15957 8.0595 6.10301C8.03467 6.04646 8.02129 5.98555 8.02014 5.92379C8.01899 5.86204 8.03009 5.80067 8.0528 5.74323C8.07551 5.68579 8.10937 5.63342 8.15244 5.58915C8.19551 5.54488 8.24692 5.50958 8.30371 5.48529C8.3605 5.461 8.42154 5.44821 8.4833 5.44765C8.54506 5.44709 8.60632 5.45878 8.66354 5.48203C8.72076 5.50529 8.7728 5.53966 8.81666 5.58314L9.53508 6.28346L11.0918 4.71215ZM11.0918 9.25211C11.1792 9.16421 11.298 9.11463 11.4219 9.11428C11.5459 9.11394 11.6649 9.16285 11.7528 9.25026C11.8407 9.33768 11.8903 9.45643 11.8906 9.58039C11.891 9.70436 11.8421 9.82339 11.7547 9.91129L9.87217 11.8114C9.78539 11.8987 9.6677 11.9482 9.54464 11.9492C9.42158 11.9502 9.30308 11.9027 9.21486 11.8169L8.16475 10.7933C8.12006 10.7507 8.08427 10.6996 8.05944 10.643C8.03461 10.5865 8.02124 10.5256 8.02009 10.4638C8.01894 10.4021 8.03004 10.3407 8.05274 10.2833C8.07545 10.2258 8.10932 10.1734 8.15238 10.1292C8.19545 10.0849 8.24686 10.0496 8.30365 10.0253C8.36044 10.001 8.42148 9.98823 8.48324 9.98767C8.545 9.98711 8.60626 9.9988 8.66348 10.0221C8.7207 10.0453 8.77274 10.0797 8.8166 10.1232L9.53502 10.8235L11.0918 9.25187V9.25211ZM11.0918 13.7921C11.1351 13.7485 11.1865 13.714 11.2432 13.6903C11.2998 13.6667 11.3605 13.6544 11.4219 13.6542C11.4833 13.6541 11.5441 13.666 11.6009 13.6893C11.6577 13.7127 11.7093 13.7469 11.7528 13.7902C11.7963 13.8335 11.8309 13.8849 11.8546 13.9416C11.8782 13.9982 11.8905 14.059 11.8906 14.1204C11.8908 14.1817 11.8789 14.2426 11.8556 14.2993C11.8322 14.3561 11.798 14.4077 11.7547 14.4513L9.87217 16.3514C9.78539 16.4386 9.6677 16.4882 9.54464 16.4892C9.42158 16.4902 9.30308 16.4426 9.21486 16.3568L8.16475 15.3333C8.12006 15.2906 8.08427 15.2396 8.05944 15.183C8.03461 15.1264 8.02124 15.0655 8.02009 15.0038C8.01894 14.942 8.03004 14.8807 8.05274 14.8232C8.07545 14.7658 8.10932 14.7134 8.15238 14.6691C8.19545 14.6249 8.24686 14.5896 8.30365 14.5653C8.36044 14.541 8.42148 14.5282 8.48324 14.5276C8.545 14.5271 8.60626 14.5388 8.66348 14.562C8.7207 14.5853 8.77274 14.6196 8.8166 14.6631L9.53508 15.3632L11.0918 13.792V13.7921ZM18.4922 11.0584C18.6165 11.0584 18.7357 11.1078 18.8236 11.1957C18.9116 11.2836 18.9609 11.4028 18.9609 11.5271C18.9609 11.6514 18.9116 11.7707 18.8236 11.8586C18.7357 11.9465 18.6165 11.9959 18.4922 11.9959H13.7799C13.6556 11.9959 13.5364 11.9465 13.4484 11.8586C13.3605 11.7707 13.3112 11.6514 13.3112 11.5271C13.3112 11.4028 13.3605 11.2836 13.4484 11.1957C13.5364 11.1078 13.6556 11.0584 13.7799 11.0584H18.4922ZM20.8604 9.06754C20.9847 9.06754 21.1039 9.11693 21.1918 9.20483C21.2797 9.29274 21.3291 9.41197 21.3291 9.53629C21.3291 9.66061 21.2797 9.77984 21.1918 9.86775C21.1039 9.95565 20.9847 10.005 20.8604 10.005H13.7799C13.6556 10.005 13.5364 9.95565 13.4484 9.86775C13.3605 9.77984 13.3112 9.66061 13.3112 9.53629C13.3112 9.41197 13.3605 9.29274 13.4484 9.20483C13.5364 9.11693 13.6556 9.06754 13.7799 9.06754H20.8604ZM18.4922 6.51871C18.6165 6.51871 18.7357 6.5681 18.8236 6.656C18.9116 6.74391 18.9609 6.86314 18.9609 6.98746C18.9609 7.11178 18.9116 7.23101 18.8236 7.31892C18.7357 7.40683 18.6165 7.45621 18.4922 7.45621H13.7799C13.6556 7.45621 13.5364 7.40683 13.4484 7.31892C13.3605 7.23101 13.3112 7.11178 13.3112 6.98746C13.3112 6.86314 13.3605 6.74391 13.4484 6.656C13.5364 6.5681 13.6556 6.51871 13.7799 6.51871H18.4922ZM20.8604 4.52787C20.9847 4.52787 21.1039 4.57726 21.1918 4.66516C21.2797 4.75307 21.3291 4.8723 21.3291 4.99662C21.3291 5.12094 21.2797 5.24017 21.1918 5.32808C21.1039 5.41599 20.9847 5.46537 20.8604 5.46537H13.7799C13.6556 5.46537 13.5364 5.41599 13.4484 5.32808C13.3605 5.24017 13.3112 5.12094 13.3112 4.99662C13.3112 4.8723 13.3605 4.75307 13.4484 4.66516C13.5364 4.57726 13.6556 4.52787 13.7799 4.52787H20.8604ZM18.4922 15.5983C18.6165 15.5983 18.7357 15.6477 18.8236 15.7356C18.9116 15.8235 18.9609 15.9428 18.9609 16.0671C18.9609 16.1914 18.9116 16.3106 18.8236 16.3985C18.7357 16.4865 18.6165 16.5358 18.4922 16.5358H13.7799C13.6556 16.5358 13.5364 16.4865 13.4484 16.3985C13.3605 16.3106 13.3112 16.1914 13.3112 16.0671C13.3112 15.9428 13.3605 15.8235 13.4484 15.7356C13.5364 15.6477 13.6556 15.5983 13.7799 15.5983H18.4922ZM20.8604 13.6076C20.9847 13.6076 21.1039 13.6569 21.1918 13.7449C21.2797 13.8328 21.3291 13.952 21.3291 14.0763C21.3291 14.2006 21.2797 14.3199 21.1918 14.4078C21.1039 14.4957 20.9847 14.5451 20.8604 14.5451H13.7799C13.6556 14.5451 13.5364 14.4957 13.4484 14.4078C13.3605 14.3199 13.3112 14.2006 13.3112 14.0763C13.3112 13.952 13.3605 13.8328 13.4484 13.7449C13.5364 13.6569 13.6556 13.6076 13.7799 13.6076H20.8604Z" fill="#F37329"/>
</svg>
