<svg width="60" height="60" viewBox="0 0 60 60" fill="none" xmlns="http://www.w3.org/2000/svg">
<path d="M22.0147 45.8044C20.4829 47.2026 18.4838 47.9778 16.4098 47.9778C14.3359 47.9778 12.3368 47.2026 10.805 45.8044C8.23249 47.2913 4.28374 51.6422 6.39686 54.7866C6.72051 55.2386 7.14712 55.6071 7.64139 55.8615C8.13567 56.116 8.68342 56.2492 9.23936 56.25H23.5709C24.1268 56.2493 24.6745 56.1163 25.1688 55.862C25.663 55.6076 26.0897 55.2393 26.4134 54.7875C28.5237 51.6469 24.574 47.2913 22.0147 45.8044Z" fill="#F37329"/>
<path d="M22.8159 39.7188C22.5244 31.2128 10.2647 31.2325 9.98438 39.7188C10.2666 48.1675 22.5066 48.2425 22.8159 39.7188ZM37.185 39.7188C37.4916 48.2378 49.7316 48.1731 50.0166 39.7188C49.7381 31.2363 37.4784 31.21 37.185 39.7188Z" fill="#F37329"/>
<path d="M49.2063 45.8044C47.676 47.206 45.6761 47.9835 43.601 47.9835C41.5258 47.9835 39.5259 47.206 37.9957 45.8044C35.4391 47.2913 31.4716 51.6441 33.5894 54.7866C33.9128 55.2382 34.3389 55.6064 34.8327 55.8609C35.3264 56.1153 35.8736 56.2487 36.4291 56.25H50.7616C51.3175 56.2493 51.8652 56.1163 52.3594 55.8619C52.8537 55.6076 53.2803 55.2393 53.6041 54.7875C55.7135 51.6431 51.7722 47.2931 49.2063 45.8044ZM26.9069 20.7188H33.7188L39.7572 25.5553C39.8947 25.6621 40.0592 25.7283 40.2322 25.7467C40.4053 25.7651 40.5801 25.7348 40.7369 25.6594C40.8937 25.5839 41.0263 25.4662 41.1199 25.3194C41.2135 25.1727 41.2643 25.0028 41.2666 24.8287V20.7188H43.6994C44.3908 20.7168 45.0532 20.4413 45.5421 19.9524C46.031 19.4635 46.3065 18.801 46.3085 18.1097V6.35906C46.308 5.66725 46.0329 5.00391 45.5437 4.51473C45.0546 4.02554 44.3912 3.7505 43.6994 3.75H26.9069C26.2151 3.7505 25.5518 4.02554 25.0626 4.51473C24.5734 5.00391 24.2983 5.66725 24.2979 6.35906V18.1097C24.2998 18.801 24.5753 19.4635 25.0642 19.9524C25.5531 20.4413 26.2156 20.7168 26.9069 20.7188Z" fill="#F37329"/>
<path d="M22.4346 18.1097V12.2297H16.0409C15.4183 12.2304 14.8215 12.4781 14.3814 12.9184C13.9413 13.3587 13.6939 13.9556 13.6934 14.5781V24.465C13.6939 25.0877 13.9414 25.6847 14.3817 26.125C14.8221 26.5653 15.4191 26.8129 16.0418 26.8134H17.9337V30.1303C17.9373 30.3048 17.9892 30.4749 18.0838 30.6217C18.1783 30.7684 18.3117 30.886 18.4692 30.9614C18.6266 31.0369 18.8019 31.0671 18.9755 31.0488C19.1491 31.0305 19.3142 30.9644 19.4524 30.8578L24.4934 26.8134H30.1774C30.8001 26.8129 31.3972 26.5653 31.8375 26.125C32.2778 25.6847 32.5254 25.0877 32.5259 24.465V22.5825H26.9065C25.7205 22.582 24.5832 22.1106 23.7446 21.2718C22.9061 20.4331 22.4349 19.2957 22.4346 18.1097Z" fill="#F37329"/>
</svg>
