<svg width="60" height="60" viewBox="0 0 60 60" fill="none" xmlns="http://www.w3.org/2000/svg">
<path d="M23.5318 22.4306L30 19.0299L36.4682 22.4306L35.2322 15.2277L40.4645 10.1276L33.2341 9.07709L30 2.52643L26.7659 9.07709L19.5355 10.1276L24.7678 15.2277L23.5318 22.4306ZM2.43809 22.4306L8.90625 19.0299L15.3744 22.4306L14.1384 15.2277L19.3707 10.1276L12.1404 9.07709L8.90625 2.52643L5.67211 9.07709L0 10.1276L3.67406 15.2277L2.43809 22.4306ZM44.6256 22.4306L51.0938 19.0299L57.5619 22.4306L56.3259 15.2277L60 10.1276L54.3279 9.07709L51.0938 2.52643L47.8596 9.07709L40.6293 10.1276L45.8616 15.2277L44.6256 22.4306ZM50.2211 38.2283L50.2148 38.2319C48.3641 39.2982 46.3241 39.8372 44.2779 39.8735C47.0842 39.7576 49.3359 37.456 49.3359 34.622C49.3359 31.7141 46.9704 29.3485 44.0625 29.3485C41.1546 29.3485 38.7891 31.7141 38.7891 34.622C38.7891 37.4562 41.0408 39.7576 43.8471 39.8735C41.8009 39.8373 39.7609 39.2982 37.9102 38.2319L37.9039 38.2283C34.1121 36.048 31.7578 31.9721 31.7578 27.5907H28.2422C28.2422 31.9721 25.8879 36.048 22.0961 38.2284L22.0898 38.2321C20.2391 39.2983 18.1991 39.8373 16.1529 39.8736C18.9592 39.7576 21.2109 37.456 21.2109 34.622C21.2109 31.7141 18.8454 29.3485 15.9375 29.3485C13.0296 29.3485 10.6641 31.7141 10.6641 34.622C10.6641 37.4562 12.9158 39.7576 15.7221 39.8735C13.6759 39.8373 11.6359 39.2982 9.78516 38.2319L9.77894 38.2283C5.98711 36.048 3.51562 31.9721 3.51562 27.5907H0C0 32.8711 2.79938 37.7795 7.14844 40.6899V57.4735H24.7266V40.6899C26.9891 39.1759 28.7887 37.126 30 34.7524C31.2113 37.126 33.0109 39.1759 35.2734 40.6899V57.4735H52.8516V40.6899C57.2006 37.7795 60 32.871 60 27.5907H56.4844C56.4844 31.9721 54.0129 36.048 50.2211 38.2283Z" fill="#F37329"/>
</svg>
