<svg width="60" height="60" viewBox="0 0 60 60" fill="none" xmlns="http://www.w3.org/2000/svg">
<path d="M58.9453 46.1619H57.8957V8.84027C57.8957 6.96398 56.3693 5.4375 54.493 5.4375H5.50688C3.6307 5.4375 2.10422 6.96398 2.10422 8.84027V46.1619H1.05469C0.806047 46.1619 0.56759 46.2607 0.391775 46.4365C0.21596 46.6123 0.117188 46.8508 0.117188 47.0994V50.0807C0.117188 52.552 2.12766 54.5625 4.59891 54.5625H55.401C57.8722 54.5625 59.8828 52.552 59.8828 50.0807V47.0994C59.8828 46.8508 59.784 46.6123 59.6082 46.4365C59.4324 46.2607 59.194 46.1619 58.9453 46.1619ZM52.5122 10.821V42.6533H7.4877V10.821H52.5121H52.5122ZM58.0078 50.0807C58.0078 51.5181 56.8384 52.6875 55.401 52.6875H4.59891C3.16148 52.6875 1.99219 51.5181 1.99219 50.0807V48.0369H20.2242V50.0542C20.2242 50.3028 20.323 50.5413 20.4988 50.7171C20.6746 50.8929 20.9131 50.9917 21.1617 50.9917H38.8382C39.0868 50.9917 39.3253 50.8929 39.5011 50.7171C39.6769 50.5413 39.7757 50.3028 39.7757 50.0542V48.0369H58.0078V50.0807ZM33.5645 19.1986C33.0399 18.9128 32.4865 18.6833 31.9136 18.514V18.0349C31.9136 17.3558 31.361 16.8033 30.6819 16.8033H28.2676C27.5885 16.8033 27.036 17.3558 27.036 18.0349V18.5141C26.463 18.6833 25.9096 18.9127 25.3849 19.1985L25.0458 18.8592C24.5657 18.3793 23.7844 18.3791 23.3039 18.8592L21.5968 20.5663C21.1166 21.0466 21.1166 21.8279 21.5968 22.3082L21.936 22.6473C21.6502 23.172 21.4208 23.7254 21.2515 24.2984H20.7725C20.0934 24.2984 19.5409 24.8509 19.5409 25.5301V27.9444C19.5409 28.6235 20.0934 29.1761 20.7725 29.1761H21.2515C21.4207 29.749 21.6501 30.3025 21.9359 30.8272L21.597 31.1661C21.3643 31.3985 21.2362 31.708 21.2362 32.0372C21.2362 32.3664 21.3643 32.6759 21.5967 32.9081L23.304 34.6155C23.7843 35.0957 24.5655 35.0953 25.0457 34.6155L25.3848 34.2763C25.9095 34.5621 26.4629 34.7915 27.0359 34.9608V35.4397C27.0359 36.1189 27.5884 36.6715 28.2675 36.6715H30.6818C31.3609 36.6715 31.9134 36.1189 31.9134 35.4397V34.9608C32.4864 34.7916 33.0399 34.5621 33.5645 34.2763L33.9035 34.6154C34.3836 35.0955 35.1652 35.0958 35.6454 34.6154L37.3525 32.9084C37.8327 32.428 37.8327 31.6467 37.3525 31.1665L37.0133 30.8273C37.2991 30.3027 37.5285 29.7492 37.6977 29.1763H38.1768C38.8559 29.1763 39.4085 28.6238 39.4085 27.9446V25.5303C39.4085 24.8511 38.856 24.2986 38.1768 24.2986H37.6977C37.5284 23.7257 37.299 23.1723 37.0133 22.6477L37.3528 22.3083C37.8325 21.828 37.8325 21.0469 37.3526 20.5669L35.6454 18.8596C35.1653 18.3797 34.384 18.3793 33.9035 18.8596L33.5644 19.1988L33.5645 19.1986ZM34.7482 27.5971L32.9013 29.3314C32.7277 29.4949 32.4982 29.5857 32.2597 29.5855C32.0718 29.5856 31.8882 29.5291 31.7327 29.4235C31.5772 29.3179 31.4571 29.168 31.3879 28.9932C31.3187 28.8185 31.3036 28.6269 31.3446 28.4435C31.3856 28.2601 31.4808 28.0932 31.6178 27.9646L32.7904 26.8635L31.705 25.6763C31.5372 25.4927 31.4492 25.2501 31.4604 25.0017C31.4715 24.7533 31.5808 24.5195 31.7643 24.3517C31.9478 24.1839 32.1904 24.096 32.4388 24.1071C32.6871 24.1182 32.9209 24.2275 33.0887 24.411L34.7984 26.2809C34.9647 26.4628 35.0527 26.7029 35.0433 26.9492C35.0339 27.1955 34.9279 27.4282 34.7482 27.597V27.5971ZM28.7179 30.1236C28.571 30.1237 28.4262 30.0892 28.2951 30.023C28.164 29.9569 28.0503 29.8608 27.9631 29.7426C27.8759 29.6244 27.8177 29.4874 27.7932 29.3426C27.7687 29.1978 27.7785 29.0493 27.822 28.909L29.3361 24.0115C29.4891 23.5168 30.0138 23.2393 30.5087 23.3929C30.7463 23.4663 30.9449 23.6311 31.0609 23.851C31.177 24.0709 31.2009 24.3279 31.1275 24.5654L29.6133 29.4629C29.5541 29.6542 29.4353 29.8216 29.2742 29.9405C29.113 30.0594 28.9181 30.1236 28.7179 30.1238V30.1236ZM24.2011 25.8777L26.048 24.1431C26.1374 24.0573 26.243 23.99 26.3586 23.9453C26.4742 23.9005 26.5975 23.8791 26.7214 23.8823C26.8454 23.8855 26.9674 23.9133 27.0805 23.964C27.1936 24.0147 27.2956 24.0873 27.3804 24.1777C27.4653 24.2681 27.5314 24.3743 27.5749 24.4904C27.6184 24.6065 27.6385 24.73 27.634 24.8539C27.6294 24.9778 27.6003 25.0995 27.5484 25.2121C27.4965 25.3247 27.4228 25.4258 27.3315 25.5097L26.1589 26.6109L27.2445 27.798C27.4097 27.9819 27.4956 28.2237 27.4835 28.4706C27.4714 28.7175 27.3622 28.9496 27.1798 29.1165C26.9973 29.2833 26.7564 29.3713 26.5094 29.3614C26.2623 29.3514 26.0292 29.2443 25.8608 29.0633L24.1511 27.1936C23.9847 27.0117 23.8967 26.7717 23.9061 26.5254C23.9155 26.2791 24.0214 26.0464 24.2011 25.8777ZM17.9903 19.073C19.1723 17.2985 20.7139 15.8548 22.5723 14.7819C25.2278 13.2487 28.2637 12.652 31.2636 13.0487L31.1093 12.8249C31.0375 12.7236 30.9866 12.6091 30.9594 12.488C30.9323 12.3669 30.9294 12.2415 30.9511 12.1193C30.9727 11.9971 31.0184 11.8804 31.0856 11.776C31.1527 11.6716 31.2398 11.5815 31.342 11.511C31.4442 11.4406 31.5594 11.3911 31.6808 11.3655C31.8023 11.3399 31.9276 11.3387 32.0496 11.3619C32.1715 11.3851 32.2876 11.4323 32.3911 11.5007C32.4947 11.5692 32.5836 11.6575 32.6528 11.7606L34.1483 13.9294C34.2253 14.0411 34.2772 14.1683 34.3003 14.302C34.3233 14.4358 34.3171 14.573 34.282 14.7041C34.2469 14.8352 34.1837 14.9571 34.0968 15.0614C34.01 15.1657 33.9015 15.2499 33.7789 15.3082L31.3995 16.4387C31.274 16.4985 31.1367 16.5296 30.9977 16.5296C30.8013 16.5297 30.6098 16.4681 30.4502 16.3535C30.2907 16.2389 30.1711 16.077 30.1085 15.8908C30.0459 15.7046 30.0433 15.5034 30.1012 15.3157C30.1591 15.128 30.2744 14.9631 30.431 14.8445C28.0325 14.6477 25.6308 15.1811 23.5098 16.4054C21.9034 17.3329 20.5714 18.5801 19.5506 20.1124C19.4824 20.215 19.3947 20.303 19.2924 20.3716C19.1902 20.4402 19.0754 20.488 18.9546 20.5122C18.8339 20.5364 18.7096 20.5365 18.5888 20.5126C18.468 20.4887 18.3531 20.4412 18.2507 20.3728C18.0437 20.2349 17.9 20.0205 17.8512 19.7767C17.8023 19.5329 17.8523 19.2797 17.9902 19.0727L17.9903 19.073ZM14.2584 24.863C14.1885 24.7616 14.1393 24.6475 14.1135 24.5271C14.0877 24.4067 14.0859 24.2824 14.1082 24.1614C14.1304 24.0403 14.1763 23.9248 14.2432 23.8214C14.3101 23.7181 14.3967 23.6289 14.4981 23.559L16.6669 22.0636C16.7786 21.9865 16.9058 21.9347 17.0396 21.9116C17.1734 21.8885 17.3106 21.8947 17.4417 21.9299C17.5728 21.965 17.6947 22.0282 17.7991 22.1151C17.9034 22.202 17.9876 22.3105 18.0458 22.4331L19.1763 24.8126C19.2292 24.9238 19.2596 25.0443 19.2658 25.1672C19.2721 25.2902 19.254 25.4132 19.2128 25.5291C19.1715 25.6451 19.1078 25.7518 19.0253 25.8432C18.9427 25.9345 18.843 26.0087 18.7318 26.0616C18.6064 26.1214 18.4691 26.1524 18.3301 26.1525C18.185 26.1522 18.0419 26.1181 17.9122 26.0531C17.7824 25.988 17.6695 25.8937 17.5825 25.7776C17.3849 28.1771 17.918 30.5801 19.1432 32.7021C20.0706 34.3084 21.3177 35.6405 22.85 36.6612C23.053 36.8007 23.193 37.0145 23.2396 37.2564C23.2863 37.4982 23.2359 37.7487 23.0993 37.9537C22.9627 38.1587 22.751 38.3018 22.5098 38.3519C22.2686 38.402 22.0174 38.3552 21.8105 38.2216C20.0359 37.0396 18.5921 35.498 17.5193 33.6395C15.986 30.9838 15.3894 27.948 15.7861 24.948L15.5623 25.1024C15.4609 25.1723 15.3468 25.2216 15.2264 25.2474C15.106 25.2732 14.9817 25.275 14.8606 25.2527C14.7395 25.2305 14.624 25.1846 14.5207 25.1177C14.4173 25.0508 14.3282 24.9641 14.2583 24.8627L14.2584 24.863ZM35.8387 15.5132C35.9766 15.3062 36.191 15.1625 36.4348 15.1137C36.6786 15.0648 36.9318 15.1148 37.1387 15.2527C38.9133 16.4347 40.357 17.9763 41.43 19.8348C42.9632 22.4904 43.5599 25.5261 43.1632 28.5261L43.3871 28.3718C43.5918 28.2306 43.8442 28.1766 44.0888 28.2215C44.3333 28.2665 44.55 28.4067 44.6912 28.6114C44.8323 28.8161 44.8864 29.0685 44.8414 29.313C44.7965 29.5576 44.6563 29.7742 44.4516 29.9154L42.2827 31.4109C42.1709 31.488 42.0437 31.5399 41.9099 31.563C41.7761 31.5861 41.6389 31.5799 41.5078 31.5447C41.3766 31.5096 41.2547 31.4464 41.1504 31.3595C41.0461 31.2726 40.9619 31.1641 40.9036 31.0414L39.7731 28.662C39.7203 28.5508 39.6898 28.4302 39.6836 28.3073C39.6773 28.1844 39.6954 28.0614 39.7366 27.9454C39.7779 27.8294 39.8416 27.7227 39.9242 27.6313C40.0067 27.54 40.1064 27.4658 40.2176 27.413C40.4123 27.3206 40.6329 27.298 40.8423 27.3491C41.0517 27.4003 41.2371 27.5219 41.3673 27.6936C41.5642 25.2952 41.031 22.8935 39.8064 20.7724C38.8789 19.166 37.6317 17.8341 36.0995 16.8134C35.8926 16.6755 35.7489 16.4611 35.7 16.2173C35.6511 15.9735 35.7011 15.7202 35.839 15.5133L35.8387 15.5132ZM40.959 34.4014C39.7768 36.176 38.2352 37.6198 36.3771 38.6925C34.2545 39.918 31.8888 40.5457 29.4928 40.5457C28.8911 40.5457 28.2874 40.5047 27.6853 40.4251L27.84 40.6495C27.9118 40.7508 27.9627 40.8653 27.9899 40.9864C28.017 41.1076 28.0199 41.2329 27.9982 41.3551C27.9766 41.4773 27.9309 41.594 27.8637 41.6984C27.7966 41.8029 27.7095 41.8929 27.6073 41.9634C27.5051 42.0338 27.3899 42.0833 27.2685 42.1089C27.147 42.1345 27.0217 42.1357 26.8997 42.1125C26.7778 42.0893 26.6617 42.0421 26.5581 41.9737C26.4546 41.9052 26.3657 41.8169 26.2965 41.7138L24.8011 39.545C24.7241 39.4333 24.6722 39.3061 24.6492 39.1724C24.6261 39.0386 24.6323 38.9015 24.6674 38.7703C24.7026 38.6392 24.7657 38.5173 24.8526 38.413C24.9394 38.3087 25.0479 38.2245 25.1705 38.1662L27.55 37.0357C28.0177 36.8137 28.577 37.0126 28.7991 37.4801C28.8916 37.6748 28.9141 37.8954 28.863 38.1049C28.8119 38.3143 28.6902 38.4997 28.5184 38.6299C30.917 38.8267 33.3186 38.2934 35.4396 37.069C37.0458 36.1416 38.3777 34.8943 39.3987 33.362C39.4665 33.2585 39.5541 33.1694 39.6565 33.0999C39.7588 33.0304 39.874 32.9819 39.9952 32.9571C40.1164 32.9323 40.2414 32.9318 40.3628 32.9555C40.4843 32.9792 40.5998 33.0268 40.7028 33.0954C40.8058 33.164 40.8941 33.2523 40.9628 33.3552C41.0315 33.4582 41.0791 33.5737 41.1029 33.6951C41.1268 33.8165 41.1263 33.9415 41.1016 34.0627C41.0769 34.184 41.0284 34.2991 40.959 34.4016V34.4014Z" fill="#F37329"/>
</svg>
