<svg width="60" height="60" viewBox="0 0 60 60" fill="none" xmlns="http://www.w3.org/2000/svg">
<g clipPath="url(#clip0_1632_4161)">
<path d="M32.1529 47.8253C32.1529 46.8358 32.246 45.8677 32.4221 44.9286H9.2891C8.31832 44.9286 7.53129 44.1416 7.53129 43.1708C7.53129 42.2 8.31832 41.413 9.2891 41.413H33.5249C34.202 39.9095 35.1112 38.5218 36.2193 37.3007C36.0357 37.3644 35.8428 37.397 35.6486 37.3973H9.2891C6.96867 37.3153 6.9525 33.9705 9.2891 33.8817H35.6484C36.8323 33.8591 37.7148 35.1022 37.3097 36.2103C39.4134 34.3023 42.036 32.9569 44.9375 32.4127V13.0457C44.9375 9.92456 42.3953 7.52234 39.414 7.52234H34.4907C34.2584 11.5763 30.8878 14.8035 26.7766 14.8035H18.1609C14.0497 14.8035 10.6792 11.5763 10.4468 7.52234H5.52352C2.54215 7.52234 0 9.9248 0 13.0457V54.4677C0 57.5821 2.53711 59.9911 5.52352 59.9911H37.9516C34.4159 57.1134 32.1529 52.7289 32.1529 47.8253ZM9.2891 18.8192H35.6486C36.6193 18.8192 37.4064 19.6062 37.4064 20.577C37.4064 21.5478 36.6193 22.3348 35.6486 22.3348H9.2891C6.96738 22.2522 6.95356 18.9077 9.2891 18.8192ZM9.2891 26.3505H35.6486C36.6193 26.3505 37.4064 27.1375 37.4064 28.1083C37.4064 29.0791 36.6193 29.8661 35.6486 29.8661H9.2891C6.96738 29.7835 6.95356 26.4389 9.2891 26.3505ZM18.7031 52.4599H9.2891C6.96246 52.3749 6.95824 49.031 9.2891 48.9443H18.7031C19.6739 48.9443 20.4609 49.7313 20.4609 50.7021C20.4609 51.6728 19.6739 52.4599 18.7031 52.4599Z" fill="#F37329"/>
<path d="M18.1612 11.2879H26.777C32.5602 11.0288 32.2536 2.72043 26.463 2.86293C25.1689 -0.943437 19.7677 -0.941094 18.4752 2.86293C12.7079 2.70988 12.3577 11.0144 18.1612 11.2879ZM47.8345 35.6595C41.1262 35.6595 35.6687 41.117 35.6687 47.8252C36.2803 63.9427 59.3911 63.9382 60.0003 47.8251C60.0003 41.117 54.5428 35.6595 47.8345 35.6595ZM52.7273 46.6347L47.8612 51.5008C47.1748 52.1873 46.062 52.1873 45.3756 51.501L42.942 49.0684C41.3561 47.3621 43.7189 44.9959 45.4275 46.5821L46.6181 47.7721L50.2415 44.1488C51.949 42.5627 54.3133 44.9274 52.7273 46.6347Z" fill="#F37329"/>
</g>
<defs>
<clipPath id="clip0_1632_4161">
<rect width="60" height="60" fill="white"/>
</clipPath>
</defs>
</svg>
