<svg width="60" height="60" viewBox="0 0 60 60" fill="none" xmlns="http://www.w3.org/2000/svg">
<path d="M52.5 3.75003H25.3125C24.333 3.73574 23.388 4.11081 22.6848 4.79283C21.9817 5.47486 21.578 6.40809 21.5625 7.38753V16.875H24.2812C25.499 16.877 26.6663 17.3616 27.5273 18.2227C28.3884 19.0838 28.873 20.251 28.875 21.4688V21.6657C28.9781 21.7032 29.0812 21.75 29.1844 21.7875C29.6069 21.3357 30.1156 20.9729 30.6805 20.7207C31.2454 20.4684 31.855 20.3317 32.4735 20.3186C33.092 20.3055 33.7069 20.4163 34.2819 20.6444C34.857 20.8725 35.3806 21.2134 35.8219 21.6469C37.2253 23.1835 39.7003 24.8588 39.675 27.2157H47.4375L51.4688 31.0782C53.1038 32.7872 56.3306 31.5282 56.25 29.1375V7.38753C56.2345 6.40809 55.8308 5.47486 55.1277 4.79283C54.4245 4.11081 53.4795 3.73574 52.5 3.75003ZM38.9062 21.5625C38.6874 21.5625 38.4776 21.4756 38.3229 21.3209C38.1682 21.1662 38.0812 20.9563 38.0812 20.7375C38.0812 20.5187 38.1682 20.3089 38.3229 20.1542C38.4776 19.9994 38.6874 19.9125 38.9062 19.9125C39.1251 19.9125 39.3349 19.9994 39.4896 20.1542C39.6443 20.3089 39.7313 20.5187 39.7313 20.7375C39.7313 20.9563 39.6443 21.1662 39.4896 21.3209C39.3349 21.4756 39.1251 21.5625 38.9062 21.5625ZM41.0625 14.4563C40.6965 14.668 40.3918 14.9711 40.1782 15.3359C39.9645 15.7007 39.8493 16.1148 39.8438 16.5375V17.4282C39.8438 17.6768 39.745 17.9152 39.5692 18.0911C39.3933 18.2669 39.1549 18.3657 38.9062 18.3657C38.6576 18.3657 38.4192 18.2669 38.2433 18.0911C38.0675 17.9152 37.9688 17.6768 37.9688 17.4282V16.5375C37.9716 15.7912 38.1695 15.0586 38.5428 14.4123C38.916 13.766 39.4518 13.2285 40.0969 12.8532C40.5342 12.5833 40.8728 12.1794 41.0621 11.7016C41.2514 11.2238 41.2814 10.6977 41.1476 10.2015C41.0138 9.70529 40.7234 9.26555 40.3195 8.94772C39.9157 8.62988 39.42 8.45094 38.9062 8.43753C38.5966 8.43925 38.2903 8.50197 38.0049 8.62212C37.7195 8.74228 37.4605 8.9175 37.2429 9.13777C37.0252 9.35805 36.8531 9.61906 36.7363 9.90589C36.6196 10.1927 36.5605 10.4997 36.5625 10.8094C36.5625 11.058 36.4637 11.2965 36.2879 11.4723C36.1121 11.6481 35.8736 11.7469 35.625 11.7469C35.3764 11.7469 35.1379 11.6481 34.9621 11.4723C34.7863 11.2965 34.6875 11.058 34.6875 10.8094C34.6857 10.0663 34.8794 9.33575 35.2491 8.69114C35.6188 8.04653 36.1516 7.51051 36.794 7.13688C37.4364 6.76325 38.1657 6.56516 38.9088 6.56249C39.6519 6.55982 40.3827 6.75266 41.0277 7.12166C41.6728 7.49066 42.2094 8.02283 42.5838 8.66477C42.9581 9.30671 43.157 10.0358 43.1606 10.7789C43.1641 11.5221 42.9721 12.253 42.6038 12.8985C42.2356 13.5439 41.704 14.0812 41.0625 14.4563Z" fill="#F37329"/>
<path d="M38.5312 33C37.95 32.9831 37.0472 33.1612 36.825 32.4375C36.7388 31.7662 35.6934 30.7087 36.375 30L37.0219 29.3531C37.283 29.0834 37.4867 28.7635 37.6206 28.4128C37.7545 28.0621 37.8159 27.6879 37.801 27.3128C37.7861 26.9377 37.6952 26.5695 37.5339 26.2305C37.3726 25.8915 37.1442 25.5888 36.8625 25.3406L34.5 22.9781C33.988 22.4692 33.2954 22.1835 32.5734 22.1835C31.8515 22.1835 31.1589 22.4692 30.6469 22.9781L30 23.625C29.2931 24.2934 28.2375 23.2734 27.5531 23.1656C26.8387 22.9594 27.0169 22.0256 27 21.4687C26.9995 20.7478 26.7129 20.0566 26.2031 19.5469C25.6934 19.0371 25.0022 18.7505 24.2812 18.75H20.7188C19.9978 18.7505 19.3066 19.0371 18.7969 19.5469C18.2871 20.0566 18.0005 20.7478 18 21.4687C17.9841 22.05 18.1613 22.9528 17.4375 23.175C16.7738 23.2594 15.6938 24.3094 15 23.625L14.3531 22.9781C13.8411 22.4692 13.1485 22.1835 12.4266 22.1835C11.7046 22.1835 11.012 22.4692 10.5 22.9781L7.97813 25.5C7.46918 26.012 7.18351 26.7046 7.18351 27.4266C7.18351 28.1485 7.46918 28.8411 7.97813 29.3531L8.625 30C8.75013 30.1237 8.83225 30.2842 8.85925 30.4581C8.88625 30.6319 8.85672 30.8098 8.775 30.9656C8.28375 31.7316 8.38875 32.9175 7.3875 33H6.46875C5.74785 33.0005 5.05661 33.2871 4.54685 33.7969C4.0371 34.3066 3.7505 34.9978 3.75 35.7187V39.2813C3.7505 40.0022 4.0371 40.6934 4.54685 41.2031C5.05661 41.7129 5.74785 41.9995 6.46875 42H7.3875C7.56085 42.0007 7.7297 42.0552 7.87076 42.1559C8.01182 42.2567 8.11812 42.3988 8.175 42.5625C8.26031 43.2338 9.3075 44.2903 8.625 45L7.97813 45.6469C7.46918 46.1589 7.18351 46.8515 7.18351 47.5734C7.18351 48.2954 7.46918 48.988 7.97813 49.5L10.5 52.0219C11.012 52.5308 11.7046 52.8165 12.4266 52.8165C13.1485 52.8165 13.8411 52.5308 14.3531 52.0219L15 51.375C15.7069 50.7056 16.7625 51.7266 17.4469 51.8344C18.1622 52.0397 17.9831 52.9734 18 53.5312C18.0005 54.2522 18.2871 54.9434 18.7969 55.4531C19.3066 55.9629 19.9978 56.2495 20.7188 56.25H24.2812C25.0022 56.2495 25.6934 55.9629 26.2031 55.4531C26.7129 54.9434 26.9995 54.2522 27 53.5312C27.0169 52.9481 26.8387 52.0472 27.5625 51.825C28.2291 51.7406 29.2997 50.6897 30 51.375L30.6469 52.0219C31.1589 52.5308 31.8515 52.8165 32.5734 52.8165C33.2954 52.8165 33.988 52.5308 34.5 52.0219L37.0219 49.5C37.5308 48.988 37.8165 48.2954 37.8165 47.5734C37.8165 46.8515 37.5308 46.1589 37.0219 45.6469L36.375 45C36.2499 44.8763 36.1678 44.7158 36.1408 44.5419C36.1137 44.3681 36.1433 44.1902 36.225 44.0344C36.7162 43.2684 36.6131 42.0816 37.6125 42H38.5312C39.2522 41.9995 39.9434 41.7129 40.4531 41.2031C40.9629 40.6934 41.2495 40.0022 41.25 39.2813V35.7187C41.2495 34.9978 40.9629 34.3066 40.4531 33.7969C39.9434 33.2871 39.2522 33.0005 38.5312 33ZM22.5 47.8125C19.7654 47.811 17.1433 46.724 15.2096 44.7904C13.276 42.8567 12.189 40.2346 12.1875 37.5C12.7481 23.8181 32.2547 23.8219 32.8125 37.5C32.811 40.2346 31.724 42.8567 29.7904 44.7904C27.8567 46.724 25.2346 47.811 22.5 47.8125Z" fill="#F37329"/>
<path d="M22.5 29.0625C20.2632 29.0657 18.119 29.9557 16.5373 31.5373C14.9557 33.119 14.0657 35.2632 14.0625 37.5C14.5359 48.6937 30.4669 48.6909 30.9375 37.5C30.9343 35.2632 30.0443 33.119 28.4627 31.5373C26.881 29.9557 24.7368 29.0657 22.5 29.0625ZM22.5 43.125C21.0085 43.1238 19.5785 42.5307 18.5239 41.4761C17.4693 40.4215 16.8762 38.9915 16.875 37.5C17.1375 30.0544 27.8644 30.0562 28.125 37.5C28.1238 38.9915 27.5307 40.4215 26.4761 41.4761C25.4215 42.5307 23.9915 43.1238 22.5 43.125Z" fill="#F37329"/>
<path d="M22.5 33.75C21.5054 33.75 20.5516 34.1451 19.8484 34.8484C19.1451 35.5516 18.75 36.5054 18.75 37.5C18.75 38.4946 19.1451 39.4484 19.8484 40.1516C20.5516 40.8549 21.5054 41.25 22.5 41.25C23.4946 41.25 24.4484 40.8549 25.1516 40.1516C25.8549 39.4484 26.25 38.4946 26.25 37.5C26.25 36.5054 25.8549 35.5516 25.1516 34.8484C24.4484 34.1451 23.4946 33.75 22.5 33.75Z" fill="#F37329"/>
</svg>
