<svg width="30" height="30" viewBox="0 0 30 30" fill="none" xmlns="http://www.w3.org/2000/svg">
<path d="M10.0137 20.6133C10.002 20.5957 9.98438 20.584 9.97266 20.5723L10.0137 20.6133ZM15 20.2149C16.3594 20.2149 17.6895 20.3086 18.9785 20.4844C19.1074 20.3789 19.2305 20.2735 19.3477 20.1563C19.4355 20.0742 19.5176 19.9864 19.5996 19.9043C19.2773 19.4766 18.873 19.1192 18.3984 18.8614C17.8652 18.5684 17.2559 18.3985 16.6055 18.3985H13.3945C12.7441 18.3985 12.1348 18.5684 11.6016 18.8614C11.1328 19.1192 10.7227 19.4766 10.4004 19.9043C10.4824 19.9922 10.5645 20.0801 10.6523 20.1621C10.7695 20.2735 10.8926 20.3848 11.0215 20.4844C12.3047 20.3028 13.6348 20.2149 15 20.2149ZM24.9492 24.7617L24.4336 26.4785C24.3984 26.6016 24.3105 26.6895 24.1992 26.7305L22.3184 27.5508C22.8809 27.6739 23.4551 27.8203 24.0293 28.0078C24.6914 28.2188 25.3652 28.4707 26.0273 28.7696L25.3652 26.6426C25.3008 26.4375 25.418 26.2266 25.6172 26.1621L27.3105 25.6289C27.082 25.5293 26.8359 25.4356 26.5898 25.336C26.0625 25.1367 25.5059 24.9434 24.9492 24.7617ZM22.9863 26.4199C22.5645 26.291 22.1309 26.168 21.6914 26.0567L21.5098 27.0645L22.9863 26.4199ZM8.30859 26.0567C7.86914 26.168 7.43555 26.291 7.01367 26.4199L8.49609 27.0645L8.30859 26.0567ZM5.80078 26.7305C5.69531 26.6895 5.61328 26.6074 5.57227 26.4961C5.56641 26.4903 5.56641 26.4844 5.56641 26.4785L5.05078 24.7617C4.48828 24.9434 3.93164 25.1309 3.41602 25.336C3.16406 25.4297 2.92383 25.5293 2.69531 25.6289L4.38867 26.1621C4.59375 26.2266 4.70508 26.4434 4.64062 26.6426L3.97852 28.7696C4.64063 28.4707 5.31445 28.2188 5.97656 28.0078C6.55078 27.8262 7.125 27.6739 7.6875 27.5508L5.80078 26.7305ZM20.2441 21.4688C18.5801 21.1524 16.8223 20.9824 15 20.9824C13.1777 20.9824 11.4199 21.1524 9.75586 21.4688C8.16211 21.7735 6.65039 22.2129 5.26172 22.7637L6.19336 25.8692C7.4707 25.4356 8.83594 25.0957 10.2598 24.8614C11.7832 24.6094 13.3711 24.4746 15 24.4746C16.6348 24.4746 18.2227 24.6094 19.7402 24.8614C21.1641 25.1016 22.5293 25.4356 23.8066 25.8692L24.7383 22.7637C23.3496 22.2129 21.8379 21.7735 20.2441 21.4688ZM7.66406 3.86136L8.23828 5.08596L9.58594 5.25589C9.79688 5.28518 9.94922 5.47268 9.91992 5.68362C9.9082 5.78323 9.85547 5.87112 9.78516 5.93557L8.8125 6.8555L9.06445 8.19143C9.10547 8.40237 8.9707 8.60159 8.75977 8.64261C8.66602 8.66018 8.57813 8.64261 8.50195 8.60159L7.3125 7.94534L6.12305 8.60159C5.93555 8.7012 5.70117 8.63675 5.60156 8.44925C5.55469 8.36721 5.54297 8.27932 5.56055 8.19143L5.81836 6.8555L4.82812 5.92386C4.67578 5.77737 4.66406 5.53714 4.81055 5.37893C4.875 5.30862 4.95703 5.27347 5.04492 5.26175L6.39258 5.09182L6.97266 3.86721C7.06055 3.67386 7.28906 3.59182 7.48242 3.67971C7.55859 3.72073 7.62305 3.78518 7.66406 3.86136ZM23.0332 3.86136L23.6133 5.08596L24.9609 5.25589C25.1719 5.28518 25.3242 5.47268 25.3008 5.68362C25.2891 5.78323 25.2363 5.87112 25.1602 5.93557L24.1875 6.8555L24.4453 8.19143C24.4863 8.40237 24.3457 8.60159 24.1406 8.64261C24.0469 8.66018 23.959 8.64261 23.8828 8.60159L22.6934 7.94534L21.5039 8.60159C21.3164 8.7012 21.082 8.63675 20.9824 8.44925C20.9355 8.36721 20.9238 8.27932 20.9414 8.19143L21.1992 6.8555L20.209 5.92386C20.0566 5.77737 20.0508 5.53714 20.1914 5.37893C20.2559 5.30862 20.3379 5.27347 20.4258 5.26175L21.7734 5.09182L22.3477 3.86721C22.4355 3.67386 22.6641 3.59182 22.8574 3.67971C22.9336 3.72073 22.998 3.78518 23.0332 3.86136ZM15.3457 1.45315L15.9199 2.67776L17.2676 2.84768C17.4785 2.87698 17.6309 3.06448 17.6016 3.27542C17.5898 3.37503 17.5371 3.46292 17.4668 3.52737L16.4941 4.44143L16.752 5.77737C16.793 5.98831 16.6523 6.18753 16.4473 6.22854C16.3535 6.24612 16.2656 6.22854 16.1895 6.18753L15 5.53128L13.8105 6.18753C13.623 6.28714 13.3887 6.22268 13.2891 6.03518C13.2422 5.95315 13.2305 5.86526 13.248 5.77737L13.5059 4.44143L12.5156 3.50979C12.3633 3.36331 12.3516 3.12307 12.498 2.96487C12.5625 2.89456 12.6445 2.8594 12.7324 2.84768L14.0801 2.67776L14.6602 1.45315C14.748 1.25979 14.9766 1.17776 15.1699 1.26565C15.2461 1.30667 15.3105 1.37112 15.3457 1.45315ZM9.90234 19.2949C10.2715 18.8438 10.7227 18.4688 11.2324 18.1875C11.7949 17.877 12.4277 17.6836 13.1016 17.6426C12.8848 17.502 12.6855 17.3438 12.5098 17.1621C11.8711 16.5235 11.4727 15.6387 11.4727 14.666C11.4727 13.6875 11.8711 12.8086 12.5098 12.1641C13.1484 11.5254 14.0332 11.127 15.0059 11.127C15.9844 11.127 16.8633 11.5196 17.5078 12.1641C18.1465 12.8028 18.5449 13.6875 18.5449 14.666C18.5449 15.6387 18.1523 16.5235 17.5078 17.1621C17.3262 17.3438 17.127 17.502 16.9102 17.6426C17.584 17.6895 18.2168 17.8828 18.7793 18.1934C19.2891 18.4746 19.7402 18.8555 20.1094 19.3008C20.1855 19.1953 20.2617 19.084 20.3379 18.9668C20.7188 18.3633 21 17.6836 21.1641 16.9395C21.5332 15.2403 21.1758 13.5528 20.3027 12.1992C19.4297 10.8457 18.041 9.8262 16.3477 9.45706C14.6484 9.08792 12.9609 9.44534 11.6074 10.3184C10.2539 11.1914 9.23438 12.5801 8.86523 14.2735C8.60156 15.4805 8.70703 16.6758 9.09961 17.7539C9.28125 18.3047 9.5625 18.8203 9.90234 19.2949ZM15 11.8946C14.2383 11.8946 13.5469 12.2051 13.0488 12.7032C12.5508 13.2012 12.2402 13.8926 12.2402 14.6543C12.2402 15.416 12.5508 16.1074 13.0488 16.6055C13.5469 17.1035 14.2383 17.4141 15 17.4141C15.7617 17.4141 16.4531 17.1035 16.957 16.6055C17.4609 16.1074 17.7656 15.416 17.7656 14.6543C17.7656 13.8926 17.4551 13.2012 16.957 12.7032C16.459 12.2051 15.7617 11.8946 15 11.8946Z" fill="#F37329"/>
</svg>
