<svg width="52" height="52" viewBox="0 0 52 52" fill="none" xmlns="http://www.w3.org/2000/svg">
<path d="M19.0798 39.6971C17.7523 40.9089 16.0198 41.5807 14.2223 41.5807C12.4249 41.5807 10.6923 40.9089 9.36478 39.6971C7.13528 40.9858 3.71303 44.7566 5.5444 47.4817C5.8249 47.8734 6.19462 48.1928 6.623 48.4133C7.05137 48.6339 7.52609 48.7493 8.0079 48.75H20.4286C20.9103 48.7494 21.385 48.6341 21.8134 48.4137C22.2417 48.1933 22.6115 47.8741 22.8921 47.4825C24.721 44.7606 21.298 40.9858 19.0798 39.6971Z" fill="#FDFDFD"/>
<path d="M19.774 34.4231C19.5213 27.0513 8.89626 27.0683 8.65332 34.4231C8.89788 41.7453 19.5059 41.8103 19.774 34.4231ZM32.2272 34.4231C32.4929 41.8063 43.1009 41.7502 43.3479 34.4231C43.1066 27.0716 32.4815 27.0488 32.2272 34.4231Z" fill="#FDFDFD"/>
<path d="M42.6459 39.6971C41.3197 40.9119 39.5865 41.5857 37.788 41.5857C35.9895 41.5857 34.2563 40.9119 32.93 39.6971C30.7143 40.9858 27.2758 44.7582 29.1113 47.4817C29.3915 47.8731 29.7609 48.1922 30.1888 48.4128C30.6167 48.6333 31.0909 48.7489 31.5723 48.75H43.9938C44.4756 48.7494 44.9503 48.6341 45.3786 48.4137C45.807 48.1933 46.1768 47.8741 46.4573 47.4825C48.2855 44.7574 44.8697 40.9874 42.6459 39.6971ZM23.3198 17.9563H29.2234L34.4567 22.1479C34.5758 22.2404 34.7184 22.2979 34.8684 22.3138C35.0184 22.3297 35.1698 22.3035 35.3057 22.2381C35.4416 22.1727 35.5566 22.0707 35.6377 21.9435C35.7188 21.8163 35.7628 21.6691 35.7648 21.5182V17.9563H37.8733C38.4725 17.9545 39.0466 17.7158 39.4703 17.2921C39.894 16.8684 40.1328 16.2942 40.1345 15.6951V5.51119C40.134 4.91162 39.8957 4.33672 39.4717 3.91276C39.0477 3.4888 38.4729 3.25043 37.8733 3.25H23.3198C22.7202 3.25043 22.1453 3.4888 21.7214 3.91276C21.2974 4.33672 21.059 4.91162 21.0586 5.51119V15.6951C21.0603 16.2942 21.2991 16.8684 21.7228 17.2921C22.1465 17.7158 22.7206 17.9545 23.3198 17.9563Z" fill="#FDFDFD"/>
<path d="M19.4439 15.6951V10.5991H13.9027C13.3631 10.5998 12.8459 10.8144 12.4645 11.196C12.0831 11.5776 11.8686 12.0949 11.8682 12.6344V21.2031C11.8686 21.7427 12.0832 22.2602 12.4648 22.6418C12.8464 23.0234 13.3638 23.2379 13.9035 23.2384H15.5431V26.113C15.5462 26.2642 15.5913 26.4117 15.6732 26.5388C15.7551 26.666 15.8708 26.768 16.0072 26.8333C16.1436 26.8987 16.2955 26.9249 16.446 26.909C16.5964 26.8932 16.7395 26.8359 16.8594 26.7435L21.2282 23.2384H26.1544C26.694 23.2379 27.2115 23.0234 27.5931 22.6418C27.9747 22.2602 28.1892 21.7427 28.1897 21.2031V19.5716H23.3195C22.2917 19.5711 21.306 19.1626 20.5792 18.4357C19.8525 17.7087 19.4441 16.723 19.4439 15.6951Z" fill="#FDFDFD"/>
</svg>
