<svg width="42" height="52" viewBox="0 0 42 52" fill="none" xmlns="http://www.w3.org/2000/svg">
<g clipPath="url(#clip0_1271_13386)">
<path d="M26.9794 2.41333H24.5951C24.5272 2.41334 24.4607 2.39336 24.4041 2.35589C24.3474 2.31841 24.303 2.2651 24.2765 2.20259C23.7247 0.908984 22.4396 0 20.9459 0C19.4523 0 18.1673 0.909289 17.6135 2.20299C17.5868 2.2654 17.5424 2.3186 17.4858 2.35598C17.4291 2.39336 17.3627 2.41327 17.2949 2.41323H14.9125C14.2465 2.41323 13.7061 2.95364 13.7061 3.6202V8.44675C13.7061 9.1132 14.2464 9.65321 14.9126 9.65321H26.9794C27.6458 9.65321 28.1858 9.1132 28.1858 8.44675V3.6202C28.1858 2.95364 27.6458 2.41333 26.9793 2.41333H26.9794Z" fill="#FDFDFD"/>
<path d="M35.621 4.82629H31.2325V7.80918C31.2325 10.5105 29.0428 12.7004 26.3412 12.7004H15.5502C12.8489 12.7004 10.659 10.5105 10.659 7.80918V4.82629H6.27555C2.80922 4.82629 0 7.63653 0 11.1029V45.7245C0 49.1897 2.80922 52 6.27555 52H35.621C39.0873 52 41.8966 49.1896 41.8966 45.7245V11.1029C41.8966 7.63633 39.0873 4.82629 35.621 4.82629ZM6.75513 20.5136C7.35028 19.9186 8.31513 19.9186 8.91008 20.5136L9.37828 20.9831L11.9415 18.4193C12.5359 17.8243 13.5007 17.8243 14.0958 18.4193C14.6909 19.0145 14.6909 19.9793 14.0958 20.5745L10.5208 24.1497C10.3707 24.2997 10.1926 24.4186 9.99651 24.4996C9.80044 24.5806 9.59032 24.6222 9.37818 24.6218C8.96482 24.6218 8.55146 24.4643 8.23692 24.1497L6.75513 22.6679C6.15956 22.0724 6.15956 21.1076 6.75513 20.5137V20.5136ZM6.72059 31.3321C7.31575 30.7369 8.28059 30.7369 8.87565 31.3321L9.34375 31.8014L11.907 29.2378C12.5025 28.6438 13.4662 28.6438 14.0612 29.2378C14.6564 29.8329 14.6564 30.7978 14.0612 31.3932L10.4863 34.968C10.1829 35.2727 9.77742 35.4413 9.34578 35.4413H9.34375C9.13168 35.4417 8.92162 35.4001 8.72572 35.3188C8.52982 35.2376 8.35196 35.1184 8.20239 34.968L6.72059 33.4862C6.12625 32.8919 6.12625 31.927 6.72059 31.332V31.3321ZM14.2878 42.1037L10.7128 45.6797C10.5629 45.8298 10.3847 45.9488 10.1887 46.0299C9.99258 46.111 9.78242 46.1526 9.57023 46.1523C9.15688 46.1523 8.74352 45.9949 8.42847 45.6798L6.94667 44.198C6.35162 43.6029 6.35162 42.6388 6.94667 42.0438C7.54223 41.4486 8.50586 41.4486 9.10091 42.0438L9.57023 42.513L12.1336 39.9499C12.7278 39.3543 13.6927 39.3543 14.2877 39.9499C14.8829 40.5449 14.883 41.5098 14.2878 42.1037ZM17.7885 19.7742H33.9068C34.7487 19.7742 35.4303 20.4566 35.4303 21.2976C35.4303 22.1396 34.7487 22.821 33.9068 22.821H17.7885C16.9466 22.821 16.265 22.1396 16.265 21.2976C16.265 20.4566 16.9466 19.7742 17.7885 19.7742ZM17.7539 30.5926H33.8723C34.7142 30.5926 35.3957 31.2753 35.3957 32.116C35.3957 32.9583 34.7142 33.6395 33.8723 33.6395H17.754C16.9133 33.6395 16.2306 32.9583 16.2306 32.116C16.2306 31.275 16.9133 30.5926 17.754 30.5926H17.7539ZM34.0984 44.3512H17.9806C17.1388 44.3512 16.4572 43.6699 16.4572 42.8277C16.4572 41.987 17.1388 41.3043 17.9806 41.3043H34.0986C34.9395 41.3043 35.622 41.987 35.622 42.8277C35.622 43.6699 34.9395 44.3512 34.0986 44.3512H34.0984Z" fill="#FDFDFD"/>
</g>
<defs>
<clipPath id="clip0_1271_13386">
<rect width="42" height="52" fill="white"/>
</clipPath>
</defs>
</svg>
