<svg width="40" height="52" viewBox="0 0 40 52" fill="none" xmlns="http://www.w3.org/2000/svg">
<path d="M14.013 26.2246C14.1633 26.3899 14.2419 26.608 14.2314 26.8311C14.2209 27.0543 14.1222 27.2641 13.957 27.4144L12.5496 28.6917C12.2231 29.0266 11.6816 29.0261 11.3519 28.6964L10.7583 28.1028C10.68 28.0245 10.6178 27.9315 10.5754 27.8292C10.533 27.7268 10.5112 27.6171 10.5112 27.5063C10.5112 27.3955 10.533 27.2858 10.5754 27.1835C10.6178 27.0811 10.68 26.9881 10.7583 26.9098C10.8367 26.8314 10.9297 26.7693 11.032 26.7269C11.1344 26.6845 11.2441 26.6626 11.3549 26.6626C11.4656 26.6626 11.5754 26.6845 11.6777 26.7269C11.7801 26.7693 11.8731 26.8314 11.9514 26.9098L11.9777 26.936L12.8232 26.1686C12.9884 26.0183 13.2066 25.9398 13.4297 25.9503C13.6528 25.9608 13.8626 26.0595 14.013 26.2246ZM29.0503 4.86438H32.832C32.7979 4.7908 32.7508 4.72396 32.6931 4.66705L28.9108 0.884727C28.8539 0.826971 28.7871 0.779921 28.7135 0.745824V4.52762C28.7137 4.61688 28.7492 4.70244 28.8124 4.76556C28.8755 4.82868 28.961 4.86421 29.0503 4.86438ZM7.10985 33.4278V1.36113C7.10985 0.99009 7.41244 0.6875 7.78348 0.6875H27.026V4.52762C27.026 5.64453 27.9334 6.55188 29.0503 6.55188H32.8904V33.4278C32.8904 33.7989 32.5878 34.1015 32.2168 34.1015H7.78348C7.41244 34.1015 7.10985 33.7988 7.10985 33.4278ZM14.9356 25.1991C14.9356 25.0248 14.7935 24.8827 14.6192 24.8827H10.1257C9.95149 24.8827 9.80932 25.0248 9.80932 25.1991V29.6926C9.80932 29.8668 9.95149 30.009 10.1257 30.009H14.6192C14.7935 30.009 14.9356 29.8668 14.9356 29.6926V25.1991ZM14.9356 16.8452C14.9356 16.671 14.7935 16.5288 14.6192 16.5288H10.1257C9.95149 16.5288 9.80932 16.671 9.80932 16.8452V21.3387C9.80932 21.5129 9.95149 21.6551 10.1257 21.6551H14.6192C14.7935 21.6551 14.9356 21.5129 14.9356 21.3387V16.8452ZM29.4863 28.8381C29.4863 28.6143 29.3974 28.3997 29.2392 28.2414C29.0809 28.0832 28.8663 27.9943 28.6426 27.9943H17.6764C17.4527 27.9943 17.2381 28.0832 17.0798 28.2414C16.9216 28.3997 16.8327 28.6143 16.8327 28.8381C16.8327 29.0618 16.9216 29.2764 17.0798 29.4347C17.2381 29.5929 17.4527 29.6818 17.6764 29.6818H28.6425C28.7533 29.6818 28.863 29.66 28.9654 29.6176C29.0678 29.5752 29.1608 29.5131 29.2391 29.4347C29.3175 29.3564 29.3797 29.2633 29.4221 29.161C29.4645 29.0586 29.4863 28.9489 29.4863 28.8381ZM29.4863 26.0535C29.4863 25.8297 29.3974 25.6151 29.2392 25.4569C29.0809 25.2986 28.8663 25.2097 28.6426 25.2097H17.6764C17.4527 25.2097 17.2381 25.2986 17.0798 25.4569C16.9216 25.6151 16.8327 25.8297 16.8327 26.0535C16.8327 26.2772 16.9216 26.4919 17.0798 26.6501C17.2381 26.8083 17.4527 26.8972 17.6764 26.8972H28.6425C28.7533 26.8972 28.863 26.8754 28.9654 26.833C29.0678 26.7906 29.1608 26.7285 29.2391 26.6501C29.3175 26.5718 29.3797 26.4788 29.4221 26.3764C29.4645 26.274 29.4863 26.1643 29.4863 26.0535ZM29.4863 20.4843C29.4863 20.2605 29.3974 20.0459 29.2392 19.8877C29.0809 19.7294 28.8663 19.6406 28.6426 19.6406H17.6764C17.4527 19.6406 17.2381 19.7294 17.0798 19.8877C16.9216 20.0459 16.8327 20.2605 16.8327 20.4843C16.8327 20.7081 16.9216 20.9227 17.0798 21.0809C17.2381 21.2392 17.4527 21.3281 17.6764 21.3281H28.6425C28.7533 21.3281 28.863 21.3063 28.9654 21.2639C29.0678 21.2215 29.1608 21.1593 29.2391 21.081C29.3175 21.0026 29.3797 20.9096 29.4221 20.8072C29.4645 20.7048 29.4863 20.5951 29.4863 20.4843ZM29.4863 17.6997C29.4863 17.4759 29.3974 17.2613 29.2392 17.1031C29.0809 16.9449 28.8663 16.856 28.6426 16.856H17.6764C17.4527 16.856 17.2381 16.9449 17.0798 17.1031C16.9216 17.2613 16.8327 17.4759 16.8327 17.6997C16.8327 17.9235 16.9216 18.1381 17.0798 18.2963C17.2381 18.4546 17.4527 18.5435 17.6764 18.5435H28.6425C28.8662 18.5435 29.0809 18.4546 29.2391 18.2963C29.3974 18.1381 29.4863 17.9235 29.4863 17.6997ZM21.0812 6.21448C21.0812 6.43826 21.1701 6.65287 21.3283 6.81111C21.4865 6.96934 21.7012 7.05823 21.9249 7.05823H25.8303C26.0541 7.05823 26.2687 6.96934 26.427 6.81111C26.5852 6.65287 26.6741 6.43826 26.6741 6.21448C26.6741 5.99071 26.5852 5.7761 26.427 5.61786C26.2687 5.45963 26.0541 5.37073 25.8303 5.37073H21.9249C21.7012 5.37073 21.4865 5.45963 21.3283 5.61786C21.1701 5.7761 21.0812 5.99071 21.0812 6.21448ZM21.0812 9.37865C21.0812 9.60243 21.1701 9.81704 21.3283 9.97527C21.4865 10.1335 21.7012 10.2224 21.9249 10.2224H30.4148C30.6385 10.2224 30.8531 10.1335 31.0114 9.97527C31.1696 9.81704 31.2585 9.60243 31.2585 9.37865C31.2585 9.15488 31.1696 8.94026 31.0114 8.78203C30.8531 8.6238 30.6385 8.5349 30.4148 8.5349H21.9249C21.7012 8.5349 21.4865 8.6238 21.3283 8.78203C21.1701 8.94026 21.0812 9.15488 21.0812 9.37865ZM9.74003 7.30482C9.74003 9.92361 11.8631 12.0467 14.4819 12.0467C17.1007 12.0467 19.2238 9.92361 19.2238 7.30482C19.2238 4.68603 17.1007 2.56295 14.4819 2.56295C11.8631 2.56295 9.74003 4.68603 9.74003 7.30482ZM12.8232 17.8149L11.9777 18.5823L11.9514 18.556C11.8731 18.4777 11.7801 18.4155 11.6777 18.3731C11.5754 18.3307 11.4656 18.3089 11.3549 18.3089C11.2441 18.3089 11.1344 18.3307 11.032 18.3731C10.9297 18.4155 10.8367 18.4777 10.7583 18.556C10.68 18.6343 10.6178 18.7273 10.5754 18.8297C10.533 18.9321 10.5112 19.0418 10.5112 19.1525C10.5112 19.2633 10.533 19.373 10.5754 19.4754C10.6178 19.5777 10.68 19.6707 10.7583 19.7491L11.3519 20.3427C11.6816 20.6724 12.2232 20.6729 12.5496 20.3379L13.957 19.0607C14.12 18.9098 14.2167 18.7006 14.2262 18.4786C14.2357 18.2567 14.1572 18.04 14.0076 17.8758C13.8581 17.7115 13.6498 17.6129 13.4279 17.6015C13.2061 17.5901 12.9888 17.6668 12.8232 17.8149ZM11.837 9.96021C11.1295 9.25979 10.734 8.29939 10.734 7.30482C10.734 5.23478 12.4119 3.55699 14.4818 3.55699C16.5518 3.55699 18.2296 5.23489 18.2296 7.30482C18.2296 8.29939 17.8341 9.25979 17.1266 9.96021C16.6375 8.99612 15.6368 8.33546 14.4817 8.33546C13.3268 8.33546 12.3261 8.99612 11.837 9.96021ZM12.9832 6.21543C12.9832 7.04315 13.6542 7.71414 14.4819 7.71414C15.3096 7.71414 15.9806 7.04315 15.9806 6.21543C15.9806 5.38771 15.3096 4.71672 14.4819 4.71672C13.6542 4.71672 12.9832 5.38771 12.9832 6.21543ZM36.7789 15.2458H34.5779V17.795H36.8554C36.9674 17.7953 37.0748 17.8399 37.154 17.9191C37.2332 17.9983 37.2779 18.1057 37.2782 18.2177V37.1796H2.72214V18.2178C2.72247 18.1057 2.76713 17.9984 2.84635 17.9192C2.92558 17.84 3.03293 17.7954 3.14496 17.7951H5.42245V15.2459H3.22132C1.54468 15.2459 0.172852 16.6177 0.172852 18.2943V39.2664C0.172852 40.943 1.54468 42.3149 3.22132 42.3149H13.7687V47.1582H9.12841C7.69857 47.1582 6.52871 48.0929 6.52871 49.2353V51.3125H33.4714V49.2353C33.4714 48.0929 32.3016 47.1582 30.8717 47.1582H26.2315V42.3149H36.7789C38.4556 42.3149 39.8274 40.943 39.8274 39.2664V18.2942C39.8274 16.6176 38.4556 15.2458 36.7789 15.2458Z" fill="#FDFDFD"/>
</svg>
