<svg width="52" height="52" viewBox="0 0 52 52" fill="none" xmlns="http://www.w3.org/2000/svg">
<path d="M39.0818 46.4745C39.1677 46.6826 39.0766 47.11 38.6565 47.11H13.3433C12.9233 47.11 12.8321 46.6826 12.9181 46.4745L14.7378 42.0696H20.9612C23.0117 42.0696 24.6753 40.4061 24.6753 38.3556C24.6753 36.3049 23.0118 34.6414 20.9612 34.6414H17.8066L17.9408 34.3166C18.0859 33.9652 18.4106 33.748 18.791 33.748L33.2089 33.7479C33.5893 33.7479 33.914 33.9651 34.0592 34.3166L34.1935 34.6414H31.039C28.9884 34.6414 27.3249 36.3049 27.3249 38.3556C27.3249 40.4062 28.9884 42.0696 31.039 42.0696H37.2623L39.0818 46.4745ZM47.7553 29.3734C46.6373 30.1975 45.2532 30.6835 43.762 30.6835C42.2708 30.6835 40.8867 30.1975 39.7687 29.3735C39.2941 29.6247 38.8537 29.936 38.4586 30.2997C36.9257 31.7094 36.7259 34.3017 36.2268 36.2664H31.0388C29.8851 36.2664 28.9497 37.2018 28.9497 38.3556C28.9497 39.5092 29.8851 40.4447 31.0388 40.4447H38.4694C39.1086 40.4447 39.5801 40.0216 39.7245 39.4112L40.9148 34.7239C40.9702 34.5178 41.1046 34.3418 41.2888 34.234C41.473 34.1261 41.6922 34.0951 41.8991 34.1477C42.1059 34.2003 42.2838 34.3321 42.3942 34.5148C42.5046 34.6975 42.5386 34.9163 42.489 35.1238L41.2987 39.81C41.0405 40.9513 40.1197 41.8111 38.9999 42.0204L40.5837 45.8541C40.6057 45.9075 40.6251 45.9612 40.6424 46.015H50.7081C50.8082 46.0147 50.9041 45.9748 50.9749 45.904C51.0457 45.8333 51.0856 45.7374 51.0859 45.6373V34.8835C51.0859 32.502 49.7317 30.4212 47.7553 29.3734ZM43.7621 29.0585C46.5611 29.0585 48.8302 26.8172 48.8302 24.0525C48.8302 21.2878 46.5611 19.0465 43.7621 19.0465C40.963 19.0465 38.6939 21.2878 38.6939 24.0525C38.6939 26.8172 40.9629 29.0585 43.7621 29.0585ZM35.1514 15.6518C35.3669 15.6518 35.5735 15.7374 35.7259 15.8897C35.8783 16.0421 35.9639 16.2488 35.9639 16.4643C35.9639 16.6798 35.8783 16.8864 35.7259 17.0388C35.5735 17.1912 35.3669 17.2768 35.1514 17.2768H22.9928C22.8353 17.2767 22.6812 17.2309 22.5492 17.1449C22.4172 17.0589 22.3131 16.9363 22.2495 16.7922C22.186 16.6481 22.1657 16.4885 22.1911 16.3331C22.2165 16.1776 22.2866 16.0329 22.3928 15.9165H20.0146V18.1237C20.0146 18.8803 20.6337 19.4995 21.3905 19.4995H29.5531L34.5987 23.6583V19.4995H36.7539C37.5106 19.4995 38.1297 18.8804 38.1297 18.1237V8.73444C38.1297 7.9777 37.5107 7.35858 36.7539 7.35858H30.3363V9.58148H35.1515C35.367 9.58148 35.5736 9.66708 35.726 9.81945C35.8784 9.97182 35.964 10.1785 35.964 10.394C35.964 10.6095 35.8784 10.8161 35.726 10.9685C35.5736 11.1209 35.367 11.2065 35.1515 11.2065H30.3363V12.6166H35.1515C35.367 12.6166 35.5736 12.7022 35.726 12.8545C35.8784 13.0069 35.964 13.2136 35.964 13.4291C35.964 13.6446 35.8784 13.8512 35.726 14.0036C35.5736 14.156 35.367 14.2416 35.1515 14.2416H30.0265C29.717 14.8658 29.2013 15.364 28.5667 15.6518H35.1514ZM8.23804 29.0585C11.0371 29.0585 13.3062 26.8172 13.3062 24.0525C13.3062 21.2878 11.0371 19.0465 8.23804 19.0465C5.43898 19.0465 3.16987 21.2878 3.16987 24.0525C3.16987 26.8172 5.43887 29.0585 8.23804 29.0585ZM10.5962 12.9157V3.52662C10.5962 2.76988 11.2152 2.15076 11.972 2.15076H27.3353C28.0921 2.15076 28.7112 2.76998 28.7112 3.52662V12.9158C28.7112 13.6724 28.0921 14.2916 27.3353 14.2916H19.1728L14.1272 18.4504V14.2916H11.972C11.2153 14.2915 10.5962 13.6725 10.5962 12.9157ZM12.7619 5.18595C12.7619 5.40144 12.8475 5.6081 12.9999 5.76048C13.1523 5.91285 13.3589 5.99845 13.5744 5.99845H25.7329C25.9484 5.99845 26.155 5.91285 26.3074 5.76048C26.4598 5.6081 26.5454 5.40144 26.5454 5.18595C26.5454 4.97046 26.4598 4.7638 26.3074 4.61143C26.155 4.45905 25.9484 4.37345 25.7329 4.37345H13.5743C13.3589 4.37348 13.1522 4.45909 12.9999 4.61146C12.8475 4.76383 12.7619 4.97048 12.7619 5.18595ZM12.7619 8.22115C12.7619 8.43664 12.8475 8.6433 12.9999 8.79567C13.1523 8.94804 13.3589 9.03365 13.5744 9.03365H25.7329C25.9484 9.03365 26.155 8.94804 26.3074 8.79567C26.4598 8.6433 26.5454 8.43664 26.5454 8.22115C26.5454 8.00566 26.4598 7.799 26.3074 7.64662C26.155 7.49425 25.9484 7.40865 25.7329 7.40865H13.5743C13.3589 7.40867 13.1522 7.49429 12.9999 7.64666C12.8475 7.79903 12.7619 8.00568 12.7619 8.22115ZM12.7619 11.2563C12.7619 11.4718 12.8475 11.6785 12.9999 11.8309C13.1523 11.9832 13.3589 12.0688 13.5744 12.0688H25.7329C25.9484 12.0688 26.155 11.9832 26.3074 11.8309C26.4598 11.6785 26.5454 11.4718 26.5454 11.2563C26.5454 11.0409 26.4598 10.8342 26.3074 10.6818C26.155 10.5294 25.9484 10.4438 25.7329 10.4438H13.5743C13.3589 10.4439 13.1522 10.5295 12.9999 10.6819C12.8475 10.8342 12.7619 11.0409 12.7619 11.2563ZM13.7574 49.438C13.7576 49.5469 13.8011 49.6514 13.8781 49.7284C13.9552 49.8055 14.0596 49.849 14.1686 49.8493H37.8314C37.9404 49.849 38.0449 49.8056 38.1219 49.7285C38.199 49.6514 38.2424 49.5469 38.2426 49.438V48.735H13.7574V49.438ZM10.7013 39.8099L9.51102 35.1237C9.46137 34.9162 9.49542 34.6974 9.60582 34.5147C9.71621 34.332 9.89407 34.2002 10.1009 34.1476C10.3078 34.095 10.527 34.126 10.7112 34.2338C10.8954 34.3417 11.0298 34.5177 11.0852 34.7238L12.2759 39.411C12.4111 40.0182 12.8996 40.4446 13.5306 40.4446H20.9611C22.1147 40.4446 23.0502 39.5092 23.0502 38.3554C23.0502 37.2017 22.1148 36.2663 20.9611 36.2663H15.7732C15.2741 34.3016 15.0743 31.7093 13.5414 30.2996C13.1463 29.9359 12.7059 29.6246 12.2313 29.3734C11.1133 30.1974 9.72918 30.6834 8.23804 30.6834C6.7468 30.6834 5.3627 30.1974 4.2447 29.3733C2.2683 30.4213 0.914062 32.502 0.914062 34.8835V45.6372C0.914384 45.7373 0.954296 45.8332 1.02508 45.9039C1.09587 45.9747 1.19178 46.0146 1.29188 46.0149H11.3575C11.3748 45.9611 11.3942 45.9074 11.4162 45.854L13 42.0203C11.8803 41.8109 10.9595 40.9512 10.7013 39.8099Z" fill="#FDFDFD"/>
</svg>
