<svg width="52" height="52" viewBox="0 0 52 52" fill="none" xmlns="http://www.w3.org/2000/svg">
<path d="M27.8658 41.4486C27.8658 40.591 27.9465 39.752 28.0992 38.938H8.05055C7.20921 38.938 6.52712 38.2559 6.52712 37.4146C6.52712 36.5733 7.20921 35.8912 8.05055 35.8912H29.0549C29.6417 34.5882 30.4297 33.3855 31.39 32.3272C31.2309 32.3824 31.0638 32.4107 30.8954 32.4109H8.05055C6.03952 32.3398 6.0255 29.441 8.05055 29.364H30.8953C31.9213 29.3444 32.6862 30.4218 32.3351 31.3822C34.1583 29.7285 36.4312 28.5626 38.9459 28.091V11.3062C38.9459 8.60122 36.7426 6.51929 34.1588 6.51929H29.892C29.6906 10.0327 26.7694 12.8297 23.2064 12.8297H15.7394C12.1764 12.8297 9.25529 10.0327 9.05389 6.51929H4.78705C2.2032 6.51929 0 8.60142 0 11.3062V47.2052C0 49.9044 2.19883 51.9922 4.78705 51.9922H32.8914C29.8271 49.4982 27.8658 45.6983 27.8658 41.4486ZM8.05055 16.3099H30.8954C31.7368 16.3099 32.4188 16.992 32.4188 17.8333C32.4188 18.6747 31.7368 19.3568 30.8954 19.3568H8.05055C6.0384 19.2852 6.02641 16.3866 8.05055 16.3099ZM8.05055 22.837H30.8954C31.7368 22.837 32.4188 23.5191 32.4188 24.3605C32.4188 25.2018 31.7368 25.8839 30.8954 25.8839H8.05055C6.0384 25.8123 6.02641 22.9136 8.05055 22.837ZM16.2094 45.4652H8.05055C6.03413 45.3915 6.03048 42.4934 8.05055 42.4183H16.2094C17.0507 42.4183 17.7328 43.1004 17.7328 43.9417C17.7328 44.7831 17.0507 45.4652 16.2094 45.4652Z" fill="#FDFDFD"/>
<path d="M15.7398 9.78282H23.2068C28.2189 9.55827 27.9532 2.35769 22.9347 2.48119C21.8132 -0.817662 17.1322 -0.815631 16.0119 2.48119C11.0136 2.34855 10.7102 9.54578 15.7398 9.78282ZM41.4567 30.9049C35.6428 30.9049 30.913 35.6347 30.913 41.4485C31.443 55.417 51.4724 55.4131 52.0004 41.4484C52.0004 35.6347 47.2705 30.9049 41.4567 30.9049ZM45.6971 40.4167L41.4798 44.634C40.885 45.2289 39.9206 45.2289 39.3256 44.6342L37.2166 42.526C35.8421 41.0471 37.8898 38.9965 39.3706 40.3711L40.4025 41.4025L43.5428 38.2623C45.0226 36.8876 47.0717 38.937 45.6971 40.4167Z" fill="#FDFDFD"/>
</svg>
