<svg width="52" height="52" viewBox="0 0 52 52" fill="none" xmlns="http://www.w3.org/2000/svg">
<path d="M26 14.2188C19.5 14.2188 14.2188 19.5 14.2188 26C14.2188 32.5 19.5 37.7812 26 37.7812C32.5 37.7812 37.7812 32.5 37.7812 26C37.7812 19.5 32.5 14.2188 26 14.2188ZM31.7363 23.6112L25.2362 30.1113C24.9925 30.355 24.6838 30.4688 24.375 30.4688C24.0662 30.4688 23.7575 30.355 23.5138 30.1113L20.2638 26.8613C19.7925 26.39 19.7925 25.61 20.2638 25.1388C20.735 24.6675 21.515 24.6675 21.9862 25.1388L24.375 27.5275L30.0137 21.8888C30.485 21.4175 31.265 21.4175 31.7363 21.8888C32.2075 22.36 32.2075 23.14 31.7363 23.6112Z" fill="#FDFDFD"/>
<path d="M49.075 22.49L44.9963 21.6775C44.5088 19.5 43.6475 17.4688 42.4937 15.6325L44.8013 12.1712C45.0078 11.858 45.0997 11.483 45.0611 11.1098C45.0226 10.7366 44.8562 10.3882 44.59 10.1237L41.8763 7.41C41.6118 7.14383 41.2634 6.97736 40.8902 6.93885C40.517 6.90035 40.142 6.99218 39.8288 7.19875L36.3675 9.50625C34.5312 8.3525 32.5 7.49125 30.3225 7.00375L29.51 2.925C29.3638 2.1775 28.6975 1.625 27.9175 1.625H24.0825C23.3025 1.625 22.6362 2.1775 22.49 2.925L21.6775 7.00375C19.5 7.49125 17.4688 8.3525 15.6325 9.50625L12.1712 7.19875C11.858 6.99218 11.483 6.90035 11.1098 6.93885C10.7366 6.97736 10.3882 7.14383 10.1237 7.41L7.41 10.1237C7.14383 10.3882 6.97736 10.7366 6.93885 11.1098C6.90035 11.483 6.99218 11.858 7.19875 12.1712L9.50625 15.6325C8.3525 17.4688 7.49125 19.5 7.00375 21.6775L2.925 22.49C2.1775 22.6362 1.625 23.3025 1.625 24.0825V27.9175C1.625 28.6975 2.1775 29.3638 2.925 29.51L7.00375 30.3225C7.49125 32.5 8.3525 34.5312 9.50625 36.3675L7.19875 39.8288C6.99218 40.142 6.90035 40.517 6.93885 40.8902C6.97736 41.2634 7.14383 41.6118 7.41 41.8763L10.1237 44.59C10.3882 44.8562 10.7366 45.0226 11.1098 45.0611C11.483 45.0997 11.858 45.0078 12.1712 44.8013L15.6325 42.4937C17.4688 43.6475 19.5 44.5088 21.6775 44.9963L22.49 49.075C22.6362 49.8225 23.3025 50.375 24.0825 50.375H27.9175C28.6975 50.375 29.3638 49.8225 29.51 49.075L30.3225 44.9963C32.5 44.5088 34.5312 43.6475 36.3675 42.4937L39.8288 44.8013C40.142 45.0078 40.517 45.0997 40.8902 45.0611C41.2634 45.0226 41.6118 44.8562 41.8763 44.59L44.59 41.8763C44.8562 41.6118 45.0226 41.2634 45.0611 40.8902C45.0997 40.517 45.0078 40.142 44.8013 39.8288L42.4937 36.3675C43.6475 34.5312 44.5088 32.5 44.9963 30.3225L49.075 29.51C49.8225 29.3638 50.375 28.6975 50.375 27.9175V24.0825C50.375 23.3025 49.8225 22.6362 49.075 22.49ZM26 40.2188C18.1675 40.2188 11.7812 33.8325 11.7812 26C11.7812 18.1675 18.1675 11.7812 26 11.7812C33.8325 11.7812 40.2188 18.1675 40.2188 26C40.2188 33.8325 33.8325 40.2188 26 40.2188Z" fill="#FDFDFD"/>
</svg>
