<svg width="28" height="30" viewBox="0 0 28 30" fill="none" xmlns="http://www.w3.org/2000/svg">
<path d="M13.2174 4.76456C13.2174 4.64012 13.2668 4.52077 13.3548 4.43278C13.4428 4.34478 13.5621 4.29534 13.6866 4.29534H14.7562C15.0154 4.29534 15.2254 4.5054 15.2254 4.76456C15.2254 5.02372 15.0154 5.23378 14.7562 5.23378H13.6866C13.5621 5.23378 13.4428 5.18435 13.3548 5.09635C13.2668 5.00836 13.2174 4.88901 13.2174 4.76456ZM23.9228 10.9971C25.2723 10.9971 26.3703 9.89995 26.3703 8.55136C26.3703 7.20277 25.2724 6.10396 23.9228 6.10396C22.5733 6.10396 21.4771 7.20183 21.4771 8.55136C21.4771 9.90089 22.5743 10.9971 23.9228 10.9971ZM15.0818 5.66726H13.6932C13.434 5.66726 13.224 5.87732 13.224 6.13648C13.224 6.39564 13.434 6.6057 13.6932 6.6057H15.0818C15.3409 6.6057 15.551 6.39564 15.551 6.13648C15.551 5.87732 15.3409 5.66726 15.0818 5.66726ZM16.6364 3.86351H17.118C17.3772 3.86351 17.5872 3.65345 17.5872 3.39429C17.5872 3.13513 17.3772 2.92507 17.118 2.92507H16.6364C16.3772 2.92507 16.1671 3.13513 16.1671 3.39429C16.1671 3.65345 16.3772 3.86351 16.6364 3.86351ZM27.8866 23.5098V24.0645C27.8866 24.5852 27.4511 25.0087 26.9158 25.0087H25.3039V26.0069H26.0156C26.5848 26.0069 27.0478 26.4179 27.0478 26.923V29.0788C27.0478 29.338 26.8378 29.548 26.5786 29.548C26.3195 29.548 26.1094 29.338 26.1094 29.0788V26.9671C26.0918 26.9572 26.0603 26.9453 26.0155 26.9453H23.652C23.6072 26.9453 23.5758 26.9572 23.5582 26.9671V29.0788C23.5582 29.338 23.3481 29.548 23.0889 29.548C22.8298 29.548 22.6197 29.338 22.6197 29.0788V26.923C22.6197 26.4179 23.0828 26.0069 23.652 26.0069H24.3653V25.0087H22.7517C22.2164 25.0087 21.781 24.5851 21.781 24.0645V23.5098C21.781 22.9891 22.2165 22.5655 22.7517 22.5655H26.9156C27.451 22.5655 27.8864 22.9891 27.8864 23.5098H27.8866ZM26.9482 23.5159C26.9438 23.5119 26.9387 23.5087 26.9332 23.5067C26.9276 23.5046 26.9217 23.5037 26.9158 23.5039H22.7519C22.7399 23.5035 22.7282 23.5078 22.7195 23.5159V24.0583C22.7238 24.0623 22.7289 24.0654 22.7345 24.0675C22.74 24.0695 22.7459 24.0705 22.7519 24.0703H26.9158C26.9217 24.0705 26.9276 24.0696 26.9332 24.0675C26.9387 24.0654 26.9438 24.0623 26.9482 24.0583V23.5159ZM8.48949 18.4082H5.90926V13.6737C5.90926 12.5998 5.03562 11.7263 3.96184 11.7263C2.88805 11.7263 2.01441 12.5999 2.01441 13.6737V20.3008C2.01441 21.4236 2.88002 22.3031 3.98516 22.3031H6.54213V27.6006C6.54213 28.6744 7.41576 29.548 8.48955 29.548C9.56334 29.548 10.437 28.6744 10.437 27.6006V20.3557C10.437 19.2819 9.56334 18.4082 8.48955 18.4082L8.48949 18.4082ZM25.9135 20.3008V13.6737C25.9135 12.5998 25.0398 11.7263 23.966 11.7263C22.8922 11.7263 22.0186 12.5999 22.0186 13.6737V18.4082H19.44C18.3662 18.4082 17.4926 19.2818 17.4926 20.3556V27.6005C17.4926 28.6743 18.3662 29.5479 19.44 29.5479C20.5138 29.5479 21.3874 28.6743 21.3874 27.6005V22.303H23.9427C25.0478 22.303 25.9135 21.4235 25.9135 20.3008V20.3008ZM13.6567 3.86351H15.5153C15.7745 3.86351 15.9845 3.65345 15.9845 3.39429C15.9845 3.13513 15.7745 2.92507 15.5153 2.92507H13.6567C13.3975 2.92507 13.1875 3.13513 13.1875 3.39429C13.1875 3.65345 13.3975 3.86351 13.6567 3.86351ZM16.8324 5.66726H16.2228C15.9637 5.66726 15.7536 5.87732 15.7536 6.13648C15.7536 6.39564 15.9637 6.6057 16.2228 6.6057H16.8324C17.0915 6.6057 17.3016 6.39564 17.3016 6.13648C17.3016 5.87732 17.0915 5.66726 16.8324 5.66726ZM15.5244 4.76456C15.5244 4.88901 15.5738 5.00836 15.6618 5.09635C15.7498 5.18435 15.8691 5.23378 15.9936 5.23378H17.4901C17.7492 5.23378 17.9593 5.02372 17.9593 4.76456C17.9593 4.5054 17.7492 4.29534 17.4901 4.29534H15.9936C15.8691 4.29534 15.7498 4.34478 15.6618 4.43278C15.5738 4.52077 15.5244 4.64012 15.5244 4.76456ZM6.1468 23.5098V24.0646C6.1468 24.5852 5.71203 25.0088 5.17766 25.0088H3.56404V26.007H4.27572C4.8449 26.007 5.30797 26.4179 5.30797 26.923V29.0789C5.30797 29.338 5.09791 29.5481 4.83875 29.5481C4.57959 29.5481 4.36953 29.338 4.36953 29.0789V26.9667C4.35195 26.9571 4.32061 26.9454 4.27566 26.9454H1.91228C1.86828 26.9454 1.83746 26.9569 1.82012 26.9665V29.0789C1.82012 29.338 1.61006 29.5481 1.3509 29.5481C1.09174 29.5481 0.88168 29.338 0.88168 29.0789V26.923C0.88168 26.4179 1.34404 26.007 1.91228 26.007H2.62566V25.0088H1.01211C0.477734 25.0088 0.0429688 24.5852 0.0429688 24.0646V23.5098C0.0429688 22.9892 0.477734 22.5656 1.01211 22.5656H5.17766C5.71203 22.5656 6.1468 22.9892 6.1468 23.5098ZM5.20836 23.5159C5.2043 23.5119 5.19948 23.5089 5.19421 23.5068C5.18893 23.5048 5.18331 23.5038 5.17766 23.504H1.01205C0.994238 23.504 0.984804 23.5117 0.981347 23.5153V24.0591C0.984863 24.0627 0.994297 24.0703 1.01205 24.0703H5.17766C5.18331 24.0705 5.18893 24.0696 5.19421 24.0675C5.19948 24.0655 5.2043 24.0624 5.20836 24.0585V23.5158V23.5159ZM18.2391 3.86351H19.3088C19.568 3.86351 19.778 3.65345 19.778 3.39429C19.778 3.13513 19.568 2.92507 19.3088 2.92507H18.2391C17.98 2.92507 17.7699 3.13513 17.7699 3.39429C17.7699 3.65345 17.98 3.86351 18.2391 3.86351ZM19.337 4.29534H18.7275C18.4683 4.29534 18.2582 4.5054 18.2582 4.76456C18.2582 5.02372 18.4683 5.23378 18.7275 5.23378H19.337C19.5962 5.23378 19.8062 5.02372 19.8062 4.76456C19.8062 4.5054 19.5962 4.29534 19.337 4.29534ZM4.00508 11.0557C5.35455 11.0557 6.45248 9.95855 6.45248 8.60995C6.45248 7.26136 5.35461 6.16255 4.00508 6.16255C2.65555 6.16255 1.55768 7.26042 1.55768 8.60995C1.55768 9.95948 2.65555 11.0557 4.00508 11.0557ZM6.26809 4.67486C6.26809 2.36468 8.61998 0.485168 11.5108 0.485168C12.3702 0.485168 13.2148 0.653098 13.968 0.971438C14.6995 0.661243 15.533 0.485168 16.4172 0.485168C19.3089 0.485168 21.6615 2.36468 21.6615 4.67486C21.6615 6.06265 20.7883 7.36906 19.3629 8.14325V9.7922C19.3629 10.1658 19.1867 10.3302 19.0389 10.4023C18.9659 10.4383 18.8857 10.457 18.8043 10.4571C18.6774 10.4571 18.5243 10.4121 18.3508 10.2767L16.5509 8.86179C16.5086 8.86255 16.4644 8.86296 16.4172 8.86296C15.533 8.86296 14.6994 8.68695 13.9678 8.37681C13.2146 8.69509 12.37 8.86296 11.5108 8.86296C11.4642 8.86296 11.4197 8.86261 11.3772 8.86179L9.57851 10.2757C9.40414 10.4118 9.25057 10.457 9.12348 10.457C9.0422 10.4569 8.96202 10.4382 8.8891 10.4023C8.74139 10.3302 8.5652 10.1659 8.5652 9.7922V8.14325C7.14078 7.36941 6.26809 6.063 6.26809 4.67486ZM12.1129 4.67486C12.1129 6.46671 14.0438 7.92447 16.4172 7.92447C16.5185 7.92447 16.6026 7.92253 16.6819 7.91843L16.8577 7.90929L18.4244 9.14087V7.55872L18.6926 7.43157C19.964 6.82882 20.7231 5.79827 20.7231 4.67491C20.7231 2.88218 18.7914 1.42366 16.4172 1.42366C14.0429 1.42366 12.1129 2.88218 12.1129 4.67491V4.67486ZM16.1772 26.923V29.0788C16.1772 29.338 15.9671 29.548 15.7079 29.548C15.4488 29.548 15.2387 29.338 15.2387 29.0788V26.9664C15.2214 26.9568 15.1906 26.9453 15.1466 26.9453H12.7814C12.7374 26.9453 12.7065 26.9568 12.6892 26.9664V29.0788C12.6892 29.338 12.4791 29.548 12.22 29.548C11.9608 29.548 11.7508 29.338 11.7508 29.0788V26.923C11.7508 26.4179 12.2131 26.0069 12.7814 26.0069H13.4948V17.2406H8.34008C7.94475 17.2406 7.64662 16.8589 7.64662 16.3528V14.5889C7.64662 14.0818 7.94475 13.6995 8.34008 13.6995H19.5895C19.9838 13.6995 20.2813 14.0818 20.2813 14.5889V16.3528C20.2813 16.859 19.9839 17.2406 19.5895 17.2406H14.4332V26.0069H15.1466C15.7148 26.0069 16.1772 26.4179 16.1772 26.923ZM19.3429 16.3021V14.6379H8.58506V16.3021H19.3429H19.3429Z" fill="#F37329"/>
</svg>
