<svg width="24" height="27" viewBox="0 0 24 27" fill="none" xmlns="http://www.w3.org/2000/svg">
<path d="M19.0312 0.515625V4.03125H4.96875V0.515625H0.574219V27H23.4258V0.515625H19.0312ZM5.84766 23.7896L3.46816 21.4107L4.71152 20.1674L5.84766 21.3041L8.7416 18.4096L9.98496 19.6529L5.84766 23.7896ZM5.84766 18.5162L3.46816 16.1373L4.71152 14.8939L5.84766 16.0307L8.7416 13.1361L9.98496 14.3795L5.84766 18.5162ZM5.84766 13.2428L3.46816 10.8639L4.71152 9.62051L5.84766 10.7572L8.7416 7.8627L9.98496 9.10605L5.84766 13.2428ZM19.9102 21.668H11.1211V19.9102H19.9102V21.668ZM19.9102 16.3945H11.1211V14.6367H19.9102V16.3945ZM19.9102 11.1211H11.1211V9.36328H19.9102V11.1211Z" fill="#F37329"/>
</svg>
