<svg width="28" height="20" viewBox="0 0 28 20" fill="none" xmlns="http://www.w3.org/2000/svg">
<path fillRule="evenodd" clipRule="evenodd" d="M27.19 4.23506C27.19 4.61186 26.5696 5.08718 25.4789 5.36096C25.5391 4.53626 25.5391 3.93422 25.4789 3.10952C26.5696 3.38258 27.19 3.8579 27.19 4.23506ZM22.6247 2.084C22.8729 0.700463 23.3242 -0.0057373 23.5573 -0.0057373C23.7905 -0.0057373 24.2455 0.700523 24.4937 2.084C23.8807 2.02424 23.2376 2.02496 22.6247 2.084ZM19.9246 4.23506C19.9246 3.8579 20.5489 3.38252 21.6357 3.10952C21.583 3.85908 21.583 4.61141 21.6357 5.36096C20.5489 5.08724 19.9246 4.61186 19.9246 4.23506ZM24.614 2.95196C24.693 3.78494 24.693 4.68524 24.614 5.51816C23.9296 5.59976 23.1888 5.6009 22.5081 5.51816C22.4254 4.75778 22.4254 3.7127 22.5081 2.95196C23.1925 2.86922 23.9258 2.87036 24.614 2.95196ZM24.4937 6.38726C24.2455 7.7693 23.7904 8.4755 23.5573 8.4755C23.3242 8.4755 22.8729 7.76924 22.6247 6.38726C23.2414 6.4448 23.877 6.44552 24.4937 6.38726ZM12.4448 5.99576C12.4448 5.03006 13.2307 4.2437 14.1972 4.2437C15.1637 4.2437 15.9459 5.03 15.9459 5.99576C15.9459 6.96224 15.1637 7.74782 14.1972 7.74782C13.2308 7.74782 12.4448 6.96224 12.4448 5.99576ZM18.6648 17.6329C18.8867 17.6329 19.0634 17.8126 19.0634 18.0334C19.0634 18.2541 18.8867 18.4346 18.6648 18.4346H9.42881C9.21071 18.4346 9.03017 18.2541 9.03017 18.0334C9.03017 17.8126 9.21065 17.6329 9.42881 17.6329H18.6648ZM23.5235 9.16256C23.3211 9.07112 23.0441 9.06614 22.8391 9.1415C21.8689 9.51494 20.8911 9.70448 19.8494 9.6131C17.8389 9.43622 16.4846 8.35124 14.0731 8.38226C11.8891 8.41034 10.4589 9.44444 8.54129 9.6131C7.50335 9.70448 6.52187 9.51494 5.55161 9.1415C5.01587 8.94458 4.39439 9.30182 4.45355 9.8282C4.49741 10.2185 4.85339 10.4234 5.18687 10.5453C6.02549 10.8649 6.95057 11.0274 7.84937 11.0568C9.26387 11.105 9.76145 10.7464 10.9932 10.5901C11.3768 10.542 11.7227 10.83 11.7453 11.2151L11.9146 14.1138C11.9536 14.7859 11.5755 15.3988 10.9594 15.6672L6.16463 17.7532C5.64701 17.977 5.36243 18.5203 5.48021 19.0705C5.59679 19.6207 6.06689 20.0058 6.63095 20.0058H21.7636C22.6594 20.0058 23.2091 19.0544 22.8015 18.2786C22.6774 18.0424 22.4781 17.8593 22.2337 17.7532L17.4314 15.6672C16.8167 15.3995 16.4372 14.7827 16.4762 14.1141L16.6492 11.2151C16.6756 10.8267 17.014 10.542 17.4013 10.5905C18.6458 10.7455 19.1168 11.1054 20.5489 11.0568C21.4477 11.0275 22.3653 10.8646 23.2076 10.5454V10.5446C23.6263 10.4189 24.0649 10.0582 23.9109 9.58076C23.8507 9.39158 23.704 9.24416 23.5235 9.16256ZM4.51751 5.77166L2.53571 3.50852C2.38151 3.33218 2.40035 3.06326 2.57705 2.90834C2.61886 2.87152 2.66754 2.84335 2.72028 2.82543C2.77303 2.80752 2.8288 2.80022 2.88438 2.80396C2.93997 2.80771 2.99426 2.82241 3.04413 2.84724C3.094 2.87206 3.13846 2.90651 3.17495 2.9486L4.82585 4.83266L7.05215 2.11076C7.19879 1.92914 7.46957 1.90244 7.65005 2.05058C7.83431 2.20028 7.85687 2.46764 7.71023 2.65004L5.16431 5.76044C4.99883 5.96456 4.68671 5.96834 4.51751 5.77166ZM9.42881 2.68346C9.42881 4.81796 7.18751 7.41692 5.11919 8.4161C3.04709 7.41692 0.80957 4.81796 0.80957 2.68346C0.80957 1.42742 1.83245 0.406403 3.08471 0.406403C3.73907 0.406403 4.36709 0.688823 4.79951 1.18298C4.96499 1.3748 5.26961 1.3748 5.43881 1.18298C5.87501 0.688823 6.49553 0.406403 7.14989 0.406403C8.40971 0.406403 9.42881 1.42742 9.42881 2.68346Z" fill="#F37329"/>
</svg>
