<svg width="30" height="30" viewBox="0 0 30 30" fill="none" xmlns="http://www.w3.org/2000/svg">
<path fillRule="evenodd" clipRule="evenodd" d="M8.44922 6.86129C8.53125 7.1484 8.6543 7.41793 8.8125 7.65816L5.4375 9.19918C5.35547 8.91207 5.23242 8.64254 5.07422 8.4023L8.44922 6.86129ZM17.1152 2.89449L13.7402 4.4355C13.8984 4.6816 14.0273 4.95113 14.1094 5.23238L17.4844 3.69136C17.3203 3.45113 17.1973 3.1816 17.1152 2.89449ZM4.66992 10.0136C4.59961 7.30074 0.621094 7.30074 0.550781 10.0136C0.615234 12.7265 4.60547 12.7265 4.66992 10.0136ZM4.24219 16.0605H0.978516C0.826172 16.0605 0.691406 16.1191 0.591797 16.2246C0.492188 16.3242 0.427734 16.4589 0.427734 16.6113V23.1035H4.78711V16.6054C4.78711 16.3066 4.54102 16.0605 4.24219 16.0605ZM12.9082 12.0996H9.64453C9.3457 12.0996 9.09961 12.3457 9.09961 12.6445V23.0976H13.2656C13.1777 22.166 13.2422 21.1757 13.459 20.2793V12.6445C13.4531 12.3457 13.2129 12.0996 12.9082 12.0996ZM12.7324 4.59371C10.7637 2.72457 7.94531 5.53707 9.82031 7.50582C11.7891 9.37496 14.6016 6.56246 12.7324 4.59371ZM22.002 8.68355C22.002 8.38472 21.7559 8.13863 21.457 8.13863H18.1934C17.8887 8.13863 17.6484 8.38472 17.6484 8.68355V14.7539C18.9316 14.0332 20.4434 13.6347 22.0078 13.664V8.68355H22.002ZM21.3984 0.632771C19.4297 -1.23637 16.6113 1.57613 18.4863 3.54488C20.4727 5.40816 23.2617 2.61324 21.3984 0.632771ZM21.8438 28.0488C18.6562 28.0488 16.0723 25.4648 16.0723 22.2773C16.0312 17.1621 22.3945 14.5898 25.9277 18.1933C29.5312 21.7265 26.959 28.0898 21.8438 28.0488ZM23.3848 19.2011C23.4258 17.9414 21.7617 17.2734 20.918 18.1757C20.2969 18.6796 20.5313 19.998 20.4902 20.7011C19.8047 20.7421 18.4688 20.5078 17.9707 21.123C17.0625 21.9668 17.7363 23.6367 18.9902 23.5898H21.9375C22.3359 23.5898 22.6992 23.4257 22.9629 23.1679C23.2266 22.9043 23.3848 22.5468 23.3848 22.1425V19.2011ZM21.3691 19.2011V21.1406C21.3691 21.3867 21.1699 21.58 20.9297 21.58H18.9902C18.832 21.58 18.6914 21.6445 18.5918 21.7441C18.2402 22.0722 18.498 22.7285 18.9902 22.705H21.9375C22.0957 22.705 22.2363 22.6406 22.3359 22.541C22.4355 22.4414 22.5 22.3007 22.5 22.1425V19.1953C22.5 18.4628 21.375 18.457 21.3691 19.2011ZM27.3105 27.75C24.5332 30.7324 19.1484 30.7324 16.3711 27.75C11.543 22.9804 14.9648 14.5253 21.8379 14.5488C28.6992 14.5136 32.1504 22.9687 27.3105 27.75ZM21.8438 15.6211C15.9492 15.5742 12.9785 22.9101 17.1387 26.9824C19.4941 29.5429 24.1934 29.5429 26.5488 26.9824C30.709 22.916 27.7383 15.58 21.8438 15.6211Z" fill="#F37329"/>
</svg>
