<svg width="40" height="40" viewBox="0 0 40 40" fill="none" xmlns="http://www.w3.org/2000/svg">
<g clipPath="url(#clip0_1141_12236)">
<path fillRule="evenodd" clipRule="evenodd" d="M22.721 8.59372C23.928 8.88125 25.0813 9.35942 26.1377 10.0102L28.3578 9.02411L30.9746 11.6408L29.9888 13.8603C30.6397 14.9169 31.118 16.0705 31.4055 17.2778L33.6706 18.1497V21.8502L31.4049 22.7223C31.1174 23.9293 30.6392 25.0826 29.9885 26.139L30.9745 28.3591L28.3578 30.9758L26.1384 29.99C25.0818 30.641 23.9281 31.1192 22.7208 31.4068L21.8491 33.6718H18.1485L17.2764 31.4062C16.0695 31.1187 14.9161 30.6405 13.8598 29.9897L11.6396 30.9758L9.02291 28.3592L10.0087 26.1397C9.35774 25.0831 8.87952 23.9294 8.59205 22.7222L6.3269 21.8503V18.1497L8.59229 17.2778C8.87978 16.0707 9.35797 14.9172 10.0089 13.8608L9.02291 11.6409L11.6396 9.02419L13.8597 10.0103C14.9161 9.35951 16.0694 8.88135 17.2764 8.5938L18.1485 6.32818H21.8489L22.721 8.59372ZM19.9988 12.357C15.7778 12.357 12.3559 15.779 12.3559 20C12.3559 24.2209 15.7778 27.6429 19.9988 27.6429C24.2197 27.6429 27.6417 24.2209 27.6417 20C27.6417 15.779 24.2197 12.357 19.9988 12.357ZM19.9988 13.607C16.468 13.607 13.6058 16.4691 13.6058 20C13.6058 23.5308 16.4679 26.3929 19.9988 26.3929C23.5296 26.3929 26.3917 23.5308 26.3917 20C26.3917 16.4692 23.5296 13.607 19.9988 13.607ZM19.077 20.619L17.5089 19.0509C17.1024 18.6445 16.4431 18.6445 16.0367 19.0509C15.6303 19.4573 15.6303 20.1166 16.0367 20.5229L18.3431 22.8293C18.7496 23.2358 19.4088 23.2358 19.8152 22.8293C21.2053 21.4391 22.5799 20.0333 23.9636 18.6367C24.3671 18.2295 24.3659 17.5723 23.9592 17.1679C23.5524 16.7633 22.8934 16.7644 22.4895 17.1724L19.077 20.619ZM20.0506 38.1258C11.1583 38.1577 3.49713 31.6887 2.09588 22.8322C0.795414 14.613 5.31713 6.51419 12.9428 3.30427L12.0877 4.91638C12.0495 4.98884 12.026 5.0681 12.0185 5.14964C12.0109 5.23119 12.0196 5.31342 12.0438 5.39164C12.0681 5.46985 12.1075 5.54252 12.1599 5.60549C12.2122 5.66847 12.2765 5.72051 12.3489 5.75865C12.4214 5.79681 12.5006 5.82033 12.5822 5.82786C12.6637 5.83538 12.746 5.82677 12.8242 5.80251C12.9024 5.77825 12.9751 5.73882 13.038 5.68646C13.101 5.63411 13.1531 5.56987 13.1912 5.4974L14.7978 2.46849C15.0074 2.11294 14.818 1.6474 14.4115 1.54576L11.0566 0.704663C10.9771 0.684774 10.8944 0.680742 10.8134 0.692798C10.7323 0.704855 10.6544 0.732762 10.5841 0.774927C10.5139 0.817092 10.4526 0.872689 10.4038 0.938542C10.355 1.00439 10.3197 1.07921 10.2998 1.15872C10.2799 1.23823 10.2759 1.32088 10.2879 1.40194C10.3 1.48301 10.3279 1.5609 10.3701 1.63118C10.4122 1.70146 10.4678 1.76274 10.5337 1.81153C10.5995 1.86032 10.6743 1.89565 10.7539 1.91552L12.1799 2.2731C4.18213 5.79513 -0.508023 14.3475 0.865414 23.0275C2.36346 32.4961 10.5441 39.405 20.0506 39.3709C20.2136 39.3677 20.3689 39.3008 20.483 39.1844C20.5972 39.068 20.6611 38.9114 20.6611 38.7484C20.6611 38.5853 20.5972 38.4288 20.483 38.3124C20.3689 38.196 20.2136 38.129 20.0506 38.1258ZM29.2436 38.0843L27.8163 37.7264C35.8492 34.1948 40.508 25.6685 39.1321 16.9723C37.6337 7.50216 29.4554 0.594194 19.9469 0.629037C19.7835 0.631626 19.6276 0.698358 19.513 0.814832C19.3984 0.931307 19.3341 1.08819 19.3341 1.25162C19.3341 1.41505 19.3984 1.57192 19.513 1.6884C19.6276 1.80487 19.7835 1.8716 19.9469 1.87419C28.8427 1.84162 36.4998 8.30771 37.9017 17.1678C39.2049 25.4045 34.7138 33.4704 27.0536 36.6977L27.9098 35.0836C27.948 35.0111 27.9715 34.9318 27.979 34.8503C27.9865 34.7688 27.9779 34.6865 27.9536 34.6083C27.9294 34.5301 27.89 34.4574 27.8376 34.3945C27.7853 34.3315 27.721 34.2794 27.6485 34.2413C27.5761 34.2031 27.4968 34.1796 27.4153 34.1721C27.3337 34.1646 27.2515 34.1732 27.1733 34.1974C27.0951 34.2217 27.0224 34.2611 26.9594 34.3135C26.8965 34.3658 26.8444 34.4301 26.8063 34.5025L25.1996 37.5315C24.99 37.8871 25.1793 38.3525 25.5859 38.4542L28.9409 39.2954C29.0204 39.3153 29.103 39.3194 29.1841 39.3073C29.2652 39.2952 29.3431 39.2673 29.4133 39.2252C29.4836 39.183 29.5449 39.1274 29.5937 39.0616C29.6425 38.9957 29.6778 38.9209 29.6977 38.8414C29.7176 38.7619 29.7216 38.6792 29.7096 38.5981C29.6975 38.517 29.6696 38.4391 29.6275 38.3688C29.5853 38.2985 29.5297 38.2372 29.4638 38.1883C29.398 38.1395 29.3231 38.1042 29.2436 38.0843Z" fill="#F37329"/>
</g>
<defs>
<clipPath id="clip0_1141_12236">
<rect width="40" height="40" fill="white"/>
</clipPath>
</defs>
</svg>
