<svg width="40" height="40" viewBox="0 0 40 40" fill="none" xmlns="http://www.w3.org/2000/svg">
<path d="M26.7459 33.1536L25.0842 33.5192C25.0371 33.529 24.9943 33.5533 24.9618 33.5886C24.9292 33.6239 24.9084 33.6685 24.9024 33.7162L24.6639 35.447C24.6386 35.6306 24.4217 35.7137 24.2803 35.5939L22.8305 34.3661C23.9855 33.7058 24.8596 32.6654 25.3305 31.4562L26.8473 32.7461C26.995 32.8719 26.9353 33.1119 26.7459 33.1536ZM20.1408 12.2729L8.18113 9.096V17.1228C8.18113 17.5032 8.44676 17.8222 8.8209 17.8911C22.7331 20.4586 18.5915 20.4586 32.5036 17.8911C32.8779 17.8222 33.1435 17.5032 33.1435 17.1228V9.096L21.1838 12.2729C20.8364 12.3651 20.4882 12.3651 20.1408 12.2729ZM21.1573 33.714C18.771 34.3534 16.3181 32.9372 15.6786 30.5508C15.0392 28.1644 16.4554 25.7116 18.8418 25.0722C21.2281 24.4328 23.681 25.849 24.3204 28.2353C24.9599 30.6217 23.5437 33.0746 21.1573 33.714ZM22.2278 29.8033C21.8356 28.8288 20.8722 28.6636 19.9383 28.7564C19.6954 28.7805 19.1747 28.8193 19.0785 28.5192C18.9775 28.2046 19.2975 27.9658 19.5611 27.8809C19.8788 27.7787 20.2146 27.8468 20.4268 28.1205C20.4769 28.1853 20.5391 28.2396 20.6101 28.2803C20.6811 28.321 20.7595 28.3473 20.8406 28.3577C20.9218 28.3681 21.0042 28.3624 21.0832 28.341C21.1622 28.3196 21.2361 28.2828 21.3009 28.2328C21.3657 28.1828 21.4199 28.1205 21.4606 28.0495C21.5013 27.9785 21.5276 27.9002 21.5381 27.819C21.5485 27.7378 21.5428 27.6554 21.5214 27.5765C21.5 27.4975 21.4632 27.4235 21.4132 27.3587C21.0057 26.8331 20.4492 26.6037 19.895 26.5908L19.87 26.4976C19.8256 26.3396 19.7207 26.2055 19.5781 26.1243C19.4355 26.043 19.2666 26.0212 19.108 26.0636C18.9494 26.106 18.8139 26.2091 18.7308 26.3507C18.6477 26.4922 18.6237 26.6608 18.664 26.8199L18.6907 26.9193C18.0051 27.3445 17.6358 28.1008 17.8921 28.8999C18.2063 29.88 19.1485 30.0871 20.0605 29.9965C20.3608 29.9667 20.9304 29.9186 21.0707 30.2671C21.2021 30.5947 20.6956 30.8306 20.4493 30.9029C20.1028 31.0046 19.6626 30.9726 19.4694 30.624C19.4299 30.5521 19.3766 30.4886 19.3125 30.4373C19.2484 30.386 19.1748 30.3478 19.0959 30.3251C19.017 30.3023 18.9344 30.2954 18.8528 30.3047C18.7712 30.314 18.6922 30.3393 18.6205 30.3792C18.5487 30.4191 18.4856 30.4728 18.4346 30.5372C18.3837 30.6016 18.346 30.6754 18.3237 30.7544C18.3014 30.8335 18.2949 30.9161 18.3047 30.9977C18.3144 31.0792 18.3402 31.158 18.3805 31.2295C18.7354 31.8698 19.3893 32.1983 20.1055 32.1996L20.1293 32.2884C20.1738 32.4464 20.2787 32.5806 20.4213 32.6618C20.5639 32.743 20.7328 32.7648 20.8914 32.7224C21.05 32.6801 21.1855 32.5769 21.2686 32.4354C21.3516 32.2938 21.3756 32.1253 21.3354 31.9662L21.3145 31.8882C22.1095 31.4601 22.5791 30.6771 22.2278 29.8033ZM16.6364 34.0147L16.0601 35.9212C16.004 36.1068 16.1843 36.2762 16.3661 36.2087L17.961 35.6158C18.0058 35.5985 18.0549 35.5957 18.1015 35.6077C18.148 35.6198 18.1896 35.646 18.2205 35.6828L19.3586 37.0086C19.4793 37.1492 19.7066 37.1015 19.7606 36.9242L20.3139 35.1072C18.9796 35.179 17.6838 34.7744 16.6364 34.0147ZM14.8772 26.8576C11.3311 27.7458 7.88715 28.4035 4.63051 28.8362C4.20809 28.8923 3.90785 29.2785 3.95754 29.7017C4.27512 32.409 5.14848 35.3763 6.34809 37.824C6.53559 38.2066 6.99723 38.3686 7.38262 38.1869C9.76356 37.0649 12.3238 35.9991 15.028 35.0157L15.6168 33.0679C15.078 32.43 14.6868 31.681 14.4711 30.8744C14.0979 29.481 14.279 28.0632 14.8772 26.8576ZM33.6511 20.9621C33.4635 20.5794 33.0019 20.4176 32.6165 20.5992C29.6446 21.9997 26.3934 23.3126 22.9314 24.4871C24.1665 25.2248 25.1286 26.4219 25.5279 27.9118C25.7201 28.6273 25.7701 29.3735 25.6751 30.1083L27.2246 31.426C30.0304 30.7877 32.7596 30.2965 35.3687 29.9499C35.7911 29.8937 36.0914 29.5076 36.0418 29.0844C35.7239 26.377 34.8507 23.4099 33.6511 20.9621ZM38.6358 27.7265C38.2695 25.3772 37.5318 22.8713 36.5671 20.6981C36.5245 20.601 36.4625 20.5136 36.3848 20.4413C36.3072 20.369 36.2156 20.3134 36.1156 20.2778C36.0157 20.2422 35.9096 20.2275 35.8037 20.2344C35.6979 20.2413 35.5945 20.2699 35.5001 20.3182C35.2933 20.4227 35.0861 20.5263 34.8783 20.629C36.0509 23.0852 36.9088 25.9995 37.2536 28.6994C37.4847 28.6731 37.7154 28.6476 37.9446 28.6237C38.0502 28.6132 38.1525 28.5813 38.2453 28.5298C38.338 28.4783 38.4193 28.4084 38.484 28.3244C38.5487 28.2403 38.5956 28.1439 38.6217 28.0411C38.6478 27.9383 38.6526 27.8312 38.6358 27.7265ZM1.99027 23.0214L3.57231 21.8317C3.61273 21.8007 3.66224 21.7839 3.71316 21.7839C3.76409 21.7839 3.8136 21.8007 3.85402 21.8317L5.43621 23.0214C5.59082 23.1376 5.81137 23.0275 5.81137 22.834V17.0394C5.81194 16.9981 5.80135 16.9575 5.78072 16.9217C5.76009 16.886 5.73019 16.8565 5.69418 16.8364L4.33816 16.0535V6.78186L20.4617 11.0648C20.5992 11.1013 20.7254 11.1013 20.8629 11.0648L38.0626 6.496C38.2943 6.43443 38.2943 6.10451 38.0626 6.04295L20.8629 1.4742C20.7254 1.43764 20.5993 1.43764 20.4618 1.4742L3.26199 6.04295C3.14613 6.07373 3.08824 6.17162 3.08824 6.26943V16.0534L1.73223 16.8364C1.69622 16.8565 1.66632 16.886 1.64569 16.9217C1.62506 16.9575 1.61447 16.9981 1.61504 17.0394V22.834C1.61504 23.0275 1.83566 23.1376 1.99027 23.0214ZM2.05441 30.1623C1.94886 30.1729 1.84656 30.2049 1.75383 30.2564C1.66109 30.3079 1.57986 30.3778 1.51514 30.4618C1.45041 30.5459 1.40356 30.6423 1.37745 30.7451C1.35134 30.8479 1.34653 30.955 1.36332 31.0597C1.72973 33.409 2.46738 35.9148 3.43199 38.088C3.47463 38.1852 3.53667 38.2725 3.61432 38.3448C3.69196 38.4171 3.78356 38.4727 3.8835 38.5083C3.98343 38.5439 4.08958 38.5587 4.19543 38.5517C4.30128 38.5448 4.4046 38.5163 4.49902 38.4679C4.70578 38.3634 4.91302 38.2598 5.12074 38.1572C3.94816 35.7012 3.09027 32.7864 2.74543 30.0868C2.51426 30.1129 2.28371 30.1384 2.05441 30.1623Z" fill="#F37329"/>
</svg>
