<svg width="40" height="40" viewBox="0 0 40 40" fill="none" xmlns="http://www.w3.org/2000/svg">
<g clipPath="url(#clip0_1141_12295)">
<path d="M15.2677 14.3546H12.4642C13.5841 12.862 15.1264 11.7273 16.8903 11.1103C16.1506 12.0567 15.6309 13.215 15.2677 14.3546ZM10.6053 19.3749H14.4542C14.4937 18.037 14.6589 16.7643 14.9264 15.6045H11.6716C11.0541 16.772 10.6907 18.057 10.6053 19.3749ZM20.625 10.6906V14.3546H23.4195C22.9505 13.0249 22.0143 11.1634 20.625 10.6906ZM19.375 29.309V25.6453H16.5807C17.0496 26.9748 17.9858 28.8362 19.375 29.309ZM16.8902 28.8894C16.1507 27.9431 15.6309 26.7847 15.2677 25.6453H12.4643C13.5842 27.1378 15.1266 28.2724 16.8902 28.8894ZM11.6716 24.3953H14.9264C14.6589 23.2355 14.4937 21.9629 14.4542 20.6249H10.6053C10.6908 21.9429 11.0542 23.2278 11.6716 24.3953ZM24.2955 20.6249H20.625V24.3953H23.7926C24.0769 23.2548 24.2537 21.9795 24.2955 20.6249ZM20.625 29.3091C22.0143 28.8363 22.9505 26.9749 23.4194 25.6453H20.625V29.3091ZM19.375 20.6249H15.7046C15.7464 21.9795 15.9232 23.2548 16.2076 24.3953H19.375V20.6249ZM28.0021 12.949H28.6153C28.7811 12.949 28.94 12.8831 29.0573 12.7659C29.1745 12.6487 29.2403 12.4897 29.2403 12.324V6.92203H32.4181C32.6716 7.60203 33.3268 8.08641 34.0952 8.08641C35.0834 8.08641 35.8845 7.28531 35.8845 6.29703C35.8845 5.30875 35.0834 4.50766 34.0952 4.50766C33.3268 4.50766 32.6716 4.99195 32.4181 5.67195H28.6153C28.4496 5.67195 28.2906 5.7378 28.1734 5.85501C28.0562 5.97222 27.9903 6.13119 27.9903 6.29695V11.699H26.697C27.1664 12.0782 27.603 12.4964 28.0021 12.949ZM25.0736 24.3953H28.3284C28.9459 23.2278 29.3094 21.9429 29.3948 20.6249H25.5458C25.5063 21.9628 25.3411 23.2355 25.0736 24.3953ZM28.3286 15.6045H25.0737C25.3412 16.7643 25.5064 18.037 25.5458 19.3749H29.3948C29.3094 18.057 28.9461 16.772 28.3286 15.6045ZM34.0952 31.9137C33.3268 31.9137 32.6716 32.3981 32.4181 33.0781H29.2403V27.6761C29.2403 27.5103 29.1745 27.3514 29.0573 27.2342C28.94 27.1169 28.7811 27.0511 28.6153 27.0511H28.0017C27.6027 27.5038 27.166 27.922 26.6965 28.3011H27.9903V33.7031C27.9903 33.8689 28.0562 34.0279 28.1734 34.1451C28.2906 34.2623 28.4496 34.3281 28.6153 34.3281H32.4181C32.6716 35.0081 33.3268 35.4924 34.0952 35.4924C35.0834 35.4924 35.8845 34.6913 35.8845 33.703C35.8845 32.7148 35.0834 31.9137 34.0952 31.9137ZM24.7323 14.3546H27.536C26.4161 12.8619 24.8737 11.7272 23.1098 11.1102C23.8495 12.0566 24.3691 13.215 24.7323 14.3546ZM19.375 15.6045H16.2075C15.9232 16.745 15.7464 18.0203 15.7046 19.3749H19.375V15.6045ZM19.375 10.6906C17.9857 11.1635 17.0496 13.025 16.5807 14.3545H19.375V10.6906ZM35.2598 20.6251C35.5134 21.305 36.1684 21.7894 36.9368 21.7894C37.925 21.7894 38.7261 20.9883 38.7261 20C38.7261 19.0118 37.925 18.2106 36.9368 18.2106C36.1684 18.2106 35.5132 18.695 35.2597 19.3751H30.6471C30.6591 19.5818 30.6653 19.7901 30.6653 19.9998C30.6653 20.2098 30.6591 20.4182 30.6471 20.6251H35.2598ZM32.0277 11.7104C31.862 11.7104 31.703 11.7762 31.5858 11.8934C31.4686 12.0107 31.4027 12.1696 31.4027 12.3354V16.317H30.0123C30.1627 16.7256 30.2877 17.1431 30.3866 17.567H32.0278C32.1936 17.567 32.3525 17.5012 32.4698 17.384C32.587 17.2668 32.6528 17.1078 32.6528 16.942V12.9604H35.8305C36.0841 13.6404 36.7392 14.1248 37.5076 14.1248C38.4958 14.1248 39.297 13.3237 39.297 12.3354C39.297 11.3472 38.4959 10.546 37.5076 10.546C36.7392 10.546 36.0841 11.0304 35.8305 11.7103H32.0277V11.7104ZM37.5076 25.8753C36.7392 25.8753 36.0841 26.3597 35.8305 27.0397H32.6528V23.058C32.6528 22.8922 32.587 22.7332 32.4698 22.616C32.3525 22.4988 32.1936 22.433 32.0278 22.433H30.3865C30.2876 22.8569 30.1626 23.2744 30.0123 23.683H31.4028V27.6647C31.4028 27.8304 31.4687 27.9894 31.5859 28.1066C31.7031 28.2238 31.8621 28.2897 32.0278 28.2897H35.8306C36.0841 28.9697 36.7393 29.4541 37.5077 29.4541C38.4959 29.4541 39.297 28.653 39.297 27.6647C39.297 26.6764 38.4958 25.8753 37.5076 25.8753ZM23.7926 15.6045H20.625V19.3749H24.2955C24.2537 18.0204 24.077 16.745 23.7926 15.6045ZM7.86758 20C7.86758 13.2995 13.2995 7.86758 20 7.86758C21.115 7.86758 22.1946 8.01875 23.2202 8.30047V0.703125H16.7798V3.93461C14.6855 4.35239 12.6938 5.17786 10.918 6.36406L8.63195 4.07805L4.07789 8.63203L6.36391 10.918C5.19844 12.6646 4.35945 14.6475 3.93438 16.7798H0.703125V23.2202H3.93438C4.35216 25.3145 5.17766 27.3063 6.36391 29.0821L4.07797 31.368L8.63195 35.922L10.9179 33.6361C12.6645 34.8016 14.6473 35.6405 16.7798 36.0655V39.2969H23.2202V31.6995C22.171 31.9874 21.0879 32.133 20 32.1324C13.2995 32.1323 7.86758 26.7005 7.86758 20ZM24.7323 25.6453C24.3691 26.7848 23.8493 27.9431 23.1097 28.8895C24.8733 28.2726 26.416 27.1379 27.5358 25.6453H24.7323Z" fill="#F37329"/>
</g>
<defs>
<clipPath id="clip0_1141_12295">
<rect width="40" height="40" fill="white"/>
</clipPath>
</defs>
</svg>
