<svg width="40" height="40" viewBox="0 0 40 40" fill="none" xmlns="http://www.w3.org/2000/svg">
<path fillRule="evenodd" clipRule="evenodd" d="M38.75 31.9531C38.75 35.8364 32.454 38.9844 24.6875 38.9844C20.9158 38.9844 17.4912 38.2422 14.9658 37.0334C15.3541 36.8807 15.7314 36.7013 16.095 36.4964L16.9005 37.3019C17.174 37.5747 17.5446 37.7279 17.9309 37.7279C18.3173 37.7279 18.6878 37.5747 18.9614 37.3019L20.3609 35.9024C20.6338 35.6288 20.787 35.2583 20.787 34.8719C20.787 34.4855 20.6338 34.115 20.3609 33.8414L19.5554 33.036C19.9112 32.4046 20.1897 31.7326 20.3849 31.0346H21.5234C21.9098 31.0341 22.2802 30.8804 22.5534 30.6072C22.8266 30.334 22.9803 29.9636 22.9808 29.5773V27.5981C22.9803 27.2117 22.8266 26.8413 22.5534 26.5681C22.2802 26.2949 21.9098 26.1412 21.5234 26.1406H20.3849C20.1897 25.4426 19.9113 24.7707 19.5555 24.1392L20.3609 23.3338C20.5625 23.1317 20.7004 22.875 20.7576 22.5954C20.8148 22.3159 20.7888 22.0256 20.6828 21.7607C20.9584 21.6899 21.234 21.626 21.5094 21.569C23.5531 22.3663 25.8218 22.3663 27.8655 21.569C28.4851 21.6972 29.0975 21.8579 29.7002 22.0503L29.2529 22.4977C28.8949 22.8569 28.694 23.3433 28.694 23.8504C28.694 24.3575 28.8949 24.8439 29.2529 25.2031L30.0068 25.9569C30.366 26.3148 30.8524 26.5158 31.3595 26.5158C31.8665 26.5158 32.3529 26.3148 32.7121 25.9569L34.3377 24.3312C36.9126 26.1641 38.75 28.7535 38.75 31.9531ZM10.6571 18.191C10.5194 18.1914 10.3874 18.2462 10.29 18.3437C10.1926 18.4411 10.1377 18.5731 10.1373 18.7108V20.5926C9.03455 20.7995 7.98694 21.2336 7.06102 21.8672L5.73008 20.5364C5.6324 20.4392 5.50025 20.3847 5.3625 20.3847C5.22475 20.3847 5.0926 20.4392 4.99492 20.5364L3.59539 21.9359C3.49827 22.0336 3.44375 22.1657 3.44375 22.3035C3.44375 22.4412 3.49827 22.5734 3.59539 22.671L4.92633 24.002C4.29277 24.9279 3.85866 25.9755 3.65156 27.0781H1.76984C1.63207 27.0785 1.50005 27.1334 1.40264 27.2308C1.30523 27.3283 1.25035 27.4603 1.25 27.5981V29.5773C1.25039 29.715 1.30529 29.847 1.40269 29.9444C1.5001 30.0418 1.63209 30.0967 1.76984 30.0971H3.65164C3.85866 31.1998 4.29278 32.2474 4.92641 33.1734L3.59539 34.5043C3.49827 34.602 3.44375 34.7341 3.44375 34.8719C3.44375 35.0096 3.49827 35.1418 3.59539 35.2395L4.99492 36.639C5.0926 36.7361 5.22475 36.7906 5.3625 36.7906C5.50025 36.7906 5.6324 36.7361 5.73008 36.639L7.06102 35.308C7.98696 35.9416 9.03456 36.3757 10.1373 36.5828V38.4646C10.1377 38.6023 10.1926 38.7343 10.29 38.8317C10.3874 38.9291 10.5194 38.984 10.6571 38.9844H12.6363C12.7741 38.984 12.9061 38.9291 13.0035 38.8317C13.1009 38.7343 13.1558 38.6023 13.1562 38.4646V36.5828C14.2589 36.3758 15.3065 35.9417 16.2323 35.308L17.5634 36.639C17.661 36.7361 17.7932 36.7906 17.9309 36.7906C18.0687 36.7906 18.2008 36.7361 18.2985 36.639L19.698 35.2396C19.7952 35.1419 19.8497 35.0097 19.8497 34.872C19.8497 34.7342 19.7952 34.6021 19.698 34.5044L18.3672 33.1734C19.0008 32.2474 19.4349 31.1998 19.642 30.0971H21.5234C21.6612 30.0967 21.7932 30.0418 21.8906 29.9444C21.988 29.847 22.0429 29.715 22.0433 29.5773V27.5981C22.0429 27.4603 21.9881 27.3283 21.8906 27.2308C21.7932 27.1334 21.6612 27.0785 21.5234 27.0781H19.6418C19.4348 25.9755 19.0008 24.9279 18.3672 24.002L19.6981 22.671C19.7952 22.5734 19.8498 22.4412 19.8498 22.3035C19.8498 22.1657 19.7952 22.0336 19.6981 21.9359L18.2986 20.5364C18.2009 20.4392 18.0688 20.3847 17.931 20.3847C17.7933 20.3847 17.6611 20.4392 17.5634 20.5364L16.2324 21.8672C15.3065 21.2336 14.2589 20.7996 13.1562 20.5926V18.711C13.1559 18.5732 13.101 18.4412 13.0036 18.3438C12.9062 18.2464 12.7742 18.1915 12.6364 18.1911L10.6571 18.191ZM11.6467 24.8969C10.9167 24.8969 10.2031 25.1134 9.59618 25.5189C8.98922 25.9245 8.51615 26.5009 8.2368 27.1753C7.95745 27.8498 7.88437 28.5919 8.02678 29.3078C8.1692 30.0238 8.52073 30.6814 9.03691 31.1976C9.5531 31.7138 10.2108 32.0653 10.9267 32.2077C11.6427 32.3501 12.3848 32.277 13.0592 31.9976C13.7336 31.7183 14.31 31.2452 14.7156 30.6382C15.1211 30.0313 15.3376 29.3177 15.3376 28.5877C15.3376 27.6088 14.9487 26.6701 14.2565 25.9779C13.5644 25.2857 12.6256 24.8969 11.6467 24.8969ZM14.0648 16.5889H12.4892C12.1072 16.5878 11.7412 16.4356 11.4711 16.1655C11.2009 15.8953 11.0487 15.5293 11.0476 15.1473V11.7594C11.0487 11.3774 11.2009 11.0114 11.4711 10.7412C11.7412 10.4711 12.1072 10.3189 12.4892 10.3178H14.0648V16.5889ZM30.6697 25.2942C30.853 25.4764 31.101 25.5787 31.3595 25.5787C31.6179 25.5787 31.8659 25.4764 32.0492 25.2942L33.6702 23.6731C33.8525 23.4898 33.9548 23.2418 33.9548 22.9833C33.9548 22.7248 33.8525 22.4768 33.6702 22.2935L32.9164 21.5397C32.7331 21.3574 32.4851 21.2551 32.2266 21.2551C31.9681 21.2551 31.7201 21.3574 31.5368 21.5397L29.9158 23.1607C29.7335 23.344 29.6313 23.592 29.6313 23.8505C29.6313 24.109 29.7335 24.357 29.9158 24.5403L30.6697 25.2942ZM35.5953 16.5889H37.1709C37.5529 16.5878 37.9189 16.4356 38.189 16.1655C38.4591 15.8953 38.6114 15.5293 38.6125 15.1473V11.7594C38.6114 11.3774 38.4591 11.0114 38.189 10.7412C37.9189 10.4711 37.5529 10.3189 37.1709 10.3178H35.5953V16.5889ZM13.0766 9.38026C13.9236 6.93752 15.5106 4.81936 17.617 3.32027C19.7235 1.82117 22.2446 1.01562 24.83 1.01562C27.4154 1.01563 29.9366 1.82117 32.043 3.32027C34.1495 4.81936 35.7365 6.93752 36.5834 9.38026H35.5879C34.7603 7.19685 33.2879 5.31695 31.3663 3.99034C29.4448 2.66374 27.1651 1.95323 24.8301 1.95323C22.4951 1.95323 20.2154 2.66374 18.2938 3.99034C16.3723 5.31695 14.8999 7.19685 14.0723 9.38026H13.0766ZM36.5835 17.5264C36.0698 19.0046 35.2822 20.3728 34.2618 21.5593L33.5977 20.8948C34.4496 19.8944 35.1229 18.755 35.5884 17.5264H36.5835ZM24.6875 5.67698C26.2255 5.67698 27.729 6.13306 29.0078 6.98754C30.2866 7.84202 31.2833 9.05652 31.8719 10.4775C32.4605 11.8984 32.6145 13.462 32.3144 14.9704C32.0143 16.4789 31.2737 17.8645 30.1861 18.9521C29.0986 20.0396 27.713 20.7802 26.2045 21.0802C24.696 21.3803 23.1325 21.2262 21.7115 20.6376C20.2906 20.0491 19.0761 19.0523 18.2216 17.7735C17.3672 16.4947 16.9111 14.9912 16.9112 13.4531C16.9112 11.3908 17.7305 9.41288 19.1889 7.95458C20.6472 6.49627 22.6251 5.677 24.6875 5.67698Z" fill="#F37329"/>
</svg>
