<svg width="40" height="40" viewBox="0 0 40 40" fill="none" xmlns="http://www.w3.org/2000/svg">
<path d="M12.4448 19.4219H5.33366C5.33366 15.0841 7.9381 11.3419 11.6625 9.6797L10.5781 7.24414C5.91588 9.31525 2.66699 13.9908 2.66699 19.4219V29.1997C2.66699 30.1427 3.04159 31.0471 3.70839 31.7139C4.37519 32.3807 5.27956 32.7553 6.22255 32.7553H16.0003V22.9775C16.0003 22.0345 15.6257 21.1301 14.9589 20.4633C14.2921 19.7965 13.3878 19.4219 12.4448 19.4219ZM33.7781 19.4219H26.667C26.667 15.0841 29.2714 11.3419 32.9959 9.6797L31.9114 7.24414C27.2492 9.31525 24.0003 13.9908 24.0003 19.4219V29.1997C24.0003 30.1427 24.3749 31.0471 25.0417 31.7139C25.7085 32.3807 26.6129 32.7553 27.5559 32.7553H37.3337V22.9775C37.3337 22.0345 36.9591 21.1301 36.2923 20.4633C35.6255 19.7965 34.7211 19.4219 33.7781 19.4219Z" fill="#F37329"/>
</svg>
