<svg width="20" height="20" viewBox="0 0 20 20" fill="none" xmlns="http://www.w3.org/2000/svg">
<g clip-path="url(#clip0_2577_1606)">
<path d="M3.06609 5.82813C2.86687 5.71484 2.86687 5.42969 3.06219 5.31641C3.54265 5.03125 4.58562 4.43359 5.0739 4.14844L10.8942 0.769531C11.2223 0.578125 11.6286 0.578125 11.9528 0.769531L19.8083 5.27734C20.0075 5.39063 20.0075 5.67578 19.8122 5.79297C19.2927 6.09375 17.0348 7.40625 16.5622 7.67969C16.5036 7.56641 16.4059 7.46875 16.3005 7.39453L11.8708 4.8125C11.738 4.73438 11.5895 4.69531 11.4372 4.69531C10.57 4.69141 10.2458 5.87109 10.9997 6.30469L14.9567 8.61328V8.61719L11.9802 10.3477C11.6559 10.5352 11.2419 10.5391 10.9216 10.3477M13.9919 17.9258C12.6052 20.5352 10.445 19.2969 11.6364 16.7656C12.1755 15.7148 13.0348 15.0781 13.777 15.3945C14.4255 15.7148 14.5231 16.8477 13.9919 17.9258ZM12.5114 17.1953C12.1989 17.8438 12.7692 18.1719 13.1208 17.4961C13.4372 16.8125 12.8434 16.543 12.5114 17.1953ZM12.2497 10.8164C11.7536 11.1055 11.1286 11.1055 10.6364 10.8125L5.61297 7.93359C5.61297 8.28516 5.62078 10.4414 5.62078 10.7383C7.89031 12.2383 10.3512 13.4961 12.8786 14.4805C13.3864 14.1875 14.4528 13.5703 14.9645 13.2695L14.9528 9.24609L12.2497 10.8164ZM16.6833 8.24219L16.695 12.2656C16.9137 12.1289 17.2966 11.9961 17.277 11.6758L17.2653 7.90234L16.6833 8.24219ZM15.5192 14.2266C15.7184 14.1758 15.9528 14.1758 16.152 14.2266L16.1364 8.10938C16.1364 8 16.0739 7.89063 15.9802 7.83594L11.5973 5.28125C11.238 5.07813 10.9216 5.60938 11.2809 5.82813L15.5075 8.29297L15.5192 14.2266ZM15.8356 14.7383C14.7341 14.7656 14.738 16.3789 15.8395 16.4063C16.9372 16.3672 16.9372 14.7734 15.8356 14.7383ZM6.59734 11.9961C5.28093 11.207 3.86687 10.2266 2.78094 9.375C2.05047 8.65234 0.99578 9.35156 0.378592 10.5352C-0.148751 11.6133 -0.0550014 12.7422 0.597342 13.0625C1.95672 13.543 3.36687 14.1211 4.92156 14.8945C5.04656 13.75 5.66375 12.6758 6.59734 11.9961ZM12.6012 14.957C11.488 14.5156 10.4255 14.0547 9.23797 13.457C8.2614 14.0938 7.64031 15.168 7.58953 16.3477C8.77312 17.0547 9.83562 17.7695 10.777 18.4648C10.5661 17.2539 11.4958 15.4453 12.6012 14.957ZM8.695 13.1797C8.16765 12.9063 7.62468 12.6055 7.11297 12.3086C6.1325 12.875 5.445 14.2305 5.45281 15.1641C5.99187 15.4414 6.55047 15.7461 7.06609 16.043C7.09734 15.1992 7.7575 13.7969 8.695 13.1797ZM4.89422 15.3906C4.40594 15.6016 3.81219 15.9531 3.43328 16.2344C3.98015 16.5391 4.73797 17.1406 5.15593 17.6016C5.47625 17.207 6.05828 16.6758 6.53484 16.3711C6.02312 16.0742 5.42937 15.7656 4.89031 15.4922L4.89422 15.3906Z" fill="#F37329"/>
</g>
<defs>
<clipPath id="clip0_2577_1606">
<rect width="20" height="20" fill="white"/>
</clipPath>
</defs>
</svg>
