<svg width="40" height="41" viewBox="0 0 40 41" fill="none" xmlns="http://www.w3.org/2000/svg">
<g clip-path="url(#clip0_493_7225)">
<path d="M16.2629 9.44087L7.58199 15.5312C5.61034 16.9144 4.24714 18.972 3.71689 21.2724C3.59654 21.7944 3.99496 22.2924 4.53052 22.2924H8.19943C8.6005 20.3788 10.3138 16.5819 16.2629 9.44087ZM18.7457 10.1324C15.4598 14.0052 13.0902 17.2796 11.6865 19.8891C11.1032 20.9736 10.7927 21.7563 10.6274 22.2923H18.6374L18.7457 10.1324ZM32.3964 15.5366L23.6269 9.43579C29.5794 16.5801 31.2935 20.3783 31.6947 22.2925H35.4731C36.0097 22.2925 36.4082 21.7927 36.2862 21.2702C35.7487 18.9688 34.3773 16.9147 32.3964 15.5366ZM20.0048 29.2565C17.7741 29.2565 15.9594 31.0712 15.9594 33.3019V40.323H24.0502V33.3019C24.0501 31.0712 22.2354 29.2565 20.0048 29.2565Z" fill="#FDFDFD"/>
<path d="M30.6045 24.6386C28.8539 24.6378 7.29876 24.6386 6.35352 24.6383V32.5856H13.655C14.6743 25.0675 25.3388 25.0729 26.3554 32.5856H34.0727V24.6383C34.065 24.6386 30.6114 24.6378 30.6045 24.6386ZM13.6139 34.9315H6.35352V38.9217C6.35352 39.6956 6.98089 40.323 7.7548 40.323H13.6138V34.9315H13.6139ZM26.3965 40.3231H32.6713C33.4452 40.3231 34.0726 39.6957 34.0726 38.9218V34.9316H26.3965V40.3231ZM17.8585 6.06153C19.2272 5.69331 20.7388 5.6987 22.1037 6.07889L24.189 3.36234C25.0898 2.09462 23.3198 0.736189 22.3281 1.93393L21.1205 3.50724V1.49595C21.1205 0.848166 20.5953 0.322998 19.9475 0.322998C19.2997 0.322998 18.7746 0.848166 18.7746 1.49595V3.31816L17.7958 1.95793C16.8413 0.729933 15.0306 2.03339 15.8916 3.32809L17.8585 6.06153ZM20.9838 22.2924H29.2672C29.1019 21.7563 28.7914 20.9736 28.2081 19.8892C26.7965 17.2649 24.4076 13.9682 21.0929 10.0667L20.9838 22.2924Z" fill="#FDFDFD"/>
</g>
<defs>
<clipPath id="clip0_493_7225">
<rect width="40.0001" height="40.0001" fill="white" transform="translate(0 0.322998)"/>
</clipPath>
</defs>
</svg>
