<svg width="20" height="20" viewBox="0 0 20 20" fill="none" xmlns="http://www.w3.org/2000/svg">
<g clip-path="url(#clip0_2577_1611)">
<path d="M15.4386 6.86198C15.4674 7.63858 16.5819 7.638 16.6105 6.86198V4.4462L15.4386 4.87452V6.86198ZM3.77324 3.33909L9.79625 5.54202C9.92618 5.58955 10.0687 5.58958 10.1987 5.5421L16.2257 3.33917C16.7355 3.15343 16.7353 2.42413 16.2257 2.23851L10.2007 0.0356545C10.0708 -0.0118848 9.92824 -0.0118848 9.79832 0.0356545L3.77332 2.23851C3.26363 2.42421 3.26383 3.15347 3.77324 3.33909ZM5.96203 12.7823C5.96203 11.6864 5.07043 10.7948 3.97453 10.7948C1.34145 10.8947 1.34219 14.6703 3.97457 14.7698C5.07043 14.7698 5.96203 13.8782 5.96203 12.7823ZM18.0121 12.7823C18.0121 11.6864 17.1205 10.7948 16.0246 10.7948C13.3915 10.8947 13.3922 14.6703 16.0246 14.7698C17.1205 14.7698 18.0121 13.8782 18.0121 12.7823ZM8.01203 12.7823C8.01203 13.8782 8.90363 14.7698 9.99953 14.7698C12.6326 14.6699 12.6319 10.8943 9.99949 10.7948C8.90363 10.7948 8.01203 11.6864 8.01203 12.7823ZM16.0245 14.7698C15.2398 14.7698 14.5075 14.9984 13.8906 15.3925C14.6704 16.2937 15.1424 17.4654 15.1424 18.7448V20H19.4136C19.7372 20 19.9995 19.7376 19.9995 19.4141V18.7448C19.9995 16.553 18.2164 14.7698 16.0245 14.7698Z" fill="#F37329"/>
<path d="M9.96668 14.7698C7.75871 14.7698 5.96238 16.553 5.96238 18.7448V20H13.971V18.7448C13.971 16.553 12.1746 14.7698 9.96668 14.7698ZM3.975 14.7698C1.78316 14.7698 0 16.553 0 18.7448V19.4141C0 19.7377 0.262344 20 0.585938 20H4.79051V18.7448C4.79051 17.4527 5.27199 16.2703 6.06574 15.3655C5.45797 14.9881 4.74152 14.7698 3.975 14.7698ZM13.7239 7.59729V5.50146L10.6014 6.64275C10.2146 6.78514 9.78031 6.78514 9.39375 6.6424L6.27605 5.50213V7.59791C6.27605 7.718 6.31295 7.83519 6.38176 7.93361C6.45057 8.03204 6.54796 8.10694 6.66074 8.14818L9.79676 9.29514C9.92668 9.34263 10.0692 9.34265 10.1991 9.29518L13.3391 8.14764C13.452 8.1064 13.5494 8.03149 13.6182 7.93305C13.687 7.83461 13.7239 7.7174 13.7239 7.59729Z" fill="#F37329"/>
</g>
<defs>
<clipPath id="clip0_2577_1611">
<rect width="20" height="20" fill="white"/>
</clipPath>
</defs>
</svg>
