<svg width="52" height="52" viewBox="0 0 52 52" fill="none" xmlns="http://www.w3.org/2000/svg">
<path d="M25.9995 44.3763C15.7982 44.3763 7.52861 36.1062 7.52861 25.9049C7.52861 25.6917 7.53745 25.4806 7.54421 25.2684L0.629771 23.5836C0.558121 24.3551 0.521337 25.1295 0.519531 25.9044C0.519531 39.9771 11.9278 51.3844 25.9995 51.3844C28.7758 51.3844 31.446 50.9346 33.9472 50.1135L30.5771 43.8033C29.0811 44.1845 27.5433 44.377 25.9995 44.3763ZM22.9331 7.6924V0.615723C13.1311 1.79144 5.04457 8.52908 1.91625 17.5849L8.76725 19.2541C11.0823 13.26 16.431 8.77868 22.9331 7.6924ZM40.0198 13.8856L44.9863 8.91804C40.963 4.42472 35.3689 1.3718 29.0654 0.615723V7.6924C33.423 8.4204 37.2622 10.673 40.0198 13.8856ZM48.5441 14.0333L43.2573 19.3201C44.0604 21.4223 44.4716 23.6539 44.4704 25.9044C44.4704 32.3362 41.1804 37.998 36.1952 41.3047L39.5076 47.5057C46.696 43.0009 51.4795 35.0137 51.4795 25.9044C51.4841 21.7671 50.4764 17.6916 48.5441 14.0333ZM29.9385 18.3233H35.735V31.6784H29.9385V18.3233ZM28.8985 17.2833V15.4882H23.101V31.6784H28.8985V17.2833ZM16.263 22.826H22.061V31.6779H16.263V22.826Z" fill="#FDFDFD"/>
</svg>
