<svg width="50" height="48" viewBox="0 0 50 48" fill="none" xmlns="http://www.w3.org/2000/svg">
<path d="M33.4375 13.3012H16.5627L25.0001 8.96579L33.4375 13.3012ZM33.4375 22.8361H47.4672V43.9677H33.437L33.4375 22.8361ZM37.6713 30.1112H43.234V27.1427H37.6707L37.6713 30.1112ZM43.234 35.8393H37.6707V38.8078H43.2335L43.234 35.8393ZM16.5637 43.9673H2.53306V22.8361H16.5632L16.5637 43.9673ZM12.33 35.8393H6.7667V38.8078H12.3295L12.33 35.8393ZM6.7672 30.1112H12.33V27.1427H6.7667L6.7672 30.1112ZM33.4375 21.4142H47.4672V17.9324C47.4671 17.8439 47.4318 17.7591 47.3693 17.6965C47.3067 17.6339 47.2218 17.5987 47.1333 17.5986H33.437L33.4375 21.4142ZM22.4633 39.1491V43.9677H27.5369V39.1491C27.5369 38.4763 27.2697 37.8311 26.7939 37.3553C26.3182 36.8796 25.6729 36.6123 25.0001 36.6123C24.3273 36.6123 23.6821 36.8796 23.2063 37.3553C22.7306 37.8311 22.4633 38.4763 22.4633 39.1491ZM32.0151 14.7234H17.9851V21.4142H32.0151V14.7234ZM16.5632 17.5986H2.8669C2.77839 17.5987 2.69354 17.6339 2.63096 17.6965C2.56838 17.7591 2.53317 17.8439 2.53306 17.9324V21.4142H16.5632V17.5986ZM48.2841 45.3895H1.71609C1.43475 45.3895 1.16492 45.5013 0.96598 45.7003C0.767038 45.8992 0.655273 46.169 0.655273 46.4504C0.655273 46.7317 0.767038 47.0015 0.96598 47.2005C1.16492 47.3994 1.43475 47.5112 1.71609 47.5112H48.2841C48.5655 47.5112 48.8353 47.3994 49.0342 47.2005C49.2332 47.0015 49.3449 46.7317 49.3449 46.4504C49.3449 46.169 49.2332 45.8992 49.0342 45.7003C48.8353 45.5013 48.5655 45.3895 48.2841 45.3895ZM28.9588 43.9677V39.1491C28.9588 38.0992 28.5417 37.0923 27.7993 36.3499C27.0569 35.6075 26.05 35.1904 25.0001 35.1904C23.9502 35.1904 22.9433 35.6075 22.2009 36.3499C21.4585 37.0923 21.0414 38.0992 21.0414 39.1491V43.9677H17.9851V22.8361H32.0151V43.9677H28.9588ZM27.7815 27.1427H22.2187V30.1112H27.7815V27.1427ZM25.711 7.73251V4.24892C26.1321 4.14337 26.5644 4.08951 26.9985 4.08855C27.7755 4.08718 28.5415 4.27156 29.2328 4.62632C29.6761 4.84725 30.1597 4.9758 30.6542 5.00417C31.1487 5.03254 31.6438 4.96014 32.1095 4.79136V1.96092C30.9287 2.2688 29.676 2.13455 28.5873 1.58341C28.144 1.36268 27.6605 1.23427 27.1661 1.20595C26.6717 1.17763 26.1767 1.25001 25.711 1.41868V1.19971C25.711 1.01115 25.6361 0.830325 25.5028 0.696998C25.3695 0.563672 25.1887 0.48877 25.0001 0.48877C24.8116 0.48877 24.6307 0.563672 24.4974 0.696998C24.3641 0.830325 24.2892 1.01115 24.2892 1.19971V7.73251L25.0001 7.36689L25.711 7.73251Z" fill="#FDFDFD"/>
</svg>
