<svg width="40" height="52" viewBox="0 0 40 52" fill="none" xmlns="http://www.w3.org/2000/svg">
<path d="M14.0127 26.2246C14.1631 26.3899 14.2416 26.608 14.2311 26.8311C14.2206 27.0543 14.1219 27.2641 13.9567 27.4144L12.5494 28.6917C12.2228 29.0266 11.6814 29.0261 11.3517 28.6964L10.7581 28.1028C10.6797 28.0245 10.6176 27.9315 10.5752 27.8292C10.5328 27.7268 10.511 27.6171 10.511 27.5063C10.511 27.3955 10.5328 27.2858 10.5752 27.1835C10.6176 27.0811 10.6797 26.9881 10.7581 26.9098C10.8364 26.8314 10.9294 26.7693 11.0318 26.7269C11.1341 26.6845 11.2438 26.6626 11.3546 26.6626C11.4654 26.6626 11.5751 26.6845 11.6775 26.7269C11.7798 26.7693 11.8728 26.8314 11.9511 26.9098L11.9774 26.936L12.823 26.1686C12.9882 26.0183 13.2063 25.9398 13.4294 25.9503C13.6526 25.9608 13.8624 26.0595 14.0127 26.2246ZM29.0501 4.86438H32.8317C32.7977 4.7908 32.7506 4.72396 32.6928 4.66705L28.9105 0.884727C28.8536 0.826971 28.7868 0.779921 28.7133 0.745824V4.52762C28.7135 4.61688 28.749 4.70244 28.8121 4.76556C28.8752 4.82868 28.9608 4.86421 29.0501 4.86438ZM7.1096 33.4278V1.36113C7.1096 0.99009 7.41219 0.6875 7.78323 0.6875H27.0258V4.52762C27.0258 5.64453 27.9331 6.55188 29.0501 6.55188H32.8902V33.4278C32.8902 33.7989 32.5876 34.1015 32.2165 34.1015H7.78323C7.41219 34.1015 7.1096 33.7988 7.1096 33.4278ZM14.9354 25.1991C14.9354 25.0248 14.7932 24.8827 14.619 24.8827H10.1255C9.95125 24.8827 9.80908 25.0248 9.80908 25.1991V29.6926C9.80908 29.8668 9.95125 30.009 10.1255 30.009H14.619C14.7932 30.009 14.9354 29.8668 14.9354 29.6926V25.1991ZM14.9354 16.8452C14.9354 16.671 14.7932 16.5288 14.619 16.5288H10.1255C9.95125 16.5288 9.80908 16.671 9.80908 16.8452V21.3387C9.80908 21.5129 9.95125 21.6551 10.1255 21.6551H14.619C14.7932 21.6551 14.9354 21.5129 14.9354 21.3387V16.8452ZM29.4861 28.8381C29.4861 28.6143 29.3972 28.3997 29.2389 28.2414C29.0807 28.0832 28.8661 27.9943 28.6423 27.9943H17.6762C17.4524 27.9943 17.2378 28.0832 17.0796 28.2414C16.9213 28.3997 16.8325 28.6143 16.8325 28.8381C16.8325 29.0618 16.9213 29.2764 17.0796 29.4347C17.2378 29.5929 17.4524 29.6818 17.6762 29.6818H28.6422C28.753 29.6818 28.8628 29.66 28.9651 29.6176C29.0675 29.5752 29.1605 29.5131 29.2389 29.4347C29.3173 29.3564 29.3794 29.2633 29.4218 29.161C29.4642 29.0586 29.4861 28.9489 29.4861 28.8381ZM29.4861 26.0535C29.4861 25.8297 29.3972 25.6151 29.2389 25.4569C29.0807 25.2986 28.8661 25.2097 28.6423 25.2097H17.6762C17.4524 25.2097 17.2378 25.2986 17.0796 25.4569C16.9213 25.6151 16.8325 25.8297 16.8325 26.0535C16.8325 26.2772 16.9213 26.4919 17.0796 26.6501C17.2378 26.8083 17.4524 26.8972 17.6762 26.8972H28.6422C28.753 26.8972 28.8628 26.8754 28.9651 26.833C29.0675 26.7906 29.1605 26.7285 29.2389 26.6501C29.3173 26.5718 29.3794 26.4788 29.4218 26.3764C29.4642 26.274 29.4861 26.1643 29.4861 26.0535ZM29.4861 20.4843C29.4861 20.2605 29.3972 20.0459 29.2389 19.8877C29.0807 19.7294 28.8661 19.6406 28.6423 19.6406H17.6762C17.4524 19.6406 17.2378 19.7294 17.0796 19.8877C16.9213 20.0459 16.8325 20.2605 16.8325 20.4843C16.8325 20.7081 16.9213 20.9227 17.0796 21.0809C17.2378 21.2392 17.4524 21.3281 17.6762 21.3281H28.6422C28.753 21.3281 28.8628 21.3063 28.9651 21.2639C29.0675 21.2215 29.1605 21.1593 29.2389 21.081C29.3173 21.0026 29.3794 20.9096 29.4218 20.8072C29.4642 20.7048 29.4861 20.5951 29.4861 20.4843ZM29.4861 17.6997C29.4861 17.4759 29.3972 17.2613 29.2389 17.1031C29.0807 16.9449 28.8661 16.856 28.6423 16.856H17.6762C17.4524 16.856 17.2378 16.9449 17.0796 17.1031C16.9213 17.2613 16.8325 17.4759 16.8325 17.6997C16.8325 17.9235 16.9213 18.1381 17.0796 18.2963C17.2378 18.4546 17.4524 18.5435 17.6762 18.5435H28.6422C28.866 18.5435 29.0806 18.4546 29.2389 18.2963C29.3971 18.1381 29.486 17.9235 29.4861 17.6997ZM21.0809 6.21448C21.0809 6.43826 21.1698 6.65287 21.3281 6.81111C21.4863 6.96934 21.7009 7.05823 21.9247 7.05823H25.8301C26.0539 7.05823 26.2685 6.96934 26.4267 6.81111C26.585 6.65287 26.6738 6.43826 26.6738 6.21448C26.6738 5.99071 26.585 5.7761 26.4267 5.61786C26.2685 5.45963 26.0539 5.37073 25.8301 5.37073H21.9247C21.7009 5.37073 21.4863 5.45963 21.3281 5.61786C21.1698 5.7761 21.0809 5.99071 21.0809 6.21448ZM21.0809 9.37865C21.0809 9.60243 21.1698 9.81704 21.3281 9.97527C21.4863 10.1335 21.7009 10.2224 21.9247 10.2224H30.4145C30.6383 10.2224 30.8529 10.1335 31.0111 9.97527C31.1694 9.81704 31.2583 9.60243 31.2583 9.37865C31.2583 9.15488 31.1694 8.94026 31.0111 8.78203C30.8529 8.6238 30.6383 8.5349 30.4145 8.5349H21.9247C21.7009 8.5349 21.4863 8.6238 21.3281 8.78203C21.1698 8.94026 21.0809 9.15488 21.0809 9.37865ZM9.73978 7.30482C9.73978 9.92361 11.8629 12.0467 14.4817 12.0467C17.1004 12.0467 19.2235 9.92361 19.2235 7.30482C19.2235 4.68603 17.1004 2.56295 14.4817 2.56295C11.8629 2.56295 9.73978 4.68603 9.73978 7.30482ZM12.823 17.8149L11.9774 18.5823L11.9511 18.556C11.8728 18.4777 11.7798 18.4155 11.6775 18.3731C11.5751 18.3307 11.4654 18.3089 11.3546 18.3089C11.2438 18.3089 11.1341 18.3307 11.0318 18.3731C10.9294 18.4155 10.8364 18.4777 10.7581 18.556C10.6797 18.6343 10.6176 18.7273 10.5752 18.8297C10.5328 18.9321 10.511 19.0418 10.511 19.1525C10.511 19.2633 10.5328 19.373 10.5752 19.4754C10.6176 19.5777 10.6797 19.6707 10.7581 19.7491L11.3517 20.3427C11.6814 20.6724 12.2229 20.6729 12.5494 20.3379L13.9567 19.0607C14.1197 18.9098 14.2165 18.7006 14.226 18.4786C14.2355 18.2567 14.1569 18.04 14.0074 17.8758C13.8579 17.7115 13.6495 17.6129 13.4277 17.6015C13.2059 17.5901 12.9885 17.6668 12.823 17.8149ZM11.8367 9.96021C11.1292 9.25979 10.7337 8.29939 10.7337 7.30482C10.7337 5.23478 12.4116 3.55699 14.4816 3.55699C16.5516 3.55699 18.2294 5.23489 18.2294 7.30482C18.2294 8.29939 17.8339 9.25979 17.1264 9.96021C16.6372 8.99612 15.6365 8.33546 14.4814 8.33546C13.3266 8.33546 12.3259 8.99612 11.8367 9.96021ZM12.9829 6.21543C12.9829 7.04315 13.6539 7.71414 14.4817 7.71414C15.3094 7.71414 15.9804 7.04315 15.9804 6.21543C15.9804 5.38771 15.3094 4.71672 14.4817 4.71672C13.6539 4.71672 12.9829 5.38771 12.9829 6.21543ZM36.7787 15.2458H34.5777V17.795H36.8552C36.9672 17.7953 37.0745 17.8399 37.1537 17.9191C37.233 17.9983 37.2776 18.1057 37.278 18.2177V37.1796H2.72189V18.2178C2.72223 18.1057 2.76688 17.9984 2.84611 17.9192C2.92534 17.84 3.03269 17.7954 3.14472 17.7951H5.42221V15.2459H3.22108C1.54444 15.2459 0.172607 16.6177 0.172607 18.2943V39.2664C0.172607 40.943 1.54444 42.3149 3.22108 42.3149H13.7685V47.1582H9.12817C7.69833 47.1582 6.52847 48.0929 6.52847 49.2353V51.3125H33.4712V49.2353C33.4712 48.0929 32.3013 47.1582 30.8715 47.1582H26.2313V42.3149H36.7787C38.4553 42.3149 39.8272 40.943 39.8272 39.2664V18.2942C39.8272 16.6176 38.4553 15.2458 36.7787 15.2458Z" fill="#FDFDFD"/>
</svg>
