<svg width="30" height="30" viewBox="0 0 30 30" fill="none" xmlns="http://www.w3.org/2000/svg">
<path fillRule="evenodd" clipRule="evenodd" d="M8.25133 20.1074C5.22883 20.1074 2.77539 22.5613 2.77539 25.5833C2.77539 26.2949 3.24508 26.8991 4.07008 27.3261C5.08445 27.8511 6.66695 28.1249 8.25133 28.1249C9.83617 28.1249 11.4182 27.8511 12.4326 27.3261C13.2576 26.8991 13.7273 26.2949 13.7273 25.5833C13.7273 22.5613 11.2738 20.1074 8.25133 20.1074ZM21.7495 20.1074C18.727 20.1074 16.2735 22.5613 16.2735 25.5833C16.2735 26.2949 16.7432 26.8991 17.5682 27.3261C18.5826 27.8511 20.1646 28.1249 21.7495 28.1249C23.3338 28.1249 24.9163 27.8511 25.9307 27.3261C26.7557 26.8991 27.2254 26.2949 27.2254 25.5833C27.2254 22.5613 24.772 20.1074 21.7495 20.1074ZM21.7495 13.5936C20.9869 13.594 20.2556 13.8971 19.7164 14.4363C19.1771 14.9756 18.874 15.7068 18.8737 16.4694C18.8737 18.057 20.1623 19.3456 21.7495 19.3456C23.3366 19.3456 24.6252 18.057 24.6252 16.4694C24.6249 15.7068 24.3218 14.9756 23.7825 14.4363C23.2433 13.8971 22.512 13.594 21.7495 13.5936ZM8.25133 13.5936C7.48874 13.594 6.75749 13.8971 6.21826 14.4363C5.67902 14.9756 5.37592 15.7068 5.37555 16.4694C5.37555 18.057 6.66414 19.3456 8.25133 19.3456C9.83852 19.3456 11.1271 18.057 11.1271 16.4694C11.1267 15.7068 10.8236 14.9756 10.2844 14.4363C9.74517 13.8971 9.01392 13.594 8.25133 13.5936ZM17.8129 6.42643C17.8129 3.92518 15.412 1.84814 12.4068 1.84814C9.40164 1.84814 7.0007 3.92518 7.0007 6.42643C7.0007 7.94846 7.89227 9.37627 9.39133 10.228L9.39039 12.1911C9.39031 12.2835 9.41751 12.3738 9.46857 12.4507C9.51964 12.5277 9.59229 12.5878 9.67741 12.6236C9.76253 12.6594 9.85633 12.6693 9.94704 12.6519C10.0377 12.6346 10.1213 12.5909 10.1873 12.5263L11.774 10.9733C11.9835 10.9944 12.1949 11.0047 12.4068 11.0047C15.412 11.0047 17.8129 8.92768 17.8129 6.42643ZM16.1568 2.00424C17.7318 3.01064 18.7504 4.63252 18.7504 6.44518C18.7504 8.24096 17.751 9.84924 16.1999 10.858C16.8551 11.0016 17.5289 11.0405 18.1963 10.9733L19.7826 12.5263C19.8485 12.5909 19.9321 12.6346 20.0228 12.6519C20.1135 12.6693 20.2073 12.6594 20.2924 12.6236C20.3776 12.5878 20.4502 12.5277 20.5013 12.4507C20.5523 12.3738 20.5795 12.2835 20.5795 12.1911L20.579 10.228C22.078 9.37627 22.9691 7.94846 22.9691 6.42643C22.9691 3.92518 20.5682 1.84814 17.563 1.84814C17.0765 1.84814 16.6049 1.90252 16.1568 2.00424ZM9.97023 5.73314C10.1903 5.73321 10.4013 5.82068 10.5568 5.97632C10.7124 6.13196 10.7998 6.34302 10.7997 6.56307C10.7996 6.78311 10.7122 6.99412 10.5565 7.14968C10.4009 7.30523 10.1898 7.39258 9.96977 7.39252C9.74972 7.39246 9.53871 7.30498 9.38316 7.14934C9.2276 6.9937 9.14025 6.78264 9.14031 6.5626C9.14038 6.34255 9.22785 6.13154 9.38349 5.97599C9.53913 5.82044 9.75019 5.73308 9.97023 5.73314ZM12.4312 5.73314C12.6512 5.73321 12.8622 5.82068 13.0178 5.97632C13.1733 6.13196 13.2607 6.34302 13.2606 6.56307C13.2606 6.78311 13.1731 6.99412 13.0175 7.14968C12.8618 7.30523 12.6508 7.39258 12.4307 7.39252C12.2107 7.39246 11.9996 7.30498 11.8441 7.14934C11.6885 6.9937 11.6012 6.78264 11.6013 6.5626C11.6013 6.34255 11.6888 6.13154 11.8444 5.97599C12.0001 5.82044 12.2111 5.73308 12.4312 5.73314ZM14.8921 5.73314C15.1122 5.73321 15.3232 5.82068 15.4787 5.97632C15.6343 6.13196 15.7216 6.34302 15.7216 6.56307C15.7215 6.78311 15.634 6.99412 15.4784 7.14968C15.3227 7.30523 15.1117 7.39258 14.8916 7.39252C14.6716 7.39246 14.4606 7.30498 14.305 7.14934C14.1495 6.9937 14.0621 6.78264 14.0622 6.5626C14.0623 6.34255 14.1497 6.13154 14.3054 5.97599C14.461 5.82044 14.6721 5.73308 14.8921 5.73314Z" fill="#F37329"/>
</svg>
