<svg width="30" height="30" viewBox="0 0 30 30" fill="none" xmlns="http://www.w3.org/2000/svg">
<g clipPath="url(#clip0_1710_6387)">
<path d="M20.3797 14.9999L21.7116 17.449L30 14.9999L21.7116 12.5508L20.3797 14.9999ZM12.5509 21.7115L15 29.9999L17.4491 21.7116L15 20.3797L12.5509 21.7115ZM9.62026 14.9999L8.28838 12.5508L0 14.9999L8.28838 17.449L9.62026 14.9999Z" fill="#F37329"/>
<path d="M22.4065 7.59326L14.9996 11.6213L7.59277 7.59326L11.6208 15.0002L7.59277 22.4071L14.9996 18.379L22.4065 22.4071L18.3785 15.0002L22.4065 7.59326Z" fill="#F37329"/>
<path d="M17.449 8.28838L14.9999 0L12.5508 8.28838L14.9998 9.62026L17.449 8.28838Z" fill="#F37329"/>
</g>
<defs>
<clipPath id="clip0_1710_6387">
<rect width="30" height="30" fill="white"/>
</clipPath>
</defs>
</svg>
