<svg width="30" height="30" viewBox="0 0 30 30" fill="none" xmlns="http://www.w3.org/2000/svg">
<g clipPath="url(#clip0_1710_13042)">
<path d="M23.2031 9.14062C25.4684 9.14062 27.3047 7.3043 27.3047 5.03906C27.3047 2.77383 25.4684 0.9375 23.2031 0.9375C20.9379 0.9375 19.1016 2.77383 19.1016 5.03906C19.1016 7.3043 20.9379 9.14062 23.2031 9.14062ZM21.031 4.62475C21.2599 4.39594 21.6308 4.39594 21.8597 4.62475L22.6172 5.3823L24.5466 3.45287C24.7755 3.22406 25.1464 3.22406 25.3753 3.45287C25.6041 3.68168 25.6041 4.0527 25.3753 4.28156L23.0316 6.62531C22.9171 6.73969 22.7672 6.79688 22.6172 6.79688C22.4672 6.79688 22.3173 6.73969 22.2029 6.62525L21.031 5.45338C20.8021 5.22457 20.8021 4.85355 21.031 4.62475ZM28.4766 23.7891H1.52344C1.19982 23.7891 0.9375 24.0514 0.9375 24.375V25.8398C0.9375 26.1634 1.19982 26.4258 1.52344 26.4258H28.4766C28.8001 26.4258 29.0625 26.1634 29.0625 25.8398V24.375C29.0625 24.0514 28.8001 23.7891 28.4766 23.7891ZM15.262 6.27281L15.5859 6.43477V3.86719H14.4141V6.43477L14.738 6.27281C14.8193 6.23213 14.909 6.21096 15 6.21096C15.091 6.21096 15.1807 6.23213 15.262 6.27281Z" fill="#F37329"/>
<path d="M20.2734 9.42164C18.4495 8.19832 17.5767 5.99396 18.0611 3.86719H16.7578V7.38281C16.7578 7.4827 16.7323 7.58093 16.6837 7.66818C16.6351 7.75543 16.5649 7.8288 16.48 7.88131C16.395 7.93383 16.298 7.96374 16.1982 7.96821C16.0984 7.97269 15.9992 7.95157 15.9098 7.90688L15 7.45195L14.0902 7.90688C14.0008 7.95154 13.9016 7.97262 13.8018 7.96813C13.702 7.96364 13.605 7.93372 13.5201 7.88122C13.4351 7.82871 13.365 7.75536 13.3163 7.66813C13.2677 7.5809 13.2421 7.48269 13.2421 7.38281V3.86719H10.3124C9.98883 3.86719 9.7265 4.12951 9.7265 4.45312V10.7518H20.2734V9.42164H20.2734ZM9.72656 11.9237H20.2734V13.2422H9.72656V11.9237ZM2.69531 28.4766C2.69531 28.8001 2.95764 29.0625 3.28125 29.0625H6.21094C6.31975 29.0625 6.42642 29.0322 6.51899 28.975C6.61155 28.9178 6.68635 28.8359 6.735 28.7386L7.30547 27.5977H2.69531V28.4766ZM23.265 28.7386C23.3137 28.8359 23.3885 28.9178 23.481 28.975C23.5736 29.0322 23.6802 29.0625 23.7891 29.0625H26.7188C27.0423 29.0625 27.3047 28.8001 27.3047 28.4766V27.5977H22.6945L23.265 28.7386ZM5.03906 21.2988H14.4141V22.6172H5.03906V21.2988ZM13.8281 14.4141H11.4844V17.3281C11.4844 17.4848 11.4292 17.6394 11.3196 17.7515C11.2649 17.8079 11.1994 17.8527 11.1271 17.8833C11.0547 17.9139 10.977 17.9297 10.8984 17.9297C10.8089 17.9297 10.7191 17.9092 10.6364 17.8678L9.72656 17.4129L8.81672 17.8679C8.70621 17.923 8.58111 17.9419 8.45924 17.9219C8.33737 17.9018 8.22494 17.8438 8.13797 17.7561C8.02547 17.6434 7.96875 17.4864 7.96875 17.3272V14.4141H5.625C5.30139 14.4141 5.03906 14.6764 5.03906 15V20.127H14.4141V15C14.4141 14.6764 14.1517 14.4141 13.8281 14.4141Z" fill="#F37329"/>
<path d="M9.98859 16.2337L10.3125 16.3957V14.4141H9.14062V16.3956L9.46453 16.2337C9.54589 16.193 9.63561 16.1719 9.72657 16.1719C9.81753 16.1719 9.90724 16.1931 9.98859 16.2337ZM20.5355 16.2337L20.8594 16.3957V14.4141H19.6875V16.3956L20.0114 16.2337C20.0928 16.193 20.1825 16.1718 20.2734 16.1718C20.3644 16.1718 20.4541 16.193 20.5355 16.2337ZM15.5859 21.2988H24.9609V22.6172H15.5859V21.2988Z" fill="#F37329"/>
<path d="M24.375 14.4141H22.0312V17.3275C22.0312 17.4843 21.9762 17.6388 21.8668 17.7511C21.7801 17.8407 21.6671 17.9003 21.5442 17.9213C21.4212 17.9423 21.2948 17.9236 21.1833 17.8679L20.2734 17.4129L19.3636 17.8679C19.2531 17.9231 19.128 17.942 19.0061 17.9219C18.8842 17.9018 18.7718 17.8437 18.6848 17.756C18.5723 17.643 18.5156 17.4859 18.5156 17.3265V14.4141H16.1719C15.8483 14.4141 15.5859 14.6764 15.5859 15V20.127H24.9609V15C24.9609 14.6764 24.6986 14.4141 24.375 14.4141Z" fill="#F37329"/>
</g>
<defs>
<clipPath id="clip0_1710_13042">
<rect width="30" height="30" fill="white"/>
</clipPath>
</defs>
</svg>
