<svg width="30" height="30" viewBox="0 0 30 30" fill="none" xmlns="http://www.w3.org/2000/svg">
<path d="M26.8215 23.9766C26.3527 23.4 25.1527 23.6063 24.5059 23.5734V4.15312C24.5059 3.54974 24.2665 2.971 23.8403 2.5439C23.4141 2.11681 22.8358 1.87624 22.2324 1.875H5.05742C4.45436 1.87869 3.87705 2.11989 3.45062 2.54632C3.02419 2.97276 2.78299 3.55007 2.7793 4.15312V10.5141C2.7793 10.887 2.92745 11.2447 3.19118 11.5084C3.4549 11.7722 3.81259 11.9203 4.18555 11.9203H6.39336V25.8469C6.39826 26.4496 6.63985 27.0262 7.06602 27.4523C7.4922 27.8785 8.0688 28.1201 8.67148 28.125H24.0418C24.8851 28.1238 25.6935 27.7879 26.2894 27.1911C26.8852 26.5944 27.2199 25.7855 27.2199 24.9422C27.221 24.7628 27.1863 24.5851 27.1179 24.4193C27.0495 24.2535 26.9487 24.103 26.8215 23.9766ZM8.90586 19.125C8.90586 19.0007 8.95524 18.8815 9.04315 18.7935C9.13106 18.7056 9.25029 18.6562 9.37461 18.6562H20.6246C20.7489 18.6562 20.8682 18.7056 20.9561 18.7935C21.044 18.8815 21.0934 19.0007 21.0934 19.125C21.0934 19.2493 21.044 19.3685 20.9561 19.4565C20.8682 19.5444 20.7489 19.5938 20.6246 19.5938H9.37461C9.25029 19.5938 9.13106 19.5444 9.04315 19.4565C8.95524 19.3685 8.90586 19.2493 8.90586 19.125ZM9.37461 14.9062C9.25029 14.9062 9.13106 14.8569 9.04315 14.769C8.95524 14.681 8.90586 14.5618 8.90586 14.4375C8.90586 14.3132 8.95524 14.194 9.04315 14.106C9.13106 14.0181 9.25029 13.9688 9.37461 13.9688H20.6246C20.7489 13.9688 20.8682 14.0181 20.9561 14.106C21.044 14.194 21.0934 14.3132 21.0934 14.4375C21.0934 14.5618 21.044 14.681 20.9561 14.769C20.8682 14.8569 20.7489 14.9062 20.6246 14.9062H9.37461ZM17.3434 16.7812C17.3434 16.9056 17.294 17.0248 17.2061 17.1127C17.1182 17.2006 16.9989 17.25 16.8746 17.25H9.37461C9.25029 17.25 9.13106 17.2006 9.04315 17.1127C8.95524 17.0248 8.90586 16.9056 8.90586 16.7812C8.90586 16.6569 8.95524 16.5377 9.04315 16.4498C9.13106 16.3619 9.25029 16.3125 9.37461 16.3125H16.8746C16.9989 16.3125 17.1182 16.3619 17.2061 16.4498C17.294 16.5377 17.3434 16.6569 17.3434 16.7812ZM13.4434 5.59219C13.4427 5.44221 13.4717 5.29359 13.5287 5.15485C13.5857 5.01611 13.6695 4.88999 13.7753 4.78372C13.8812 4.67745 14.0069 4.59313 14.1454 4.53559C14.2839 4.47805 14.4324 4.44844 14.5824 4.44844H15.4168C15.5668 4.44844 15.7153 4.47805 15.8538 4.53559C15.9923 4.59313 16.1181 4.67745 16.2239 4.78372C16.3297 4.88999 16.4135 5.01611 16.4705 5.15485C16.5275 5.29359 16.5565 5.44221 16.5559 5.59219V6.66563L17.6059 6.64219C17.7561 6.64219 17.9048 6.67177 18.0436 6.72925C18.1823 6.78673 18.3084 6.87098 18.4146 6.97718C18.5208 7.08339 18.6051 7.20948 18.6625 7.34824C18.72 7.48701 18.7496 7.63574 18.7496 7.78594V8.61562C18.7496 8.7656 18.72 8.91411 18.6625 9.05261C18.6049 9.19111 18.5206 9.31689 18.4143 9.42273C18.3081 9.52856 18.1819 9.61236 18.0432 9.66933C17.9045 9.7263 17.7558 9.7553 17.6059 9.75469H16.5371V10.8094C16.5371 11.1115 16.4171 11.4012 16.2035 11.6148C15.9899 11.8284 15.7001 11.9484 15.398 11.9484H14.5824C14.2803 11.9484 13.9906 11.8284 13.777 11.6148C13.5634 11.4012 13.4434 11.1115 13.4434 10.8094V9.73594H12.3934C12.0937 9.73721 11.8056 9.62033 11.5915 9.41062C11.3774 9.20091 11.2545 8.91527 11.2496 8.61562V7.78594C11.2496 7.4826 11.3701 7.19168 11.5846 6.97718C11.7991 6.76269 12.09 6.64219 12.3934 6.64219H13.4621L13.4434 5.59219ZM21.0934 21.4688C21.0934 21.5931 21.044 21.7123 20.9561 21.8002C20.8682 21.8881 20.7489 21.9375 20.6246 21.9375H16.8746C16.7503 21.9375 16.6311 21.8881 16.5432 21.8002C16.4552 21.7123 16.4059 21.5931 16.4059 21.4688C16.4059 21.3444 16.4552 21.2252 16.5432 21.1373C16.6311 21.0494 16.7503 21 16.8746 21H20.6246C20.7489 21 20.8682 21.0494 20.9561 21.1373C21.044 21.2252 21.0934 21.3444 21.0934 21.4688ZM6.39336 10.9828H4.18555C4.06123 10.9828 3.942 10.9334 3.85409 10.8455C3.76618 10.7576 3.7168 10.6384 3.7168 10.5141V4.15312C3.71512 3.8956 3.78897 3.64323 3.92921 3.42724C4.06946 3.21125 4.26994 3.0411 4.50587 2.93785C4.7418 2.83461 5.00281 2.80278 5.25664 2.84632C5.51046 2.88986 5.74595 3.00684 5.93398 3.18281C6.07999 3.32027 6.19675 3.48577 6.2773 3.66941C6.35784 3.85305 6.4005 4.05105 6.40273 4.25156L6.39336 10.9828ZM24.0418 27.1875H10.5137C10.7971 26.798 10.9497 26.3286 10.9496 25.8469V24.9422C10.9508 24.8274 10.9973 24.7177 11.0789 24.637C11.1606 24.5562 11.2707 24.5109 11.3855 24.5109H25.8465C25.9044 24.5099 25.9618 24.521 26.0151 24.5436C26.0684 24.5662 26.1164 24.5998 26.1559 24.6422C26.1969 24.6805 26.2294 24.727 26.2512 24.7787C26.273 24.8304 26.2836 24.8861 26.2824 24.9422C26.2824 25.5369 26.0465 26.1073 25.6264 26.5282C25.2064 26.9492 24.6365 27.1863 24.0418 27.1875Z" fill="#F37329"/>
<path d="M12.1875 7.78574V8.61543C12.1887 8.66931 12.211 8.72058 12.2495 8.75825C12.2881 8.79592 12.3399 8.81701 12.3938 8.81699H13.4625C13.7111 8.81699 13.9496 8.91576 14.1254 9.09158C14.3012 9.26739 14.4 9.50585 14.4 9.75449V10.8279C14.4 10.8814 14.4212 10.9327 14.459 10.9705C14.4968 11.0083 14.5481 11.0295 14.6016 11.0295H15.4359C15.4894 11.0295 15.5407 11.0083 15.5785 10.9705C15.6163 10.9327 15.6375 10.8814 15.6375 10.8279V9.73574C15.6375 9.4871 15.7363 9.24865 15.9121 9.07283C16.0879 8.89701 16.3264 8.79824 16.575 8.79824H17.6437C17.6976 8.79826 17.7494 8.77717 17.788 8.7395C17.8265 8.70183 17.8488 8.65056 17.85 8.59668V7.78574C17.85 7.73104 17.8283 7.67858 17.7896 7.6399C17.7509 7.60122 17.6985 7.57949 17.6437 7.57949H16.5375C16.2889 7.57949 16.0504 7.48072 15.8746 7.3049C15.6988 7.12909 15.6 6.89063 15.6 6.64199V5.59199C15.6 5.53809 15.5789 5.48633 15.5413 5.44778C15.5036 5.40924 15.4523 5.38697 15.3984 5.38574H14.5828C14.5289 5.38697 14.4777 5.40924 14.44 5.44778C14.4023 5.48633 14.3812 5.53809 14.3813 5.59199V6.66543C14.3813 6.91407 14.2825 7.15253 14.1067 7.32834C13.9308 7.50416 13.6924 7.60293 13.4438 7.60293H12.3938C12.3429 7.6026 12.2937 7.62108 12.2556 7.65483C12.2175 7.68857 12.1933 7.7352 12.1875 7.78574Z" fill="#F37329"/>
</svg>
