<svg width="32" height="48" viewBox="0 0 32 48" fill="none" xmlns="http://www.w3.org/2000/svg">
<path d="M29.0617 5.37512H27.8973V3.0548C27.8977 2.65424 27.8076 2.25875 27.6337 1.89788C27.4599 1.53702 27.2068 1.22008 26.8932 0.970742C26.5779 0.716653 26.2093 0.536914 25.8149 0.444886C25.4205 0.352858 25.0104 0.350907 24.6151 0.43918L2.67594 5.40043C2.6675 5.40043 2.65906 5.40043 2.65906 5.40887C2.04207 5.47509 1.47115 5.76645 1.05552 6.22723C0.639892 6.688 0.408727 7.28584 0.40625 7.90637V45.0938C0.408253 45.7645 0.675581 46.4072 1.14985 46.8815C1.62412 47.3557 2.26679 47.6231 2.9375 47.6251H29.0608C29.7316 47.6231 30.3742 47.3557 30.8485 46.8815C31.3228 46.4072 31.5901 45.7645 31.5921 45.0938V7.90721C31.5901 7.2365 31.3228 6.59383 30.8485 6.11956C30.3742 5.64529 29.7316 5.37796 29.0608 5.37596L29.0617 5.37512ZM24.9779 2.08449C25.1274 2.05165 25.2823 2.05279 25.4313 2.08784C25.5802 2.12289 25.7194 2.19095 25.8386 2.28699C25.9543 2.37871 26.0478 2.49541 26.1121 2.62838C26.1764 2.76134 26.2098 2.90712 26.2098 3.0548V5.37512H10.414L24.9779 2.08449ZM15.9996 11.9572C18.0021 11.9572 19.9597 12.551 21.6247 13.6636C23.2898 14.7761 24.5875 16.3574 25.3539 18.2075C26.1202 20.0576 26.3207 22.0934 25.93 24.0575C25.5394 26.0216 24.5751 27.8257 23.159 29.2417C21.743 30.6577 19.9389 31.622 17.9749 32.0127C16.0108 32.4033 13.975 32.2028 12.1249 31.4365C10.2748 30.6702 8.69351 29.3724 7.58096 27.7074C6.46842 26.0423 5.87459 24.0847 5.87459 22.0822C5.87839 19.3981 6.94634 16.8249 8.84433 14.9269C10.7423 13.029 13.3154 11.961 15.9996 11.9572ZM23.5933 37.4992C23.5927 37.7228 23.5036 37.937 23.3455 38.0951C23.1874 38.2532 22.9732 38.3423 22.7496 38.343H9.24959C9.02582 38.343 8.81121 38.2541 8.65297 38.0958C8.49474 37.9376 8.40584 37.723 8.40584 37.4992C8.40584 37.2754 8.49474 37.0608 8.65297 36.9026C8.81121 36.7444 9.02582 36.6555 9.24959 36.6555H22.7496C22.9732 36.6561 23.1874 36.7452 23.3455 36.9033C23.5036 37.0614 23.5927 37.2756 23.5933 37.4992ZM26.1246 41.718H5.87459C5.65082 41.718 5.43621 41.6291 5.27797 41.4708C5.11974 41.3126 5.03084 41.098 5.03084 40.8742C5.03084 40.6504 5.11974 40.4358 5.27797 40.2776C5.43621 40.1194 5.65082 40.0305 5.87459 40.0305H26.1246C26.3484 40.0305 26.563 40.1194 26.7212 40.2776C26.8794 40.4358 26.9683 40.6504 26.9683 40.8742C26.9683 41.098 26.8794 41.3126 26.7212 41.4708C26.563 41.6291 26.3484 41.718 26.1246 41.718Z" fill="#FDFDFD"/>
<path d="M11.9158 29.4574C10.773 27.4672 10.1491 25.2214 10.1017 22.9268H7.60425C7.74068 24.283 8.20432 25.5859 8.95532 26.7234C9.70632 27.8609 10.7222 28.7991 11.9158 29.4574ZM11.9158 14.7078C10.7237 15.3679 9.70899 16.3066 8.95822 17.4438C8.20745 18.581 7.74292 19.8829 7.60425 21.2385H10.1017C10.1504 18.9441 10.7741 16.6986 11.9158 14.7078ZM15.1558 30.3442V22.9268H11.7892C11.9749 26.5634 13.3839 29.6017 15.1558 30.3442ZM15.1558 21.2393V13.8227C13.3839 14.5737 11.9749 17.6112 11.7892 21.2393H15.1558ZM20.2099 22.9268H16.8433V30.3434C18.6152 29.6009 20.0243 26.5634 20.2099 22.9268ZM16.8433 13.8219V21.2385H20.2099C20.0243 17.6103 18.6152 14.5728 16.8433 13.8219ZM20.0833 29.4574C21.2769 28.7991 22.2928 27.8609 23.0438 26.7234C23.7948 25.5859 24.2584 24.283 24.3949 22.9268H21.8974C21.85 25.2214 21.2262 27.4672 20.0833 29.4574ZM24.3949 21.2393C24.2562 19.8837 23.7917 18.5818 23.0409 17.4446C22.2901 16.3075 21.2754 15.3688 20.0833 14.7087C21.225 16.6994 21.8488 18.9449 21.8974 21.2393H24.3949Z" fill="#FDFDFD"/>
</svg>
