<svg width="48" height="38" viewBox="0 0 48 38" fill="none" xmlns="http://www.w3.org/2000/svg">
<path d="M0.601609 19.2869C0.512498 19.1891 0.447337 19.0718 0.411262 18.9445C0.375187 18.8171 0.369184 18.6831 0.393726 18.553C0.418267 18.423 0.472683 18.3004 0.552684 18.1949C0.632685 18.0895 0.736085 18.004 0.854734 17.9454L4.75286 16.0807C4.87224 16.025 5.00283 15.9976 5.13451 16.0005C5.2662 16.0034 5.39544 16.0366 5.51223 16.0976L10.7688 18.8651C10.8886 18.9267 11.0212 18.9596 11.1559 18.9611C11.2907 18.9625 11.4239 18.9325 11.545 18.8735L19.8222 14.756C19.9469 14.6939 20.0546 14.6023 20.1359 14.4892C20.2172 14.3761 20.2697 14.2449 20.2888 14.1069C20.308 13.9689 20.2931 13.8283 20.2456 13.6974C20.1981 13.5664 20.1194 13.449 20.0163 13.3554L9.27536 3.68599C9.17175 3.58987 9.09383 3.46936 9.04871 3.33542C9.00359 3.20149 8.99269 3.05839 9.01701 2.91917C9.04133 2.77995 9.1001 2.64903 9.18796 2.53833C9.27582 2.42763 9.38998 2.34066 9.52005 2.28537L11.5535 1.45005C12.4449 1.08006 13.406 0.908055 14.3704 0.945931C15.3348 0.983808 16.2795 1.23066 17.1391 1.66943L29.9135 8.14943C30.2268 8.30689 30.5731 8.38748 30.9238 8.38454C31.2745 8.38161 31.6194 8.29523 31.93 8.13256L34.4191 6.8163C37.5157 4.93474 42.7554 5.08662 45.8182 6.32693C46.3337 6.5228 46.7801 6.86638 47.1014 7.31467C47.4226 7.76296 47.6046 8.29604 47.6244 8.84721C47.6442 9.39838 47.501 9.94315 47.2128 10.4134C46.9245 10.8836 46.504 11.2583 46.0038 11.4907L15.0719 26.2985C13.4293 27.0825 11.5729 27.2991 9.79391 26.9143C8.01491 26.5295 6.41398 25.565 5.24223 24.1722L0.601609 19.2869Z" fill="#FDFDFD"/>
<path d="M46.7812 31.9938H1.21875C0.75276 31.9938 0.375 32.3715 0.375 32.8375V36.2125C0.375 36.6785 0.75276 37.0563 1.21875 37.0563H46.7812C47.2472 37.0563 47.625 36.6785 47.625 36.2125V32.8375C47.625 32.3715 47.2472 31.9938 46.7812 31.9938Z" fill="#FDFDFD"/>
</svg>
