<svg width="30" height="30" viewBox="0 0 30 30" fill="none" xmlns="http://www.w3.org/2000/svg">
<path fill-rule="evenodd" clip-rule="evenodd" d="M21.8793 22.2398L19.3879 21.7137C19.3396 21.7035 19.294 21.6833 19.254 21.6543C19.214 21.6253 19.1806 21.5883 19.1559 21.5455L17.8855 19.3383L16.6152 21.5455C16.5906 21.5883 16.5572 21.6254 16.5172 21.6544C16.4772 21.6834 16.4316 21.7036 16.3832 21.7137L13.8918 22.2398L15.5986 24.1295C15.6317 24.1663 15.6566 24.2096 15.6719 24.2566C15.6871 24.3037 15.6923 24.3534 15.6871 24.4025L15.4176 26.9344L17.742 25.8955C17.7877 25.875 17.8369 25.865 17.8855 25.865C17.9342 25.865 17.9834 25.875 18.0291 25.8955L20.3535 26.9344L20.084 24.4025C20.0734 24.3029 20.1057 24.2039 20.1725 24.1295L21.8793 22.2398ZM17.8803 9.87598L17.5059 12.4412L20.7068 9.56367C20.7713 9.50566 20.8551 9.47344 20.9418 9.47344H26.4924C27.1727 9.47344 27.7264 8.91973 27.7264 8.23887V2.84824C27.7264 2.16738 27.1727 1.61426 26.4924 1.61426H16.1846C15.5043 1.61426 14.9506 2.16797 14.9506 2.84824V8.23945C14.9506 8.92031 15.5043 9.47402 16.1846 9.47402H17.5328C17.6348 9.47402 17.732 9.51855 17.7988 9.59531C17.8318 9.63345 17.8562 9.67828 17.8703 9.72673C17.8843 9.77517 17.8877 9.82609 17.8803 9.87598ZM25.3551 7.77012H17.3219C17.1279 7.77012 16.9703 7.6125 16.9703 7.41855C16.9703 7.22402 17.1279 7.06699 17.3219 7.06699H25.3551C25.549 7.06699 25.7066 7.22461 25.7066 7.41855C25.7066 7.61309 25.549 7.77012 25.3551 7.77012ZM25.7066 5.54414C25.7066 5.73809 25.549 5.8957 25.3551 5.8957H17.3219C17.1279 5.8957 16.9703 5.73809 16.9703 5.54414C16.9703 5.34961 17.1279 5.19258 17.3219 5.19258H25.3551C25.549 5.19199 25.7066 5.34961 25.7066 5.54414ZM17.3219 4.02012C17.1279 4.02012 16.9703 3.8625 16.9703 3.66855C16.9703 3.47461 17.1279 3.31699 17.3219 3.31699H21.7029C21.8969 3.31699 22.0545 3.47461 22.0545 3.66855C22.0545 3.86309 21.8969 4.02012 21.7029 4.02012H17.3219ZM9.8957 15.4688C11.8574 15.4688 13.4529 13.8732 13.4529 11.9121C13.4529 9.95098 11.8574 8.35547 9.8957 8.35547C7.93457 8.35547 6.33906 9.95098 6.33906 11.9121C6.33965 13.8732 7.93457 15.4688 9.8957 15.4688ZM14.9711 24.484L14.6535 27.467C14.64 27.5924 14.6945 27.7148 14.7965 27.7887C14.8984 27.8625 15.032 27.8766 15.1463 27.8256L17.5469 26.7527V27.0797C17.5469 27.835 16.9322 28.4496 16.177 28.4496H3.61504C2.85977 28.4496 2.24512 27.835 2.24512 27.0797V26.6678C2.24512 22.449 5.67754 19.0166 9.8957 19.0166C11.909 19.0166 13.8338 19.817 15.2652 21.2309L13.1488 21.6779C13.0258 21.7037 12.9262 21.7934 12.8875 21.9129C12.8683 21.9717 12.8649 22.0345 12.8778 22.095C12.8907 22.1555 12.9193 22.2115 12.9607 22.2574L14.9711 24.484Z" fill="#F37329"/>
</svg>
