<svg width="30" height="30" viewBox="0 0 30 30" fill="none" xmlns="http://www.w3.org/2000/svg">
<path fill-rule="evenodd" clip-rule="evenodd" d="M17.2682 17.2793C17.2682 15.8725 16.1233 14.7282 14.7164 14.7282C13.3096 14.7282 12.1653 15.8725 12.1653 17.2793C12.1653 18.3165 12.7781 19.2247 13.701 19.6213L13.6969 17.4352C13.6963 17.1493 13.8076 16.8803 14.0098 16.677C14.2125 16.4737 14.4815 16.3612 14.7668 16.3612H14.7692C15.3592 16.3612 15.8403 16.8405 15.8414 17.4311L15.8444 18.9088C15.9625 18.8648 16.0874 18.842 16.2135 18.8415H16.2153C16.3717 18.8415 16.5205 18.8766 16.6547 18.9381C17.0514 18.4776 17.2682 17.8975 17.2682 17.2793ZM7.09221 10.9442C7.09221 10.1901 6.79866 9.48169 6.26545 8.94849C5.71467 8.39829 4.99221 8.1229 4.26917 8.1229C3.5467 8.1229 2.82366 8.39829 2.27346 8.94849C1.24631 9.97563 1.17835 11.6034 2.0678 12.7108C2.29807 12.2186 2.70999 11.8325 3.21155 11.6315C2.94202 11.3614 2.77502 10.9881 2.77502 10.5774C2.77502 9.75356 3.44534 9.08325 4.26917 9.08325C5.09299 9.08325 5.76331 9.75298 5.76331 10.5774C5.76331 10.9881 5.59631 11.3608 5.32737 11.6315C5.82893 11.8325 6.24026 12.2186 6.47053 12.7108C6.87307 12.211 7.09221 11.5946 7.09221 10.9442ZM25.3319 8.55415C23.7715 8.55415 22.5035 9.82271 22.5035 11.3813C22.5035 12.9399 23.7721 14.2084 25.3319 14.2084C26.8899 14.2084 28.1578 12.9399 28.1578 11.3813C28.1578 9.82271 26.8899 8.55415 25.3319 8.55415ZM24.7957 11.57C24.4184 11.4405 24.1746 11.0795 24.1746 10.6506C24.1746 10.1778 24.5127 9.777 24.9803 9.63462V9.22798C24.9803 9.03345 25.1356 8.87642 25.3319 8.87642C25.5258 8.87642 25.6834 9.03345 25.6834 9.22798V9.6229C26.0426 9.71899 26.3367 9.96743 26.4633 10.302C26.5324 10.4836 26.4416 10.6864 26.26 10.7549C26.0783 10.8241 25.875 10.7327 25.8053 10.551C25.7455 10.3928 25.5586 10.2821 25.3506 10.2821C25.0946 10.2821 24.8766 10.4508 24.8766 10.6512C24.8766 10.7497 24.9147 10.868 25.0225 10.9049L25.4438 11.0491C25.4485 11.0508 25.4555 11.0532 25.4608 11.0549L25.9752 11.2606C26.2957 11.3877 26.4873 11.7065 26.4873 12.1125C26.4873 12.5854 26.1475 12.9862 25.6834 13.1286V13.5352C25.6834 13.7297 25.5252 13.8868 25.3319 13.8868C25.1356 13.8868 24.9803 13.7297 24.9803 13.5352V13.1409C24.6199 13.0448 24.324 12.7963 24.1975 12.4618C24.1289 12.2801 24.2203 12.0774 24.4014 12.0088C24.583 11.9397 24.7864 12.0317 24.8561 12.2127C24.9158 12.3709 25.1028 12.4817 25.3108 12.4817C25.5668 12.4817 25.7848 12.3129 25.7848 12.1125C25.7848 12.0129 25.7561 11.9297 25.718 11.9139L25.2082 11.7118L24.7957 11.57ZM16.9899 6.86079L17.4405 7.31138L16.7989 7.95298L16.3483 7.50239C16.2806 7.43466 16.1933 7.39008 16.0988 7.37503C16.0043 7.35998 15.9074 7.37523 15.8221 7.4186C15.7124 7.47435 15.5986 7.52156 15.4817 7.55981C15.3908 7.5896 15.3118 7.64736 15.2558 7.72482C15.1998 7.80229 15.1697 7.89548 15.1699 7.99106V8.62798H14.2623V7.99106C14.2623 7.79419 14.1369 7.62134 13.95 7.55981C13.8334 7.52173 13.7192 7.47427 13.6102 7.4186C13.5249 7.37523 13.428 7.35998 13.3335 7.37503C13.239 7.39008 13.1516 7.43466 13.084 7.50239L12.6334 7.95298L11.9918 7.31196L12.4424 6.86138C12.5101 6.79373 12.5547 6.70644 12.5698 6.61196C12.585 6.51748 12.5699 6.42062 12.5268 6.33521C12.471 6.22552 12.4238 6.11171 12.3856 5.99478C12.324 5.80845 12.1512 5.68247 11.9549 5.68247H11.3174V4.77485H11.9549C12.0504 4.7751 12.1436 4.74506 12.2209 4.68905C12.2983 4.63304 12.356 4.55395 12.3856 4.46313C12.4242 4.34653 12.4711 4.23228 12.5268 4.12212C12.6158 3.94692 12.5819 3.7354 12.4424 3.59653L11.9918 3.14595L12.6334 2.50435L13.084 2.95493C13.1516 3.02266 13.239 3.06724 13.3335 3.0823C13.428 3.09735 13.5249 3.08209 13.6102 3.03872C13.7198 2.98306 13.8334 2.93618 13.95 2.89751C14.1369 2.83599 14.2623 2.66313 14.2623 2.46626V1.82935H15.1699V2.46626C15.1699 2.66313 15.2953 2.83599 15.4823 2.89751C15.5989 2.9356 15.7131 2.98306 15.8221 3.03872C15.9973 3.12778 16.2094 3.0938 16.3483 2.95493L16.7989 2.50435L17.4405 3.14595L16.9899 3.59653C16.9222 3.66416 16.8775 3.75145 16.8624 3.84594C16.8472 3.94043 16.8623 4.0373 16.9055 4.1227C16.9612 4.23239 17.0084 4.3462 17.0467 4.46313C17.1076 4.65005 17.2811 4.77485 17.4774 4.77485H18.1149V5.68188H17.4785C17.2817 5.68188 17.1088 5.80728 17.0479 5.99419C17.0094 6.11103 16.9622 6.22482 16.9067 6.33462C16.8631 6.41984 16.8476 6.5167 16.8626 6.61126C16.8775 6.70581 16.9221 6.79318 16.9899 6.86079ZM16.067 5.22837C16.067 4.48364 15.4612 3.87778 14.7164 3.87778C13.9717 3.87778 13.3658 4.48423 13.3658 5.22837C13.3658 5.9731 13.9723 6.57895 14.7164 6.57895C15.4612 6.57895 16.067 5.9731 16.067 5.22837ZM4.26917 11.3684C3.83323 11.3684 3.47815 11.0133 3.47815 10.5774C3.47815 10.1415 3.83323 9.78638 4.26917 9.78638C4.70569 9.78638 5.06018 10.1415 5.06018 10.5774C5.06018 11.0139 4.7051 11.3684 4.26917 11.3684ZM5.91624 13.2364C4.93596 13.9418 3.60237 13.9418 2.6221 13.2364C2.78909 12.6241 3.34983 12.1823 3.99905 12.1823H4.53928C5.1885 12.1823 5.74983 12.6241 5.91624 13.2364ZM7.37932 13.4491L10.6067 15.3124C10.6466 15.3354 10.6908 15.3504 10.7365 15.3564C10.7823 15.3624 10.8287 15.3593 10.8733 15.3473C10.9179 15.3354 10.9596 15.3147 10.9962 15.2866C11.0328 15.2585 11.0635 15.2234 11.0865 15.1834C11.1097 15.1435 11.1247 15.0993 11.1308 15.0536C11.1369 15.0078 11.1338 14.9612 11.1219 14.9166C11.11 14.872 11.0894 14.8302 11.0613 14.7935C11.0332 14.7569 10.9982 14.7261 10.9582 14.703L7.77073 12.8625C7.65925 13.0648 7.53065 13.2571 7.38635 13.4374L7.37932 13.4491ZM14.3649 9.79634V12.736C14.3649 12.9299 14.5225 13.0875 14.7164 13.0875C14.911 13.0875 15.068 12.9299 15.068 12.736V9.79634H14.3649ZM21.6276 12.8831L18.4752 14.703C18.3945 14.7497 18.3356 14.8265 18.3115 14.9166C18.2873 15.0066 18.2998 15.1026 18.3463 15.1834C18.4119 15.2959 18.5297 15.3592 18.6516 15.3592C18.7108 15.3592 18.7717 15.344 18.8268 15.3124L21.9498 13.5094C21.8239 13.3107 21.716 13.1011 21.6276 12.8831ZM19.4649 27.1213L13.9934 27.1319L13.9963 28.8088L19.4678 28.7983L19.4649 27.1213ZM16.5838 19.9178L16.5885 20.2137C16.5867 20.2413 16.5844 20.2688 16.585 20.2963C16.585 20.318 16.5873 20.3391 16.5908 20.3596L16.6096 21.5971C16.6131 21.7893 16.7696 21.9434 16.9612 21.9434H16.967C17.0602 21.9419 17.1489 21.9035 17.2137 21.8366C17.2786 21.7697 17.3142 21.6797 17.3127 21.5866L17.2922 20.2413C17.3033 20.1639 17.3391 20.0918 17.3959 20.035C17.4662 19.9647 17.5582 19.926 17.6561 19.926H17.6573C17.7545 19.926 17.8471 19.9647 17.9168 20.0344C17.9871 20.1047 18.0258 20.1967 18.0264 20.2946L18.0287 21.7776C18.0289 21.8707 18.0661 21.96 18.132 22.0257C18.1979 22.0915 18.2872 22.1285 18.3803 22.1286H18.3809C18.5754 22.1286 18.7324 21.9704 18.7319 21.7764L18.7301 20.8922H18.7307C18.7301 20.6883 18.8953 20.5225 19.0987 20.5225H19.0998C19.3026 20.5225 19.4684 20.6877 19.469 20.8911L19.4742 23.7393C19.476 24.4916 19.35 24.6364 19.217 24.7899C18.9821 25.06 18.8033 25.3366 18.8192 26.2079L18.8227 26.4211L14.8278 26.4293C14.8149 26.1176 14.7715 25.8012 14.5272 25.5053C14.4533 25.4157 14.3795 25.3284 14.3051 25.2411C13.9541 24.8268 13.6219 24.4354 13.3049 23.7997C12.9803 23.1493 12.5309 22.4737 11.9309 21.7331C11.8471 21.6293 11.8694 21.603 11.9338 21.5497C12.1412 21.3756 12.6469 21.3211 12.893 21.6059L13.7918 22.6436C13.8247 22.6817 13.8655 22.7123 13.9113 22.7332C13.9571 22.7542 14.0069 22.765 14.0573 22.7649H14.0584C14.2524 22.7643 14.4094 22.6067 14.4088 22.4127L14.3994 17.4352C14.3989 17.3374 14.4375 17.2448 14.5073 17.1745C14.5776 17.1041 14.6701 17.0655 14.768 17.0649H14.7686C14.9719 17.0649 15.1371 17.2301 15.1377 17.4334L15.1453 21.3792C15.1455 21.4723 15.1827 21.5615 15.2486 21.6273C15.3145 21.6931 15.4038 21.7301 15.4969 21.7301H15.4975C15.692 21.7295 15.849 21.5719 15.8485 21.378L15.8455 19.9155C15.8455 19.8176 15.8836 19.725 15.9539 19.6547C15.9879 19.6202 16.0284 19.5928 16.073 19.5741C16.1177 19.5553 16.1657 19.5457 16.2141 19.5458H16.2147C16.4157 19.5446 16.5815 19.7122 16.5838 19.9178Z" fill="#F37329"/>
</svg>
