<svg width="70" height="70" viewBox="0 0 70 70" fill="none" xmlns="http://www.w3.org/2000/svg">
<g filter="url(#filter0_d_1302_14471)">
<circle cx="35" cy="35" r="30" fill="#FDFDFD"/>
</g>
<g filter="url(#filter1_d_1302_14471)">
<path d="M65 35C65 30.754 64.0987 26.5563 62.3556 22.6846C60.6126 18.8128 58.0675 15.3552 54.8887 12.5402C51.7098 9.72531 47.9697 7.61723 43.9155 6.35538C39.8613 5.09354 35.5854 4.70667 31.3706 5.22035L32.0962 11.1743C35.4684 10.7633 38.8894 11.0728 42.133 12.0824C45.3766 13.0919 48.369 14.7785 50.9123 17.0307C53.4556 19.2828 55.4918 22.0491 56.8863 25.1468C58.2809 28.2445 59.002 31.6029 59.002 35H65Z" fill="#F37329"/>
</g>
<g filter="url(#filter2_d_1302_14471)">
<path d="M5 35C5 39.246 5.90132 43.4437 7.64438 47.3154C9.38744 51.1872 11.9325 54.6448 15.1113 57.4598C18.2902 60.2747 22.0303 62.3828 26.0845 63.6446C30.1387 64.9065 34.4146 65.2933 38.6294 64.7796L37.9038 58.8257C34.5316 59.2367 31.1106 58.9272 27.867 57.9176C24.6234 56.9081 21.631 55.2215 19.0877 52.9693C16.5444 50.7172 14.5082 47.9509 13.1137 44.8532C11.7191 41.7555 10.998 38.3971 10.998 35H5Z" fill="#F37329"/>
</g>
<g filter="url(#filter3_d_1302_14471)">
<circle cx="35" cy="35" r="24" fill="#FDFDFD"/>
</g>
<path fillRule="evenodd" clipRule="evenodd" d="M37.2682 37.2793C37.2682 35.8725 36.1233 34.7282 34.7164 34.7282C33.3096 34.7282 32.1653 35.8725 32.1653 37.2793C32.1653 38.3165 32.7781 39.2247 33.701 39.6213L33.6969 37.4352C33.6963 37.1493 33.8076 36.8803 34.0098 36.677C34.2125 36.4737 34.4815 36.3612 34.7668 36.3612H34.7692C35.3592 36.3612 35.8403 36.8405 35.8414 37.4311L35.8444 38.9088C35.9625 38.8648 36.0874 38.842 36.2135 38.8415H36.2153C36.3717 38.8415 36.5205 38.8766 36.6547 38.9381C37.0514 38.4776 37.2682 37.8975 37.2682 37.2793ZM27.0922 30.9442C27.0922 30.1901 26.7987 29.4817 26.2655 28.9485C25.7147 28.3983 24.9922 28.1229 24.2692 28.1229C23.5467 28.1229 22.8237 28.3983 22.2735 28.9485C21.2463 29.9756 21.1783 31.6034 22.0678 32.7108C22.2981 32.2186 22.71 31.8325 23.2115 31.6315C22.942 31.3614 22.775 30.9881 22.775 30.5774C22.775 29.7536 23.4453 29.0833 24.2692 29.0833C25.093 29.0833 25.7633 29.753 25.7633 30.5774C25.7633 30.9881 25.5963 31.3608 25.3274 31.6315C25.8289 31.8325 26.2403 32.2186 26.4705 32.7108C26.8731 32.211 27.0922 31.5946 27.0922 30.9442ZM45.3319 28.5542C43.7715 28.5542 42.5035 29.8227 42.5035 31.3813C42.5035 32.9399 43.7721 34.2084 45.3319 34.2084C46.8899 34.2084 48.1578 32.9399 48.1578 31.3813C48.1578 29.8227 46.8899 28.5542 45.3319 28.5542ZM44.7957 31.57C44.4184 31.4405 44.1746 31.0795 44.1746 30.6506C44.1746 30.1778 44.5127 29.777 44.9803 29.6346V29.228C44.9803 29.0334 45.1356 28.8764 45.3319 28.8764C45.5258 28.8764 45.6834 29.0334 45.6834 29.228V29.6229C46.0426 29.719 46.3367 29.9674 46.4633 30.302C46.5324 30.4836 46.4416 30.6864 46.26 30.7549C46.0783 30.8241 45.875 30.7327 45.8053 30.551C45.7455 30.3928 45.5586 30.2821 45.3506 30.2821C45.0946 30.2821 44.8766 30.4508 44.8766 30.6512C44.8766 30.7497 44.9147 30.868 45.0225 30.9049L45.4438 31.0491C45.4485 31.0508 45.4555 31.0532 45.4608 31.0549L45.9752 31.2606C46.2957 31.3877 46.4873 31.7065 46.4873 32.1125C46.4873 32.5854 46.1475 32.9862 45.6834 33.1286V33.5352C45.6834 33.7297 45.5252 33.8868 45.3319 33.8868C45.1356 33.8868 44.9803 33.7297 44.9803 33.5352V33.1409C44.6199 33.0448 44.324 32.7963 44.1975 32.4618C44.1289 32.2801 44.2203 32.0774 44.4014 32.0088C44.583 31.9397 44.7864 32.0317 44.8561 32.2127C44.9158 32.3709 45.1028 32.4817 45.3108 32.4817C45.5668 32.4817 45.7848 32.3129 45.7848 32.1125C45.7848 32.0129 45.7561 31.9297 45.718 31.9139L45.2082 31.7118L44.7957 31.57ZM36.9899 26.8608L37.4405 27.3114L36.7989 27.953L36.3483 27.5024C36.2806 27.4347 36.1933 27.3901 36.0988 27.375C36.0043 27.36 35.9074 27.3752 35.8221 27.4186C35.7124 27.4743 35.5986 27.5216 35.4817 27.5598C35.3908 27.5896 35.3118 27.6474 35.2558 27.7248C35.1998 27.8023 35.1697 27.8955 35.1699 27.9911V28.628H34.2623V27.9911C34.2623 27.7942 34.1369 27.6213 33.95 27.5598C33.8334 27.5217 33.7192 27.4743 33.6102 27.4186C33.5249 27.3752 33.428 27.36 33.3335 27.375C33.239 27.3901 33.1516 27.4347 33.084 27.5024L32.6334 27.953L31.9918 27.312L32.4424 26.8614C32.5101 26.7937 32.5547 26.7064 32.5698 26.612C32.585 26.5175 32.5699 26.4206 32.5268 26.3352C32.471 26.2255 32.4238 26.1117 32.3856 25.9948C32.324 25.8084 32.1512 25.6825 31.9549 25.6825H31.3174V24.7749H31.9549C32.0504 24.7751 32.1436 24.7451 32.2209 24.6891C32.2983 24.633 32.356 24.554 32.3856 24.4631C32.4242 24.3465 32.4711 24.2323 32.5268 24.1221C32.6158 23.9469 32.5819 23.7354 32.4424 23.5965L31.9918 23.1459L32.6334 22.5043L33.084 22.9549C33.1516 23.0227 33.239 23.0672 33.3335 23.0823C33.428 23.0973 33.5249 23.0821 33.6102 23.0387C33.7198 22.9831 33.8334 22.9362 33.95 22.8975C34.1369 22.836 34.2623 22.6631 34.2623 22.4663V21.8293H35.1699V22.4663C35.1699 22.6631 35.2953 22.836 35.4823 22.8975C35.5989 22.9356 35.7131 22.9831 35.8221 23.0387C35.9973 23.1278 36.2094 23.0938 36.3483 22.9549L36.7989 22.5043L37.4405 23.1459L36.9899 23.5965C36.9222 23.6642 36.8775 23.7515 36.8624 23.8459C36.8472 23.9404 36.8623 24.0373 36.9055 24.1227C36.9612 24.2324 37.0084 24.3462 37.0467 24.4631C37.1076 24.65 37.2811 24.7749 37.4774 24.7749H38.1149V25.6819H37.4785C37.2817 25.6819 37.1088 25.8073 37.0479 25.9942C37.0094 26.111 36.9622 26.2248 36.9067 26.3346C36.8631 26.4198 36.8476 26.5167 36.8626 26.6113C36.8775 26.7058 36.9221 26.7932 36.9899 26.8608ZM36.067 25.2284C36.067 24.4836 35.4612 23.8778 34.7164 23.8778C33.9717 23.8778 33.3658 24.4842 33.3658 25.2284C33.3658 25.9731 33.9723 26.579 34.7164 26.579C35.4612 26.579 36.067 25.9731 36.067 25.2284ZM24.2692 31.3684C23.8332 31.3684 23.4781 31.0133 23.4781 30.5774C23.4781 30.1415 23.8332 29.7864 24.2692 29.7864C24.7057 29.7864 25.0602 30.1415 25.0602 30.5774C25.0602 31.0139 24.7051 31.3684 24.2692 31.3684ZM25.9162 33.2364C24.936 33.9418 23.6024 33.9418 22.6221 33.2364C22.7891 32.6241 23.3498 32.1823 23.999 32.1823H24.5393C25.1885 32.1823 25.7498 32.6241 25.9162 33.2364ZM27.3793 33.4491L30.6067 35.3124C30.6466 35.3354 30.6908 35.3504 30.7365 35.3564C30.7823 35.3624 30.8287 35.3593 30.8733 35.3473C30.9179 35.3354 30.9596 35.3147 30.9962 35.2866C31.0328 35.2585 31.0635 35.2234 31.0865 35.1834C31.1097 35.1435 31.1247 35.0993 31.1308 35.0536C31.1369 35.0078 31.1338 34.9612 31.1219 34.9166C31.11 34.872 31.0894 34.8302 31.0613 34.7935C31.0332 34.7569 30.9982 34.7261 30.9582 34.703L27.7707 32.8625C27.6592 33.0648 27.5307 33.2571 27.3864 33.4374L27.3793 33.4491ZM34.3649 29.7963V32.736C34.3649 32.9299 34.5225 33.0875 34.7164 33.0875C34.911 33.0875 35.068 32.9299 35.068 32.736V29.7963H34.3649ZM41.6276 32.8831L38.4752 34.703C38.3945 34.7497 38.3356 34.8265 38.3115 34.9166C38.2873 35.0066 38.2998 35.1026 38.3463 35.1834C38.4119 35.2959 38.5297 35.3592 38.6516 35.3592C38.7108 35.3592 38.7717 35.344 38.8268 35.3124L41.9498 33.5094C41.8239 33.3107 41.716 33.1011 41.6276 32.8831ZM39.4649 47.1213L33.9934 47.1319L33.9963 48.8088L39.4678 48.7983L39.4649 47.1213ZM36.5838 39.9178L36.5885 40.2137C36.5867 40.2413 36.5844 40.2688 36.585 40.2963C36.585 40.318 36.5873 40.3391 36.5908 40.3596L36.6096 41.5971C36.6131 41.7893 36.7696 41.9434 36.9612 41.9434H36.967C37.0602 41.9419 37.1489 41.9035 37.2137 41.8366C37.2786 41.7697 37.3142 41.6797 37.3127 41.5866L37.2922 40.2413C37.3033 40.1639 37.3391 40.0918 37.3959 40.035C37.4662 39.9647 37.5582 39.926 37.6561 39.926H37.6573C37.7545 39.926 37.8471 39.9647 37.9168 40.0344C37.9871 40.1047 38.0258 40.1967 38.0264 40.2946L38.0287 41.7776C38.0289 41.8707 38.0661 41.96 38.132 42.0257C38.1979 42.0915 38.2872 42.1285 38.3803 42.1286H38.3809C38.5754 42.1286 38.7324 41.9704 38.7319 41.7764L38.7301 40.8922H38.7307C38.7301 40.6883 38.8953 40.5225 39.0987 40.5225H39.0998C39.3026 40.5225 39.4684 40.6877 39.469 40.8911L39.4742 43.7393C39.476 44.4916 39.35 44.6364 39.217 44.7899C38.9821 45.06 38.8033 45.3366 38.8192 46.2079L38.8227 46.4211L34.8278 46.4293C34.8149 46.1176 34.7715 45.8012 34.5272 45.5053C34.4533 45.4157 34.3795 45.3284 34.3051 45.2411C33.9541 44.8268 33.6219 44.4354 33.3049 43.7997C32.9803 43.1493 32.5309 42.4737 31.9309 41.7331C31.8471 41.6293 31.8694 41.603 31.9338 41.5497C32.1412 41.3756 32.6469 41.3211 32.893 41.6059L33.7918 42.6436C33.8247 42.6817 33.8655 42.7123 33.9113 42.7332C33.9571 42.7542 34.0069 42.765 34.0573 42.7649H34.0584C34.2524 42.7643 34.4094 42.6067 34.4088 42.4127L34.3994 37.4352C34.3989 37.3374 34.4375 37.2448 34.5073 37.1745C34.5776 37.1041 34.6701 37.0655 34.768 37.0649H34.7686C34.9719 37.0649 35.1371 37.2301 35.1377 37.4334L35.1453 41.3792C35.1455 41.4723 35.1827 41.5615 35.2486 41.6273C35.3145 41.6931 35.4038 41.7301 35.4969 41.7301H35.4975C35.692 41.7295 35.849 41.5719 35.8485 41.378L35.8455 39.9155C35.8455 39.8176 35.8836 39.725 35.9539 39.6547C35.9879 39.6202 36.0284 39.5928 36.073 39.5741C36.1177 39.5553 36.1657 39.5457 36.2141 39.5458H36.2147C36.4157 39.5446 36.5815 39.7122 36.5838 39.9178Z" fill="#F37329"/>
<defs>
<filter id="filter0_d_1302_14471" x="0" y="0" width="70" height="70" filterUnits="userSpaceOnUse" colorInterpolationFilters="sRGB">
<feFlood floodOpacity="0" result="BackgroundImageFix"/>
<feColorMatrix in="SourceAlpha" type="matrix" values="0 0 0 0 0 0 0 0 0 0 0 0 0 0 0 0 0 0 127 0" result="hardAlpha"/>
<feOffset/>
<feGaussianBlur stdDeviation="2.5"/>
<feComposite in2="hardAlpha" operator="out"/>
<feColorMatrix type="matrix" values="0 0 0 0 0 0 0 0 0 0 0 0 0 0 0 0 0 0 0.2 0"/>
<feBlend mode="normal" in2="BackgroundImageFix" result="effect1_dropShadow_1302_14471"/>
<feBlend mode="normal" in="SourceGraphic" in2="effect1_dropShadow_1302_14471" result="shape"/>
</filter>
<filter id="filter1_d_1302_14471" x="26.3701" y="0" width="43.6299" height="40" filterUnits="userSpaceOnUse" colorInterpolationFilters="sRGB">
<feFlood floodOpacity="0" result="BackgroundImageFix"/>
<feColorMatrix in="SourceAlpha" type="matrix" values="0 0 0 0 0 0 0 0 0 0 0 0 0 0 0 0 0 0 127 0" result="hardAlpha"/>
<feOffset/>
<feGaussianBlur stdDeviation="2.5"/>
<feComposite in2="hardAlpha" operator="out"/>
<feColorMatrix type="matrix" values="0 0 0 0 0 0 0 0 0 0 0 0 0 0 0 0 0 0 0.2 0"/>
<feBlend mode="normal" in2="BackgroundImageFix" result="effect1_dropShadow_1302_14471"/>
<feBlend mode="normal" in="SourceGraphic" in2="effect1_dropShadow_1302_14471" result="shape"/>
</filter>
<filter id="filter2_d_1302_14471" x="0" y="30" width="43.6299" height="40" filterUnits="userSpaceOnUse" colorInterpolationFilters="sRGB">
<feFlood floodOpacity="0" result="BackgroundImageFix"/>
<feColorMatrix in="SourceAlpha" type="matrix" values="0 0 0 0 0 0 0 0 0 0 0 0 0 0 0 0 0 0 127 0" result="hardAlpha"/>
<feOffset/>
<feGaussianBlur stdDeviation="2.5"/>
<feComposite in2="hardAlpha" operator="out"/>
<feColorMatrix type="matrix" values="0 0 0 0 0 0 0 0 0 0 0 0 0 0 0 0 0 0 0.2 0"/>
<feBlend mode="normal" in2="BackgroundImageFix" result="effect1_dropShadow_1302_14471"/>
<feBlend mode="normal" in="SourceGraphic" in2="effect1_dropShadow_1302_14471" result="shape"/>
</filter>
<filter id="filter3_d_1302_14471" x="6" y="6" width="58" height="58" filterUnits="userSpaceOnUse" colorInterpolationFilters="sRGB">
<feFlood floodOpacity="0" result="BackgroundImageFix"/>
<feColorMatrix in="SourceAlpha" type="matrix" values="0 0 0 0 0 0 0 0 0 0 0 0 0 0 0 0 0 0 127 0" result="hardAlpha"/>
<feOffset/>
<feGaussianBlur stdDeviation="2.5"/>
<feComposite in2="hardAlpha" operator="out"/>
<feColorMatrix type="matrix" values="0 0 0 0 0 0 0 0 0 0 0 0 0 0 0 0 0 0 0.2 0"/>
<feBlend mode="normal" in2="BackgroundImageFix" result="effect1_dropShadow_1302_14471"/>
<feBlend mode="normal" in="SourceGraphic" in2="effect1_dropShadow_1302_14471" result="shape"/>
</filter>
</defs>
</svg>
