<svg width="70" height="70" viewBox="0 0 70 70" fill="none" xmlns="http://www.w3.org/2000/svg">
<g filter="url(#filter0_d_1302_14483)">
<circle cx="35" cy="35" r="30" fill="#FDFDFD"/>
</g>
<g filter="url(#filter1_d_1302_14483)">
<path d="M65 35C65 30.754 64.0987 26.5563 62.3556 22.6846C60.6126 18.8128 58.0675 15.3552 54.8887 12.5402C51.7098 9.72531 47.9697 7.61723 43.9155 6.35538C39.8613 5.09354 35.5854 4.70667 31.3706 5.22035L32.0962 11.1743C35.4684 10.7633 38.8894 11.0728 42.133 12.0824C45.3766 13.0919 48.369 14.7785 50.9123 17.0307C53.4556 19.2828 55.4918 22.0491 56.8863 25.1468C58.2809 28.2445 59.002 31.6029 59.002 35H65Z" fill="#F37329"/>
</g>
<g filter="url(#filter2_d_1302_14483)">
<path d="M5 35C5 39.246 5.90132 43.4437 7.64438 47.3154C9.38744 51.1872 11.9325 54.6448 15.1113 57.4598C18.2902 60.2747 22.0303 62.3828 26.0845 63.6446C30.1387 64.9065 34.4146 65.2933 38.6294 64.7796L37.9038 58.8257C34.5316 59.2367 31.1106 58.9272 27.867 57.9176C24.6234 56.9081 21.631 55.2215 19.0877 52.9693C16.5444 50.7172 14.5082 47.9509 13.1137 44.8532C11.7191 41.7555 10.998 38.3971 10.998 35H5Z" fill="#F37329"/>
</g>
<g filter="url(#filter3_d_1302_14483)">
<circle cx="35" cy="35" r="24" fill="#FDFDFD"/>
</g>
<g clipPath="url(#clip0_1302_14483)">
<path d="M34.3589 23.7652C34.3699 22.9769 34.6908 22.2246 35.2522 21.671C35.8135 21.1175 36.5702 20.8071 37.3586 20.8071C38.147 20.8071 38.9037 21.1175 39.4651 21.671C40.0264 22.2246 40.3473 22.9769 40.3583 23.7652C40.3583 25.8349 39.5686 27.1442 38.5554 27.7053C38.19 27.9109 37.7779 28.0188 37.3587 28.0188C36.9394 28.0188 36.5273 27.9109 36.1619 27.7053C35.1504 27.1442 34.3589 25.8349 34.3589 23.7652ZM25.3824 48.3326C25.386 48.3496 25.3906 48.3664 25.3962 48.3828C25.3995 48.4055 25.3952 48.4286 25.3841 48.4486C25.373 48.4678 25.3568 48.4834 25.3372 48.4936C25.3196 48.4971 25.3025 48.5041 25.2852 48.5093L22.8174 49.2315C22.8037 49.2358 22.7892 49.2372 22.7749 49.2357C22.7606 49.2342 22.7468 49.2299 22.7343 49.2228C22.7109 49.2091 22.6931 49.1877 22.684 49.1622L20.0047 39.9951C20.0005 39.9817 19.9991 39.9675 20.0006 39.9535C20.0021 39.9395 20.0064 39.9259 20.0134 39.9137C20.0266 39.8899 20.0482 39.872 20.074 39.8633L22.5801 39.1308C22.5937 39.1269 22.6079 39.1258 22.6219 39.1276C22.6359 39.1294 22.6494 39.134 22.6615 39.1413C22.6738 39.1471 22.6847 39.1555 22.6933 39.166C22.702 39.1764 22.7083 39.1887 22.7117 39.2018L22.9802 40.1163C22.9814 40.1247 22.9838 40.1328 22.9871 40.1406V40.1423L25.0689 47.2605C25.0704 47.2677 25.0727 47.2747 25.0758 47.2813L25.3824 48.3326ZM22.0553 40.4662L22.0536 40.461C22.0388 40.4064 22.0133 40.3554 21.9785 40.3108C21.9438 40.2663 21.9005 40.2291 21.8512 40.2014C21.802 40.1737 21.7477 40.1562 21.6915 40.1497C21.6354 40.1433 21.5785 40.148 21.5243 40.1638C21.47 40.1796 21.4194 40.206 21.3755 40.2415C21.3315 40.277 21.2951 40.3209 21.2683 40.3706C21.2414 40.4204 21.2248 40.475 21.2193 40.5312C21.2139 40.5875 21.2196 40.6442 21.2363 40.6982L21.238 40.7034C21.2533 40.7575 21.2791 40.8079 21.314 40.8519C21.3488 40.8959 21.3921 40.9326 21.4412 40.9598C21.4902 40.9871 21.5442 41.0043 21.6 41.0106C21.6558 41.0169 21.7123 41.012 21.7662 40.9964C21.8201 40.9807 21.8704 40.9546 21.9142 40.9194C21.958 40.8843 21.9943 40.8408 22.0212 40.7915C22.0481 40.7422 22.065 40.6881 22.0709 40.6323C22.0768 40.5764 22.0715 40.52 22.0555 40.4662H22.0553ZM31.1738 35.0487C31.1381 35.2717 31.1511 35.4997 31.2119 35.7172C31.2757 35.9329 31.3856 36.132 31.5342 36.3009C31.5607 36.3309 31.589 36.3592 31.619 36.3858C32.4295 37.082 34.9079 37.4076 37.3985 37.3955C39.8907 37.3816 42.3466 37.03 43.1104 36.3736C43.1367 36.3516 43.1611 36.3272 43.1831 36.3009C43.334 36.133 43.4449 35.9331 43.5073 35.7162C43.5697 35.4993 43.582 35.2711 43.5434 35.0487L43.3095 33.5038C43.1086 32.1755 42.5478 30.9631 41.6954 30.1113C40.9316 29.3475 39.9288 28.8749 38.7373 28.8749H35.98C34.7885 28.8749 33.7857 29.3477 33.0219 30.1113C32.1699 30.9629 31.6087 32.1758 31.4077 33.5038L31.1738 35.0487ZM45.0726 40.8455C44.9789 40.7821 44.873 40.7393 44.7617 40.7196C44.6504 40.6999 44.5362 40.7038 44.4265 40.7311L36.5965 43.485C36.5895 43.537 36.5826 43.5905 36.5722 43.6427C36.5452 43.7957 36.5041 43.9458 36.4492 44.0912C36.2171 44.7043 35.7929 45.1079 35.2732 45.3088C34.7381 45.5149 34.1094 45.4993 33.4962 45.2689L30.0392 43.9717C29.9334 43.9322 29.8475 43.8522 29.8006 43.7494C29.7537 43.6466 29.7495 43.5294 29.789 43.4236C29.8285 43.3177 29.9084 43.2318 30.0112 43.1849C30.114 43.138 30.2312 43.1338 30.3371 43.1733L33.7941 44.4705C34.2116 44.6264 34.6272 44.6437 34.965 44.5138C35.2645 44.3978 35.5105 44.1588 35.6508 43.7899C35.6865 43.6944 35.7131 43.5958 35.7304 43.4954C35.7483 43.3965 35.7581 43.2963 35.7597 43.1958V43.1594C35.7562 42.8097 35.6645 42.4666 35.493 42.1618C35.3537 41.9021 35.1353 41.6935 34.8695 41.566L29.7347 39.2715C29.3319 39.0864 28.8929 38.9936 28.4496 38.9995C28.0219 39.0047 27.5871 39.1017 27.1246 39.2507L23.9172 40.2878L25.7738 46.6335L26.8929 46.3406C26.9764 46.3183 27.0647 46.3226 27.1457 46.3526V46.3509L31.6868 48.0118C32.2219 48.2075 32.7172 48.3651 33.1797 48.4119C33.6151 48.4646 34.0563 48.3868 34.4475 48.1885L44.2658 43.1711C44.3558 43.1209 44.4597 43.0689 44.5636 43.0152C45.1613 42.7106 45.8106 42.3779 45.5543 41.5067C45.4785 41.2355 45.3075 41.0008 45.0727 40.8455H45.0726ZM43.2819 24.2134V28.3686C43.2819 28.4818 43.3269 28.5904 43.4069 28.6705C43.487 28.7506 43.5956 28.7955 43.7088 28.7955C43.822 28.7955 43.9306 28.7506 44.0107 28.6705C44.0907 28.5904 44.1357 28.4818 44.1357 28.3686V24.2137C44.2875 24.1356 44.4148 24.0172 44.5037 23.8715C44.5926 23.7257 44.6397 23.5584 44.6397 23.3877C44.6397 23.217 44.5926 23.0496 44.5037 22.9038C44.4148 22.7581 44.2875 22.6397 44.1357 22.5616V21.3613C44.1357 21.2481 44.0907 21.1395 44.0107 21.0594C43.9306 20.9793 43.822 20.9344 43.7088 20.9344C43.5956 20.9344 43.487 20.9793 43.4069 21.0594C43.3269 21.1395 43.2819 21.2481 43.2819 21.3613V22.5619C43.1301 22.6399 43.0027 22.7582 42.9138 22.9039C42.8249 23.0496 42.7779 23.217 42.7779 23.3876C42.7779 23.5583 42.8249 23.7257 42.9138 23.8713C43.0027 24.017 43.1301 24.1354 43.2819 24.2134ZM49.4977 23.0626V21.3613C49.4977 21.2478 49.4527 21.139 49.3725 21.0588C49.2922 20.9786 49.1834 20.9335 49.07 20.9335C48.9566 20.9335 48.8478 20.9786 48.7675 21.0588C48.6873 21.139 48.6423 21.2478 48.6423 21.3613V23.063C48.4909 23.1412 48.364 23.2596 48.2754 23.4051C48.1868 23.5507 48.14 23.7178 48.14 23.8882C48.14 24.0585 48.1868 24.2256 48.2754 24.3712C48.364 24.5167 48.4909 24.6351 48.6423 24.7134V28.3686C48.6423 28.4821 48.6873 28.5909 48.7675 28.6711C48.8478 28.7513 48.9566 28.7964 49.07 28.7964C49.1834 28.7964 49.2922 28.7513 49.3725 28.6711C49.4527 28.5909 49.4977 28.4821 49.4977 28.3686V24.7137C49.6491 24.6354 49.776 24.5169 49.8646 24.3713C49.9532 24.2257 50 24.0586 50 23.8882C50 23.7177 49.9532 23.5506 49.8646 23.405C49.776 23.2594 49.6491 23.1409 49.4977 23.0626ZM46.8167 25.5725V21.3613C46.8167 21.2478 46.7717 21.139 46.6914 21.0588C46.6112 20.9786 46.5024 20.9335 46.389 20.9335C46.2755 20.9335 46.1667 20.9786 46.0865 21.0588C46.0063 21.139 45.9612 21.2478 45.9612 21.3613V25.5729C45.8099 25.6513 45.683 25.7697 45.5944 25.9154C45.5058 26.061 45.459 26.2282 45.459 26.3986C45.459 26.5691 45.5058 26.7362 45.5944 26.8819C45.683 27.0275 45.8099 27.146 45.9612 27.2243V28.3686C45.9612 28.4821 46.0063 28.5909 46.0865 28.6711C46.1667 28.7513 46.2755 28.7964 46.389 28.7964C46.5024 28.7964 46.6112 28.7513 46.6914 28.6711C46.7717 28.5909 46.8167 28.4821 46.8167 28.3686V27.2246C46.9681 27.1461 47.0951 27.0276 47.1837 26.8819C47.2723 26.7362 47.3192 26.5689 47.3192 26.3984C47.3192 26.2279 47.2723 26.0606 47.1837 25.9149C47.0951 25.7692 46.9681 25.6507 46.8167 25.5722V25.5725ZM26.9515 32.4595C26.9515 32.2423 26.9942 32.0272 27.0774 31.8265C27.1605 31.6258 27.2823 31.4435 27.4359 31.2899C27.5895 31.1363 27.7718 31.0144 27.9725 30.9313C28.1732 30.8482 28.3883 30.8055 28.6055 30.8055C28.1669 30.8052 27.7464 30.6309 27.4362 30.3207C27.1261 30.0106 26.9518 29.5901 26.9515 29.1515C26.9512 29.5901 26.7769 30.0106 26.4668 30.3207C26.1566 30.6309 25.7361 30.8052 25.2975 30.8055C25.5147 30.8055 25.7298 30.8482 25.9305 30.9313C26.1312 31.0144 26.3135 31.1363 26.4671 31.2899C26.6207 31.4435 26.7425 31.6258 26.8256 31.8265C26.9088 32.0272 26.9515 32.2423 26.9515 32.4595ZM30.2562 28.5107C30.2567 27.968 30.4726 27.4478 30.8565 27.0643C31.2403 26.6808 31.7607 26.4653 32.3033 26.4653C31.7604 26.4651 31.2397 26.2494 30.8558 25.8655C30.4719 25.4816 30.2561 24.9609 30.256 24.4179C30.2562 24.9606 30.0409 25.4812 29.6573 25.8651C29.2737 26.249 28.7533 26.4649 28.2106 26.4651C28.753 26.4652 29.2732 26.6808 29.6568 27.0644C30.0404 27.448 30.2559 27.9682 30.256 28.5107H30.2562Z" fill="#F37329"/>
</g>
<defs>
<filter id="filter0_d_1302_14483" x="0" y="0" width="70" height="70" filterUnits="userSpaceOnUse" colorInterpolationFilters="sRGB">
<feFlood floodOpacity="0" result="BackgroundImageFix"/>
<feColorMatrix in="SourceAlpha" type="matrix" values="0 0 0 0 0 0 0 0 0 0 0 0 0 0 0 0 0 0 127 0" result="hardAlpha"/>
<feOffset/>
<feGaussianBlur stdDeviation="2.5"/>
<feComposite in2="hardAlpha" operator="out"/>
<feColorMatrix type="matrix" values="0 0 0 0 0 0 0 0 0 0 0 0 0 0 0 0 0 0 0.2 0"/>
<feBlend mode="normal" in2="BackgroundImageFix" result="effect1_dropShadow_1302_14483"/>
<feBlend mode="normal" in="SourceGraphic" in2="effect1_dropShadow_1302_14483" result="shape"/>
</filter>
<filter id="filter1_d_1302_14483" x="26.3701" y="0" width="43.6299" height="40" filterUnits="userSpaceOnUse" colorInterpolationFilters="sRGB">
<feFlood floodOpacity="0" result="BackgroundImageFix"/>
<feColorMatrix in="SourceAlpha" type="matrix" values="0 0 0 0 0 0 0 0 0 0 0 0 0 0 0 0 0 0 127 0" result="hardAlpha"/>
<feOffset/>
<feGaussianBlur stdDeviation="2.5"/>
<feComposite in2="hardAlpha" operator="out"/>
<feColorMatrix type="matrix" values="0 0 0 0 0 0 0 0 0 0 0 0 0 0 0 0 0 0 0.2 0"/>
<feBlend mode="normal" in2="BackgroundImageFix" result="effect1_dropShadow_1302_14483"/>
<feBlend mode="normal" in="SourceGraphic" in2="effect1_dropShadow_1302_14483" result="shape"/>
</filter>
<filter id="filter2_d_1302_14483" x="0" y="30" width="43.6299" height="40" filterUnits="userSpaceOnUse" colorInterpolationFilters="sRGB">
<feFlood floodOpacity="0" result="BackgroundImageFix"/>
<feColorMatrix in="SourceAlpha" type="matrix" values="0 0 0 0 0 0 0 0 0 0 0 0 0 0 0 0 0 0 127 0" result="hardAlpha"/>
<feOffset/>
<feGaussianBlur stdDeviation="2.5"/>
<feComposite in2="hardAlpha" operator="out"/>
<feColorMatrix type="matrix" values="0 0 0 0 0 0 0 0 0 0 0 0 0 0 0 0 0 0 0.2 0"/>
<feBlend mode="normal" in2="BackgroundImageFix" result="effect1_dropShadow_1302_14483"/>
<feBlend mode="normal" in="SourceGraphic" in2="effect1_dropShadow_1302_14483" result="shape"/>
</filter>
<filter id="filter3_d_1302_14483" x="6" y="6" width="58" height="58" filterUnits="userSpaceOnUse" colorInterpolationFilters="sRGB">
<feFlood floodOpacity="0" result="BackgroundImageFix"/>
<feColorMatrix in="SourceAlpha" type="matrix" values="0 0 0 0 0 0 0 0 0 0 0 0 0 0 0 0 0 0 127 0" result="hardAlpha"/>
<feOffset/>
<feGaussianBlur stdDeviation="2.5"/>
<feComposite in2="hardAlpha" operator="out"/>
<feColorMatrix type="matrix" values="0 0 0 0 0 0 0 0 0 0 0 0 0 0 0 0 0 0 0.2 0"/>
<feBlend mode="normal" in2="BackgroundImageFix" result="effect1_dropShadow_1302_14483"/>
<feBlend mode="normal" in="SourceGraphic" in2="effect1_dropShadow_1302_14483" result="shape"/>
</filter>
<clipPath id="clip0_1302_14483">
<rect width="30" height="30" fill="white" transform="translate(20 20)"/>
</clipPath>
</defs>
</svg>
