<svg width="30" height="30" viewBox="0 0 30 30" fill="none" xmlns="http://www.w3.org/2000/svg">
<g clip-path="url(#clip0_1299_16018)">
<path d="M14.3589 3.7652C14.3699 2.97689 14.6908 2.2246 15.2522 1.67104C15.8135 1.11747 16.5702 0.807129 17.3586 0.807129C18.147 0.807129 18.9037 1.11747 19.4651 1.67104C20.0264 2.2246 20.3473 2.97689 20.3583 3.7652C20.3583 5.83485 19.5686 7.14419 18.5554 7.70534C18.19 7.91086 17.7779 8.01882 17.3587 8.01882C16.9394 8.01882 16.5273 7.91086 16.1619 7.70534C15.1504 7.14419 14.3589 5.83485 14.3589 3.7652ZM5.38236 28.3326C5.38595 28.3496 5.39057 28.3664 5.39619 28.3828C5.39947 28.4055 5.3952 28.4286 5.38406 28.4486C5.37301 28.4678 5.35676 28.4834 5.33719 28.4936C5.31961 28.4971 5.3025 28.5041 5.28521 28.5093L2.81736 29.2315C2.80366 29.2358 2.78922 29.2372 2.77493 29.2357C2.76064 29.2342 2.74681 29.2299 2.73428 29.2228C2.71094 29.2091 2.69315 29.1877 2.684 29.1622L0.00474449 19.9951C0.000508309 19.9817 -0.00091318 19.9675 0.000568813 19.9535C0.00205081 19.9395 0.00640444 19.9259 0.0133578 19.9137C0.0266125 19.8899 0.0482279 19.872 0.0740023 19.8633L2.58012 19.1308C2.59367 19.1269 2.60789 19.1258 2.62189 19.1276C2.6359 19.1294 2.64938 19.134 2.6615 19.1413C2.67379 19.1471 2.68466 19.1555 2.69334 19.166C2.70202 19.1764 2.70829 19.1887 2.71172 19.2018L2.98019 20.1163C2.98144 20.1247 2.98377 20.1328 2.98711 20.1406V20.1423L5.06888 27.2605C5.07042 27.2677 5.07274 27.2747 5.0758 27.2813L5.38236 28.3326ZM2.05535 20.4662L2.05359 20.461C2.03878 20.4064 2.01326 20.3554 1.97852 20.3108C1.94377 20.2663 1.9005 20.2291 1.85123 20.2014C1.80195 20.1737 1.74766 20.1562 1.69153 20.1497C1.63539 20.1433 1.57853 20.148 1.52426 20.1638C1.46999 20.1796 1.4194 20.206 1.37545 20.2415C1.3315 20.277 1.29505 20.3209 1.26825 20.3706C1.24145 20.4204 1.22482 20.475 1.21934 20.5312C1.21386 20.5875 1.21963 20.6442 1.23633 20.6982L1.23803 20.7034C1.2533 20.7575 1.27911 20.8079 1.31397 20.8519C1.34883 20.8959 1.39206 20.9326 1.44115 20.9598C1.49025 20.9871 1.54425 21.0043 1.60004 21.0106C1.65582 21.0169 1.7123 21.012 1.76622 20.9964C1.82014 20.9807 1.87043 20.9546 1.91419 20.9194C1.95795 20.8843 1.99433 20.8408 2.02122 20.7915C2.04811 20.7422 2.06499 20.6881 2.07087 20.6323C2.07676 20.5764 2.07155 20.52 2.05553 20.4662H2.05535ZM11.1738 15.0487C11.1381 15.2717 11.1511 15.4997 11.2119 15.7172C11.2757 15.9329 11.3856 16.132 11.5342 16.3009C11.5607 16.3309 11.589 16.3592 11.619 16.3858C12.4295 17.082 14.9079 17.4076 17.3985 17.3955C19.8907 17.3816 22.3466 17.03 23.1104 16.3736C23.1367 16.3516 23.1611 16.3272 23.1831 16.3009C23.334 16.133 23.4449 15.9331 23.5073 15.7162C23.5697 15.4993 23.582 15.2711 23.5434 15.0487L23.3095 13.5038C23.1086 12.1755 22.5478 10.9631 21.6954 10.1113C20.9316 9.34749 19.9288 8.87493 18.7373 8.87493H15.98C14.7885 8.87493 13.7857 9.34772 13.0219 10.1113C12.1699 10.9629 11.6087 12.1758 11.4077 13.5038L11.1738 15.0487ZM25.0726 20.8455C24.9789 20.7821 24.873 20.7393 24.7617 20.7196C24.6504 20.6999 24.5362 20.7038 24.4265 20.7311L16.5965 23.485C16.5895 23.537 16.5826 23.5905 16.5722 23.6427C16.5452 23.7957 16.5041 23.9458 16.4492 24.0912C16.2171 24.7043 15.7929 25.1079 15.2732 25.3088C14.7381 25.5149 14.1094 25.4993 13.4962 25.2689L10.0392 23.9717C9.93335 23.9322 9.84751 23.8522 9.80059 23.7494C9.75366 23.6466 9.74949 23.5294 9.78899 23.4236C9.8285 23.3177 9.90844 23.2318 10.0112 23.1849C10.114 23.138 10.2312 23.1338 10.3371 23.1733L13.7941 24.4705C14.2116 24.6264 14.6272 24.6437 14.965 24.5138C15.2645 24.3978 15.5105 24.1588 15.6508 23.7899C15.6865 23.6944 15.7131 23.5958 15.7304 23.4954C15.7483 23.3965 15.7581 23.2963 15.7597 23.1958V23.1594C15.7562 22.8097 15.6645 22.4666 15.493 22.1618C15.3537 21.9021 15.1353 21.6935 14.8695 21.566L9.73471 19.2715C9.33187 19.0864 8.89287 18.9936 8.44963 18.9995C8.02189 19.0047 7.58713 19.1017 7.12465 19.2507L3.91717 20.2878L5.77377 26.6335L6.89291 26.3406C6.97641 26.3183 7.06474 26.3226 7.14574 26.3526V26.3509L11.6868 28.0118C12.2219 28.2075 12.7172 28.3651 13.1797 28.4119C13.6151 28.4646 14.0563 28.3868 14.4475 28.1885L24.2658 23.1711C24.3558 23.1209 24.4597 23.0689 24.5636 23.0152C25.1613 22.7106 25.8106 22.3779 25.5543 21.5067C25.4785 21.2355 25.3075 21.0008 25.0727 20.8455H25.0726ZM23.2819 4.21339V8.36862C23.2819 8.48185 23.3269 8.59043 23.4069 8.6705C23.487 8.75056 23.5956 8.79554 23.7088 8.79554C23.822 8.79554 23.9306 8.75056 24.0107 8.6705C24.0907 8.59043 24.1357 8.48185 24.1357 8.36862V4.21368C24.2875 4.13559 24.4148 4.01718 24.5037 3.87146C24.5926 3.72575 24.6397 3.55835 24.6397 3.38766C24.6397 3.21696 24.5926 3.04956 24.5037 2.90385C24.4148 2.75813 24.2875 2.63972 24.1357 2.56163V1.36128C24.1357 1.24805 24.0907 1.13947 24.0107 1.0594C23.9306 0.979342 23.822 0.934364 23.7088 0.934364C23.5956 0.934364 23.487 0.979342 23.4069 1.0594C23.3269 1.13947 23.2819 1.24805 23.2819 1.36128V2.56186C23.1301 2.63989 23.0027 2.75824 22.9138 2.90392C22.8249 3.04959 22.7779 3.21696 22.7779 3.38763C22.7779 3.55829 22.8249 3.72566 22.9138 3.87133C23.0027 4.01701 23.1301 4.13536 23.2819 4.21339ZM29.4977 3.06261V1.36128C29.4977 1.24784 29.4527 1.13904 29.3725 1.05882C29.2922 0.978608 29.1834 0.933543 29.07 0.933543C28.9566 0.933543 28.8478 0.978608 28.7675 1.05882C28.6873 1.13904 28.6423 1.24784 28.6423 1.36128V3.06296C28.4909 3.14122 28.364 3.25959 28.2754 3.40514C28.1868 3.55068 28.14 3.71778 28.14 3.88816C28.14 4.05855 28.1868 4.22565 28.2754 4.37119C28.364 4.51673 28.4909 4.63511 28.6423 4.71337V8.36862C28.6423 8.48206 28.6873 8.59086 28.7675 8.67108C28.8478 8.75129 28.9566 8.79636 29.07 8.79636C29.1834 8.79636 29.2922 8.75129 29.3725 8.67108C29.4527 8.59086 29.4977 8.48206 29.4977 8.36862V4.71372C29.6491 4.63538 29.776 4.51693 29.8646 4.37134C29.9532 4.22574 30 4.05859 30 3.88816C30 3.71773 29.9532 3.55059 29.8646 3.40499C29.776 3.25939 29.6491 3.14095 29.4977 3.06261ZM26.8167 5.57253V1.36128C26.8167 1.24784 26.7717 1.13904 26.6914 1.05882C26.6112 0.978608 26.5024 0.933543 26.389 0.933543C26.2755 0.933543 26.1667 0.978608 26.0865 1.05882C26.0063 1.13904 25.9612 1.24784 25.9612 1.36128V5.57288C25.8099 5.65126 25.683 5.76974 25.5944 5.91536C25.5058 6.06099 25.459 6.22816 25.459 6.39861C25.459 6.56906 25.5058 6.73623 25.5944 6.88186C25.683 7.02749 25.8099 7.14596 25.9612 7.22434V8.36862C25.9612 8.48206 26.0063 8.59086 26.0865 8.67108C26.1667 8.75129 26.2755 8.79636 26.389 8.79636C26.5024 8.79636 26.6112 8.75129 26.6914 8.67108C26.7717 8.59086 26.8167 8.48206 26.8167 8.36862V7.22458C26.9681 7.14613 27.0951 7.02758 27.1837 6.88188C27.2723 6.73618 27.3192 6.56893 27.3192 6.39841C27.3192 6.22788 27.2723 6.06063 27.1837 5.91493C27.0951 5.76923 26.9681 5.65068 26.8167 5.57224V5.57253ZM6.9515 12.4595C6.95148 12.2423 6.99425 12.0272 7.07736 11.8265C7.16047 11.6258 7.2823 11.4435 7.43589 11.2899C7.58948 11.1363 7.77183 11.0144 7.97251 10.9313C8.17319 10.8482 8.38828 10.8055 8.60549 10.8055C8.1669 10.8052 7.74636 10.6309 7.43623 10.3207C7.12611 10.0106 6.95177 9.59008 6.9515 9.15149C6.95124 9.59008 6.77689 10.0106 6.46677 10.3207C6.15664 10.6309 5.7361 10.8052 5.29752 10.8055C5.51473 10.8055 5.72982 10.8482 5.9305 10.9313C6.13118 11.0144 6.31352 11.1363 6.46711 11.2899C6.6207 11.4435 6.74253 11.6258 6.82565 11.8265C6.90876 12.0272 6.95153 12.2423 6.9515 12.4595ZM10.2562 8.51065C10.2567 7.96804 10.4726 7.44784 10.8565 7.06432C11.2403 6.6808 11.7607 6.46534 12.3033 6.46526C11.7604 6.46514 11.2397 6.2494 10.8558 5.86548C10.4719 5.48156 10.2561 4.96088 10.256 4.41794C10.2562 4.96065 10.0409 5.48122 9.65726 5.86513C9.27366 6.24904 8.75327 6.46485 8.21056 6.46509C8.75302 6.46524 9.27322 6.68081 9.65679 7.0644C10.0404 7.44799 10.2559 7.96819 10.256 8.51065H10.2562Z" fill="#F37329"/>
</g>
<defs>
<clipPath id="clip0_1299_16018">
<rect width="30" height="30" fill="white"/>
</clipPath>
</defs>
</svg>
