<svg width="30" height="30" viewBox="0 0 30 30" fill="none" xmlns="http://www.w3.org/2000/svg">
<path fill-rule="evenodd" clip-rule="evenodd" d="M24.6461 9.66271C22.573 9.66271 20.8861 11.349 20.8861 13.4227V13.6342C20.8861 13.9283 21.1252 14.1674 21.4193 14.1674H27.8734C28.1676 14.1674 28.4066 13.9283 28.4066 13.6342V13.4227C28.4072 11.349 26.7197 9.66271 24.6461 9.66271ZM4.06094 13.094C4.22676 13.094 4.37441 12.9756 4.40605 12.8069C5.32715 7.84279 9.66602 4.23986 14.7232 4.23986C16.2104 4.23986 17.6828 4.55802 19.0293 5.1633L18.0437 5.42755C17.9992 5.43952 17.9574 5.46015 17.9207 5.48827C17.8841 5.51639 17.8534 5.55144 17.8303 5.59143C17.8073 5.63142 17.7923 5.67557 17.7863 5.72134C17.7803 5.76712 17.7833 5.81363 17.7953 5.85822C17.8154 5.93287 17.8595 5.99883 17.9208 6.04586C17.9821 6.0929 18.0573 6.11839 18.1346 6.11837C18.165 6.11837 18.1955 6.11486 18.226 6.10666L20.1039 5.60333C20.1937 5.579 20.2703 5.52027 20.3172 5.43986C20.3641 5.359 20.3764 5.26291 20.3523 5.17267L19.849 3.29533C19.7986 3.10783 19.6059 2.9965 19.4184 3.0463C19.3738 3.05827 19.332 3.0789 19.2954 3.10702C19.2587 3.13514 19.228 3.17019 19.2049 3.21018C19.1819 3.25017 19.1669 3.29432 19.1609 3.34009C19.1549 3.38587 19.158 3.43238 19.1699 3.47697L19.4682 4.59025C17.991 3.89943 16.3656 3.53673 14.7232 3.53673C9.32734 3.53673 4.69785 7.38166 3.71465 12.6785C3.67949 12.869 3.80547 13.0529 3.99648 13.0881C4.01816 13.0922 4.03984 13.094 4.06094 13.094ZM11.3383 24.791C11.2576 24.8377 11.1987 24.9146 11.1745 25.0046C11.1504 25.0947 11.1629 25.1907 11.2094 25.2715L12.1814 26.9549C12.2281 27.0357 12.3049 27.0946 12.395 27.1188C12.4851 27.1429 12.5811 27.1304 12.6619 27.0838C12.7019 27.0607 12.7369 27.0299 12.765 26.9933C12.7931 26.9566 12.8137 26.9148 12.8256 26.8702C12.8375 26.8255 12.8405 26.779 12.8345 26.7332C12.8284 26.6874 12.8134 26.6433 12.7902 26.6033L12.2424 25.6541C13.0527 25.8369 13.8842 25.9301 14.7232 25.9301C17.3664 25.9301 19.9328 24.9908 21.9484 23.2863C23.9406 21.6024 25.2883 19.268 25.7447 16.7145C25.7787 16.5235 25.6516 16.3406 25.4605 16.3067C25.2695 16.2721 25.0867 16.3998 25.0527 16.5908C24.1586 21.5947 19.8145 25.227 14.7232 25.227C13.9463 25.227 13.177 25.142 12.427 24.9744L13.3732 24.4283C13.4539 24.3816 13.5128 24.3048 13.537 24.2147C13.5612 24.1247 13.5486 24.0287 13.5021 23.9479C13.4554 23.8672 13.3786 23.8083 13.2886 23.7841C13.1985 23.7599 13.1025 23.7725 13.0217 23.819L11.3383 24.791ZM9.09121 24.2672C9.09121 22.1942 7.4043 20.5072 5.33125 20.5072C3.25762 20.5072 1.57129 22.1942 1.57129 24.2672V24.4793C1.57129 24.7729 1.81035 25.0119 2.10391 25.0119H8.55801C8.85215 25.0119 9.09121 24.7729 9.09121 24.4793V24.2672ZM6.98711 16.6858C6.98711 15.7723 6.24414 15.0293 5.33066 15.0293C4.41719 15.0293 3.67363 15.7723 3.67363 16.6858C3.67363 17.5992 4.41719 18.3422 5.33066 18.3422C6.24473 18.3422 6.98711 17.5992 6.98711 16.6858ZM17.7648 14.7334C17.7648 16.4074 16.4031 17.7692 14.7291 17.7692C13.0551 17.7692 11.6934 16.4074 11.6934 14.7334C11.6934 13.0594 13.0551 11.6977 14.7291 11.6977C16.4031 11.6977 17.7648 13.0594 17.7648 14.7334ZM12.7592 14.4481C12.6221 14.5858 12.6221 14.8084 12.7592 14.9455L13.9311 16.1174C13.9996 16.186 14.0893 16.2199 14.1795 16.2199C14.2697 16.2199 14.3594 16.186 14.4279 16.1174L16.6984 13.8469C16.7312 13.8143 16.7571 13.7755 16.7749 13.7328C16.7926 13.6901 16.8017 13.6444 16.8017 13.5982C16.8017 13.5519 16.7926 13.5062 16.7749 13.4635C16.7571 13.4208 16.7312 13.3821 16.6984 13.3494C16.6325 13.2836 16.5432 13.2466 16.45 13.2466C16.3568 13.2466 16.2675 13.2836 16.2016 13.3494L14.1801 15.3715L13.2572 14.4481C13.1911 14.3822 13.1015 14.3452 13.0082 14.3452C12.9149 14.3452 12.8253 14.3822 12.7592 14.4481ZM22.9902 5.84064C22.9902 6.75412 23.7332 7.49767 24.6467 7.49767C25.5602 7.49767 26.3037 6.75412 26.3037 5.84064C26.3037 4.92716 25.5602 4.18419 24.6467 4.18419C23.7332 4.18419 22.9902 4.92716 22.9902 5.84064Z" fill="#F37329"/>
</svg>
