<svg width="70" height="70" viewBox="0 0 70 70" fill="none" xmlns="http://www.w3.org/2000/svg">
<g filter="url(#filter0_d_1302_14481)">
<circle cx="35" cy="35" r="30" fill="#FDFDFD"/>
</g>
<g filter="url(#filter1_d_1302_14481)">
<path d="M65 35C65 30.754 64.0987 26.5563 62.3556 22.6846C60.6126 18.8128 58.0675 15.3552 54.8887 12.5402C51.7098 9.72531 47.9697 7.61723 43.9155 6.35538C39.8613 5.09354 35.5854 4.70667 31.3706 5.22035L32.0962 11.1743C35.4684 10.7633 38.8894 11.0728 42.133 12.0824C45.3766 13.0919 48.369 14.7785 50.9123 17.0307C53.4556 19.2828 55.4918 22.0491 56.8863 25.1468C58.2809 28.2445 59.002 31.6029 59.002 35H65Z" fill="#F37329"/>
</g>
<g filter="url(#filter2_d_1302_14481)">
<path d="M5 35C5 39.246 5.90132 43.4437 7.64438 47.3154C9.38744 51.1872 11.9325 54.6448 15.1113 57.4598C18.2902 60.2747 22.0303 62.3828 26.0845 63.6446C30.1387 64.9065 34.4146 65.2933 38.6294 64.7796L37.9038 58.8257C34.5316 59.2367 31.1106 58.9272 27.867 57.9176C24.6234 56.9081 21.631 55.2215 19.0877 52.9693C16.5444 50.7172 14.5082 47.9509 13.1137 44.8532C11.7191 41.7555 10.998 38.3971 10.998 35H5Z" fill="#F37329"/>
</g>
<g filter="url(#filter3_d_1302_14481)">
<circle cx="35" cy="35" r="24" fill="#FDFDFD"/>
</g>
<path fillRule="evenodd" clipRule="evenodd" d="M44.6461 29.6627C42.573 29.6627 40.8861 31.349 40.8861 33.4227V33.6342C40.8861 33.9283 41.1252 34.1674 41.4193 34.1674H47.8734C48.1676 34.1674 48.4066 33.9283 48.4066 33.6342V33.4227C48.4072 31.349 46.7197 29.6627 44.6461 29.6627ZM24.0609 33.094C24.2268 33.094 24.3744 32.9756 24.4061 32.8069C25.3271 27.8428 29.666 24.2399 34.7232 24.2399C36.2104 24.2399 37.6828 24.558 39.0293 25.1633L38.0437 25.4276C37.9992 25.4395 37.9574 25.4601 37.9207 25.4883C37.8841 25.5164 37.8534 25.5514 37.8303 25.5914C37.8073 25.6314 37.7923 25.6756 37.7863 25.7213C37.7803 25.7671 37.7833 25.8136 37.7953 25.8582C37.8154 25.9329 37.8595 25.9988 37.9208 26.0459C37.9821 26.0929 38.0573 26.1184 38.1346 26.1184C38.165 26.1184 38.1955 26.1149 38.226 26.1067L40.1039 25.6033C40.1937 25.579 40.2703 25.5203 40.3172 25.4399C40.3641 25.359 40.3764 25.2629 40.3523 25.1727L39.849 23.2953C39.7986 23.1078 39.6059 22.9965 39.4184 23.0463C39.3738 23.0583 39.332 23.0789 39.2954 23.107C39.2587 23.1351 39.228 23.1702 39.2049 23.2102C39.1819 23.2502 39.1669 23.2943 39.1609 23.3401C39.1549 23.3859 39.158 23.4324 39.1699 23.477L39.4682 24.5902C37.991 23.8994 36.3656 23.5367 34.7232 23.5367C29.3273 23.5367 24.6979 27.3817 23.7146 32.6785C23.6795 32.869 23.8055 33.0529 23.9965 33.0881C24.0182 33.0922 24.0398 33.094 24.0609 33.094ZM31.3383 44.791C31.2576 44.8377 31.1987 44.9146 31.1745 45.0046C31.1504 45.0947 31.1629 45.1907 31.2094 45.2715L32.1814 46.9549C32.2281 47.0357 32.3049 47.0946 32.395 47.1188C32.4851 47.1429 32.5811 47.1304 32.6619 47.0838C32.7019 47.0607 32.7369 47.0299 32.765 46.9933C32.7931 46.9566 32.8137 46.9148 32.8256 46.8702C32.8375 46.8255 32.8405 46.779 32.8345 46.7332C32.8284 46.6874 32.8134 46.6433 32.7902 46.6033L32.2424 45.6541C33.0527 45.8369 33.8842 45.9301 34.7232 45.9301C37.3664 45.9301 39.9328 44.9908 41.9484 43.2863C43.9406 41.6024 45.2883 39.268 45.7447 36.7145C45.7787 36.5235 45.6516 36.3406 45.4605 36.3067C45.2695 36.2721 45.0867 36.3998 45.0527 36.5908C44.1586 41.5947 39.8145 45.227 34.7232 45.227C33.9463 45.227 33.177 45.142 32.427 44.9744L33.3732 44.4283C33.4539 44.3816 33.5128 44.3048 33.537 44.2147C33.5612 44.1247 33.5486 44.0287 33.5021 43.9479C33.4554 43.8672 33.3786 43.8083 33.2886 43.7841C33.1985 43.7599 33.1025 43.7725 33.0217 43.819L31.3383 44.791ZM29.0912 44.2672C29.0912 42.1942 27.4043 40.5072 25.3313 40.5072C23.2576 40.5072 21.5713 42.1942 21.5713 44.2672V44.4793C21.5713 44.7729 21.8104 45.0119 22.1039 45.0119H28.558C28.8521 45.0119 29.0912 44.7729 29.0912 44.4793V44.2672ZM26.9871 36.6858C26.9871 35.7723 26.2441 35.0293 25.3307 35.0293C24.4172 35.0293 23.6736 35.7723 23.6736 36.6858C23.6736 37.5992 24.4172 38.3422 25.3307 38.3422C26.2447 38.3422 26.9871 37.5992 26.9871 36.6858ZM37.7648 34.7334C37.7648 36.4074 36.4031 37.7692 34.7291 37.7692C33.0551 37.7692 31.6934 36.4074 31.6934 34.7334C31.6934 33.0594 33.0551 31.6977 34.7291 31.6977C36.4031 31.6977 37.7648 33.0594 37.7648 34.7334ZM32.7592 34.4481C32.6221 34.5858 32.6221 34.8084 32.7592 34.9455L33.9311 36.1174C33.9996 36.186 34.0893 36.2199 34.1795 36.2199C34.2697 36.2199 34.3594 36.186 34.4279 36.1174L36.6984 33.8469C36.7312 33.8143 36.7571 33.7755 36.7749 33.7328C36.7926 33.6901 36.8017 33.6444 36.8017 33.5982C36.8017 33.5519 36.7926 33.5062 36.7749 33.4635C36.7571 33.4208 36.7312 33.3821 36.6984 33.3494C36.6325 33.2836 36.5432 33.2466 36.45 33.2466C36.3568 33.2466 36.2675 33.2836 36.2016 33.3494L34.1801 35.3715L33.2572 34.4481C33.1911 34.3822 33.1015 34.3452 33.0082 34.3452C32.9149 34.3452 32.8253 34.3822 32.7592 34.4481ZM42.9902 25.8406C42.9902 26.7541 43.7332 27.4977 44.6467 27.4977C45.5602 27.4977 46.3037 26.7541 46.3037 25.8406C46.3037 24.9272 45.5602 24.1842 44.6467 24.1842C43.7332 24.1842 42.9902 24.9272 42.9902 25.8406Z" fill="#F37329"/>
<defs>
<filter id="filter0_d_1302_14481" x="0" y="0" width="70" height="70" filterUnits="userSpaceOnUse" colorInterpolationFilters="sRGB">
<feFlood floodOpacity="0" result="BackgroundImageFix"/>
<feColorMatrix in="SourceAlpha" type="matrix" values="0 0 0 0 0 0 0 0 0 0 0 0 0 0 0 0 0 0 127 0" result="hardAlpha"/>
<feOffset/>
<feGaussianBlur stdDeviation="2.5"/>
<feComposite in2="hardAlpha" operator="out"/>
<feColorMatrix type="matrix" values="0 0 0 0 0 0 0 0 0 0 0 0 0 0 0 0 0 0 0.2 0"/>
<feBlend mode="normal" in2="BackgroundImageFix" result="effect1_dropShadow_1302_14481"/>
<feBlend mode="normal" in="SourceGraphic" in2="effect1_dropShadow_1302_14481" result="shape"/>
</filter>
<filter id="filter1_d_1302_14481" x="26.3701" y="0" width="43.6299" height="40" filterUnits="userSpaceOnUse" colorInterpolationFilters="sRGB">
<feFlood floodOpacity="0" result="BackgroundImageFix"/>
<feColorMatrix in="SourceAlpha" type="matrix" values="0 0 0 0 0 0 0 0 0 0 0 0 0 0 0 0 0 0 127 0" result="hardAlpha"/>
<feOffset/>
<feGaussianBlur stdDeviation="2.5"/>
<feComposite in2="hardAlpha" operator="out"/>
<feColorMatrix type="matrix" values="0 0 0 0 0 0 0 0 0 0 0 0 0 0 0 0 0 0 0.2 0"/>
<feBlend mode="normal" in2="BackgroundImageFix" result="effect1_dropShadow_1302_14481"/>
<feBlend mode="normal" in="SourceGraphic" in2="effect1_dropShadow_1302_14481" result="shape"/>
</filter>
<filter id="filter2_d_1302_14481" x="0" y="30" width="43.6299" height="40" filterUnits="userSpaceOnUse" colorInterpolationFilters="sRGB">
<feFlood floodOpacity="0" result="BackgroundImageFix"/>
<feColorMatrix in="SourceAlpha" type="matrix" values="0 0 0 0 0 0 0 0 0 0 0 0 0 0 0 0 0 0 127 0" result="hardAlpha"/>
<feOffset/>
<feGaussianBlur stdDeviation="2.5"/>
<feComposite in2="hardAlpha" operator="out"/>
<feColorMatrix type="matrix" values="0 0 0 0 0 0 0 0 0 0 0 0 0 0 0 0 0 0 0.2 0"/>
<feBlend mode="normal" in2="BackgroundImageFix" result="effect1_dropShadow_1302_14481"/>
<feBlend mode="normal" in="SourceGraphic" in2="effect1_dropShadow_1302_14481" result="shape"/>
</filter>
<filter id="filter3_d_1302_14481" x="6" y="6" width="58" height="58" filterUnits="userSpaceOnUse" colorInterpolationFilters="sRGB">
<feFlood floodOpacity="0" result="BackgroundImageFix"/>
<feColorMatrix in="SourceAlpha" type="matrix" values="0 0 0 0 0 0 0 0 0 0 0 0 0 0 0 0 0 0 127 0" result="hardAlpha"/>
<feOffset/>
<feGaussianBlur stdDeviation="2.5"/>
<feComposite in2="hardAlpha" operator="out"/>
<feColorMatrix type="matrix" values="0 0 0 0 0 0 0 0 0 0 0 0 0 0 0 0 0 0 0.2 0"/>
<feBlend mode="normal" in2="BackgroundImageFix" result="effect1_dropShadow_1302_14481"/>
<feBlend mode="normal" in="SourceGraphic" in2="effect1_dropShadow_1302_14481" result="shape"/>
</filter>
</defs>
</svg>
