<svg width="60" height="60" viewBox="0 0 60 60" fill="none" xmlns="http://www.w3.org/2000/svg">
<path d="M39.7358 17.6551H20.2649L30.0004 12.6528L39.7358 17.6551ZM39.7358 28.6569H55.9239V53.0395H39.7352L39.7358 28.6569ZM44.6209 37.0513H51.0395V33.6262H44.6203L44.6209 37.0513ZM51.0395 43.6607H44.6203V47.0858H51.0389L51.0395 43.6607ZM20.2661 53.0391H4.07684V28.6569H20.2655L20.2661 53.0391ZM15.381 43.6607H8.9618V47.0858H15.3804L15.381 43.6607ZM8.96238 37.0513H15.381V33.6262H8.9618L8.96238 37.0513ZM39.7358 27.0163H55.9239V22.9989C55.9237 22.8968 55.8831 22.7989 55.8109 22.7266C55.7387 22.6544 55.6408 22.6138 55.5387 22.6137H39.7352L39.7358 27.0163ZM27.0732 47.4797V53.0395H32.9275V47.4797C32.9275 46.7034 32.6191 45.9589 32.0701 45.4099C31.5212 44.861 30.7767 44.5526 30.0004 44.5526C29.224 44.5526 28.4795 44.861 27.9306 45.4099C27.3816 45.9589 27.0732 46.7034 27.0732 47.4797ZM38.0946 19.2961H21.9061V27.0163H38.0946V19.2961ZM20.2655 22.6137H4.46203C4.35991 22.6138 4.262 22.6544 4.18979 22.7266C4.11758 22.7989 4.07696 22.8968 4.07684 22.9989V27.0163H20.2655V22.6137ZM56.8665 54.6802H3.13418C2.80955 54.6802 2.49821 54.8091 2.26866 55.0387C2.03912 55.2682 1.91016 55.5796 1.91016 55.9042C1.91016 56.2288 2.03912 56.5402 2.26866 56.7697C2.49821 56.9993 2.80955 57.1282 3.13418 57.1282H56.8665C57.1912 57.1282 57.5025 56.9993 57.732 56.7697C57.9616 56.5402 58.0905 56.2288 58.0905 55.9042C58.0905 55.5796 57.9616 55.2682 57.732 55.0387C57.5025 54.8091 57.1912 54.6802 56.8665 54.6802ZM34.5681 53.0395V47.4797C34.5681 46.2683 34.0868 45.1064 33.2302 44.2498C32.3736 43.3932 31.2118 42.912 30.0004 42.912C28.7889 42.912 27.6271 43.3932 26.7705 44.2498C25.9139 45.1064 25.4326 46.2683 25.4326 47.4797V53.0395H21.9061V28.6569H38.0946V53.0395H34.5681ZM33.2096 33.6262H26.7911V37.0513H33.2096V33.6262ZM30.8207 11.2297V7.21022C31.3065 7.08842 31.8053 7.02629 32.3061 7.02518C33.2027 7.0236 34.0866 7.23635 34.8843 7.64568C35.3958 7.9006 35.9537 8.04892 36.5243 8.08166C37.0949 8.11439 37.6662 8.03085 38.2035 7.83611V4.57021C36.841 4.92547 35.3957 4.77056 34.1394 4.13463C33.6279 3.87994 33.07 3.73177 32.4995 3.6991C31.9291 3.66643 31.3579 3.74993 30.8207 3.94455V3.69189C30.8207 3.47433 30.7342 3.26568 30.5804 3.11185C30.4266 2.95801 30.2179 2.87158 30.0004 2.87158C29.7828 2.87158 29.5741 2.95801 29.4203 3.11185C29.2665 3.26568 29.18 3.47433 29.18 3.69189V11.2297L30.0004 10.8079L30.8207 11.2297Z" fill="#F37329"/>
</svg>
