<svg width="60" height="60" viewBox="0 0 60 60" fill="none" xmlns="http://www.w3.org/2000/svg">
<path d="M7 54H40.01C38.7653 53.0704 37.7547 51.8632 37.0586 50.4744C36.3625 49.0856 36 47.5535 36 46C36 40.49 40.49 36 46 36V17.82C45.91 17.86 45.82 17.88 45.72 17.91C45.49 17.97 45.25 18 45 18H37C35.35 18 34 16.65 34 15V7C34.0014 6.6596 34.0589 6.32176 34.17 6H7C6.45 6 6 6.45 6 7V53C6 53.55 6.45 54 7 54ZM30.64 50H22.64C22.09 50 21.64 49.55 21.64 49C21.64 48.45 22.09 48 22.64 48H30.64C31.19 48 31.64 48.45 31.64 49C31.64 49.55 31.19 50 30.64 50ZM31.64 45H13C12.45 45 12 44.55 12 44C12 43.45 12.45 43 13 43H31.64C32.19 43 32.64 43.45 32.64 44C32.64 44.55 32.19 45 31.64 45ZM31.64 40H13C12.45 40 12 39.55 12 39C12 38.45 12.45 38 13 38H31.64C32.19 38 32.64 38.45 32.64 39C32.64 39.55 32.19 40 31.64 40ZM33 35H13C12.45 35 12 34.55 12 34C12 33.45 12.45 33 13 33H33C33.55 33 34 33.45 34 34C34 34.55 33.55 35 33 35ZM31 21H39C39.55 21 40 21.45 40 22C40 22.55 39.55 23 39 23H31C30.45 23 30 22.55 30 22C30 21.45 30.45 21 31 21ZM19 10C21.76 10 24 12.24 24 15C24 17.76 21.76 20 19 20C16.24 20 14 17.76 14 15C14 12.24 16.24 10 19 10ZM11 26C11 23.24 13.24 21 16 21H22C24.76 21 27 23.24 27 26V28C27 28.55 26.55 29 26 29H12C11.45 29 11 28.55 11 28V26Z" fill="#F37329"/>
<path d="M37 16.0001H45C45.09 16.0001 45.17 15.9901 45.25 15.9601C45.3 15.9601 45.34 15.9401 45.39 15.9201C45.5 15.8701 45.61 15.8001 45.71 15.7101C45.8 15.6201 45.87 15.5101 45.92 15.3901C45.94 15.3401 45.96 15.3001 45.96 15.2501C46.01 15.0901 46.01 14.9101 45.96 14.7501C45.96 14.7001 45.94 14.6601 45.92 14.6101C45.8715 14.4908 45.8002 14.3821 45.71 14.2901L37.71 6.29013C37.618 6.19994 37.5093 6.1286 37.39 6.08013C37.34 6.06013 37.3 6.04013 37.25 6.04013C37.0871 5.99012 36.9129 5.99012 36.75 6.04013C36.7 6.04013 36.66 6.06013 36.61 6.08013C36.49 6.13013 36.38 6.20013 36.29 6.29013C36.2 6.38013 36.13 6.49013 36.08 6.61013C36.06 6.66013 36.04 6.70013 36.04 6.75013C36.01 6.83013 36 6.92013 36 7.00013V15.0001C36 15.5501 36.45 16.0001 37 16.0001ZM38 46.0001C38 50.4101 41.59 54.0001 46 54.0001C50.41 54.0001 54 50.4101 54 46.0001C54 41.5901 50.41 38.0001 46 38.0001C41.59 38.0001 38 41.5901 38 46.0001ZM49.4 43.3801C49.79 43.7701 49.79 44.4001 49.4 44.7901L45.57 48.6201C45.4791 48.7134 45.3702 48.7873 45.2498 48.8371C45.1295 48.887 45.0002 48.9118 44.87 48.9101C44.61 48.9101 44.35 48.8201 44.16 48.6201L42.6 47.0601C42.5074 46.9675 42.434 46.8576 42.3839 46.7367C42.3338 46.6157 42.308 46.4861 42.308 46.3551C42.308 46.2242 42.3338 46.0946 42.3839 45.9736C42.434 45.8526 42.5074 45.7427 42.6 45.6501C42.6926 45.5575 42.8025 45.4841 42.9235 45.434C43.0444 45.3839 43.1741 45.3581 43.305 45.3581C43.4359 45.3581 43.5656 45.3839 43.6865 45.434C43.8075 45.4841 43.9174 45.5575 44.01 45.6501L44.87 46.5001L47.99 43.3801C48.0825 43.2874 48.1924 43.2139 48.3134 43.1637C48.4344 43.1135 48.564 43.0877 48.695 43.0877C48.826 43.0877 48.9557 43.1135 49.0766 43.1637C49.1976 43.2139 49.3075 43.2874 49.4 43.3801Z" fill="#F37329"/>
</svg>
