<svg width="60" height="60" viewBox="0 0 60 60" fill="none" xmlns="http://www.w3.org/2000/svg">
<path d="M47.4982 43.0525L36.1468 47.711C35.6453 48.1812 35.0035 48.4742 34.3197 48.5453L25.94 49.3751C25.644 49.3995 25.3503 49.3066 25.1222 49.1164C24.8941 48.9262 24.7498 48.654 24.7206 48.3584C24.6913 48.0628 24.7794 47.7676 24.9658 47.5364C25.1522 47.3051 25.422 47.1564 25.717 47.1223L34.0955 46.2925C34.6457 46.237 35.0419 45.6812 34.9797 45.0517C34.9151 44.3974 34.3966 43.9581 33.8702 44.0102L29.2536 44.4676C27.112 44.6744 24.9571 44.2418 23.0612 43.2246C21.5603 42.4171 19.8534 42.0735 18.157 42.2374L16.6366 42.388L17.7382 53.4925C19.5902 53.314 21.4565 53.6264 23.1495 54.3981L24.6665 55.0864C26.84 56.0725 29.2299 56.0985 31.3944 55.1544L48.654 46.2608C49.6525 45.8193 49.9061 44.6657 49.4702 43.8098C49.0717 43.0242 48.2215 42.6959 47.497 43.0513L47.4982 43.0525ZM13.2144 40.7306L9.02344 41.0781L10.9423 56.0578L14.6974 55.6853C14.9557 55.6596 15.1933 55.5323 15.3578 55.3315C15.5223 55.1306 15.6003 54.8727 15.5748 54.6144L14.2853 41.6068C14.2593 41.3487 14.1319 41.1115 13.9311 40.9472C13.7303 40.7829 13.4725 40.705 13.2144 40.7306ZM33.7763 41.6283C33.9348 41.7076 34.1046 41.7415 34.2857 41.7415C34.4782 41.7415 34.6819 41.6849 34.8517 41.583C46.1159 34.983 51.2895 24.0019 50.9612 12.4661C50.8932 10.6434 50.7121 9.53399 50.7008 9.48871C50.5989 8.88871 50.0442 8.48116 49.4215 8.5604C43.8234 9.38569 36.2861 5.55701 34.897 4.16795C34.687 4.00995 34.4284 3.93026 34.1659 3.94266C33.9034 3.95507 33.6535 4.05878 33.4593 4.23588C28.8178 8.4472 21.9178 9.43437 19.2291 8.53776C18.9234 8.46984 18.6065 8.53776 18.3461 8.71889C18.097 8.90003 17.9272 9.17172 17.8819 9.47739C15.6404 24.6359 22.58 34.168 33.7763 41.6283ZM34.5008 10.5868C37.9004 12.4491 41.4789 13.8087 45.3008 14.2321C45.131 22.6163 41.3612 30.2906 34.2178 35.2661C27.3483 30.4163 23.0668 23.1766 23.1574 14.3453C27.1344 14.0963 30.98 12.8996 34.5008 10.5868Z" fill="#F37329"/>
<path d="M33.5499 27.1422C33.7256 27.1422 33.8989 27.1013 34.0561 27.0227C34.2133 26.9441 34.3501 26.83 34.4555 26.6894L39.3948 20.1143C39.4841 19.9955 39.5492 19.8602 39.5862 19.7162C39.6233 19.5722 39.6316 19.4223 39.6108 19.275C39.5899 19.1278 39.5402 18.9861 39.4646 18.8581C39.389 18.7301 39.2889 18.6182 39.17 18.5288C39.0512 18.4395 38.9159 18.3744 38.7719 18.3374C38.6279 18.3003 38.478 18.292 38.3308 18.3128C38.1835 18.3337 38.0419 18.3834 37.9138 18.459C37.7858 18.5346 37.6739 18.6347 37.5846 18.7536L33.4695 24.2328L31.434 21.9777C31.2308 21.7629 30.9516 21.6361 30.6561 21.6245C30.3607 21.6128 30.0723 21.7173 29.8529 21.9154C29.6334 22.1136 29.5002 22.3898 29.4817 22.6849C29.4632 22.98 29.561 23.2707 29.754 23.4947L32.7087 26.7687C32.8149 26.8864 32.9447 26.9804 33.0896 27.0448C33.2345 27.1091 33.3913 27.1423 33.5499 27.1422Z" fill="#F37329"/>
</svg>
