<svg width="60" height="60" viewBox="0 0 60 60" fill="none" xmlns="http://www.w3.org/2000/svg">
<path fillRule="evenodd" clipRule="evenodd" d="M32.615 18.0394V20.7755C32.1351 20.6109 31.6313 20.5266 31.124 20.5258H31.1165C30.5719 20.5258 30.0373 20.6219 29.5353 20.8048V18.0394H22.5906C20.3449 18.0394 18.5219 16.2162 18.5219 13.9706V5.83335C18.5219 3.58771 20.3449 1.76465 22.5906 1.76465H39.5599C41.8054 1.76465 43.6285 3.58771 43.6285 5.83335V13.9706C43.6285 16.2162 41.8054 18.0394 39.5599 18.0394H32.615ZM21.8259 7.73077L25.2992 10.5598C25.365 10.6124 25.45 10.6242 25.5282 10.5901C25.6049 10.5558 25.6529 10.4848 25.6529 10.4032V9.08547H30.215C30.4509 9.08547 30.6429 8.90135 30.6429 8.67512V6.47347C30.6429 6.24724 30.4509 6.06312 30.215 6.06312H25.6529V4.74535C25.6529 4.66383 25.6049 4.59277 25.5282 4.55865C25.491 4.54188 25.4499 4.53583 25.4094 4.54117C25.3689 4.54652 25.3308 4.56304 25.2992 4.58888L21.8259 7.41783C21.7765 7.45853 21.7505 7.51124 21.7505 7.5743C21.7505 7.63618 21.7765 7.69006 21.8259 7.73077ZM40.8665 12.6689C40.8901 12.6503 40.9092 12.6265 40.9223 12.5993C40.9354 12.5722 40.9421 12.5424 40.9419 12.5123C40.9419 12.4492 40.9159 12.3966 40.8665 12.3558L37.3932 9.52688C37.3616 9.50104 37.3234 9.48452 37.2829 9.47917C37.2425 9.47383 37.2013 9.47988 37.1641 9.49665C37.0873 9.53077 37.0394 9.60183 37.0394 9.68335V11.0012H32.4773C32.2414 11.0012 32.0494 11.1854 32.0494 11.4115V13.6131C32.0494 13.8394 32.2414 14.0235 32.4773 14.0235H37.0394V15.3412C37.0394 15.4229 37.0873 15.4938 37.1641 15.5281C37.2423 15.5623 37.3273 15.5504 37.3932 15.4978L40.8665 12.6689ZM51.7695 58.2352H37.7417V44.0959C37.7418 43.8835 37.6956 43.6735 37.6066 43.4806C37.5175 43.2877 37.3877 43.1164 37.226 42.9785L29.1522 36.0972C28.9096 35.8905 28.7148 35.6336 28.5812 35.3442C28.4476 35.0548 28.3785 34.7398 28.3785 34.4211V25.1462C28.3785 24.42 28.6669 23.7236 29.1803 23.2101C29.6939 22.6966 30.3903 22.4082 31.1165 22.4082H31.1169C31.8431 22.4082 32.5395 22.6966 33.053 23.2101C33.5665 23.7236 33.8549 24.42 33.8549 25.1462V31.893C33.8549 32.2117 33.9241 32.5267 34.0577 32.8161C34.1913 33.1054 34.3861 33.3624 34.6287 33.5691L40.6768 38.7241C41.0753 39.0637 41.5818 39.2503 42.1054 39.2503H53.6979C54.8885 39.2503 56.0303 39.7233 56.8722 40.5652C57.7141 41.407 58.1871 42.5489 58.1872 43.7395V58.2352H53.6519V45.3284C53.6519 44.809 53.2302 44.3872 52.7107 44.3872C52.1913 44.3872 51.7695 44.809 51.7695 45.3284V58.2352ZM45.8934 25.3629C48.8194 25.3629 51.1949 27.8142 51.1949 30.8335C51.1949 33.8528 48.8194 36.3041 45.8934 36.3041C42.9674 36.3041 40.5919 33.8528 40.5919 30.8335C40.5919 27.8142 42.9674 25.3629 45.8934 25.3629ZM1.82245 57.5398C2.54587 53.8851 5.76822 51.1292 9.63387 51.1292C13.5016 51.1292 16.7241 53.8854 17.4492 57.5395C17.4649 57.6244 17.4618 57.7117 17.44 57.7953C17.4182 57.8788 17.3783 57.9565 17.3231 58.0229C17.2679 58.0893 17.1988 58.1428 17.1206 58.1795C17.0424 58.2162 16.9572 58.2352 16.8708 58.2352C14.273 58.2352 4.99563 58.2352 2.39728 58.2317C2.3114 58.2318 2.22656 58.2129 2.14881 58.1764C2.07105 58.1399 2.00229 58.0868 1.94741 58.0207C1.89253 57.9547 1.85288 57.8773 1.83128 57.7942C1.80969 57.7111 1.80667 57.6242 1.82245 57.5398ZM9.63387 49.9528C7.41669 49.9528 5.6094 48.1434 5.6094 45.9262C5.6094 43.709 7.41669 41.8996 9.63387 41.8996C11.8532 41.8996 13.6605 43.709 13.6605 45.9262C13.6605 48.1434 11.8532 49.9528 9.63387 49.9528ZM17.657 57.5398C18.3805 53.8851 21.6028 51.1292 25.4685 51.1292C29.3362 51.1292 32.5587 53.8854 33.2836 57.5395C33.2995 57.6244 33.2964 57.7117 33.2746 57.7953C33.2529 57.8789 33.213 57.9567 33.1578 58.0231C33.1026 58.0895 33.0334 58.143 32.9552 58.1796C32.877 58.2163 32.7917 58.2353 32.7053 58.2352C30.1076 58.2352 20.8302 58.2352 18.2319 58.2317C18.146 58.2318 18.0612 58.2129 17.9834 58.1764C17.9056 58.1399 17.8369 58.0868 17.782 58.0207C17.7271 57.9547 17.6875 57.8773 17.6659 57.7942C17.6443 57.7111 17.6413 57.6242 17.657 57.5398ZM25.4685 49.9528C23.2513 49.9528 21.444 48.1434 21.444 45.9262C21.444 43.709 23.2513 41.8996 25.4685 41.8996C27.6877 41.8996 29.495 43.709 29.495 45.9262C29.495 48.1434 27.6877 49.9528 25.4685 49.9528Z" fill="#F37329"/>
</svg>
