<svg width="60" height="60" viewBox="0 0 60 60" fill="none" xmlns="http://www.w3.org/2000/svg">
<path d="M4.00331 30.3188C3.90429 30.21 3.83189 30.0798 3.79181 29.9383C3.75173 29.7968 3.74506 29.6479 3.77233 29.5034C3.79959 29.3588 3.86006 29.2226 3.94895 29.1055C4.03784 28.9883 4.15272 28.8934 4.28456 28.8282L8.61581 26.7563C8.74845 26.6945 8.89355 26.664 9.03987 26.6672C9.18618 26.6705 9.32979 26.7074 9.45956 26.775L15.3002 29.85C15.4333 29.9186 15.5806 29.9551 15.7303 29.9567C15.88 29.9583 16.0281 29.925 16.1627 29.8594L25.3596 25.2844C25.4981 25.2154 25.6178 25.1137 25.7081 24.988C25.7984 24.8623 25.8568 24.7165 25.878 24.5632C25.8993 24.4099 25.8828 24.2537 25.83 24.1082C25.7772 23.9627 25.6898 23.8322 25.5752 23.7282L13.6408 12.9844C13.5257 12.8776 13.4391 12.7437 13.389 12.5949C13.3388 12.4461 13.3267 12.2871 13.3538 12.1324C13.3808 11.9777 13.4461 11.8322 13.5437 11.7092C13.6413 11.5862 13.7682 11.4896 13.9127 11.4282L16.1721 10.5C17.1625 10.0889 18.2304 9.89782 19.302 9.93991C20.3735 9.982 21.4232 10.2563 22.3783 10.7438L36.5721 17.9438C36.9202 18.1187 37.305 18.2083 37.6946 18.205C38.0843 18.2018 38.4675 18.1058 38.8127 17.925L41.5783 16.4625C45.0189 14.3719 50.8408 14.5407 54.2439 15.9188C54.8168 16.1364 55.3127 16.5182 55.6697 17.0163C56.0267 17.5144 56.2288 18.1067 56.2508 18.7191C56.2729 19.3315 56.1138 19.9368 55.7935 20.4593C55.4732 20.9817 55.0059 21.3981 54.4502 21.6563L20.0814 38.1094C18.2563 38.9806 16.1936 39.2212 14.217 38.7937C12.2403 38.3661 10.4615 37.2945 9.15956 35.7469L4.00331 30.3188Z" fill="#F37329"/>
<path d="M55.3125 44.4375H4.6875C4.16973 44.4375 3.75 44.8572 3.75 45.375V49.125C3.75 49.6428 4.16973 50.0625 4.6875 50.0625H55.3125C55.8303 50.0625 56.25 49.6428 56.25 49.125V45.375C56.25 44.8572 55.8303 44.4375 55.3125 44.4375Z" fill="#F37329"/>
</svg>
