<svg width="86" height="86" viewBox="0 0 86 86" fill="none" xmlns="http://www.w3.org/2000/svg">
<circle cx="43" cy="43" r="42.5" stroke="#F37329" stroke-dasharray="2 2"/>
<circle cx="43" cy="43" r="34.5" fill="#F37329" stroke="#F37329"/>
<path d="M49.5036 35.8875H37.4965L43.5 32.8027L49.5036 35.8875ZM49.5036 42.672H59.4862V57.7079H49.5032L49.5036 42.672ZM52.516 47.8485H56.4742V45.7363H52.5157L52.516 47.8485ZM56.4742 51.9243H52.5157V54.0365H56.4738L56.4742 51.9243ZM37.4972 57.7076H27.5139V42.672H37.4968L37.4972 57.7076ZM34.4847 51.9243H30.5262V54.0365H34.4844L34.4847 51.9243ZM30.5266 47.8485H34.4847V45.7363H30.5262L30.5266 47.8485ZM49.5036 41.6602H59.4862V39.1828C59.4861 39.1199 59.4611 39.0595 59.4165 39.015C59.372 38.9704 59.3116 38.9454 59.2487 38.9453H49.5032L49.5036 41.6602ZM41.695 54.2793V57.7079H45.3051V54.2793C45.3051 53.8006 45.1149 53.3415 44.7764 53.003C44.4379 52.6645 43.9788 52.4743 43.5 52.4743C43.0213 52.4743 42.5622 52.6645 42.2237 53.003C41.8851 53.3415 41.695 53.8006 41.695 54.2793ZM48.4915 36.8995H38.5086V41.6602H48.4915V36.8995ZM37.4968 38.9453H27.7514C27.6884 38.9454 27.628 38.9704 27.5835 39.015C27.539 39.0595 27.5139 39.1199 27.5139 39.1828V41.6602H37.4968V38.9453ZM60.0675 58.7196H26.9325C26.7324 58.7196 26.5404 58.7992 26.3988 58.9407C26.2573 59.0823 26.1777 59.2743 26.1777 59.4744C26.1777 59.6746 26.2573 59.8666 26.3988 60.0082C26.5404 60.1497 26.7324 60.2293 26.9325 60.2293H60.0675C60.2677 60.2293 60.4597 60.1497 60.6012 60.0082C60.7428 59.8666 60.8223 59.6746 60.8223 59.4744C60.8223 59.2743 60.7428 59.0823 60.6012 58.9407C60.4597 58.7992 60.2677 58.7196 60.0675 58.7196ZM46.3168 57.7079V54.2793C46.3168 53.5323 46.02 52.8158 45.4918 52.2876C44.9635 51.7593 44.2471 51.4626 43.5 51.4626C42.753 51.4626 42.0365 51.7593 41.5083 52.2876C40.98 52.8158 40.6833 53.5323 40.6833 54.2793V57.7079H38.5086V42.672H48.4915V57.7079H46.3168ZM45.4791 45.7363H41.521V47.8485H45.4791V45.7363ZM44.0059 31.9252V29.4465C44.3055 29.3714 44.6131 29.3331 44.9219 29.3324C45.4748 29.3314 46.0199 29.4626 46.5118 29.715C46.8272 29.8722 47.1713 29.9637 47.5231 29.9839C47.875 30.0041 48.2273 29.9525 48.5586 29.8325V27.8185C47.7184 28.0376 46.8271 27.942 46.0524 27.5499C45.737 27.3928 45.393 27.3014 45.0412 27.2813C44.6894 27.2612 44.3372 27.3126 44.0059 27.4327V27.2769C44.0059 27.1427 43.9526 27.014 43.8577 26.9192C43.7629 26.8243 43.6342 26.771 43.5 26.771C43.3659 26.771 43.2372 26.8243 43.1423 26.9192C43.0475 27.014 42.9942 27.1427 42.9942 27.2769V31.9252L43.5 31.665L44.0059 31.9252Z" fill="#FDFDFD"/>
</svg>
