<svg width="86" height="86" viewBox="0 0 86 86" fill="none" xmlns="http://www.w3.org/2000/svg">
<circle cx="43" cy="43" r="42.5" stroke="#F37329" stroke-dasharray="2 2"/>
<circle cx="43" cy="43" r="34.5" fill="#F37329" stroke="#F37329"/>
<path d="M27.468 43.6965C27.407 43.6294 27.3623 43.5491 27.3376 43.4618C27.3129 43.3746 27.3088 43.2828 27.3256 43.1936C27.3424 43.1045 27.3797 43.0205 27.4345 42.9483C27.4893 42.876 27.5602 42.8175 27.6415 42.7773L30.3124 41.4996C30.3942 41.4615 30.4837 41.4427 30.5739 41.4447C30.6641 41.4467 30.7527 41.4694 30.8327 41.5112L34.4344 43.4074C34.5165 43.4497 34.6074 43.4722 34.6997 43.4732C34.792 43.4742 34.8833 43.4537 34.9663 43.4132L40.6377 40.5919C40.7232 40.5494 40.7969 40.4867 40.8526 40.4092C40.9084 40.3317 40.9443 40.2417 40.9574 40.1472C40.9705 40.0526 40.9604 39.9563 40.9278 39.8666C40.8953 39.7769 40.8413 39.6964 40.7707 39.6323L33.4111 33.0069C33.3402 32.9411 33.2868 32.8585 33.2559 32.7667C33.2249 32.675 33.2175 32.5769 33.2341 32.4815C33.2508 32.3861 33.2911 32.2964 33.3513 32.2206C33.4115 32.1447 33.4897 32.0851 33.5788 32.0473L34.9721 31.4749C35.5829 31.2214 36.2414 31.1035 36.9022 31.1295C37.563 31.1554 38.2103 31.3246 38.7993 31.6252L47.5521 36.0652C47.7668 36.1731 48.0041 36.2283 48.2443 36.2263C48.4846 36.2243 48.7209 36.1651 48.9338 36.0537L50.6393 35.1518C52.761 33.8626 56.3511 33.9666 58.4497 34.8165C58.803 34.9507 59.1088 35.1861 59.329 35.4933C59.5491 35.8004 59.6738 36.1657 59.6873 36.5433C59.7009 36.921 59.6028 37.2943 59.4053 37.6164C59.2078 37.9386 58.9196 38.1954 58.5769 38.3546L37.3829 48.5007C36.2574 49.0379 34.9854 49.1863 33.7664 48.9226C32.5475 48.659 31.4506 47.9981 30.6477 47.0438L27.468 43.6965Z" fill="#FDFDFD"/>
<path d="M59.1094 52.4028H27.8906C27.5713 52.4028 27.3125 52.6617 27.3125 52.981V55.2935C27.3125 55.6127 27.5713 55.8716 27.8906 55.8716H59.1094C59.4287 55.8716 59.6875 55.6127 59.6875 55.2935V52.981C59.6875 52.6617 59.4287 52.4028 59.1094 52.4028Z" fill="#FDFDFD"/>
</svg>
