<svg width="70" height="70" viewBox="0 0 70 70" fill="none" xmlns="http://www.w3.org/2000/svg">
<g filter="url(#filter0_d_1192_12572)">
<circle cx="35" cy="35" r="30" fill="#FDFDFD"/>
</g>
<g filter="url(#filter1_d_1192_12572)">
<path d="M65 35C65 30.754 64.0987 26.5563 62.3556 22.6846C60.6126 18.8128 58.0675 15.3552 54.8887 12.5402C51.7098 9.72531 47.9697 7.61723 43.9155 6.35538C39.8613 5.09354 35.5854 4.70667 31.3706 5.22035L32.0962 11.1743C35.4684 10.7633 38.8894 11.0728 42.133 12.0824C45.3766 13.0919 48.369 14.7785 50.9123 17.0307C53.4556 19.2828 55.4918 22.0491 56.8863 25.1468C58.2809 28.2445 59.002 31.6029 59.002 35H65Z" fill="#F37329"/>
</g>
<g filter="url(#filter2_d_1192_12572)">
<path d="M5 35C5 39.246 5.90132 43.4437 7.64438 47.3154C9.38744 51.1872 11.9325 54.6448 15.1113 57.4598C18.2902 60.2747 22.0303 62.3828 26.0845 63.6446C30.1387 64.9065 34.4146 65.2933 38.6294 64.7796L37.9038 58.8257C34.5316 59.2367 31.1106 58.9272 27.867 57.9176C24.6234 56.9081 21.631 55.2215 19.0877 52.9693C16.5444 50.7172 14.5082 47.9509 13.1137 44.8532C11.7191 41.7555 10.998 38.3971 10.998 35H5Z" fill="#F37329"/>
</g>
<g filter="url(#filter3_d_1192_12572)">
<circle cx="35" cy="35" r="24" fill="#FDFDFD"/>
</g>
<g clip-path="url(#clip0_1192_12572)">
<path fill-rule="evenodd" clip-rule="evenodd" d="M43.5803 28.2544C42.0441 28.2544 40.792 27.0008 40.792 25.4646C40.792 23.9285 42.0441 22.6749 43.5803 22.6749C45.1178 22.6749 46.37 23.9285 46.37 25.4646C46.37 27.0008 45.1178 28.2544 43.5803 28.2544ZM26.4194 28.3769C24.8833 28.3769 23.6311 27.1234 23.6311 25.5872C23.6311 24.0511 24.8833 22.7975 26.4194 22.7975C27.957 22.7975 29.2092 24.0511 29.2092 25.5872C29.2092 27.1234 27.957 28.3769 26.4194 28.3769ZM34.9998 26.3149C33.4637 26.3149 32.2116 25.0612 32.2116 23.5251C32.2116 21.989 33.4637 20.7354 34.9998 20.7354C36.5374 20.7354 37.7896 21.989 37.7896 23.5251C37.7896 25.0612 36.5374 26.3149 34.9998 26.3149ZM43.6864 32.611L44.5801 34.9621C44.6071 35.0335 44.6688 35.0779 44.7441 35.0817L47.2573 35.2052C47.4291 35.213 47.4986 35.4292 47.3654 35.5354L45.4043 37.1124C45.3444 37.1586 45.3213 37.232 45.3406 37.3054L46.0007 39.7336C46.047 39.8976 45.8637 40.0308 45.7208 39.9382L43.615 38.56C43.5513 38.5175 43.474 38.5175 43.4103 38.56L41.3064 39.9382C41.1636 40.0308 40.9801 39.8976 41.0246 39.7336L41.6847 37.3054C41.704 37.232 41.6808 37.1586 41.621 37.1124L39.6599 35.5354C39.5267 35.4292 39.5962 35.213 39.768 35.2052L42.2811 35.0817C42.3564 35.0779 42.4182 35.0335 42.4452 34.9621L43.3389 32.611C43.3987 32.4508 43.6265 32.4508 43.6864 32.611ZM35.1736 30.6299L36.0673 32.9809C36.0943 33.0524 36.1561 33.0968 36.2313 33.1006L38.7445 33.2242C38.9163 33.2319 38.9858 33.4481 38.8526 33.5542L36.8915 35.1312C36.8316 35.1776 36.8085 35.2509 36.8278 35.3242L37.4879 37.7525C37.5343 37.9166 37.3508 38.0498 37.208 37.9571L35.1021 36.5789C35.0384 36.5365 34.9613 36.5365 34.8976 36.5789L32.7936 37.9571C32.6507 38.0498 32.4674 37.9166 32.5118 37.7525L33.1719 35.3242C33.1912 35.2509 33.1681 35.1776 33.1082 35.1312L31.1471 33.5542C31.0139 33.4481 31.0834 33.2319 31.2552 33.2242L33.7684 33.1006C33.8436 33.0968 33.9054 33.0524 33.9324 32.9809L34.8261 30.6299C34.886 30.4697 35.1137 30.4697 35.1736 30.6299ZM39.3711 32.4734H40.4852C40.6172 32.4734 40.7478 32.4457 40.8684 32.3919C40.989 32.3382 41.0969 32.2596 41.1852 32.1614C41.2735 32.0632 41.3401 31.9476 41.3807 31.8219C41.4213 31.6963 41.4351 31.5635 41.421 31.4322C41.342 30.6898 41.134 29.9668 40.8064 29.2959C41.6213 28.8207 42.569 28.5485 43.5803 28.5485C46.4274 28.5485 48.7698 30.7041 49.0656 33.4718H45.0204L44.5664 32.2773C44.2009 31.3099 42.8244 31.3099 42.4589 32.2773L42.0048 33.4718H39.8636C39.8812 33.0852 39.6999 32.6966 39.3711 32.4734ZM36.5234 31.5322L36.0536 30.2962C35.6881 29.3288 34.3116 29.3288 33.9461 30.2962L33.4763 31.5322H29.5145C29.8117 28.7645 32.1542 26.609 34.9998 26.609C37.847 26.609 40.1894 28.7645 40.4852 31.5322H36.5234ZM26.6877 32.611L27.5814 34.9621C27.6084 35.0335 27.6703 35.0779 27.7455 35.0817L30.2587 35.2052C30.4305 35.213 30.5 35.4292 30.3668 35.5354L28.4057 37.1124C28.3458 37.1586 28.3227 37.232 28.342 37.3054L29.0021 39.7336C29.0484 39.8976 28.865 40.0308 28.7222 39.9382L26.6163 38.56C26.5526 38.5175 26.4754 38.5175 26.4117 38.56L24.3078 39.9382C24.1649 40.0308 23.9816 39.8976 24.026 39.7336L24.6861 37.3054C24.7054 37.232 24.6822 37.1586 24.6224 37.1124L22.6613 35.5354C22.5281 35.4292 22.5976 35.213 22.7694 35.2052L25.2826 35.0817C25.3578 35.0779 25.4196 35.0335 25.4466 34.9621L26.3403 32.611C26.4001 32.4508 26.6279 32.4508 26.6877 32.611ZM24.9596 33.5944H20.9341C21.2313 30.8266 23.5738 28.6711 26.4194 28.6711C27.4122 28.6711 28.3436 28.9332 29.1483 29.3919C28.8468 30.0356 28.6543 30.725 28.5787 31.4318C28.5646 31.5631 28.5783 31.6959 28.6189 31.8216C28.6595 31.9473 28.7261 32.063 28.8143 32.1612C28.9026 32.2595 29.0106 32.3381 29.1312 32.3919C29.2518 32.4456 29.3824 32.4734 29.5145 32.4734H30.6268C30.2647 32.7201 30.082 33.1689 30.1493 33.5944H28.0684L27.5678 32.2773C27.2023 31.3099 25.8258 31.3099 25.4603 32.2773L24.9596 33.5944ZM40.3407 40.5028C40.6826 40.9045 41.2953 41.0672 41.8186 40.7278L41.8221 40.7255L43.5128 39.618L44.7192 40.4075C44.4674 41.2223 44.1125 42.0023 43.6658 42.7314L44.5189 44.6571L42.2506 46.9254L40.3248 46.0724C39.4104 46.6378 38.4087 47.0514 37.3618 47.3002L36.6057 49.2648H33.3972L32.6411 47.3002C31.591 47.0514 30.5926 46.6346 29.6748 46.0724L27.7491 46.9254L25.4808 44.6571L26.3371 42.7314C25.8905 42.0092 25.5387 41.2326 25.2863 40.4224L26.5142 39.618L28.2068 40.7257L28.21 40.7278C28.7266 41.0629 29.3288 40.9102 29.6729 40.5216C30.9427 42.0485 32.8563 43.0206 34.9978 43.0206C37.1481 43.0206 39.0699 42.0405 40.3407 40.5028Z" fill="#F37329"/>
</g>
<defs>
<filter id="filter0_d_1192_12572" x="0" y="0" width="70" height="70" filterUnits="userSpaceOnUse" color-interpolation-filters="sRGB">
<feFlood flood-opacity="0" result="BackgroundImageFix"/>
<feColorMatrix in="SourceAlpha" type="matrix" values="0 0 0 0 0 0 0 0 0 0 0 0 0 0 0 0 0 0 127 0" result="hardAlpha"/>
<feOffset/>
<feGaussianBlur stdDeviation="2.5"/>
<feComposite in2="hardAlpha" operator="out"/>
<feColorMatrix type="matrix" values="0 0 0 0 0 0 0 0 0 0 0 0 0 0 0 0 0 0 0.2 0"/>
<feBlend mode="normal" in2="BackgroundImageFix" result="effect1_dropShadow_1192_12572"/>
<feBlend mode="normal" in="SourceGraphic" in2="effect1_dropShadow_1192_12572" result="shape"/>
</filter>
<filter id="filter1_d_1192_12572" x="26.3706" y="0" width="43.6294" height="40" filterUnits="userSpaceOnUse" color-interpolation-filters="sRGB">
<feFlood flood-opacity="0" result="BackgroundImageFix"/>
<feColorMatrix in="SourceAlpha" type="matrix" values="0 0 0 0 0 0 0 0 0 0 0 0 0 0 0 0 0 0 127 0" result="hardAlpha"/>
<feOffset/>
<feGaussianBlur stdDeviation="2.5"/>
<feComposite in2="hardAlpha" operator="out"/>
<feColorMatrix type="matrix" values="0 0 0 0 0 0 0 0 0 0 0 0 0 0 0 0 0 0 0.2 0"/>
<feBlend mode="normal" in2="BackgroundImageFix" result="effect1_dropShadow_1192_12572"/>
<feBlend mode="normal" in="SourceGraphic" in2="effect1_dropShadow_1192_12572" result="shape"/>
</filter>
<filter id="filter2_d_1192_12572" x="0" y="30" width="43.6294" height="40" filterUnits="userSpaceOnUse" color-interpolation-filters="sRGB">
<feFlood flood-opacity="0" result="BackgroundImageFix"/>
<feColorMatrix in="SourceAlpha" type="matrix" values="0 0 0 0 0 0 0 0 0 0 0 0 0 0 0 0 0 0 127 0" result="hardAlpha"/>
<feOffset/>
<feGaussianBlur stdDeviation="2.5"/>
<feComposite in2="hardAlpha" operator="out"/>
<feColorMatrix type="matrix" values="0 0 0 0 0 0 0 0 0 0 0 0 0 0 0 0 0 0 0.2 0"/>
<feBlend mode="normal" in2="BackgroundImageFix" result="effect1_dropShadow_1192_12572"/>
<feBlend mode="normal" in="SourceGraphic" in2="effect1_dropShadow_1192_12572" result="shape"/>
</filter>
<filter id="filter3_d_1192_12572" x="6" y="6" width="58" height="58" filterUnits="userSpaceOnUse" color-interpolation-filters="sRGB">
<feFlood flood-opacity="0" result="BackgroundImageFix"/>
<feColorMatrix in="SourceAlpha" type="matrix" values="0 0 0 0 0 0 0 0 0 0 0 0 0 0 0 0 0 0 127 0" result="hardAlpha"/>
<feOffset/>
<feGaussianBlur stdDeviation="2.5"/>
<feComposite in2="hardAlpha" operator="out"/>
<feColorMatrix type="matrix" values="0 0 0 0 0 0 0 0 0 0 0 0 0 0 0 0 0 0 0.2 0"/>
<feBlend mode="normal" in2="BackgroundImageFix" result="effect1_dropShadow_1192_12572"/>
<feBlend mode="normal" in="SourceGraphic" in2="effect1_dropShadow_1192_12572" result="shape"/>
</filter>
<clipPath id="clip0_1192_12572">
<rect width="30" height="30" fill="white" transform="translate(20 20)"/>
</clipPath>
</defs>
</svg>
