<svg width="30" height="30" viewBox="0 0 30 30" fill="none" xmlns="http://www.w3.org/2000/svg">
<g clip-path="url(#clip0_1192_12546)">
<path fill-rule="evenodd" clip-rule="evenodd" d="M23.5803 8.25441C22.0441 8.25441 20.792 7.00076 20.792 5.46465C20.792 3.92853 22.0441 2.67488 23.5803 2.67488C25.1178 2.67488 26.37 3.92853 26.37 5.46465C26.37 7.00076 25.1178 8.25441 23.5803 8.25441ZM6.41944 8.37694C4.88332 8.37694 3.63114 7.12335 3.63114 5.58723C3.63114 4.05106 4.88332 2.79747 6.41944 2.79747C7.95702 2.79747 9.2092 4.05106 9.2092 5.58723C9.2092 7.12335 7.95702 8.37694 6.41944 8.37694ZM14.9998 6.31488C13.4637 6.31488 12.2116 5.06123 12.2116 3.52512C12.2116 1.989 13.4637 0.735352 14.9998 0.735352C16.5374 0.735352 17.7896 1.989 17.7896 3.52512C17.7896 5.06123 16.5374 6.31488 14.9998 6.31488ZM23.6864 12.611L24.5801 14.9621C24.6071 15.0335 24.6688 15.0779 24.7441 15.0817L27.2573 15.2052C27.4291 15.213 27.4986 15.4292 27.3654 15.5354L25.4043 17.1124C25.3444 17.1586 25.3213 17.232 25.3406 17.3054L26.0007 19.7336C26.047 19.8976 25.8637 20.0308 25.7208 19.9382L23.615 18.56C23.5513 18.5175 23.474 18.5175 23.4103 18.56L21.3064 19.9382C21.1636 20.0308 20.9801 19.8976 21.0246 19.7336L21.6847 17.3054C21.704 17.232 21.6808 17.1586 21.621 17.1124L19.6599 15.5354C19.5267 15.4292 19.5962 15.213 19.768 15.2052L22.2811 15.0817C22.3564 15.0779 22.4182 15.0335 22.4452 14.9621L23.3389 12.611C23.3987 12.4508 23.6265 12.4508 23.6864 12.611ZM15.1736 10.6299L16.0673 12.9809C16.0943 13.0524 16.1561 13.0968 16.2313 13.1006L18.7445 13.2242C18.9163 13.2319 18.9858 13.4481 18.8526 13.5542L16.8915 15.1312C16.8316 15.1776 16.8085 15.2509 16.8278 15.3242L17.4879 17.7525C17.5343 17.9166 17.3508 18.0498 17.208 17.9571L15.1021 16.5789C15.0384 16.5365 14.9613 16.5365 14.8976 16.5789L12.7936 17.9571C12.6507 18.0498 12.4674 17.9166 12.5118 17.7525L13.1719 15.3242C13.1912 15.2509 13.1681 15.1776 13.1082 15.1312L11.1471 13.5542C11.0139 13.4481 11.0834 13.2319 11.2552 13.2242L13.7684 13.1006C13.8436 13.0968 13.9054 13.0524 13.9324 12.9809L14.8261 10.6299C14.886 10.4697 15.1137 10.4697 15.1736 10.6299ZM19.3711 12.4734H20.4852C20.6172 12.4734 20.7478 12.4457 20.8684 12.3919C20.989 12.3382 21.0969 12.2596 21.1852 12.1614C21.2735 12.0632 21.3401 11.9476 21.3807 11.8219C21.4213 11.6963 21.4351 11.5635 21.421 11.4322C21.342 10.6898 21.134 9.96683 20.8064 9.29588C21.6213 8.82071 22.569 8.54853 23.5803 8.54853C26.4274 8.54853 28.7698 10.7041 29.0656 13.4718H25.0204L24.5664 12.2773C24.2009 11.3099 22.8244 11.3099 22.4589 12.2773L22.0048 13.4718H19.8636C19.8812 13.0852 19.6999 12.6966 19.3711 12.4734ZM16.5234 11.5322L16.0536 10.2962C15.6881 9.32876 14.3116 9.32876 13.9461 10.2962L13.4763 11.5322H9.51449C9.81173 8.76453 12.1542 6.609 14.9998 6.609C17.847 6.609 20.1894 8.76453 20.4852 11.5322H16.5234ZM6.68773 12.611L7.58143 14.9621C7.60843 15.0335 7.67026 15.0779 7.74549 15.0817L10.2587 15.2052C10.4305 15.213 10.5 15.4292 10.3668 15.5354L8.40567 17.1124C8.34579 17.1586 8.32267 17.232 8.34196 17.3054L9.00208 19.7336C9.04844 19.8976 8.86502 20.0308 8.7222 19.9382L6.61632 18.56C6.55261 18.5175 6.47544 18.5175 6.41173 18.56L4.30779 19.9382C4.16491 20.0308 3.98155 19.8976 4.02596 19.7336L4.68608 17.3054C4.70538 17.232 4.6822 17.1586 4.62238 17.1124L2.66126 15.5354C2.52808 15.4292 2.59755 15.213 2.76938 15.2052L5.28255 15.0817C5.35779 15.0779 5.41955 15.0335 5.44661 14.9621L6.34032 12.611C6.40014 12.4508 6.62791 12.4508 6.68773 12.611ZM4.95961 13.5944H0.934082C1.23132 10.8266 3.57379 8.67106 6.41944 8.67106C7.4122 8.67106 8.34355 8.93318 9.14826 9.39188C8.84681 10.0356 8.65435 10.725 8.57873 11.4318C8.56461 11.5631 8.57829 11.6959 8.61889 11.8216C8.65948 11.9473 8.72608 12.063 8.81434 12.1612C8.9026 12.2595 9.01056 12.3381 9.13119 12.3919C9.25182 12.4456 9.38242 12.4734 9.51449 12.4734H10.6268C10.2647 12.7201 10.082 13.1689 10.1493 13.5944H8.06844L7.56779 12.2773C7.20226 11.3099 5.82579 11.3099 5.46026 12.2773L4.95961 13.5944ZM20.3407 20.5028C20.6826 20.9045 21.2953 21.0672 21.8186 20.7278L21.8221 20.7255L23.5128 19.618L24.7192 20.4075C24.4674 21.2223 24.1125 22.0023 23.6658 22.7314L24.5189 24.6571L22.2506 26.9254L20.3248 26.0724C19.4104 26.6378 18.4087 27.0514 17.3618 27.3002L16.6057 29.2648H13.3972L12.6411 27.3002C11.591 27.0514 10.5926 26.6346 9.67485 26.0724L7.74908 26.9254L5.48079 24.6571L6.33708 22.7314C5.89049 22.0092 5.53867 21.2326 5.28632 20.4224L6.5142 19.618L8.20685 20.7257L8.21002 20.7278C8.72661 21.0629 9.32885 20.9102 9.67291 20.5216C10.9427 22.0485 12.8563 23.0206 14.9978 23.0206C17.1481 23.0206 19.0699 22.0405 20.3407 20.5028Z" fill="#F37329"/>
</g>
<defs>
<clipPath id="clip0_1192_12546">
<rect width="30" height="30" fill="white"/>
</clipPath>
</defs>
</svg>
