<svg width="30" height="30" viewBox="0 0 30 30" fill="none" xmlns="http://www.w3.org/2000/svg">
<g clip-path="url(#clip0_1192_12611)">
<path d="M28.6625 28.23H26.5078L27.05 19.1426C27.0658 18.8743 27.0267 18.6057 26.9351 18.353C26.8436 18.1003 26.7015 17.869 26.5175 17.6731C26.3329 17.4773 26.1103 17.3212 25.8633 17.2143C25.6163 17.1074 25.3502 17.052 25.0811 17.0514H4.91973C4.65067 17.0521 4.38456 17.1075 4.1376 17.2143C3.89064 17.3211 3.668 17.477 3.48326 17.6726C3.29927 17.8686 3.15713 18.1 3.0655 18.3528C2.97387 18.6055 2.93468 18.8742 2.95032 19.1426L3.49297 28.23H1.33694C1.27871 28.23 1.22106 28.2414 1.16726 28.2637C1.11347 28.286 1.06459 28.3187 1.02342 28.3598C0.982247 28.401 0.949587 28.4499 0.927305 28.5037C0.905023 28.5575 0.893555 28.6151 0.893555 28.6734C0.893555 28.7316 0.905023 28.7892 0.927305 28.843C0.949587 28.8968 0.982247 28.9457 1.02342 28.9869C1.06459 29.028 1.11347 29.0607 1.16726 29.083C1.22106 29.1053 1.27871 29.1167 1.33694 29.1167H3.95841L3.96282 29.1176H26.0366L26.0411 29.1167H28.6621C28.7797 29.1167 28.8925 29.07 28.9756 28.9869C29.0588 28.9037 29.1055 28.7909 29.1055 28.6734C29.1055 28.5558 29.0588 28.443 28.9756 28.3598C28.8925 28.2767 28.7801 28.23 28.6625 28.23ZM15.0002 25.5273C14.3623 25.5266 13.7508 25.2729 13.2998 24.8219C12.8488 24.3709 12.5951 23.7594 12.5944 23.1216C12.5944 21.795 13.6736 20.7159 15.0002 20.7159C16.3268 20.7159 17.4059 21.795 17.4059 23.1216C17.4052 23.7594 17.1515 24.3709 16.7005 24.8219C16.2495 25.2729 15.638 25.5266 15.0002 25.5273ZM8.02473 11.4H9.8115C9.90282 11.6435 10.0074 11.887 10.1243 12.1284L10.1261 12.1319C10.6661 13.2489 11.4637 14.3135 12.4493 15.0273H9.96414C8.93198 15.0285 7.94225 15.4382 7.2112 16.1669H22.7869C22.0562 15.4374 21.066 15.0276 20.0336 15.0273H17.5524C18.7515 14.1582 19.674 12.7694 20.1884 11.4004H21.9756C22.3041 11.4002 22.6191 11.2696 22.8513 11.0373C23.0836 10.805 23.2142 10.4901 23.2144 10.1616V8.88835C23.214 8.67838 23.1601 8.47198 23.0577 8.28865C22.9554 8.10531 22.808 7.95109 22.6294 7.84056C22.2941 3.92203 18.9906 0.882324 15.0002 0.882324C11.0102 0.882324 7.70753 3.92115 7.37135 7.84012C7.1926 7.95059 7.04498 8.10483 6.94246 8.28825C6.83994 8.47168 6.78591 8.67822 6.78547 8.88835V10.1616C6.7857 10.4901 6.91629 10.805 7.14857 11.0373C7.38084 11.2696 7.69581 11.4002 8.02429 11.4004L8.02473 11.4ZM19.8033 9.22674C19.7489 9.76818 19.6328 10.3016 19.4574 10.8167C18.7846 12.8404 17.1086 15.0167 15.0165 15.0273H14.9874C13.569 15.0203 12.3425 14.0188 11.4888 12.7442C11.9772 12.8797 12.6121 13.0036 13.4027 13.0601C13.595 13.6773 14.188 14.1313 14.8961 14.1313C15.7586 14.1313 16.4605 13.4611 16.4605 12.6379C16.4605 11.8147 15.759 11.1445 14.8961 11.1445C14.2069 11.1445 13.6268 11.5751 13.4186 12.1672C11.953 12.0547 11.1046 11.6978 10.8333 11.5606C10.7238 11.3175 10.6266 11.0691 10.5421 10.8163C10.2937 10.0738 10.1675 9.34806 10.1675 8.65938C10.1678 8.12446 10.2486 7.59263 10.4071 7.08174C10.8527 6.93306 12.1162 6.6335 13.7115 7.32527C14.0891 7.48894 14.4836 7.55865 14.8806 7.55865C16.5377 7.55865 18.2336 6.35335 18.9703 5.75909C19.4394 6.47241 19.7268 7.28973 19.8072 8.13968C19.8249 8.30335 19.8328 8.47365 19.8328 8.65938C19.8328 8.846 19.8218 9.03526 19.8033 9.22674ZM15.0006 1.76909C18.4383 1.76909 21.2988 4.31732 21.7193 7.64997H20.6322C20.1708 4.79556 17.8175 2.68938 15.0019 2.68938C12.5463 2.68938 10.4441 4.28997 9.63723 6.58674L9.63458 6.59468C9.51826 6.93824 9.43162 7.29116 9.37561 7.64953H8.28194C8.70238 4.31732 11.5634 1.76909 15.0006 1.76909Z" fill="#F37329"/>
</g>
<defs>
<clipPath id="clip0_1192_12611">
<rect width="30" height="30" fill="white"/>
</clipPath>
</defs>
</svg>
