<svg width="70" height="70" viewBox="0 0 70 70" fill="none" xmlns="http://www.w3.org/2000/svg">
<g filter="url(#filter0_d_1192_12625)">
<circle cx="35" cy="35" r="30" fill="#FDFDFD"/>
</g>
<g filter="url(#filter1_d_1192_12625)">
<path d="M65 35C65 30.754 64.0987 26.5563 62.3556 22.6846C60.6126 18.8128 58.0675 15.3552 54.8887 12.5402C51.7098 9.72531 47.9697 7.61723 43.9155 6.35538C39.8613 5.09354 35.5854 4.70667 31.3706 5.22035L32.0962 11.1743C35.4684 10.7633 38.8894 11.0728 42.133 12.0824C45.3766 13.0919 48.369 14.7785 50.9123 17.0307C53.4556 19.2828 55.4918 22.0491 56.8863 25.1468C58.2809 28.2445 59.002 31.6029 59.002 35H65Z" fill="#F37329"/>
</g>
<g filter="url(#filter2_d_1192_12625)">
<path d="M5 35C5 39.246 5.90132 43.4437 7.64438 47.3154C9.38744 51.1872 11.9325 54.6448 15.1113 57.4598C18.2902 60.2747 22.0303 62.3828 26.0845 63.6446C30.1387 64.9065 34.4146 65.2933 38.6294 64.7796L37.9038 58.8257C34.5316 59.2367 31.1106 58.9272 27.867 57.9176C24.6234 56.9081 21.631 55.2215 19.0877 52.9693C16.5444 50.7172 14.5082 47.9509 13.1137 44.8532C11.7191 41.7555 10.998 38.3971 10.998 35H5Z" fill="#F37329"/>
</g>
<g filter="url(#filter3_d_1192_12625)">
<circle cx="35" cy="35" r="24" fill="#FDFDFD"/>
</g>
<g clip-path="url(#clip0_1192_12625)">
<path d="M48.6625 48.23H46.5078L47.05 39.1426C47.0658 38.8743 47.0267 38.6057 46.9351 38.353C46.8436 38.1003 46.7015 37.869 46.5175 37.6731C46.3329 37.4773 46.1103 37.3212 45.8633 37.2143C45.6163 37.1074 45.3502 37.052 45.0811 37.0514H24.9197C24.6507 37.0521 24.3846 37.1075 24.1376 37.2143C23.8906 37.3211 23.668 37.477 23.4833 37.6726C23.2993 37.8686 23.1571 38.1 23.0655 38.3528C22.9739 38.6055 22.9347 38.8742 22.9503 39.1426L23.493 48.23H21.3369C21.2787 48.23 21.2211 48.2414 21.1673 48.2637C21.1135 48.286 21.0646 48.3187 21.0234 48.3598C20.9822 48.401 20.9496 48.4499 20.9273 48.5037C20.905 48.5575 20.8936 48.6151 20.8936 48.6734C20.8936 48.7316 20.905 48.7892 20.9273 48.843C20.9496 48.8968 20.9822 48.9457 21.0234 48.9869C21.0646 49.028 21.1135 49.0607 21.1673 49.083C21.2211 49.1053 21.2787 49.1167 21.3369 49.1167H23.9584L23.9628 49.1176H46.0366L46.0411 49.1167H48.6621C48.7797 49.1167 48.8925 49.07 48.9756 48.9869C49.0588 48.9037 49.1055 48.7909 49.1055 48.6734C49.1055 48.5558 49.0588 48.443 48.9756 48.3598C48.8925 48.2767 48.7801 48.23 48.6625 48.23ZM35.0002 45.5273C34.3623 45.5266 33.7508 45.2729 33.2998 44.8219C32.8488 44.3709 32.5951 43.7594 32.5944 43.1216C32.5944 41.795 33.6736 40.7159 35.0002 40.7159C36.3268 40.7159 37.4059 41.795 37.4059 43.1216C37.4052 43.7594 37.1515 44.3709 36.7005 44.8219C36.2495 45.2729 35.638 45.5266 35.0002 45.5273ZM28.0247 31.4H29.8115C29.9028 31.6435 30.0074 31.887 30.1243 32.1284L30.1261 32.1319C30.6661 33.2489 31.4637 34.3135 32.4493 35.0273H29.9641C28.932 35.0285 27.9422 35.4382 27.2112 36.1669H42.7869C42.0562 35.4374 41.066 35.0276 40.0336 35.0273H37.5524C38.7515 34.1582 39.674 32.7694 40.1884 31.4004H41.9756C42.3041 31.4002 42.6191 31.2696 42.8513 31.0373C43.0836 30.805 43.2142 30.4901 43.2144 30.1616V28.8884C43.214 28.6784 43.1601 28.472 43.0577 28.2886C42.9554 28.1053 42.808 27.9511 42.6294 27.8406C42.2941 23.922 38.9906 20.8823 35.0002 20.8823C31.0102 20.8823 27.7075 23.9211 27.3713 27.8401C27.1926 27.9506 27.045 28.1048 26.9425 28.2883C26.8399 28.4717 26.7859 28.6782 26.7855 28.8884V30.1616C26.7857 30.4901 26.9163 30.805 27.1486 31.0373C27.3808 31.2696 27.6958 31.4002 28.0243 31.4004L28.0247 31.4ZM39.8033 29.2267C39.7489 29.7682 39.6328 30.3016 39.4574 30.8167C38.7846 32.8404 37.1086 35.0167 35.0165 35.0273H34.9874C33.569 35.0203 32.3425 34.0188 31.4888 32.7442C31.9772 32.8797 32.6121 33.0036 33.4027 33.0601C33.595 33.6773 34.188 34.1313 34.8961 34.1313C35.7586 34.1313 36.4605 33.4611 36.4605 32.6379C36.4605 31.8147 35.759 31.1445 34.8961 31.1445C34.2069 31.1445 33.6268 31.5751 33.4186 32.1672C31.953 32.0547 31.1046 31.6978 30.8333 31.5606C30.7238 31.3175 30.6266 31.0691 30.5421 30.8163C30.2937 30.0738 30.1675 29.3481 30.1675 28.6594C30.1678 28.1245 30.2486 27.5926 30.4071 27.0817C30.8527 26.9331 32.1162 26.6335 33.7115 27.3253C34.0891 27.4889 34.4836 27.5586 34.8806 27.5586C36.5377 27.5586 38.2336 26.3534 38.9703 25.7591C39.4394 26.4724 39.7268 27.2897 39.8072 28.1397C39.8249 28.3034 39.8328 28.4736 39.8328 28.6594C39.8328 28.846 39.8218 29.0353 39.8033 29.2267ZM35.0006 21.7691C38.4383 21.7691 41.2988 24.3173 41.7193 27.65H40.6322C40.1708 24.7956 37.8175 22.6894 35.0019 22.6894C32.5463 22.6894 30.4441 24.29 29.6372 26.5867L29.6346 26.5947C29.5183 26.9382 29.4316 27.2912 29.3756 27.6495H28.2819C28.7024 24.3173 31.5634 21.7691 35.0006 21.7691Z" fill="#F37329"/>
</g>
<defs>
<filter id="filter0_d_1192_12625" x="0" y="0" width="70" height="70" filterUnits="userSpaceOnUse" color-interpolation-filters="sRGB">
<feFlood flood-opacity="0" result="BackgroundImageFix"/>
<feColorMatrix in="SourceAlpha" type="matrix" values="0 0 0 0 0 0 0 0 0 0 0 0 0 0 0 0 0 0 127 0" result="hardAlpha"/>
<feOffset/>
<feGaussianBlur stdDeviation="2.5"/>
<feComposite in2="hardAlpha" operator="out"/>
<feColorMatrix type="matrix" values="0 0 0 0 0 0 0 0 0 0 0 0 0 0 0 0 0 0 0.2 0"/>
<feBlend mode="normal" in2="BackgroundImageFix" result="effect1_dropShadow_1192_12625"/>
<feBlend mode="normal" in="SourceGraphic" in2="effect1_dropShadow_1192_12625" result="shape"/>
</filter>
<filter id="filter1_d_1192_12625" x="26.3706" y="0" width="43.6294" height="40" filterUnits="userSpaceOnUse" color-interpolation-filters="sRGB">
<feFlood flood-opacity="0" result="BackgroundImageFix"/>
<feColorMatrix in="SourceAlpha" type="matrix" values="0 0 0 0 0 0 0 0 0 0 0 0 0 0 0 0 0 0 127 0" result="hardAlpha"/>
<feOffset/>
<feGaussianBlur stdDeviation="2.5"/>
<feComposite in2="hardAlpha" operator="out"/>
<feColorMatrix type="matrix" values="0 0 0 0 0 0 0 0 0 0 0 0 0 0 0 0 0 0 0.2 0"/>
<feBlend mode="normal" in2="BackgroundImageFix" result="effect1_dropShadow_1192_12625"/>
<feBlend mode="normal" in="SourceGraphic" in2="effect1_dropShadow_1192_12625" result="shape"/>
</filter>
<filter id="filter2_d_1192_12625" x="0" y="30" width="43.6294" height="40" filterUnits="userSpaceOnUse" color-interpolation-filters="sRGB">
<feFlood flood-opacity="0" result="BackgroundImageFix"/>
<feColorMatrix in="SourceAlpha" type="matrix" values="0 0 0 0 0 0 0 0 0 0 0 0 0 0 0 0 0 0 127 0" result="hardAlpha"/>
<feOffset/>
<feGaussianBlur stdDeviation="2.5"/>
<feComposite in2="hardAlpha" operator="out"/>
<feColorMatrix type="matrix" values="0 0 0 0 0 0 0 0 0 0 0 0 0 0 0 0 0 0 0.2 0"/>
<feBlend mode="normal" in2="BackgroundImageFix" result="effect1_dropShadow_1192_12625"/>
<feBlend mode="normal" in="SourceGraphic" in2="effect1_dropShadow_1192_12625" result="shape"/>
</filter>
<filter id="filter3_d_1192_12625" x="6" y="6" width="58" height="58" filterUnits="userSpaceOnUse" color-interpolation-filters="sRGB">
<feFlood flood-opacity="0" result="BackgroundImageFix"/>
<feColorMatrix in="SourceAlpha" type="matrix" values="0 0 0 0 0 0 0 0 0 0 0 0 0 0 0 0 0 0 127 0" result="hardAlpha"/>
<feOffset/>
<feGaussianBlur stdDeviation="2.5"/>
<feComposite in2="hardAlpha" operator="out"/>
<feColorMatrix type="matrix" values="0 0 0 0 0 0 0 0 0 0 0 0 0 0 0 0 0 0 0.2 0"/>
<feBlend mode="normal" in2="BackgroundImageFix" result="effect1_dropShadow_1192_12625"/>
<feBlend mode="normal" in="SourceGraphic" in2="effect1_dropShadow_1192_12625" result="shape"/>
</filter>
<clipPath id="clip0_1192_12625">
<rect width="30" height="30" fill="white" transform="translate(20 20)"/>
</clipPath>
</defs>
</svg>
