<svg width="30" height="30" viewBox="0 0 30 30" fill="none" xmlns="http://www.w3.org/2000/svg">
<path d="M28.6621 5.02803L23.1386 1.47656C22.8739 1.3045 22.5739 1.2295 22.2607 1.24715L15.7048 1.63979C15.2901 1.66626 14.9548 1.93979 14.8445 2.34126C14.7386 2.74273 14.8886 3.14862 15.2327 3.38244L16.7592 4.40156L16.2827 6.22362H2.93714C1.81214 6.22362 0.90332 7.13244 0.90332 8.25744L0.916556 23.4441C0.916556 24.5549 1.82582 25.4642 2.93714 25.4642H9.39994V27.873H8.11435C7.99734 27.873 7.88513 27.9195 7.80239 28.0022C7.71966 28.085 7.67317 28.1972 7.67317 28.3142C7.67317 28.4312 7.71966 28.5434 7.80239 28.6262C7.88513 28.7089 7.99734 28.7554 8.11435 28.7554H17.987C18.104 28.7554 18.2162 28.7089 18.299 28.6262C18.3817 28.5434 18.4282 28.4312 18.4282 28.3142C18.4282 28.1972 18.3817 28.085 18.299 28.0022C18.2162 27.9195 18.104 27.873 17.987 27.873H16.7001V25.4642H23.1717C23.7071 25.4627 24.2201 25.2493 24.5986 24.8707C24.9772 24.4921 25.1905 23.979 25.1919 23.4436L25.2033 10.0976C25.4504 9.99612 25.6401 9.77994 25.7151 9.50641L26.3901 6.91671L27.9651 6.79759L27.5769 8.27112C27.4349 8.31273 27.3061 8.39032 27.203 8.49638C27.0999 8.60244 27.0259 8.73335 26.9883 8.87641C26.9307 9.09679 26.963 9.33104 27.0781 9.52762C27.1932 9.72421 27.3816 9.86702 27.602 9.92465C27.8224 9.98227 28.0566 9.94999 28.2532 9.8349C28.4498 9.71982 28.5926 9.53135 28.6502 9.31097C28.6875 9.16734 28.6871 9.01651 28.6489 8.87312C28.6107 8.72973 28.5361 8.59864 28.4323 8.49259C29.0954 5.96023 29.072 6.07803 29.072 6.03391C29.1602 5.63685 29.0019 5.24862 28.6621 5.02803ZM24.321 21.2413H1.78567V8.25744C1.78567 7.62215 2.30185 7.10597 2.93714 7.10597H16.0621C16.018 7.46332 16.1857 7.81185 16.4989 7.99715C17.7739 8.73832 19.1107 9.2942 20.5092 9.65597C21.7401 9.97803 23.0107 10.1545 24.321 10.1766V21.2413ZM20.6813 4.53832H20.6857C20.893 4.78097 21.2548 4.98391 21.7224 5.10744C22.1901 5.23097 22.6092 5.22656 22.9092 5.12068C22.9798 5.09421 23.0371 5.06773 23.0945 5.02803L26.9636 5.98979L26.346 6.03832C25.8585 6.07626 28.1124 5.90156 21.5769 6.40891C21.4489 6.41773 21.3166 6.38244 21.2107 6.31185L17.2357 3.65156L15.7269 2.64568C15.7136 2.63685 15.6827 2.6192 15.696 2.57068C15.7092 2.52215 15.7445 2.52215 15.7577 2.52215L22.3136 2.12509C22.4371 2.12068 22.5563 2.15156 22.6621 2.21773L27.2063 5.13832L23.3195 4.17215C23.1474 3.85891 22.7327 3.58097 22.1592 3.42656C21.3077 3.20597 20.6239 3.39568 20.4916 3.8942C20.4342 4.11479 20.5048 4.33979 20.6813 4.53832Z" fill="#F37329"/>
<path d="M18.6124 16.3221C18.4491 16.3221 18.2903 16.353 18.1447 16.406L14.2183 11.3942C14.3638 11.1736 14.4521 10.9089 14.4521 10.6221C14.4521 9.85009 13.8212 9.22803 13.0535 9.22803C12.2859 9.22803 11.655 9.85009 11.655 10.6221C11.655 10.9089 11.7433 11.1736 11.8888 11.3942L7.96237 16.406C7.81678 16.353 7.65796 16.3221 7.49472 16.3221C6.72707 16.3221 6.09619 16.953 6.09619 17.7207C6.09619 18.4883 6.72707 19.1192 7.49472 19.1192C8.10796 19.1192 8.63296 18.7177 8.82266 18.1619H11.7256C11.9153 18.7177 12.4403 19.1192 13.0535 19.1192C13.6668 19.1192 14.1918 18.7177 14.3815 18.1619H17.2844C17.3775 18.4405 17.5557 18.6828 17.794 18.8546C18.0323 19.0264 18.3186 19.119 18.6124 19.1192C19.3844 19.1192 20.0109 18.4883 20.0109 17.7207C20.0109 16.953 19.3844 16.3221 18.6124 16.3221ZM12.6124 16.3927C12.1977 16.5339 11.8668 16.8648 11.7256 17.2795H8.82266C8.78296 17.1604 8.7256 17.0501 8.65943 16.9486L12.5815 11.9369C12.5903 11.9413 12.6035 11.9457 12.6124 11.9501V16.3927ZM17.2844 17.2795H14.3815C14.3109 17.074 14.1943 16.8872 14.0407 16.7336C13.887 16.5799 13.7003 16.4633 13.4947 16.3927V11.9501C13.5035 11.9457 13.5168 11.9413 13.5256 11.9369L17.4477 16.9486C17.3815 17.0501 17.3241 17.1604 17.2844 17.2795Z" fill="#F37329"/>
</svg>
