<svg width="70" height="70" viewBox="0 0 70 70" fill="none" xmlns="http://www.w3.org/2000/svg">
<g filter="url(#filter0_d_1192_12624)">
<circle cx="35" cy="35" r="30" fill="#FDFDFD"/>
</g>
<g filter="url(#filter1_d_1192_12624)">
<path d="M65 35C65 30.754 64.0987 26.5563 62.3556 22.6846C60.6126 18.8128 58.0675 15.3552 54.8887 12.5402C51.7098 9.72531 47.9697 7.61723 43.9155 6.35538C39.8613 5.09354 35.5854 4.70667 31.3706 5.22035L32.0962 11.1743C35.4684 10.7633 38.8894 11.0728 42.133 12.0824C45.3766 13.0919 48.369 14.7785 50.9123 17.0307C53.4556 19.2828 55.4918 22.0491 56.8863 25.1468C58.2809 28.2445 59.002 31.6029 59.002 35H65Z" fill="#F37329"/>
</g>
<g filter="url(#filter2_d_1192_12624)">
<path d="M5 35C5 39.246 5.90132 43.4437 7.64438 47.3154C9.38744 51.1872 11.9325 54.6448 15.1113 57.4598C18.2902 60.2747 22.0303 62.3828 26.0845 63.6446C30.1387 64.9065 34.4146 65.2933 38.6294 64.7796L37.9038 58.8257C34.5316 59.2367 31.1106 58.9272 27.867 57.9176C24.6234 56.9081 21.631 55.2215 19.0877 52.9693C16.5444 50.7172 14.5082 47.9509 13.1137 44.8532C11.7191 41.7555 10.998 38.3971 10.998 35H5Z" fill="#F37329"/>
</g>
<g filter="url(#filter3_d_1192_12624)">
<circle cx="35" cy="35" r="24" fill="#FDFDFD"/>
</g>
<path d="M48.6621 25.028L43.1386 21.4766C42.8739 21.3045 42.5739 21.2295 42.2607 21.2471L35.7048 21.6398C35.2901 21.6663 34.9548 21.9398 34.8445 22.3413C34.7386 22.7427 34.8886 23.1486 35.2327 23.3824L36.7592 24.4016L36.2827 26.2236H22.9371C21.8121 26.2236 20.9033 27.1324 20.9033 28.2574L20.9166 43.4441C20.9166 44.5549 21.8258 45.4642 22.9371 45.4642H29.3999V47.873H28.1143C27.9973 47.873 27.8851 47.9195 27.8024 48.0022C27.7197 48.085 27.6732 48.1972 27.6732 48.3142C27.6732 48.4312 27.7197 48.5434 27.8024 48.6262C27.8851 48.7089 27.9973 48.7554 28.1143 48.7554H37.987C38.104 48.7554 38.2162 48.7089 38.299 48.6262C38.3817 48.5434 38.4282 48.4312 38.4282 48.3142C38.4282 48.1972 38.3817 48.085 38.299 48.0022C38.2162 47.9195 38.104 47.873 37.987 47.873H36.7001V45.4642H43.1717C43.7071 45.4627 44.2201 45.2493 44.5986 44.8707C44.9772 44.4921 45.1905 43.979 45.1919 43.4436L45.2033 30.0976C45.4504 29.9961 45.6401 29.7799 45.7151 29.5064L46.3901 26.9167L47.9651 26.7976L47.5769 28.2711C47.4349 28.3127 47.3061 28.3903 47.203 28.4964C47.0999 28.6024 47.0259 28.7333 46.9883 28.8764C46.9307 29.0968 46.963 29.331 47.0781 29.5276C47.1932 29.7242 47.3816 29.867 47.602 29.9246C47.8224 29.9823 48.0566 29.95 48.2532 29.8349C48.4498 29.7198 48.5926 29.5314 48.6502 29.311C48.6875 29.1673 48.6871 29.0165 48.6489 28.8731C48.6107 28.7297 48.5361 28.5986 48.4323 28.4926C49.0954 25.9602 49.072 26.078 49.072 26.0339C49.1602 25.6369 49.0019 25.2486 48.6621 25.028ZM44.321 41.2413H21.7857V28.2574C21.7857 27.6221 22.3018 27.106 22.9371 27.106H36.0621C36.018 27.4633 36.1857 27.8119 36.4989 27.9971C37.7739 28.7383 39.1107 29.2942 40.5092 29.656C41.7401 29.978 43.0107 30.1545 44.321 30.1766V41.2413ZM40.6813 24.5383H40.6857C40.893 24.781 41.2548 24.9839 41.7224 25.1074C42.1901 25.231 42.6092 25.2266 42.9092 25.1207C42.9798 25.0942 43.0371 25.0677 43.0945 25.028L46.9636 25.9898L46.346 26.0383C45.8585 26.0763 48.1124 25.9016 41.5769 26.4089C41.4489 26.4177 41.3166 26.3824 41.2107 26.3119L37.2357 23.6516L35.7269 22.6457C35.7136 22.6369 35.6827 22.6192 35.696 22.5707C35.7092 22.5221 35.7445 22.5221 35.7577 22.5221L42.3136 22.1251C42.4371 22.1207 42.5563 22.1516 42.6621 22.2177L47.2063 25.1383L43.3195 24.1721C43.1474 23.8589 42.7327 23.581 42.1592 23.4266C41.3077 23.206 40.6239 23.3957 40.4916 23.8942C40.4342 24.1148 40.5048 24.3398 40.6813 24.5383Z" fill="#F37329"/>
<path d="M38.6124 36.3221C38.4491 36.3221 38.2903 36.353 38.1447 36.406L34.2183 31.3942C34.3638 31.1736 34.4521 30.9089 34.4521 30.6221C34.4521 29.8501 33.8212 29.228 33.0535 29.228C32.2859 29.228 31.655 29.8501 31.655 30.6221C31.655 30.9089 31.7433 31.1736 31.8888 31.3942L27.9624 36.406C27.8168 36.353 27.658 36.3221 27.4947 36.3221C26.7271 36.3221 26.0962 36.953 26.0962 37.7207C26.0962 38.4883 26.7271 39.1192 27.4947 39.1192C28.108 39.1192 28.633 38.7177 28.8227 38.1619H31.7256C31.9153 38.7177 32.4403 39.1192 33.0535 39.1192C33.6668 39.1192 34.1918 38.7177 34.3815 38.1619H37.2844C37.3775 38.4405 37.5557 38.6828 37.794 38.8546C38.0323 39.0264 38.3186 39.119 38.6124 39.1192C39.3844 39.1192 40.0109 38.4883 40.0109 37.7207C40.0109 36.953 39.3844 36.3221 38.6124 36.3221ZM32.6124 36.3927C32.1977 36.5339 31.8668 36.8648 31.7256 37.2795H28.8227C28.783 37.1604 28.7256 37.0501 28.6594 36.9486L32.5815 31.9369C32.5903 31.9413 32.6035 31.9457 32.6124 31.9501V36.3927ZM37.2844 37.2795H34.3815C34.3109 37.074 34.1943 36.8872 34.0407 36.7336C33.887 36.5799 33.7003 36.4633 33.4947 36.3927V31.9501C33.5035 31.9457 33.5168 31.9413 33.5256 31.9369L37.4477 36.9486C37.3815 37.0501 37.3241 37.1604 37.2844 37.2795Z" fill="#F37329"/>
<defs>
<filter id="filter0_d_1192_12624" x="0" y="0" width="70" height="70" filterUnits="userSpaceOnUse" color-interpolation-filters="sRGB">
<feFlood flood-opacity="0" result="BackgroundImageFix"/>
<feColorMatrix in="SourceAlpha" type="matrix" values="0 0 0 0 0 0 0 0 0 0 0 0 0 0 0 0 0 0 127 0" result="hardAlpha"/>
<feOffset/>
<feGaussianBlur stdDeviation="2.5"/>
<feComposite in2="hardAlpha" operator="out"/>
<feColorMatrix type="matrix" values="0 0 0 0 0 0 0 0 0 0 0 0 0 0 0 0 0 0 0.2 0"/>
<feBlend mode="normal" in2="BackgroundImageFix" result="effect1_dropShadow_1192_12624"/>
<feBlend mode="normal" in="SourceGraphic" in2="effect1_dropShadow_1192_12624" result="shape"/>
</filter>
<filter id="filter1_d_1192_12624" x="26.3706" y="0" width="43.6294" height="40" filterUnits="userSpaceOnUse" color-interpolation-filters="sRGB">
<feFlood flood-opacity="0" result="BackgroundImageFix"/>
<feColorMatrix in="SourceAlpha" type="matrix" values="0 0 0 0 0 0 0 0 0 0 0 0 0 0 0 0 0 0 127 0" result="hardAlpha"/>
<feOffset/>
<feGaussianBlur stdDeviation="2.5"/>
<feComposite in2="hardAlpha" operator="out"/>
<feColorMatrix type="matrix" values="0 0 0 0 0 0 0 0 0 0 0 0 0 0 0 0 0 0 0.2 0"/>
<feBlend mode="normal" in2="BackgroundImageFix" result="effect1_dropShadow_1192_12624"/>
<feBlend mode="normal" in="SourceGraphic" in2="effect1_dropShadow_1192_12624" result="shape"/>
</filter>
<filter id="filter2_d_1192_12624" x="0" y="30" width="43.6294" height="40" filterUnits="userSpaceOnUse" color-interpolation-filters="sRGB">
<feFlood flood-opacity="0" result="BackgroundImageFix"/>
<feColorMatrix in="SourceAlpha" type="matrix" values="0 0 0 0 0 0 0 0 0 0 0 0 0 0 0 0 0 0 127 0" result="hardAlpha"/>
<feOffset/>
<feGaussianBlur stdDeviation="2.5"/>
<feComposite in2="hardAlpha" operator="out"/>
<feColorMatrix type="matrix" values="0 0 0 0 0 0 0 0 0 0 0 0 0 0 0 0 0 0 0.2 0"/>
<feBlend mode="normal" in2="BackgroundImageFix" result="effect1_dropShadow_1192_12624"/>
<feBlend mode="normal" in="SourceGraphic" in2="effect1_dropShadow_1192_12624" result="shape"/>
</filter>
<filter id="filter3_d_1192_12624" x="6" y="6" width="58" height="58" filterUnits="userSpaceOnUse" color-interpolation-filters="sRGB">
<feFlood flood-opacity="0" result="BackgroundImageFix"/>
<feColorMatrix in="SourceAlpha" type="matrix" values="0 0 0 0 0 0 0 0 0 0 0 0 0 0 0 0 0 0 127 0" result="hardAlpha"/>
<feOffset/>
<feGaussianBlur stdDeviation="2.5"/>
<feComposite in2="hardAlpha" operator="out"/>
<feColorMatrix type="matrix" values="0 0 0 0 0 0 0 0 0 0 0 0 0 0 0 0 0 0 0.2 0"/>
<feBlend mode="normal" in2="BackgroundImageFix" result="effect1_dropShadow_1192_12624"/>
<feBlend mode="normal" in="SourceGraphic" in2="effect1_dropShadow_1192_12624" result="shape"/>
</filter>
</defs>
</svg>
