<svg width="80" height="80" viewBox="0 0 80 80" fill="none" xmlns="http://www.w3.org/2000/svg">
<g filter="url(#filter0_d_665_11457)">
<circle cx="40" cy="40" r="35" fill="#FDFDFD"/>
<circle cx="40" cy="40" r="33" stroke="#F37329" stroke-width="4" stroke-dasharray="2 2"/>
</g>
<g filter="url(#filter1_d_665_11457)">
<path d="M61.985 67.2334C57.5064 70.8489 52.2053 73.304 46.5513 74.3814C40.8972 75.4588 35.0647 75.1251 29.5704 73.4099C24.0761 71.6948 19.0896 68.6511 15.0526 64.5485C11.0156 60.4458 8.05265 55.4109 6.42629 49.8897C4.79992 44.3685 4.5603 38.5313 5.72867 32.8954C6.89703 27.2594 9.4373 21.9986 13.1245 17.5789C16.8117 13.1592 21.5319 9.71702 26.8671 7.55731C32.2024 5.3976 37.9879 4.587 43.7112 5.19732L43.2216 9.78888C38.2534 9.25908 33.2311 9.96274 28.5998 11.8375C23.9684 13.7123 19.8709 16.7003 16.6702 20.5369C13.4695 24.3735 11.2643 28.9403 10.2501 33.8327C9.23591 38.7251 9.44391 43.7921 10.8557 48.5849C12.2675 53.3777 14.8395 57.7484 18.3439 61.3097C21.8483 64.8711 26.177 67.5132 30.9464 69.0021C35.7158 70.491 40.7788 70.7806 45.6869 69.8454C50.5951 68.9102 55.1968 66.779 59.0845 63.6405L61.985 67.2334Z" fill="#F37329"/>
</g>
<g filter="url(#filter2_d_665_11457)">
<circle cx="40" cy="40" r="30" fill="#FDFDFD"/>
</g>
<path d="M35.0137 45.6133C35.002 45.5957 34.9844 45.584 34.9727 45.5723L35.0137 45.6133ZM40 45.2149C41.3594 45.2149 42.6895 45.3086 43.9785 45.4844C44.1074 45.3789 44.2305 45.2735 44.3477 45.1563C44.4355 45.0742 44.5176 44.9864 44.5996 44.9043C44.2773 44.4766 43.873 44.1192 43.3984 43.8614C42.8652 43.5684 42.2559 43.3985 41.6055 43.3985H38.3945C37.7441 43.3985 37.1348 43.5684 36.6016 43.8614C36.1328 44.1192 35.7227 44.4766 35.4004 44.9043C35.4824 44.9922 35.5645 45.0801 35.6523 45.1621C35.7695 45.2735 35.8926 45.3848 36.0215 45.4844C37.3047 45.3028 38.6348 45.2149 40 45.2149ZM49.9492 49.7617L49.4336 51.4785C49.3984 51.6016 49.3105 51.6895 49.1992 51.7305L47.3184 52.5508C47.8809 52.6739 48.4551 52.8203 49.0293 53.0078C49.6914 53.2188 50.3652 53.4707 51.0273 53.7696L50.3652 51.6426C50.3008 51.4375 50.418 51.2266 50.6172 51.1621L52.3105 50.6289C52.082 50.5293 51.8359 50.4356 51.5898 50.336C51.0625 50.1367 50.5059 49.9434 49.9492 49.7617ZM47.9863 51.4199C47.5645 51.291 47.1309 51.168 46.6914 51.0567L46.5098 52.0645L47.9863 51.4199ZM33.3086 51.0567C32.8691 51.168 32.4355 51.291 32.0137 51.4199L33.4961 52.0645L33.3086 51.0567ZM30.8008 51.7305C30.6953 51.6895 30.6133 51.6074 30.5723 51.4961C30.5664 51.4903 30.5664 51.4844 30.5664 51.4785L30.0508 49.7617C29.4883 49.9434 28.9316 50.1309 28.416 50.336C28.1641 50.4297 27.9238 50.5293 27.6953 50.6289L29.3887 51.1621C29.5938 51.2266 29.7051 51.4434 29.6406 51.6426L28.9785 53.7696C29.6406 53.4707 30.3145 53.2188 30.9766 53.0078C31.5508 52.8262 32.125 52.6739 32.6875 52.5508L30.8008 51.7305ZM45.2441 46.4688C43.5801 46.1524 41.8223 45.9824 40 45.9824C38.1777 45.9824 36.4199 46.1524 34.7559 46.4688C33.1621 46.7735 31.6504 47.2129 30.2617 47.7637L31.1934 50.8692C32.4707 50.4356 33.8359 50.0957 35.2598 49.8614C36.7832 49.6094 38.3711 49.4746 40 49.4746C41.6348 49.4746 43.2227 49.6094 44.7402 49.8614C46.1641 50.1016 47.5293 50.4356 48.8066 50.8692L49.7383 47.7637C48.3496 47.2129 46.8379 46.7735 45.2441 46.4688ZM32.6641 28.8614L33.2383 30.086L34.5859 30.2559C34.7969 30.2852 34.9492 30.4727 34.9199 30.6836C34.9082 30.7832 34.8555 30.8711 34.7852 30.9356L33.8125 31.8555L34.0645 33.1914C34.1055 33.4024 33.9707 33.6016 33.7598 33.6426C33.666 33.6602 33.5781 33.6426 33.502 33.6016L32.3125 32.9453L31.123 33.6016C30.9355 33.7012 30.7012 33.6367 30.6016 33.4492C30.5547 33.3672 30.543 33.2793 30.5605 33.1914L30.8184 31.8555L29.8281 30.9239C29.6758 30.7774 29.6641 30.5371 29.8105 30.3789C29.875 30.3086 29.957 30.2735 30.0449 30.2617L31.3926 30.0918L31.9727 28.8672C32.0605 28.6739 32.2891 28.5918 32.4824 28.6797C32.5586 28.7207 32.623 28.7852 32.6641 28.8614ZM48.0332 28.8614L48.6133 30.086L49.9609 30.2559C50.1719 30.2852 50.3242 30.4727 50.3008 30.6836C50.2891 30.7832 50.2363 30.8711 50.1602 30.9356L49.1875 31.8555L49.4453 33.1914C49.4863 33.4024 49.3457 33.6016 49.1406 33.6426C49.0469 33.6602 48.959 33.6426 48.8828 33.6016L47.6934 32.9453L46.5039 33.6016C46.3164 33.7012 46.082 33.6367 45.9824 33.4492C45.9355 33.3672 45.9238 33.2793 45.9414 33.1914L46.1992 31.8555L45.209 30.9239C45.0566 30.7774 45.0508 30.5371 45.1914 30.3789C45.2559 30.3086 45.3379 30.2735 45.4258 30.2617L46.7734 30.0918L47.3477 28.8672C47.4355 28.6739 47.6641 28.5918 47.8574 28.6797C47.9336 28.7207 47.998 28.7852 48.0332 28.8614ZM40.3457 26.4532L40.9199 27.6778L42.2676 27.8477C42.4785 27.877 42.6309 28.0645 42.6016 28.2754C42.5898 28.375 42.5371 28.4629 42.4668 28.5274L41.4941 29.4414L41.752 30.7774C41.793 30.9883 41.6523 31.1875 41.4473 31.2285C41.3535 31.2461 41.2656 31.2285 41.1895 31.1875L40 30.5313L38.8105 31.1875C38.623 31.2871 38.3887 31.2227 38.2891 31.0352C38.2422 30.9532 38.2305 30.8653 38.248 30.7774L38.5059 29.4414L37.5156 28.5098C37.3633 28.3633 37.3516 28.1231 37.498 27.9649C37.5625 27.8946 37.6445 27.8594 37.7324 27.8477L39.0801 27.6778L39.6602 26.4532C39.748 26.2598 39.9766 26.1778 40.1699 26.2657C40.2461 26.3067 40.3105 26.3711 40.3457 26.4532ZM34.9023 44.2949C35.2715 43.8438 35.7227 43.4688 36.2324 43.1875C36.7949 42.877 37.4277 42.6836 38.1016 42.6426C37.8848 42.502 37.6855 42.3438 37.5098 42.1621C36.8711 41.5235 36.4727 40.6387 36.4727 39.666C36.4727 38.6875 36.8711 37.8086 37.5098 37.1641C38.1484 36.5254 39.0332 36.127 40.0059 36.127C40.9844 36.127 41.8633 36.5196 42.5078 37.1641C43.1465 37.8028 43.5449 38.6875 43.5449 39.666C43.5449 40.6387 43.1523 41.5235 42.5078 42.1621C42.3262 42.3438 42.127 42.502 41.9102 42.6426C42.584 42.6895 43.2168 42.8828 43.7793 43.1934C44.2891 43.4746 44.7402 43.8555 45.1094 44.3008C45.1855 44.1953 45.2617 44.084 45.3379 43.9668C45.7188 43.3633 46 42.6836 46.1641 41.9395C46.5332 40.2403 46.1758 38.5528 45.3027 37.1992C44.4297 35.8457 43.041 34.8262 41.3477 34.4571C39.6484 34.0879 37.9609 34.4453 36.6074 35.3184C35.2539 36.1914 34.2344 37.5801 33.8652 39.2735C33.6016 40.4805 33.707 41.6758 34.0996 42.7539C34.2812 43.3047 34.5625 43.8203 34.9023 44.2949ZM40 36.8946C39.2383 36.8946 38.5469 37.2051 38.0488 37.7032C37.5508 38.2012 37.2402 38.8926 37.2402 39.6543C37.2402 40.416 37.5508 41.1074 38.0488 41.6055C38.5469 42.1035 39.2383 42.4141 40 42.4141C40.7617 42.4141 41.4531 42.1035 41.957 41.6055C42.4609 41.1074 42.7656 40.416 42.7656 39.6543C42.7656 38.8926 42.4551 38.2012 41.957 37.7032C41.459 37.2051 40.7617 36.8946 40 36.8946Z" fill="#F37329"/>
<defs>
<filter id="filter0_d_665_11457" x="0" y="0" width="80" height="80" filterUnits="userSpaceOnUse" color-interpolation-filters="sRGB">
<feFlood flood-opacity="0" result="BackgroundImageFix"/>
<feColorMatrix in="SourceAlpha" type="matrix" values="0 0 0 0 0 0 0 0 0 0 0 0 0 0 0 0 0 0 127 0" result="hardAlpha"/>
<feOffset/>
<feGaussianBlur stdDeviation="2.5"/>
<feComposite in2="hardAlpha" operator="out"/>
<feColorMatrix type="matrix" values="0 0 0 0 0 0 0 0 0 0 0 0 0 0 0 0 0 0 0.2 0"/>
<feBlend mode="normal" in2="BackgroundImageFix" result="effect1_dropShadow_665_11457"/>
<feBlend mode="normal" in="SourceGraphic" in2="effect1_dropShadow_665_11457" result="shape"/>
</filter>
<filter id="filter1_d_665_11457" x="0" y="0" width="66.9849" height="80" filterUnits="userSpaceOnUse" color-interpolation-filters="sRGB">
<feFlood flood-opacity="0" result="BackgroundImageFix"/>
<feColorMatrix in="SourceAlpha" type="matrix" values="0 0 0 0 0 0 0 0 0 0 0 0 0 0 0 0 0 0 127 0" result="hardAlpha"/>
<feOffset/>
<feGaussianBlur stdDeviation="2.5"/>
<feComposite in2="hardAlpha" operator="out"/>
<feColorMatrix type="matrix" values="0 0 0 0 0 0 0 0 0 0 0 0 0 0 0 0 0 0 0.2 0"/>
<feBlend mode="normal" in2="BackgroundImageFix" result="effect1_dropShadow_665_11457"/>
<feBlend mode="normal" in="SourceGraphic" in2="effect1_dropShadow_665_11457" result="shape"/>
</filter>
<filter id="filter2_d_665_11457" x="5" y="5" width="70" height="70" filterUnits="userSpaceOnUse" color-interpolation-filters="sRGB">
<feFlood flood-opacity="0" result="BackgroundImageFix"/>
<feColorMatrix in="SourceAlpha" type="matrix" values="0 0 0 0 0 0 0 0 0 0 0 0 0 0 0 0 0 0 127 0" result="hardAlpha"/>
<feOffset/>
<feGaussianBlur stdDeviation="2.5"/>
<feComposite in2="hardAlpha" operator="out"/>
<feColorMatrix type="matrix" values="0 0 0 0 0 0 0 0 0 0 0 0 0 0 0 0 0 0 0.2 0"/>
<feBlend mode="normal" in2="BackgroundImageFix" result="effect1_dropShadow_665_11457"/>
<feBlend mode="normal" in="SourceGraphic" in2="effect1_dropShadow_665_11457" result="shape"/>
</filter>
</defs>
</svg>
