<svg width="30" height="30" viewBox="0 0 30 30" fill="none" xmlns="http://www.w3.org/2000/svg">
<path d="M18.9094 5.09767C19.5829 4.71496 20.1969 4.23609 20.7322 3.67618C21.7511 4.89316 22.3534 6.40449 22.4508 7.98868H19.2932C19.2544 7.01526 19.1259 6.04749 18.9094 5.09767ZM19.3277 12.0703C19.7379 12.0492 20.1434 12.0428 20.5441 12.0539L20.7199 12.0586L21.8637 11.3983C22.1996 10.6132 22.3979 9.77617 22.4496 8.92384H19.2943C19.2594 9.9038 19.1459 10.8794 18.9551 11.8412C19.0816 11.9158 19.2059 11.9922 19.3277 12.0703ZM5.92266 12.116L2.2793 18.4295L4.83633 19.9055L8.47969 13.5938L5.92266 12.116ZM18.3563 8.92384H15.4688V10.7988C16.3694 10.851 17.2545 11.0571 18.0855 11.4082C18.2357 10.5885 18.3262 9.75899 18.3563 8.92618V8.92384ZM24.0773 11.202L21.5203 12.6779L25.1637 18.9891L27.7207 17.5131L24.0773 11.202ZM17.4973 12.2643L17.6467 12.2408C16.9523 11.9582 16.2169 11.7895 15.4688 11.741V12.7688L15.5273 12.7518C16.1449 12.5678 16.8592 12.3686 17.4973 12.2666V12.2643ZM17.6449 13.1901C17.0291 13.2885 14.5107 13.9219 14.0842 14.366C13.9742 14.4811 13.8954 14.6222 13.8551 14.7762C13.6359 15.5965 13.4238 16.4197 13.1947 17.2371C13.1256 17.482 13.0775 17.652 13.118 17.9115C13.1592 18.1722 13.2457 18.4236 13.3734 18.6545C13.7531 18.1201 14.0766 17.5998 14.407 17.0338C14.9039 16.1836 15.2531 15.5854 15.8584 15.4406C16.1361 15.3744 16.6377 15.1758 16.9131 15.3346C18.8754 16.4649 20.884 17.5828 22.827 18.75C23.2593 18.9993 23.5804 19.4039 23.7252 19.8815L23.7563 19.8545C23.9116 19.7099 24.0749 19.5741 24.2455 19.4479L20.5195 12.9932C19.5573 12.9743 18.5953 13.041 17.6449 13.1924V13.1901ZM17.8207 4.59611C17.7863 4.46954 17.7506 4.34435 17.7135 4.22052C17.3238 2.92384 16.807 1.80997 16.2797 1.09982C16.0113 1.05401 15.7406 1.0231 15.4688 1.00724V5.17384C16.2594 5.1223 17.0354 4.93603 17.7633 4.62306L17.8207 4.59611ZM9.25781 12.9627L9.38145 12.9475C9.44824 12.9393 9.51504 12.9322 9.58184 12.9264C10.0369 12.5003 10.5405 12.1294 11.0824 11.8213C10.868 10.8699 10.7415 9.90077 10.7045 8.92618H7.54922C7.63367 10.3008 8.09864 11.6249 8.89219 12.7506L9.25781 12.9627ZM18.668 4.15255C19.1873 3.83256 19.6626 3.44608 20.0818 3.00294L20.0889 2.99591C19.3689 2.32455 18.5234 1.80205 17.601 1.45841C18.019 2.25545 18.357 3.09196 18.61 3.95568L18.668 4.15255ZM18.0434 5.5213C17.2246 5.86205 16.3541 6.06212 15.4688 6.1131V7.9881H18.3551C18.3209 7.15851 18.2167 6.3333 18.0434 5.5213ZM22.3143 19.6342L16.5773 16.3219L16.0945 16.4391C15.9187 16.4813 15.6592 16.9231 15.2924 17.5524C15.0779 17.9197 14.2189 19.4174 13.7953 19.7051C13.3986 19.974 13.0148 19.9518 12.5754 19.3049C12.334 18.9305 12.1743 18.5094 12.1066 18.0692C12.0316 17.5869 12.1031 17.3309 12.2068 16.9623C12.4342 16.1508 12.6451 15.3293 12.8637 14.5149C12.8839 14.4392 12.9085 14.3649 12.9375 14.2922C12.3411 14.1032 11.7285 13.9695 11.1076 13.8926C10.5725 13.8248 10.0312 13.8209 9.49512 13.8809L5.67246 20.5031C5.99935 20.8216 6.29867 21.1671 6.56719 21.5361C7.3793 20.2418 9.36797 20.5401 9.75527 22.0231C9.97904 21.9629 10.2125 21.9475 10.4422 21.9776C10.6719 22.0078 10.8935 22.083 11.0941 22.1988C11.2948 22.3147 11.4706 22.469 11.6116 22.6529C11.7525 22.8368 11.8559 23.0467 11.9156 23.2705C12.3674 23.1495 12.8488 23.2129 13.2539 23.4467C13.659 23.6805 13.9547 24.0656 14.076 24.5174C14.4347 24.4198 14.8151 24.4385 15.1625 24.5708C15.5099 24.703 15.8065 24.942 16.0096 25.2533C16.0884 25.2025 16.1797 25.1744 16.2734 25.172C16.3671 25.1697 16.4597 25.1931 16.541 25.2399C17.1375 25.5838 17.9273 25.9817 18.4775 26.3567C18.9639 26.611 19.4695 26.4111 19.7543 25.9688C19.8705 25.7507 19.8979 25.4962 19.8309 25.2584C19.7638 25.0206 19.6075 24.8179 19.3945 24.6926L16.5639 23.0584C16.5057 23.025 16.4547 22.9805 16.4138 22.9274C16.3729 22.8743 16.3428 22.8137 16.3253 22.7489C16.3078 22.6842 16.3033 22.6167 16.3119 22.5502C16.3205 22.4837 16.3421 22.4196 16.3755 22.3614C16.4089 22.3033 16.4534 22.2523 16.5065 22.2114C16.5596 22.1705 16.6202 22.1404 16.685 22.1229C16.7497 22.1054 16.8172 22.1008 16.8837 22.1094C16.9502 22.118 17.0143 22.1397 17.0725 22.1731L19.9061 23.809C20.0141 23.8712 20.1333 23.9116 20.257 23.9278C20.3806 23.9439 20.5062 23.9356 20.6266 23.9032C20.747 23.8709 20.8599 23.8151 20.9587 23.7391C21.0576 23.6631 21.1405 23.5684 21.2027 23.4604C21.265 23.3523 21.3053 23.2331 21.3215 23.1095C21.3377 22.9858 21.3293 22.8602 21.297 22.7398C21.2646 22.6194 21.2088 22.5066 21.1328 22.4077C21.0568 22.3089 20.9621 22.2259 20.8541 22.1637L17.1627 20.032C17.1024 19.9995 17.0493 19.9552 17.0065 19.9018C16.9637 19.8484 16.932 19.7869 16.9134 19.721C16.8948 19.6551 16.8896 19.5861 16.8981 19.5182C16.9066 19.4502 16.9287 19.3847 16.9631 19.3254C16.9974 19.2662 17.0433 19.2144 17.098 19.1732C17.1527 19.1321 17.2151 19.1023 17.2815 19.0857C17.348 19.069 17.4171 19.0659 17.4847 19.0765C17.5524 19.0871 17.6172 19.1112 17.6754 19.1473L21.3668 21.2783C21.5844 21.3969 21.8397 21.4257 22.0783 21.3586C22.3168 21.2915 22.5196 21.1337 22.6434 20.919C22.7672 20.7044 22.8021 20.4498 22.7407 20.2097C22.6793 19.9696 22.5265 19.7631 22.3148 19.6342H22.3143ZM17.9326 27.2233L16.292 26.2758C16.2822 26.563 16.2017 26.8434 16.0576 27.092L15.5203 28.0231C15.999 28.2996 16.5451 28.585 17.0039 28.8803C17.2236 29.0032 17.4832 29.0338 17.7255 28.9653C17.9678 28.8969 18.173 28.735 18.2959 28.5152C18.4188 28.2955 18.4494 28.0359 18.381 27.7936C18.3125 27.5514 18.1506 27.3462 17.9309 27.2233H17.9326ZM11.1076 5.10704C10.4274 4.72306 9.80743 4.24093 9.26777 3.67618C8.24889 4.89316 7.64662 6.40449 7.54922 7.98868H10.7074C10.7508 7.01777 10.8848 6.05304 11.1076 5.10704ZM14.5312 8.92618H11.6449C11.6786 9.75658 11.7817 10.5827 11.9531 11.3959C12.773 11.0543 13.6446 10.8534 14.5312 10.8018V8.92618ZM14.5312 6.11368C13.6512 6.06257 12.7859 5.86452 11.9713 5.52775C11.7929 6.3373 11.6839 7.1606 11.6455 7.98868H14.5312V6.11368ZM10.5838 23.0813C10.4143 22.9862 10.2144 22.9612 10.0267 23.0114C9.83896 23.0617 9.67829 23.1832 9.57891 23.3502L8.12813 25.8633C8.0343 26.0321 8.0105 26.2309 8.06185 26.417C8.11319 26.6032 8.23558 26.7617 8.40265 26.8585C8.56973 26.9553 8.76813 26.9826 8.95514 26.9345C9.14215 26.8865 9.30282 26.7669 9.40254 26.6016L10.8545 24.0867C10.95 23.9171 10.9751 23.7167 10.9245 23.5287C10.8739 23.3407 10.7516 23.18 10.5838 23.0813ZM14.8734 25.5586C14.7047 25.474 14.5102 25.4566 14.3292 25.51C14.1481 25.5634 13.9942 25.6836 13.8984 25.8463C13.5879 26.3848 13.2369 27.0768 12.9023 27.5789C12.7195 27.8942 12.8561 28.3406 13.1572 28.5346C13.541 28.7203 13.9629 28.6869 14.1949 28.285C14.5049 27.7477 14.8576 27.0486 15.1951 26.5506C15.3961 26.151 15.2162 25.7906 14.8734 25.5586ZM11.0578 12.941C11.1117 12.9461 11.1656 12.952 11.2195 12.9586C11.2781 12.9651 11.3309 12.9721 11.3865 12.9797L11.3777 12.9492C11.3596 12.8906 11.342 12.8279 11.3244 12.767C11.2342 12.8233 11.1451 12.8807 11.0578 12.941ZM12.1986 4.60665L12.2367 4.62306C12.9646 4.93603 13.7406 5.1223 14.5312 5.17384V1.00665C14.2477 1.02452 13.9654 1.05836 13.6857 1.10802C13.1959 1.84161 12.7066 2.9297 12.327 4.16603C12.2824 4.31134 12.2396 4.45782 12.1986 4.60665ZM11.352 4.16486C11.3789 4.07345 11.4059 3.98204 11.4334 3.89181C11.6864 3.05333 12.0117 2.23837 12.4055 1.45607C11.4805 1.79951 10.6327 2.32287 9.91113 2.99591L9.91816 3.00294C10.3429 3.45167 10.825 3.84235 11.352 4.16486ZM12.2748 12.682C12.3252 12.8502 12.3773 13.0154 12.4313 13.1766C12.6967 13.2404 12.9586 13.3137 13.2193 13.3945L13.6389 13.5252C13.918 13.3427 14.2175 13.1935 14.5312 13.0805V11.741C13.7406 11.7928 12.9646 11.9792 12.2367 12.2924L12.1723 12.3205C12.2051 12.4424 12.2396 12.5631 12.2748 12.682ZM12.7436 24.3293C12.574 24.2334 12.3736 24.2078 12.1854 24.2579C11.9972 24.3081 11.8362 24.4301 11.7369 24.5977L10.442 26.8424C10.3975 26.8166 10.1584 27.5039 10.6898 27.835C11.0637 28.0283 11.4961 27.9586 11.7164 27.5772L13.0125 25.3342C13.1082 25.1651 13.1338 24.9652 13.084 24.7774C13.0342 24.5896 12.9128 24.4288 12.7459 24.3293H12.7436ZM8.42285 21.835C8.25321 21.7387 8.05253 21.7131 7.86416 21.7637C7.6758 21.8142 7.51489 21.9369 7.41621 22.1051L5.79141 24.9176C5.70974 25.0804 5.69057 25.2675 5.73754 25.4435C5.78451 25.6195 5.89435 25.7722 6.04629 25.8727C6.43008 26.0584 6.85195 26.0256 7.08398 25.6236L8.69121 22.8399C8.78678 22.6708 8.81245 22.471 8.76275 22.2833C8.71305 22.0955 8.5919 21.9346 8.42519 21.835H8.42285Z" fill="#F37329"/>
</svg>
