<svg width="80" height="80" viewBox="0 0 80 80" fill="none" xmlns="http://www.w3.org/2000/svg">
<g filter="url(#filter0_d_668_11592)">
<circle cx="40" cy="40" r="35" fill="#FDFDFD"/>
<circle cx="40" cy="40" r="33" stroke="#F37329" stroke-width="4" stroke-dasharray="2 2"/>
</g>
<g filter="url(#filter1_d_668_11592)">
<path d="M61.985 67.2334C57.5064 70.8489 52.2053 73.304 46.5513 74.3814C40.8972 75.4588 35.0647 75.1251 29.5704 73.4099C24.0761 71.6948 19.0896 68.6511 15.0526 64.5485C11.0156 60.4458 8.05265 55.4109 6.42629 49.8897C4.79992 44.3685 4.5603 38.5313 5.72867 32.8954C6.89703 27.2594 9.4373 21.9986 13.1245 17.5789C16.8117 13.1592 21.5319 9.71702 26.8671 7.55731C32.2024 5.3976 37.9879 4.587 43.7112 5.19732L43.2216 9.78888C38.2534 9.25908 33.2311 9.96274 28.5998 11.8375C23.9684 13.7123 19.8709 16.7003 16.6702 20.5369C13.4695 24.3735 11.2643 28.9403 10.2501 33.8327C9.23591 38.7251 9.44391 43.7921 10.8557 48.5849C12.2675 53.3777 14.8395 57.7484 18.3439 61.3097C21.8483 64.8711 26.177 67.5132 30.9464 69.0021C35.7158 70.491 40.7788 70.7806 45.6869 69.8454C50.5951 68.9102 55.1968 66.779 59.0845 63.6405L61.985 67.2334Z" fill="#F37329"/>
</g>
<g filter="url(#filter2_d_668_11592)">
<circle cx="40" cy="40" r="30" fill="#FDFDFD"/>
</g>
<path d="M43.9094 30.0977C44.5829 29.715 45.1969 29.2361 45.7322 28.6762C46.7511 29.8932 47.3534 31.4045 47.4508 32.9887H44.2932C44.2544 32.0153 44.1259 31.0475 43.9094 30.0977ZM44.3277 37.0703C44.7379 37.0492 45.1434 37.0428 45.5441 37.0539L45.7199 37.0586L46.8637 36.3983C47.1996 35.6132 47.3979 34.7762 47.4496 33.9238H44.2943C44.2594 34.9038 44.1459 35.8794 43.9551 36.8412C44.0816 36.9158 44.2059 36.9922 44.3277 37.0703ZM30.9227 37.116L27.2793 43.4295L29.8363 44.9055L33.4797 38.5938L30.9227 37.116ZM43.3563 33.9238H40.4688V35.7988C41.3694 35.851 42.2545 36.0571 43.0855 36.4082C43.2357 35.5885 43.3262 34.759 43.3563 33.9262V33.9238ZM49.0773 36.202L46.5203 37.6779L50.1637 43.9891L52.7207 42.5131L49.0773 36.202ZM42.4973 37.2643L42.6467 37.2408C41.9523 36.9582 41.2169 36.7895 40.4688 36.741V37.7688L40.5273 37.7518C41.1449 37.5678 41.8592 37.3686 42.4973 37.2666V37.2643ZM42.6449 38.1901C42.0291 38.2885 39.5107 38.9219 39.0842 39.366C38.9742 39.4811 38.8954 39.6222 38.8551 39.7762C38.6359 40.5965 38.4238 41.4197 38.1947 42.2371C38.1256 42.482 38.0775 42.652 38.118 42.9115C38.1592 43.1722 38.2457 43.4236 38.3734 43.6545C38.7531 43.1201 39.0766 42.5998 39.407 42.0338C39.9039 41.1836 40.2531 40.5854 40.8584 40.4406C41.1361 40.3744 41.6377 40.1758 41.9131 40.3346C43.8754 41.4649 45.884 42.5828 47.827 43.75C48.2593 43.9993 48.5804 44.4039 48.7252 44.8815L48.7563 44.8545C48.9116 44.7099 49.0749 44.5741 49.2455 44.4479L45.5195 37.9932C44.5573 37.9743 43.5953 38.041 42.6449 38.1924V38.1901ZM42.8207 29.5961C42.7863 29.4695 42.7506 29.3443 42.7135 29.2205C42.3238 27.9238 41.807 26.81 41.2797 26.0998C41.0113 26.054 40.7406 26.0231 40.4688 26.0072V30.1738C41.2594 30.1223 42.0354 29.936 42.7633 29.6231L42.8207 29.5961ZM34.2578 37.9627L34.3814 37.9475C34.4482 37.9393 34.515 37.9322 34.5818 37.9264C35.0369 37.5003 35.5405 37.1294 36.0824 36.8213C35.868 35.8699 35.7415 34.9008 35.7045 33.9262H32.5492C32.6337 35.3008 33.0986 36.6249 33.8922 37.7506L34.2578 37.9627ZM43.668 29.1526C44.1873 28.8326 44.6626 28.4461 45.0818 28.0029L45.0889 27.9959C44.3689 27.3246 43.5234 26.802 42.601 26.4584C43.019 27.2554 43.357 28.092 43.61 28.9557L43.668 29.1526ZM43.0434 30.5213C42.2246 30.862 41.3541 31.0621 40.4688 31.1131V32.9881H43.3551C43.3209 32.1585 43.2167 31.3333 43.0434 30.5213ZM47.3143 44.6342L41.5773 41.3219L41.0945 41.4391C40.9187 41.4813 40.6592 41.9231 40.2924 42.5524C40.0779 42.9197 39.2189 44.4174 38.7953 44.7051C38.3986 44.974 38.0148 44.9518 37.5754 44.3049C37.334 43.9305 37.1743 43.5094 37.1066 43.0692C37.0316 42.5869 37.1031 42.3309 37.2068 41.9623C37.4342 41.1508 37.6451 40.3293 37.8637 39.5149C37.8839 39.4392 37.9085 39.3649 37.9375 39.2922C37.3411 39.1032 36.7285 38.9695 36.1076 38.8926C35.5725 38.8248 35.0312 38.8209 34.4951 38.8809L30.6725 45.5031C30.9994 45.8216 31.2987 46.1671 31.5672 46.5361C32.3793 45.2418 34.368 45.5401 34.7553 47.0231C34.979 46.9629 35.2125 46.9475 35.4422 46.9776C35.6719 47.0078 35.8935 47.083 36.0941 47.1988C36.2948 47.3147 36.4706 47.469 36.6116 47.6529C36.7525 47.8368 36.8559 48.0467 36.9156 48.2705C37.3674 48.1495 37.8488 48.2129 38.2539 48.4467C38.659 48.6805 38.9547 49.0656 39.076 49.5174C39.4347 49.4198 39.8151 49.4385 40.1625 49.5708C40.5099 49.703 40.8065 49.942 41.0096 50.2533C41.0884 50.2025 41.1797 50.1744 41.2734 50.172C41.3671 50.1697 41.4597 50.1931 41.541 50.2399C42.1375 50.5838 42.9273 50.9817 43.4775 51.3567C43.9639 51.611 44.4695 51.4111 44.7543 50.9688C44.8705 50.7507 44.8979 50.4962 44.8309 50.2584C44.7638 50.0206 44.6075 49.8179 44.3945 49.6926L41.5639 48.0584C41.5057 48.025 41.4547 47.9805 41.4138 47.9274C41.3729 47.8743 41.3428 47.8137 41.3253 47.7489C41.3078 47.6842 41.3033 47.6167 41.3119 47.5502C41.3205 47.4837 41.3421 47.4196 41.3755 47.3614C41.4089 47.3033 41.4534 47.2523 41.5065 47.2114C41.5596 47.1705 41.6202 47.1404 41.685 47.1229C41.7497 47.1054 41.8172 47.1008 41.8837 47.1094C41.9502 47.118 42.0143 47.1397 42.0725 47.1731L44.9061 48.809C45.0141 48.8712 45.1333 48.9116 45.257 48.9278C45.3806 48.9439 45.5062 48.9356 45.6266 48.9032C45.747 48.8709 45.8599 48.8151 45.9587 48.7391C46.0576 48.6631 46.1405 48.5684 46.2027 48.4604C46.265 48.3523 46.3053 48.2331 46.3215 48.1095C46.3377 47.9858 46.3293 47.8602 46.297 47.7398C46.2646 47.6194 46.2088 47.5066 46.1328 47.4077C46.0568 47.3089 45.9621 47.2259 45.8541 47.1637L42.1627 45.032C42.1024 44.9995 42.0493 44.9552 42.0065 44.9018C41.9637 44.8484 41.932 44.7869 41.9134 44.721C41.8948 44.6551 41.8896 44.5861 41.8981 44.5182C41.9066 44.4502 41.9287 44.3847 41.9631 44.3254C41.9974 44.2662 42.0433 44.2144 42.098 44.1732C42.1527 44.1321 42.2151 44.1023 42.2815 44.0857C42.348 44.069 42.4171 44.0659 42.4847 44.0765C42.5524 44.0871 42.6172 44.1112 42.6754 44.1473L46.3668 46.2783C46.5844 46.3969 46.8397 46.4257 47.0783 46.3586C47.3168 46.2915 47.5196 46.1337 47.6434 45.919C47.7672 45.7044 47.8021 45.4498 47.7407 45.2097C47.6793 44.9696 47.5265 44.7631 47.3148 44.6342H47.3143ZM42.9326 52.2233L41.292 51.2758C41.2822 51.563 41.2017 51.8434 41.0576 52.092L40.5203 53.0231C40.999 53.2996 41.5451 53.585 42.0039 53.8803C42.2236 54.0032 42.4832 54.0338 42.7255 53.9653C42.9678 53.8969 43.173 53.735 43.2959 53.5152C43.4188 53.2955 43.4494 53.0359 43.381 52.7936C43.3125 52.5514 43.1506 52.3462 42.9309 52.2233H42.9326ZM36.1076 30.107C35.4274 29.7231 34.8074 29.2409 34.2678 28.6762C33.2489 29.8932 32.6466 31.4045 32.5492 32.9887H35.7074C35.7508 32.0178 35.8848 31.053 36.1076 30.107ZM39.5312 33.9262H36.6449C36.6786 34.7566 36.7817 35.5827 36.9531 36.3959C37.773 36.0543 38.6446 35.8534 39.5312 35.8018V33.9262ZM39.5312 31.1137C38.6512 31.0626 37.7859 30.8645 36.9713 30.5277C36.7929 31.3373 36.6839 32.1606 36.6455 32.9887H39.5312V31.1137ZM35.5838 48.0813C35.4143 47.9862 35.2144 47.9612 35.0267 48.0114C34.839 48.0617 34.6783 48.1832 34.5789 48.3502L33.1281 50.8633C33.0343 51.0321 33.0105 51.2309 33.0618 51.417C33.1132 51.6032 33.2356 51.7617 33.4027 51.8585C33.5697 51.9553 33.7681 51.9826 33.9551 51.9345C34.1422 51.8865 34.3028 51.7669 34.4025 51.6016L35.8545 49.0867C35.95 48.9171 35.9751 48.7167 35.9245 48.5287C35.8739 48.3407 35.7516 48.18 35.5838 48.0813ZM39.8734 50.5586C39.7047 50.474 39.5102 50.4566 39.3292 50.51C39.1481 50.5634 38.9942 50.6836 38.8984 50.8463C38.5879 51.3848 38.2369 52.0768 37.9023 52.5789C37.7195 52.8942 37.8561 53.3406 38.1572 53.5346C38.541 53.7203 38.9629 53.6869 39.1949 53.285C39.5049 52.7477 39.8576 52.0486 40.1951 51.5506C40.3961 51.151 40.2162 50.7906 39.8734 50.5586ZM36.0578 37.941C36.1117 37.9461 36.1656 37.952 36.2195 37.9586C36.2781 37.9651 36.3309 37.9721 36.3865 37.9797L36.3777 37.9492C36.3596 37.8906 36.342 37.8279 36.3244 37.767C36.2342 37.8233 36.1451 37.8807 36.0578 37.941ZM37.1986 29.6067L37.2367 29.6231C37.9646 29.936 38.7406 30.1223 39.5312 30.1738V26.0067C39.2477 26.0245 38.9654 26.0584 38.6857 26.108C38.1959 26.8416 37.7066 27.9297 37.327 29.166C37.2824 29.3113 37.2396 29.4578 37.1986 29.6067ZM36.352 29.1649C36.3789 29.0734 36.4059 28.982 36.4334 28.8918C36.6864 28.0533 37.0117 27.2384 37.4055 26.4561C36.4805 26.7995 35.6327 27.3229 34.9111 27.9959L34.9182 28.0029C35.3429 28.4517 35.825 28.8423 36.352 29.1649ZM37.2748 37.682C37.3252 37.8502 37.3773 38.0154 37.4313 38.1766C37.6967 38.2404 37.9586 38.3137 38.2193 38.3945L38.6389 38.5252C38.918 38.3427 39.2175 38.1935 39.5312 38.0805V36.741C38.7406 36.7928 37.9646 36.9792 37.2367 37.2924L37.1723 37.3205C37.2051 37.4424 37.2396 37.5631 37.2748 37.682ZM37.7436 49.3293C37.574 49.2334 37.3736 49.2078 37.1854 49.2579C36.9972 49.3081 36.8362 49.4301 36.7369 49.5977L35.442 51.8424C35.3975 51.8166 35.1584 52.5039 35.6898 52.835C36.0637 53.0283 36.4961 52.9586 36.7164 52.5772L38.0125 50.3342C38.1082 50.1651 38.1338 49.9652 38.084 49.7774C38.0342 49.5896 37.9128 49.4288 37.7459 49.3293H37.7436ZM33.4229 46.835C33.2532 46.7387 33.0525 46.7131 32.8642 46.7637C32.6758 46.8142 32.5149 46.9369 32.4162 47.1051L30.7914 49.9176C30.7097 50.0804 30.6906 50.2675 30.7375 50.4435C30.7845 50.6195 30.8944 50.7722 31.0463 50.8727C31.4301 51.0584 31.852 51.0256 32.084 50.6236L33.6912 47.8399C33.7868 47.6708 33.8125 47.471 33.7628 47.2833C33.713 47.0955 33.5919 46.9346 33.4252 46.835H33.4229Z" fill="#F37329"/>
<defs>
<filter id="filter0_d_668_11592" x="0" y="0" width="80" height="80" filterUnits="userSpaceOnUse" color-interpolation-filters="sRGB">
<feFlood flood-opacity="0" result="BackgroundImageFix"/>
<feColorMatrix in="SourceAlpha" type="matrix" values="0 0 0 0 0 0 0 0 0 0 0 0 0 0 0 0 0 0 127 0" result="hardAlpha"/>
<feOffset/>
<feGaussianBlur stdDeviation="2.5"/>
<feComposite in2="hardAlpha" operator="out"/>
<feColorMatrix type="matrix" values="0 0 0 0 0 0 0 0 0 0 0 0 0 0 0 0 0 0 0.2 0"/>
<feBlend mode="normal" in2="BackgroundImageFix" result="effect1_dropShadow_668_11592"/>
<feBlend mode="normal" in="SourceGraphic" in2="effect1_dropShadow_668_11592" result="shape"/>
</filter>
<filter id="filter1_d_668_11592" x="0" y="0" width="66.9849" height="80" filterUnits="userSpaceOnUse" color-interpolation-filters="sRGB">
<feFlood flood-opacity="0" result="BackgroundImageFix"/>
<feColorMatrix in="SourceAlpha" type="matrix" values="0 0 0 0 0 0 0 0 0 0 0 0 0 0 0 0 0 0 127 0" result="hardAlpha"/>
<feOffset/>
<feGaussianBlur stdDeviation="2.5"/>
<feComposite in2="hardAlpha" operator="out"/>
<feColorMatrix type="matrix" values="0 0 0 0 0 0 0 0 0 0 0 0 0 0 0 0 0 0 0.2 0"/>
<feBlend mode="normal" in2="BackgroundImageFix" result="effect1_dropShadow_668_11592"/>
<feBlend mode="normal" in="SourceGraphic" in2="effect1_dropShadow_668_11592" result="shape"/>
</filter>
<filter id="filter2_d_668_11592" x="5" y="5" width="70" height="70" filterUnits="userSpaceOnUse" color-interpolation-filters="sRGB">
<feFlood flood-opacity="0" result="BackgroundImageFix"/>
<feColorMatrix in="SourceAlpha" type="matrix" values="0 0 0 0 0 0 0 0 0 0 0 0 0 0 0 0 0 0 127 0" result="hardAlpha"/>
<feOffset/>
<feGaussianBlur stdDeviation="2.5"/>
<feComposite in2="hardAlpha" operator="out"/>
<feColorMatrix type="matrix" values="0 0 0 0 0 0 0 0 0 0 0 0 0 0 0 0 0 0 0.2 0"/>
<feBlend mode="normal" in2="BackgroundImageFix" result="effect1_dropShadow_668_11592"/>
<feBlend mode="normal" in="SourceGraphic" in2="effect1_dropShadow_668_11592" result="shape"/>
</filter>
</defs>
</svg>
