<svg width="30" height="30" viewBox="0 0 30 30" fill="none" xmlns="http://www.w3.org/2000/svg">
<path d="M29.5174 16.0922C29.5638 17.1998 29.1689 18.2805 28.4194 19.0973C27.67 19.9141 26.6271 20.4003 25.5196 20.4492C25.4548 20.4522 25.3902 20.4537 25.3256 20.4537C25.0314 20.4535 24.738 20.4217 24.4505 20.3587C23.5976 21.6756 22.4793 22.8 21.167 23.6599C19.8546 24.5198 18.3773 25.0964 16.8294 25.3527C16.6463 25.8905 16.2811 26.3475 15.7968 26.6446C15.3125 26.9417 14.7397 27.0603 14.1772 26.9799C13.6148 26.8994 13.0982 26.625 12.7166 26.204C12.335 25.783 12.1125 25.242 12.0876 24.6744C12.0626 24.1068 12.2368 23.5483 12.5799 23.0954C12.9231 22.6426 13.4137 22.3239 13.9669 22.1944C14.5201 22.0649 15.1011 22.1328 15.6096 22.3862C16.1181 22.6397 16.522 23.0629 16.7516 23.5826C18.9308 23.1796 20.8995 22.0246 22.3145 20.319C23.7296 18.6135 24.5013 16.4654 24.4951 14.2493C24.4951 9.01362 20.2356 4.75415 15 4.75415C9.76431 4.75415 5.50484 9.01362 5.50484 14.2493C5.50455 15.8682 5.91831 17.4603 6.70677 18.8743C6.73349 18.921 6.75355 18.9711 6.76636 19.0234C6.84252 19.235 6.83438 19.4679 6.74362 19.6737C6.65287 19.8796 6.48645 20.0427 6.2788 20.1292C5.77036 20.3432 5.22427 20.4534 4.67263 20.4533C4.60771 20.4533 4.54265 20.4518 4.47745 20.4488C3.37043 20.3993 2.32821 19.9128 1.57932 19.0961C0.830423 18.2793 0.435979 17.1989 0.482475 16.0917C0.501166 15.6502 0.490736 15.2563 0.480541 14.8754C0.471049 14.5167 0.461146 14.1458 0.477435 13.7588C0.526049 12.6778 0.991064 11.6575 1.77508 10.9117C2.5591 10.1658 3.60131 9.75229 4.68341 9.75765C6.42107 5.78194 10.391 2.99634 15 2.99634C19.6089 2.99634 23.5789 5.78194 25.3166 9.7577C26.3988 9.75154 27.4413 10.1647 28.2255 10.9106C29.0096 11.6565 29.4744 12.677 29.5224 13.7582C29.5388 14.1458 29.5289 14.5166 29.5193 14.8753C29.5092 15.2563 29.4987 15.6504 29.5174 16.0922ZM22.3713 14.2493C22.3709 15.3786 22.1111 16.4927 21.612 17.5057C21.1129 18.5187 20.3877 19.4036 19.4926 20.092C18.5974 20.7805 17.556 21.2541 16.4488 21.4764C15.3416 21.6987 14.1981 21.6638 13.1066 21.3743L10.1229 23.0973C9.97236 23.1843 9.79941 23.2246 9.62594 23.2133C9.45247 23.2019 9.28626 23.1393 9.14833 23.0335C9.01041 22.9277 8.90697 22.7833 8.8511 22.6187C8.79522 22.4541 8.78942 22.2766 8.83443 22.1087L9.59697 19.2641C8.33416 17.8991 7.63152 16.1088 7.62886 14.2493C7.62886 10.1836 10.9354 6.87618 15 6.87618C19.0645 6.87618 22.3713 10.1836 22.3713 14.2493ZM12.9506 14.2493C12.9506 14.0162 12.858 13.7926 12.6932 13.6278C12.5284 13.463 12.3048 13.3704 12.0717 13.3704H12.0703C11.8965 13.3707 11.7267 13.4225 11.5824 13.5193C11.4381 13.6161 11.3257 13.7534 11.2594 13.9141C11.1932 14.0747 11.176 14.2514 11.2101 14.4217C11.2442 14.5921 11.328 14.7486 11.451 14.8713C11.574 14.9941 11.7306 15.0776 11.901 15.1114C12.0715 15.1452 12.2481 15.1277 12.4086 15.0611C12.5691 14.9945 12.7063 14.8819 12.8028 14.7374C12.8993 14.5929 12.9508 14.423 12.9508 14.2493H12.9506ZM15.879 14.2493C15.879 14.2205 15.8774 14.1917 15.8743 14.1631C15.8716 14.1344 15.8673 14.1059 15.8615 14.0776C15.8563 14.0494 15.8492 14.0216 15.8404 13.9944C15.8322 13.9668 15.8223 13.9399 15.8117 13.9129C15.8012 13.886 15.7883 13.8608 15.7748 13.8356C15.7614 13.8103 15.7467 13.7856 15.7309 13.7618C15.7148 13.7377 15.6976 13.7144 15.6792 13.692C15.6612 13.6696 15.6418 13.6483 15.6213 13.6282C15.6014 13.6077 15.5797 13.5883 15.5574 13.5696C15.5351 13.552 15.5117 13.5344 15.4876 13.5186C15.4638 13.5027 15.4392 13.488 15.4139 13.4747C15.3886 13.4612 15.3623 13.4489 15.3359 13.4377C15.3095 13.4267 15.2825 13.4171 15.2551 13.409C15.2003 13.3914 15.1437 13.38 15.0863 13.375C15.0002 13.3668 14.9134 13.3709 14.8285 13.3874C14.8002 13.3931 14.7723 13.4004 14.7448 13.409C14.7173 13.4171 14.6903 13.4267 14.6639 13.4377C14.6376 13.4489 14.6112 13.4612 14.586 13.4747C14.5608 13.4881 14.5362 13.5028 14.5121 13.5186C14.464 13.5505 14.4193 13.5872 14.3786 13.6282C14.358 13.6483 14.3386 13.6697 14.3205 13.692C14.3024 13.7144 14.2854 13.7377 14.2696 13.7618C14.2535 13.7856 14.2386 13.8102 14.2251 13.8356C14.2115 13.8607 14.1994 13.8865 14.1887 13.9129C14.1775 13.9396 14.1678 13.9668 14.1594 13.9944C14.1512 14.0213 14.1442 14.0495 14.1383 14.0776C14.1325 14.1059 14.1282 14.1344 14.1254 14.1631C14.1225 14.1918 14.1213 14.2206 14.1213 14.2493C14.1213 14.278 14.1225 14.3073 14.1254 14.336C14.1283 14.3645 14.1326 14.3929 14.1383 14.4209C14.1442 14.4491 14.1512 14.4772 14.1594 14.5047C14.1678 14.5322 14.1775 14.5592 14.1887 14.5856C14.1994 14.6122 14.2115 14.6382 14.2251 14.6635C14.2385 14.6887 14.2538 14.7133 14.2696 14.7374C14.2854 14.7613 14.3024 14.7843 14.3205 14.8065C14.3388 14.8289 14.3581 14.8505 14.3786 14.8709C14.3991 14.8909 14.4202 14.9108 14.443 14.929C14.4651 14.9473 14.4881 14.9643 14.5121 14.9799C14.5362 14.9958 14.5607 15.011 14.586 15.0245C14.6369 15.051 14.69 15.0729 14.7448 15.0901C14.7723 15.0983 14.8004 15.1053 14.8285 15.1112C14.885 15.1227 14.9425 15.1284 15.0002 15.1282C15.233 15.1276 15.4562 15.0351 15.6213 14.8709C15.6618 14.8298 15.6985 14.7851 15.7309 14.7374C15.7467 14.7133 15.7613 14.6887 15.7748 14.6635C15.7883 14.6383 15.8006 14.612 15.8117 14.5856C15.8228 14.5592 15.8322 14.5317 15.8404 14.5047C15.8491 14.4773 15.8562 14.4493 15.8615 14.4209C15.8673 14.3929 15.8715 14.3645 15.8743 14.336C15.8773 14.3071 15.8789 14.2782 15.8789 14.2492L15.879 14.2493ZM18.8087 14.2493C18.8087 14.0162 18.7161 13.7926 18.5513 13.6278C18.3865 13.463 18.1629 13.3704 17.9298 13.3704H17.9281C17.7544 13.3707 17.5846 13.4225 17.4403 13.5193C17.296 13.6161 17.1836 13.7535 17.1173 13.9141C17.0511 14.0747 17.0339 14.2514 17.068 14.4218C17.1021 14.5922 17.186 14.7486 17.3089 14.8713C17.4319 14.9941 17.5885 15.0776 17.759 15.1114C17.9294 15.1452 18.1061 15.1277 18.2666 15.0611C18.4271 14.9945 18.5642 14.8819 18.6607 14.7374C18.7572 14.5929 18.8087 14.423 18.8087 14.2493Z" fill="#F37329"/>
</svg>
