<svg width="80" height="80" viewBox="0 0 80 80" fill="none" xmlns="http://www.w3.org/2000/svg">
<g filter="url(#filter0_d_668_11597)">
<circle cx="40" cy="40" r="35" fill="#FDFDFD"/>
<circle cx="40" cy="40" r="33" stroke="#F37329" stroke-width="4" stroke-dasharray="2 2"/>
</g>
<g filter="url(#filter1_d_668_11597)">
<path d="M61.985 67.2334C57.5064 70.8489 52.2053 73.304 46.5513 74.3814C40.8972 75.4588 35.0647 75.1251 29.5704 73.4099C24.0761 71.6948 19.0896 68.6511 15.0526 64.5485C11.0156 60.4458 8.05265 55.4109 6.42629 49.8897C4.79992 44.3685 4.5603 38.5313 5.72867 32.8954C6.89703 27.2594 9.4373 21.9986 13.1245 17.5789C16.8117 13.1592 21.5319 9.71702 26.8671 7.55731C32.2024 5.3976 37.9879 4.587 43.7112 5.19732L43.2216 9.78888C38.2534 9.25908 33.2311 9.96274 28.5998 11.8375C23.9684 13.7123 19.8709 16.7003 16.6702 20.5369C13.4695 24.3735 11.2643 28.9403 10.2501 33.8327C9.23591 38.7251 9.44391 43.7921 10.8557 48.5849C12.2675 53.3777 14.8395 57.7484 18.3439 61.3097C21.8483 64.8711 26.177 67.5132 30.9464 69.0021C35.7158 70.491 40.7788 70.7806 45.6869 69.8454C50.5951 68.9102 55.1968 66.779 59.0845 63.6405L61.985 67.2334Z" fill="#F37329"/>
</g>
<g filter="url(#filter2_d_668_11597)">
<circle cx="40" cy="40" r="30" fill="#FDFDFD"/>
</g>
<path d="M54.5174 41.0922C54.5638 42.1998 54.1689 43.2805 53.4194 44.0973C52.67 44.9141 51.6271 45.4003 50.5196 45.4492C50.4548 45.4522 50.3902 45.4537 50.3256 45.4537C50.0314 45.4535 49.738 45.4217 49.4505 45.3587C48.5976 46.6756 47.4793 47.8 46.167 48.6599C44.8546 49.5198 43.3773 50.0964 41.8294 50.3527C41.6463 50.8905 41.2811 51.3475 40.7968 51.6446C40.3125 51.9417 39.7397 52.0603 39.1772 51.9799C38.6148 51.8994 38.0982 51.625 37.7166 51.204C37.335 50.783 37.1125 50.242 37.0876 49.6744C37.0626 49.1068 37.2368 48.5483 37.5799 48.0954C37.9231 47.6426 38.4137 47.3239 38.9669 47.1944C39.5201 47.0649 40.1011 47.1328 40.6096 47.3862C41.1181 47.6397 41.522 48.0629 41.7516 48.5826C43.9308 48.1796 45.8995 47.0246 47.3145 45.319C48.7296 43.6135 49.5013 41.4654 49.4951 39.2493C49.4951 34.0136 45.2356 29.7542 40 29.7542C34.7643 29.7542 30.5048 34.0136 30.5048 39.2493C30.5046 40.8682 30.9183 42.4603 31.7068 43.8743C31.7335 43.921 31.7536 43.9711 31.7664 44.0234C31.8425 44.235 31.8344 44.4679 31.7436 44.6737C31.6529 44.8796 31.4864 45.0427 31.2788 45.1292C30.7704 45.3432 30.2243 45.4534 29.6726 45.4533C29.6077 45.4533 29.5427 45.4518 29.4775 45.4488C28.3704 45.3993 27.3282 44.9128 26.5793 44.0961C25.8304 43.2793 25.436 42.1989 25.4825 41.0917C25.5012 40.6502 25.4907 40.2563 25.4805 39.8754C25.471 39.5167 25.4611 39.1458 25.4774 38.7588C25.526 37.6778 25.9911 36.6575 26.7751 35.9117C27.5591 35.1658 28.6013 34.7523 29.6834 34.7576C31.4211 30.7819 35.391 27.9963 40 27.9963C44.6089 27.9963 48.5789 30.7819 50.3166 34.7577C51.3988 34.7515 52.4413 35.1647 53.2255 35.9106C54.0096 36.6565 54.4744 37.677 54.5224 38.7582C54.5388 39.1458 54.5289 39.5166 54.5193 39.8753C54.5092 40.2563 54.4987 40.6504 54.5174 41.0922ZM47.3713 39.2493C47.3709 40.3786 47.1111 41.4927 46.612 42.5057C46.1129 43.5187 45.3877 44.4036 44.4926 45.092C43.5974 45.7805 42.556 46.2541 41.4488 46.4764C40.3416 46.6987 39.1981 46.6638 38.1066 46.3743L35.1229 48.0973C34.9724 48.1843 34.7994 48.2246 34.6259 48.2133C34.4525 48.2019 34.2863 48.1393 34.1483 48.0335C34.0104 47.9277 33.907 47.7833 33.8511 47.6187C33.7952 47.4541 33.7894 47.2766 33.8344 47.1087L34.597 44.2641C33.3342 42.8991 32.6315 41.1088 32.6289 39.2493C32.6289 35.1836 35.9354 31.8762 40 31.8762C44.0645 31.8762 47.3713 35.1836 47.3713 39.2493ZM37.9506 39.2493C37.9506 39.0162 37.858 38.7926 37.6932 38.6278C37.5284 38.463 37.3048 38.3704 37.0717 38.3704H37.0703C36.8965 38.3707 36.7267 38.4225 36.5824 38.5193C36.4381 38.6161 36.3257 38.7534 36.2594 38.9141C36.1932 39.0747 36.176 39.2514 36.2101 39.4217C36.2442 39.5921 36.328 39.7486 36.451 39.8713C36.574 39.9941 36.7306 40.0776 36.901 40.1114C37.0715 40.1452 37.2481 40.1277 37.4086 40.0611C37.5691 39.9945 37.7063 39.8819 37.8028 39.7374C37.8993 39.5929 37.9508 39.423 37.9508 39.2493H37.9506ZM40.879 39.2493C40.879 39.2205 40.8774 39.1917 40.8743 39.1631C40.8716 39.1344 40.8673 39.1059 40.8615 39.0776C40.8563 39.0494 40.8492 39.0216 40.8404 38.9944C40.8322 38.9668 40.8223 38.9399 40.8117 38.9129C40.8012 38.886 40.7883 38.8608 40.7748 38.8356C40.7614 38.8103 40.7467 38.7856 40.7309 38.7618C40.7148 38.7377 40.6976 38.7144 40.6792 38.692C40.6612 38.6696 40.6418 38.6483 40.6213 38.6282C40.6014 38.6077 40.5797 38.5883 40.5574 38.5696C40.5351 38.552 40.5117 38.5344 40.4876 38.5186C40.4638 38.5027 40.4392 38.488 40.4139 38.4747C40.3886 38.4612 40.3623 38.4489 40.3359 38.4377C40.3095 38.4267 40.2825 38.4171 40.2551 38.409C40.2003 38.3914 40.1437 38.38 40.0863 38.375C40.0002 38.3668 39.9134 38.3709 39.8285 38.3874C39.8002 38.3931 39.7723 38.4004 39.7448 38.409C39.7173 38.4171 39.6903 38.4267 39.6639 38.4377C39.6376 38.4489 39.6112 38.4612 39.586 38.4747C39.5608 38.4881 39.5362 38.5028 39.5121 38.5186C39.464 38.5505 39.4193 38.5872 39.3786 38.6282C39.358 38.6483 39.3386 38.6697 39.3205 38.692C39.3024 38.7144 39.2854 38.7377 39.2696 38.7618C39.2535 38.7856 39.2386 38.8102 39.2251 38.8356C39.2115 38.8607 39.1994 38.8865 39.1887 38.9129C39.1775 38.9396 39.1678 38.9668 39.1594 38.9944C39.1512 39.0213 39.1442 39.0495 39.1383 39.0776C39.1325 39.1059 39.1282 39.1344 39.1254 39.1631C39.1225 39.1918 39.1213 39.2206 39.1213 39.2493C39.1213 39.278 39.1225 39.3073 39.1254 39.336C39.1283 39.3645 39.1326 39.3929 39.1383 39.4209C39.1442 39.4491 39.1512 39.4772 39.1594 39.5047C39.1678 39.5322 39.1775 39.5592 39.1887 39.5856C39.1994 39.6122 39.2115 39.6382 39.2251 39.6635C39.2385 39.6887 39.2538 39.7133 39.2696 39.7374C39.2854 39.7613 39.3024 39.7843 39.3205 39.8065C39.3388 39.8289 39.3581 39.8505 39.3786 39.8709C39.3991 39.8909 39.4202 39.9108 39.443 39.929C39.4651 39.9473 39.4881 39.9643 39.5121 39.9799C39.5362 39.9958 39.5607 40.011 39.586 40.0245C39.6369 40.051 39.69 40.0729 39.7448 40.0901C39.7723 40.0983 39.8004 40.1053 39.8285 40.1112C39.885 40.1227 39.9425 40.1284 40.0002 40.1282C40.233 40.1276 40.4562 40.0351 40.6213 39.8709C40.6618 39.8298 40.6985 39.7851 40.7309 39.7374C40.7467 39.7133 40.7613 39.6887 40.7748 39.6635C40.7883 39.6383 40.8006 39.612 40.8117 39.5856C40.8228 39.5592 40.8322 39.5317 40.8404 39.5047C40.8491 39.4773 40.8562 39.4493 40.8615 39.4209C40.8673 39.3929 40.8715 39.3645 40.8743 39.336C40.8773 39.3071 40.8789 39.2782 40.8789 39.2492L40.879 39.2493ZM43.8087 39.2493C43.8087 39.0162 43.7161 38.7926 43.5513 38.6278C43.3865 38.463 43.1629 38.3704 42.9298 38.3704H42.9281C42.7544 38.3707 42.5846 38.4225 42.4403 38.5193C42.296 38.6161 42.1836 38.7535 42.1173 38.9141C42.0511 39.0747 42.0339 39.2514 42.068 39.4218C42.1021 39.5922 42.186 39.7486 42.3089 39.8713C42.4319 39.9941 42.5885 40.0776 42.759 40.1114C42.9294 40.1452 43.1061 40.1277 43.2666 40.0611C43.4271 39.9945 43.5642 39.8819 43.6607 39.7374C43.7572 39.5929 43.8087 39.423 43.8087 39.2493Z" fill="#F37329"/>
<defs>
<filter id="filter0_d_668_11597" x="0" y="0" width="80" height="80" filterUnits="userSpaceOnUse" color-interpolation-filters="sRGB">
<feFlood flood-opacity="0" result="BackgroundImageFix"/>
<feColorMatrix in="SourceAlpha" type="matrix" values="0 0 0 0 0 0 0 0 0 0 0 0 0 0 0 0 0 0 127 0" result="hardAlpha"/>
<feOffset/>
<feGaussianBlur stdDeviation="2.5"/>
<feComposite in2="hardAlpha" operator="out"/>
<feColorMatrix type="matrix" values="0 0 0 0 0 0 0 0 0 0 0 0 0 0 0 0 0 0 0.2 0"/>
<feBlend mode="normal" in2="BackgroundImageFix" result="effect1_dropShadow_668_11597"/>
<feBlend mode="normal" in="SourceGraphic" in2="effect1_dropShadow_668_11597" result="shape"/>
</filter>
<filter id="filter1_d_668_11597" x="0" y="0" width="66.9849" height="80" filterUnits="userSpaceOnUse" color-interpolation-filters="sRGB">
<feFlood flood-opacity="0" result="BackgroundImageFix"/>
<feColorMatrix in="SourceAlpha" type="matrix" values="0 0 0 0 0 0 0 0 0 0 0 0 0 0 0 0 0 0 127 0" result="hardAlpha"/>
<feOffset/>
<feGaussianBlur stdDeviation="2.5"/>
<feComposite in2="hardAlpha" operator="out"/>
<feColorMatrix type="matrix" values="0 0 0 0 0 0 0 0 0 0 0 0 0 0 0 0 0 0 0.2 0"/>
<feBlend mode="normal" in2="BackgroundImageFix" result="effect1_dropShadow_668_11597"/>
<feBlend mode="normal" in="SourceGraphic" in2="effect1_dropShadow_668_11597" result="shape"/>
</filter>
<filter id="filter2_d_668_11597" x="5" y="5" width="70" height="70" filterUnits="userSpaceOnUse" color-interpolation-filters="sRGB">
<feFlood flood-opacity="0" result="BackgroundImageFix"/>
<feColorMatrix in="SourceAlpha" type="matrix" values="0 0 0 0 0 0 0 0 0 0 0 0 0 0 0 0 0 0 127 0" result="hardAlpha"/>
<feOffset/>
<feGaussianBlur stdDeviation="2.5"/>
<feComposite in2="hardAlpha" operator="out"/>
<feColorMatrix type="matrix" values="0 0 0 0 0 0 0 0 0 0 0 0 0 0 0 0 0 0 0.2 0"/>
<feBlend mode="normal" in2="BackgroundImageFix" result="effect1_dropShadow_668_11597"/>
<feBlend mode="normal" in="SourceGraphic" in2="effect1_dropShadow_668_11597" result="shape"/>
</filter>
</defs>
</svg>
