<svg width="40" height="40" viewBox="0 0 40 40" fill="none" xmlns="http://www.w3.org/2000/svg">
<g clipPath="url(#clip0_1287_13882)">
<path d="M6.58657 12.2518L0.687504 10.1764L19.7639 3.46167L38.842 10.1764L37.9618 10.4862C37.9673 10.5241 37.9701 10.5624 37.9703 10.6007V17.1103H38.1188C38.1326 17.1093 38.1464 17.1135 38.1573 17.1222C38.1681 17.1309 38.1752 17.1434 38.1772 17.1572L39.0538 20.8593C39.0616 20.8925 39.0572 20.8984 39.0415 20.917C39.037 20.9252 39.0301 20.9318 39.0217 20.9359C39.0133 20.94 39.0038 20.9413 38.9946 20.9396H35.7242C35.7149 20.9413 35.7052 20.94 35.6966 20.936C35.688 20.9319 35.6809 20.9253 35.6763 20.917C35.6692 20.9107 35.6644 20.9022 35.6625 20.893C35.6606 20.8837 35.6618 20.8741 35.6658 20.8655L36.5402 17.1599C36.5425 17.1453 36.5501 17.1322 36.5615 17.1229C36.573 17.1137 36.5875 17.1092 36.6022 17.1101H36.748V10.9132L32.9413 12.2527C32.9274 12.2564 32.9137 12.2611 32.9003 12.2667L32.8777 12.2754L19.7639 16.8886L6.65282 12.2754H6.65204C6.63075 12.2661 6.60888 12.2582 6.58657 12.2518ZM17.6903 27.0752C17.6901 28.8245 17.1713 30.5345 16.1993 31.989C15.2273 33.4434 13.8459 34.577 12.2297 35.2464C10.6135 35.9157 8.83506 36.0908 7.11935 35.7495C5.40363 35.4082 3.82766 34.5658 2.59069 33.3288C1.35372 32.0918 0.511323 30.5159 0.170003 28.8001C-0.171317 27.0844 0.00377461 25.306 0.673137 23.6898C1.3425 22.0736 2.47607 20.6922 3.93052 19.7202C5.38497 18.7482 7.09497 18.2293 8.8443 18.2292C11.1897 18.2316 13.4383 19.1644 15.0967 20.8228C16.7551 22.4812 17.6879 24.7298 17.6903 27.0752ZM16.397 27.0752C16.3971 25.5816 15.9544 24.1215 15.1247 22.8795C14.2951 21.6375 13.1157 20.6694 11.7359 20.0977C10.3561 19.526 8.83766 19.3762 7.37272 19.6675C5.90778 19.9587 4.5621 20.6778 3.50584 21.7338C2.44958 22.7898 1.73019 24.1353 1.43864 25.6002C1.14708 27.0651 1.29646 28.5835 1.86788 29.9635C2.4393 31.3435 3.4071 32.523 4.64889 33.3529C5.89068 34.1829 7.3507 34.626 8.8443 34.6261C10.8464 34.6239 12.7659 33.8277 14.1818 32.4122C15.5977 30.9966 16.3943 29.0773 16.397 27.0752ZM15.1752 27.0752C15.1749 28.3269 14.8035 29.5505 14.1079 30.5912C13.4123 31.6319 12.4238 32.443 11.2673 32.9219C10.1108 33.4008 8.83821 33.5261 7.61052 33.2818C6.38283 33.0375 5.25513 32.4347 4.37 31.5496C3.48487 30.6645 2.88206 29.5368 2.63779 28.3091C2.39351 27.0814 2.51874 25.8089 2.99764 24.6524C3.47654 23.4958 4.28761 22.5073 5.32829 21.8117C6.36898 21.1161 7.59255 20.7447 8.8443 20.7444C10.5229 20.746 12.1322 21.4134 13.3192 22.6004C14.5061 23.7873 15.1736 25.3966 15.1752 27.0752ZM11.2906 28.9088C11.2897 28.2604 11.0317 27.6389 10.573 27.1806C10.1144 26.7223 9.49267 26.4647 8.8443 26.4643C8.61997 26.4644 8.39995 26.4028 8.20823 26.2863C8.01652 26.1698 7.86049 26.0029 7.75718 25.8038C7.65387 25.6047 7.60725 25.381 7.62241 25.1572C7.63756 24.9333 7.71391 24.718 7.84312 24.5346C7.97232 24.3512 8.14943 24.2069 8.35509 24.1173C8.56075 24.0277 8.78708 23.9963 9.00935 24.0266C9.23162 24.0569 9.44131 24.1477 9.61551 24.289C9.78972 24.4303 9.92175 24.6168 9.99719 24.8281C10.024 24.9037 10.0655 24.9733 10.1192 25.033C10.1729 25.0926 10.2378 25.141 10.3103 25.1755C10.3827 25.2101 10.4613 25.23 10.5414 25.2341C10.6216 25.2383 10.7017 25.2267 10.7774 25.1998C10.853 25.173 10.9226 25.1316 10.9823 25.0778C11.0419 25.0241 11.0903 24.9592 11.1248 24.8867C11.1594 24.8143 11.1793 24.7357 11.1835 24.6556C11.1876 24.5755 11.176 24.4953 11.1491 24.4196C11.0147 24.0429 10.79 23.7048 10.4947 23.4349C10.1994 23.1651 9.84253 22.9716 9.45524 22.8714V22.0781C9.45524 21.916 9.39087 21.7607 9.2763 21.6461C9.16173 21.5315 9.00633 21.4671 8.8443 21.4671C8.68227 21.4671 8.52688 21.5315 8.4123 21.6461C8.29773 21.7607 8.23336 21.916 8.23336 22.0781V22.8705C7.65715 23.0197 7.15508 23.3738 6.82115 23.8665C6.48722 24.3593 6.34433 24.9568 6.41924 25.5473C6.49415 26.1378 6.78172 26.6807 7.22811 27.0744C7.67449 27.4682 8.24908 27.6857 8.8443 27.6863C9.06843 27.6862 9.28829 27.7476 9.47989 27.8639C9.67148 27.9802 9.82746 28.1469 9.93078 28.3458C10.0341 28.5447 10.0808 28.7681 10.0658 28.9917C10.0508 29.2154 9.97471 29.4306 9.84575 29.6139C9.7168 29.7972 9.53997 29.9416 9.33456 30.0313C9.12915 30.1209 8.90306 30.1525 8.68095 30.1224C8.45884 30.0924 8.24926 30.0019 8.07506 29.8609C7.90086 29.7198 7.76875 29.5337 7.69313 29.3227C7.63885 29.1699 7.52612 29.045 7.37972 28.9754C7.23333 28.9057 7.06526 28.8971 6.9125 28.9514C6.75975 29.0056 6.6348 29.1184 6.56517 29.2648C6.49553 29.4112 6.4869 29.5792 6.54118 29.732C6.67569 30.1081 6.90023 30.4457 7.1952 30.7151C7.49016 30.9845 7.84659 31.1776 8.23336 31.2776V32.0726C8.23336 32.2346 8.29773 32.39 8.4123 32.5046C8.52688 32.6192 8.68227 32.6835 8.8443 32.6835C9.00633 32.6835 9.16173 32.6192 9.2763 32.5046C9.39087 32.39 9.45524 32.2346 9.45524 32.0726V31.2783C9.98018 31.142 10.4451 30.8355 10.7772 30.4067C11.1093 29.9779 11.2898 29.4511 11.2906 28.9088ZM40 24.7939V36.5296C37.1497 35.2999 34.2391 35.303 31.3242 36.5382V24.7991C31.9315 24.5074 32.5631 24.2696 33.2119 24.0882H33.2127C33.2556 24.0822 33.2976 24.0711 33.3377 24.055C33.3386 24.055 33.3395 24.055 33.3395 24.0541C35.584 23.4673 37.7824 23.7135 40 24.7939ZM32.4168 26.5638C32.4587 26.6836 32.5368 26.7874 32.6403 26.8609C32.7438 26.9344 32.8676 26.9739 32.9945 26.9739C33.0629 26.9741 33.1308 26.9626 33.1953 26.94C34.7828 26.3866 36.4201 26.3892 38.2022 26.946C38.2788 26.97 38.3593 26.9786 38.4392 26.9715C38.5191 26.9643 38.5968 26.9415 38.6679 26.9043C38.7389 26.8671 38.802 26.8162 38.8534 26.7546C38.9048 26.6931 38.9436 26.622 38.9676 26.5454C38.9915 26.4689 39.0002 26.3883 38.993 26.3084C38.9858 26.2285 38.963 26.1508 38.9258 26.0798C38.8886 26.0087 38.8377 25.9456 38.7762 25.8942C38.7146 25.8428 38.6435 25.804 38.567 25.78C36.5536 25.15 34.6109 25.1526 32.793 25.7862C32.64 25.8395 32.5144 25.9513 32.4439 26.0971C32.3734 26.2429 32.3636 26.4108 32.4168 26.5638ZM32.4168 29.127C32.4587 29.2468 32.5368 29.3507 32.6403 29.4242C32.7438 29.4977 32.8676 29.5372 32.9945 29.5372C33.0629 29.537 33.1307 29.5255 33.1953 29.5032C34.7828 28.9498 36.4201 28.9516 38.2022 29.5093C38.3567 29.5567 38.5236 29.541 38.6666 29.4657C38.8095 29.3904 38.9169 29.2616 38.9651 29.1073C39.0133 28.9531 38.9985 28.7861 38.9239 28.6427C38.8493 28.4994 38.7209 28.3914 38.567 28.3425C36.5545 27.7132 34.6109 27.715 32.793 28.3485C32.64 28.4021 32.5145 28.5141 32.444 28.66C32.3735 28.8059 32.3637 28.9739 32.4168 29.127ZM38.567 33.4662C36.5545 32.837 34.6109 32.8387 32.793 33.4724C32.6568 33.52 32.5418 33.6143 32.4685 33.7385C32.3951 33.8628 32.3682 34.009 32.3923 34.1512C32.4165 34.2935 32.4902 34.4226 32.6004 34.5157C32.7106 34.6088 32.8503 34.6599 32.9945 34.6599C33.0629 34.6601 33.1308 34.6486 33.1953 34.6259C34.7828 34.0725 36.4201 34.0752 38.2022 34.632C38.2788 34.6559 38.3593 34.6646 38.4392 34.6574C38.5191 34.6502 38.5968 34.6274 38.6679 34.5902C38.7389 34.553 38.802 34.5022 38.8534 34.4406C38.9048 34.379 38.9436 34.3079 38.9676 34.2314C38.9915 34.1548 39.0002 34.0743 38.993 33.9944C38.9858 33.9145 38.963 33.8368 38.9258 33.7657C38.8886 33.6946 38.8377 33.6316 38.7762 33.5801C38.7146 33.5287 38.6435 33.4899 38.567 33.466V33.4662ZM38.5679 30.9057C36.558 30.2746 34.6152 30.2764 32.793 30.9118C32.6565 30.9593 32.5413 31.0536 32.4677 31.178C32.3942 31.3024 32.3671 31.4488 32.3912 31.5913C32.4154 31.7338 32.4893 31.8631 32.5997 31.9563C32.7101 32.0495 32.85 32.1006 32.9945 32.1004C33.063 32.1003 33.1309 32.0885 33.1953 32.0655C34.7863 31.5113 36.4235 31.5139 38.2013 32.0716C38.2779 32.0957 38.3584 32.1044 38.4384 32.0974C38.5183 32.0903 38.5961 32.0676 38.6672 32.0304C38.7384 31.9933 38.8015 31.9426 38.8531 31.881C38.9046 31.8195 38.9435 31.7485 38.9676 31.6719C38.9917 31.5954 39.0004 31.5148 38.9933 31.4349C38.9863 31.3549 38.9636 31.2772 38.9264 31.206C38.8893 31.1349 38.8386 31.0717 38.777 31.0202C38.7155 30.9686 38.6445 30.9297 38.5679 30.9057ZM30.1023 24.7991V36.5382C28.6405 35.9195 27.1828 35.61 25.7291 35.6096C24.2461 35.6176 22.7806 35.9308 21.4238 36.5296V24.7947C24.3031 23.3923 27.149 23.3949 30.1023 24.7991ZM28.6143 33.4662C26.6018 32.837 24.6582 32.8387 22.8403 33.4724C22.7043 33.5202 22.5896 33.6145 22.5164 33.7387C22.4432 33.8629 22.4163 34.009 22.4404 34.1511C22.4645 34.2932 22.5381 34.4223 22.6482 34.5154C22.7583 34.6085 22.8977 34.6597 23.0419 34.6599C23.1103 34.6601 23.1782 34.6486 23.2427 34.6259C24.8302 34.0725 26.4683 34.0752 28.2495 34.632C28.3261 34.6559 28.4066 34.6646 28.4865 34.6574C28.5664 34.6502 28.6441 34.6274 28.7152 34.5902C28.7863 34.553 28.8493 34.5022 28.9008 34.4406C28.9522 34.379 28.991 34.3079 29.0149 34.2314C29.0389 34.1548 29.0475 34.0743 29.0403 33.9944C29.0332 33.9145 29.0103 33.8368 28.9731 33.7657C28.9359 33.6946 28.8851 33.6316 28.8235 33.5801C28.762 33.5287 28.6909 33.4899 28.6143 33.466V33.4662ZM22.4651 31.6902C22.5066 31.8101 22.5845 31.914 22.6879 31.9875C22.7913 32.061 22.915 32.1005 23.0419 32.1004C23.1103 32.1003 23.1782 32.0885 23.2427 32.0655C24.8337 31.5113 26.4709 31.5131 28.2495 32.0716C28.4041 32.1201 28.5717 32.1052 28.7153 32.0301C28.8589 31.9551 28.9669 31.8261 29.0154 31.6715C29.0639 31.5169 29.0489 31.3493 28.9739 31.2057C28.8989 31.0621 28.7699 30.9542 28.6152 30.9057C26.6053 30.2746 24.6626 30.2773 22.8403 30.9118C22.7645 30.9381 22.6947 30.9792 22.6347 31.0327C22.5748 31.0861 22.5261 31.1508 22.4912 31.2231C22.4563 31.2954 22.4361 31.3739 22.4316 31.4541C22.4271 31.5342 22.4385 31.6144 22.4651 31.6902ZM28.6143 28.3425C26.6018 27.7132 24.6582 27.715 22.8403 28.3485C22.7041 28.3963 22.5892 28.4907 22.5159 28.615C22.4426 28.7394 22.4156 28.8856 22.4397 29.0279C22.4639 29.1702 22.5375 29.2994 22.6477 29.3926C22.7579 29.4858 22.8975 29.537 23.0419 29.5372C23.1102 29.537 23.1781 29.5255 23.2427 29.5032C24.8302 28.9498 26.4683 28.9516 28.2495 29.5093C28.3263 29.5337 28.4071 29.5427 28.4873 29.5358C28.5675 29.5288 28.6456 29.5061 28.717 29.469C28.7885 29.4318 28.8519 29.3809 28.9035 29.3191C28.9552 29.2574 28.9942 29.186 29.0182 29.1091C29.0423 29.0323 29.0509 28.9514 29.0436 28.8712C29.0362 28.791 29.0132 28.7131 28.9756 28.6418C28.9381 28.5706 28.8868 28.5075 28.8248 28.4561C28.7628 28.4047 28.6913 28.3661 28.6143 28.3425ZM28.6143 25.78C26.6018 25.1499 24.6591 25.1525 22.8403 25.7861C22.7043 25.8339 22.5896 25.9282 22.5164 26.0524C22.4432 26.1766 22.4163 26.3227 22.4404 26.4649C22.4645 26.607 22.5381 26.736 22.6482 26.8291C22.7583 26.9222 22.8977 26.9734 23.0419 26.9736C23.1103 26.9738 23.1782 26.9623 23.2427 26.9396C24.8302 26.3863 26.4674 26.3889 28.2495 26.9457C28.3261 26.9697 28.4066 26.9783 28.4865 26.9712C28.5664 26.964 28.6441 26.9411 28.7152 26.9039C28.7863 26.8667 28.8493 26.8159 28.9008 26.7543C28.9522 26.6928 28.991 26.6217 29.0149 26.5451C29.0389 26.4685 29.0475 26.388 29.0403 26.3081C29.0332 26.2282 29.0103 26.1505 28.9731 26.0794C28.9359 26.0084 28.8851 25.9453 28.8235 25.8939C28.762 25.8425 28.6909 25.8037 28.6143 25.7797V25.78ZM32.5041 13.7014L19.9664 18.1122C19.8352 18.1588 19.6919 18.1588 19.5606 18.1122L7.02547 13.7014V17.1723C7.62542 17.0617 8.23424 17.0062 8.8443 17.0065C14.3958 17.0065 18.913 21.5238 18.913 27.0752C18.9132 27.5006 18.8864 27.9256 18.8327 28.3477C19.2883 28.352 19.7456 28.3477 20.2012 28.3346V24.4186C20.2012 24.3069 20.2318 24.1974 20.2896 24.1019C20.3475 24.0063 20.4303 23.9284 20.5293 23.8767C23.8666 22.1312 27.2913 22.084 30.7133 23.736C31.2916 23.4553 31.8902 23.2184 32.5041 23.0274V13.7014Z" fill="#F37329"/>
</g>
<defs>
<clipPath id="clip0_1287_13882">
<rect width="40" height="40" fill="white"/>
</clipPath>
</defs>
</svg>
