<svg width="40" height="40" viewBox="0 0 40 40" fill="none" xmlns="http://www.w3.org/2000/svg">
<path d="M38.7883 32.8484H37.3337V11.3939C37.3337 11.0909 37.0307 10.7878 36.7277 10.7878H32.7277V12H36.1216V32.8484H24.6671C24.0004 32.8484 23.4549 33.3939 23.4549 34.0606V34.3636H16.5458V34.0606C16.5458 33.3939 16.0004 32.8484 15.3337 32.8484H3.87917V12H7.27311V10.7878H3.27311C2.97008 10.7878 2.66705 11.0909 2.66705 11.3939V32.8484H1.21251C0.909476 32.8484 0.606445 33.1515 0.606445 33.4545V35.2727C0.606445 36.9697 2.00038 38.303 3.63675 38.303H36.364C38.061 38.303 39.3943 36.9697 39.3943 35.2727V33.4545C39.3943 33.0909 39.1519 32.8484 38.7883 32.8484Z" fill="#F37329"/>
<path d="M18.0007 19.697C18.0007 21.5152 16.4855 23.0303 14.6673 23.0303C12.8491 23.0303 11.334 21.5152 11.334 19.697C11.334 17.8788 12.8491 16.3636 14.6673 16.3636C16.5461 16.3636 18.0007 17.8788 18.0007 19.697Z" fill="#F37329"/>
<path d="M20.849 28C20.849 30.1818 17.5157 30.9091 14.6672 30.9091C11.8187 30.9091 8.48535 30.1818 8.48535 28C8.48535 25.8182 9.63687 23.8788 11.3338 22.7879C12.1823 23.697 13.3338 24.2424 14.6672 24.2424C16.0005 24.2424 17.152 23.697 18.0005 22.7879C19.6975 23.8788 20.849 25.8182 20.849 28ZM30.3035 1.75757H9.69747C9.03081 1.75757 8.48535 2.30302 8.48535 2.96969V13.2727C8.48535 13.9394 9.03081 14.4848 9.69747 14.4848H25.152L28.0005 17.3939C28.3641 17.7576 28.9096 17.5758 29.0308 17.0909L29.5157 14.5454H30.3035C30.9702 14.5454 31.5157 14 31.5157 13.3333V3.0303C31.5157 2.30302 30.9702 1.75757 30.3035 1.75757ZM27.2732 10.4848H12.7278C12.3641 10.4848 12.1217 10.1818 12.1217 9.87878C12.1217 9.51514 12.3641 9.27272 12.7278 9.27272H27.2732C27.6369 9.27272 27.8793 9.51514 27.8793 9.87878C27.8793 10.1818 27.6369 10.4848 27.2732 10.4848ZM27.2732 6.84848H12.7278C12.3641 6.84848 12.1217 6.54545 12.1217 6.24242C12.1217 5.87878 12.3641 5.63636 12.7278 5.63636H27.2732C27.6369 5.63636 27.8793 5.87878 27.8793 6.24242C27.8793 6.54545 27.6369 6.84848 27.2732 6.84848ZM30.9096 20.6061H23.6975C23.3338 20.6061 23.0914 20.3636 23.0914 20C23.0914 19.6364 23.3338 19.3939 23.6975 19.3939H30.9096C31.2732 19.3939 31.5157 19.6364 31.5157 20C31.5157 20.3636 31.2732 20.6061 30.9096 20.6061ZM30.9096 24.2424H23.6975C23.3338 24.2424 23.0914 24 23.0914 23.6364C23.0914 23.2727 23.3338 23.0303 23.6975 23.0303H30.9096C31.2732 23.0303 31.5157 23.2727 31.5157 23.6364C31.5157 24 31.2732 24.2424 30.9096 24.2424ZM30.9096 27.8788H23.6975C23.3338 27.8788 23.0914 27.6364 23.0914 27.2727C23.0914 26.9091 23.3338 26.6667 23.6975 26.6667H30.9096C31.2732 26.6667 31.5157 26.9091 31.5157 27.2727C31.5157 27.6364 31.2732 27.8788 30.9096 27.8788Z" fill="#F37329"/>
</svg>
