<svg width="40" height="40" viewBox="0 0 40 40" fill="none" xmlns="http://www.w3.org/2000/svg">
<g clipPath="url(#clip0_1289_13421)">
<path d="M12.6185 14.7679H16.5359V24.1602H12.6185V14.7679ZM20.4398 24.1602H24.3572V10.8698H20.4398V24.1602ZM28.2613 24.1602H32.1787V7.06922H28.2613V24.1602ZM36.0827 24.1602H40V3.3661H36.0827V24.1602ZM30.5839 30.7132L29.2594 27.3967C29.2411 27.351 29.2335 27.3017 29.2373 27.2526C29.241 27.2035 29.256 27.1559 29.281 27.1134C29.3432 27.0077 29.404 26.9011 29.4632 26.7936H25.4429C23.3984 29.2823 20.3917 30.7063 17.1684 30.7063C11.2649 30.7063 6.46203 25.9034 6.46203 20C6.46203 17.167 7.55789 14.4966 9.54789 12.4805C11.5126 10.4899 14.1259 9.36188 16.9164 9.29751L20.9895 6.47977C20.8936 6.45258 20.798 6.42657 20.7031 6.40188C20.6555 6.38951 20.6114 6.36641 20.5741 6.33436C20.5369 6.30231 20.5074 6.26215 20.488 6.21696L19.0799 2.93766C18.4453 2.8672 17.8073 2.83165 17.1688 2.83118C16.5378 2.83118 15.8956 2.86696 15.2573 2.93758L13.8491 6.21696C13.8298 6.26216 13.8003 6.30232 13.763 6.33438C13.7257 6.36643 13.6816 6.38952 13.634 6.40188C12.3781 6.7289 11.1737 7.2287 10.0552 7.88696C10.0128 7.91187 9.96523 7.92676 9.91616 7.93048C9.86709 7.93421 9.81782 7.92667 9.77211 7.90844L6.45523 6.58422C5.4571 7.38236 4.55064 8.28882 3.7525 9.28696L5.07672 12.6032C5.09497 12.6489 5.10252 12.6982 5.09879 12.7473C5.09507 12.7963 5.08017 12.8439 5.05523 12.8863C4.39714 14.0049 3.89763 15.2095 3.57102 16.4655C3.55867 16.5131 3.53558 16.5573 3.50352 16.5946C3.47145 16.632 3.43125 16.6615 3.38602 16.6809L0.106172 18.0888C0.0356453 18.7236 0.000200849 19.3618 0 20.0006C0 20.6343 0.0357031 21.2763 0.106172 21.9113L3.38578 23.3191C3.431 23.3386 3.47118 23.3681 3.50325 23.4054C3.53531 23.4428 3.55841 23.487 3.57078 23.5346C3.89736 24.7906 4.39688 25.9952 5.055 27.1137C5.07994 27.1561 5.09484 27.2037 5.09856 27.2528C5.10228 27.3018 5.09473 27.3511 5.07648 27.3968L3.75227 30.7132C4.55034 31.7114 5.45681 32.6179 6.455 33.4159L9.77188 32.0917C9.81758 32.0735 9.86685 32.0659 9.91592 32.0696C9.96498 32.0734 10.0126 32.0882 10.055 32.1131C11.1731 32.7715 12.3775 33.2709 13.6334 33.5968C13.6811 33.6091 13.7253 33.6322 13.7626 33.6643C13.8 33.6964 13.8295 33.7366 13.8489 33.7818L15.257 37.0625C15.8918 37.1329 16.5299 37.1685 17.1686 37.1689C17.7986 37.1689 18.4406 37.1331 19.0797 37.0624L20.4878 33.7818C20.5072 33.7366 20.5367 33.6964 20.5741 33.6643C20.6114 33.6322 20.6556 33.6091 20.7033 33.5968C21.9592 33.2707 23.1636 32.7714 24.2818 32.1131C24.3242 32.0882 24.3718 32.0734 24.4209 32.0696C24.4699 32.0659 24.5192 32.0735 24.5649 32.0917L27.881 33.4159C28.8794 32.618 29.7859 31.7115 30.5839 30.7132Z" fill="#F37329"/>
</g>
<defs>
<clipPath id="clip0_1289_13421">
<rect width="40" height="40" fill="white"/>
</clipPath>
</defs>
</svg>
