<svg width="86" height="86" viewBox="0 0 86 86" fill="none" xmlns="http://www.w3.org/2000/svg">
<circle cx="43" cy="43" r="42.5" stroke="#FDFDFD" stroke-dasharray="2 2"/>
<circle cx="43" cy="43" r="35" fill="#FDFDFD"/>
<g clip-path="url(#clip0_1315_13894)">
<path d="M44.2725 27.809C42.1421 25.9973 39.3202 25 36.3269 25C33.3337 25 30.5124 25.9973 28.382 27.809C26.2011 29.6626 25 32.1427 25 34.792C25 37.4412 26.2011 39.9214 28.382 41.775C30.4156 43.5043 33.0793 44.4915 35.9208 44.5782L40.4909 48.4683C40.8129 48.7437 41.2668 48.8034 41.6478 48.6272C41.8357 48.5404 41.9948 48.4015 42.1064 48.2271C42.2179 48.0527 42.2772 47.85 42.2773 47.643V43.1286C45.6116 41.3515 47.6545 38.2123 47.6545 34.792C47.6545 32.1427 46.4535 29.6626 44.2725 27.809ZM31.991 35.876C31.3926 35.876 30.907 35.3904 30.907 34.792C30.907 34.1936 31.3926 33.708 31.991 33.708C32.5901 33.708 33.075 34.1936 33.075 34.792C33.075 35.3904 32.5901 35.876 31.991 35.876ZM36.3269 35.876C35.7286 35.876 35.2429 35.3904 35.2429 34.792C35.2429 34.1936 35.7286 33.708 36.3269 33.708C36.9253 33.708 37.4109 34.1936 37.4109 34.792C37.4109 35.3904 36.9253 35.876 36.3269 35.876ZM40.6629 35.876C40.0645 35.876 39.5789 35.3904 39.5789 34.792C39.5789 34.1936 40.0645 33.708 40.6629 33.708C41.2619 33.708 41.7468 34.1936 41.7468 34.792C41.7468 35.3904 41.2619 35.876 40.6629 35.876Z" fill="#F37329"/>
<path d="M62.0004 34.7913C62.0004 37.4405 60.7993 39.9207 58.6183 41.775C56.4879 43.5867 53.6667 44.584 50.6734 44.584C48.8683 44.584 47.1223 44.2198 45.5534 43.5318C48.1693 41.4004 49.8467 38.1367 49.8229 34.792C49.8283 31.4483 48.2882 28.3155 45.5527 26.0522C47.1216 25.3642 48.8675 25 50.6734 25C53.6667 25 56.4879 25.9973 58.6183 27.8082C60.7993 29.6626 62.0004 32.1427 62.0004 34.7913ZM60.1887 59.4338V60.9962C60.1887 61.5505 59.7392 62 59.1849 62H47.605C47.0508 62 46.6006 61.5505 46.6006 60.9962V59.4338C46.6006 57.5137 47.4367 55.7165 48.8285 54.475C49.9306 55.7664 51.5688 56.5866 53.395 56.5866C55.2211 56.5866 56.8594 55.7664 57.9614 54.475C59.3533 55.7165 60.1887 57.5137 60.1887 59.4338ZM27.3848 62H39.8882C40.4865 62 40.9721 61.5144 40.9721 60.916V60.4579C40.9721 58.1475 39.852 56.002 38.0295 54.6687C37.1753 55.5886 36.0364 56.2397 34.7537 56.4825V58.5717C34.7537 59.1701 34.2688 59.6557 33.6697 59.6557C33.6589 59.6557 33.6473 59.6557 33.6365 59.655C33.0533 59.6376 32.5857 59.1592 32.5857 58.5717V56.4941C31.2763 56.2621 30.1128 55.6045 29.2434 54.6687C27.4209 56.002 26.3008 58.1475 26.3008 60.4579V60.916C26.3008 61.5144 26.7864 62 27.3848 62ZM33.6365 54.4186C35.7504 54.4186 37.4695 52.6989 37.4695 50.585C37.4695 48.4717 35.7505 46.752 33.6365 46.752C31.5226 46.752 29.8035 48.4717 29.8035 50.585C29.8034 52.6989 31.5225 54.4186 33.6365 54.4186ZM53.3948 54.4186C55.5087 54.4186 57.2279 52.6989 57.2279 50.585C57.2279 48.4717 55.5088 46.752 53.3948 46.752C51.2809 46.752 49.5619 48.4717 49.5619 50.585C49.5619 52.6989 51.2809 54.4186 53.3948 54.4186Z" fill="#F37329"/>
</g>
<defs>
<clipPath id="clip0_1315_13894">
<rect width="37" height="37" fill="white" transform="translate(25 25)"/>
</clipPath>
</defs>
</svg>
