<svg width="86" height="86" viewBox="0 0 86 86" fill="none" xmlns="http://www.w3.org/2000/svg">
<circle cx="43" cy="43" r="42.5" stroke="#FDFDFD" stroke-dasharray="2 2"/>
<circle cx="43" cy="43" r="35" fill="#FDFDFD"/>
<path d="M36.8516 29.0469H41.4766C41.7945 29.0469 42.0547 28.7867 42.0547 28.4688V27.3125H36.2734V28.4688C36.2734 28.7867 36.5336 29.0469 36.8516 29.0469Z" fill="#F37329"/>
<path d="M47.7666 53.8889C34.8281 52.6795 34.8385 34.3147 47.7666 33.1111C48.1748 33.088 48.584 33.088 48.9922 33.1111V30.2031C48.9922 28.6075 47.6972 27.3125 46.1016 27.3125H43.2109V28.4688C43.2109 29.4227 42.4305 30.2031 41.4766 30.2031H36.8516C35.8977 30.2031 35.1172 29.4227 35.1172 28.4688V27.3125H32.2266C30.6309 27.3125 29.3359 28.6075 29.3359 30.2031V56.7969C29.3359 58.3925 30.6309 59.6875 32.2266 59.6875H46.1016C47.6972 59.6875 48.9922 58.3925 48.9922 56.7969V53.8889C48.5904 53.9138 48.1684 53.9103 47.7666 53.8889Z" fill="#F37329"/>
<path d="M48.4141 34.25C43.315 34.25 39.1641 38.4009 39.1641 43.5C39.1641 45.9802 40.1527 48.2348 41.7483 49.8998C42.5056 47.9053 44.1302 46.3559 46.1189 45.668C45.6355 45.3113 45.2424 44.8461 44.9713 44.31C44.7003 43.7738 44.5587 43.1816 44.558 42.5808C44.558 40.4591 46.2866 38.7305 48.4141 38.7305C50.5416 38.7305 52.2702 40.4591 52.2702 42.5808C52.2702 43.8469 51.6516 44.9684 50.7092 45.668C52.698 46.3559 54.3225 47.9053 55.0798 49.8998C56.6755 48.2348 57.6641 45.9802 57.6641 43.5C57.6641 38.4009 53.5131 34.25 48.4141 34.25Z" fill="#F37329"/>
<path d="M51.1136 42.5808C51.1136 41.095 49.8996 39.8867 48.4138 39.8867C46.928 39.8867 45.7139 41.095 45.7139 42.5808C45.7139 44.0723 46.928 45.2806 48.4138 45.2806C49.8996 45.2806 51.1136 44.0723 51.1136 42.5808ZM48.4138 46.4369C45.766 46.4369 43.413 48.2291 42.6846 50.7439C44.2629 51.9984 46.2516 52.75 48.4138 52.75C50.5818 52.75 52.5705 51.9984 54.1488 50.7439C53.4146 48.2291 51.0616 46.4369 48.4138 46.4369Z" fill="#F37329"/>
</svg>
