<svg width="86" height="86" viewBox="0 0 86 86" fill="none" xmlns="http://www.w3.org/2000/svg">
<circle cx="43" cy="43" r="42.5" stroke="#FDFDFD" stroke-dasharray="2 2"/>
<circle cx="43" cy="43" r="35" fill="#FDFDFD"/>
<path d="M42.9223 48.5875V46.4369C42.3384 46.46 41.7602 46.5121 41.1937 46.5988C41.6446 47.6047 42.2516 48.3274 42.9223 48.5933V48.5875ZM40.3785 41.7656H42.9223V39.4416C42.1996 39.4185 41.4827 39.3433 40.7832 39.2219C40.5635 39.9908 40.419 40.8522 40.3785 41.7656ZM40.789 45.483C41.4885 45.3674 42.2054 45.3038 42.9223 45.2806V42.9219H40.3785C40.419 43.8411 40.5693 44.7083 40.789 45.483ZM41.1937 38.0946C41.7602 38.1813 42.3384 38.2333 42.9223 38.2564V36.1058C42.2459 36.3717 41.6446 37.0944 41.1937 38.1003V38.0946ZM39.6501 38.9791C39.2165 38.8692 38.7887 38.7421 38.3782 38.5917C37.7134 39.4994 37.2798 40.5863 37.1699 41.7656H39.2223C39.2627 40.7655 39.413 39.8231 39.6501 38.9791ZM39.228 47.0439C39.6559 47.4371 40.1415 47.7666 40.6676 48.0325C40.4305 47.6741 40.2166 47.2694 40.0316 46.8242C39.7599 46.8878 39.4882 46.963 39.228 47.0439ZM47.7727 37.6436C47.3449 37.2505 46.8593 36.921 46.3332 36.655C46.5702 37.0135 46.7841 37.4181 46.9691 37.8633C47.2409 37.7997 47.5126 37.7246 47.7727 37.6436ZM40.6676 36.655C40.1415 36.9152 39.6616 37.2505 39.228 37.6436C39.494 37.7246 39.7599 37.7997 40.0316 37.8633C40.2166 37.4181 40.4305 37.0135 40.6676 36.655ZM39.2223 42.9219H37.1699C37.2798 44.1071 37.7134 45.1997 38.384 46.1074C38.7945 45.9628 39.2165 45.8299 39.6501 45.7258C39.413 44.876 39.257 43.9278 39.2165 42.9219H39.2223ZM44.0785 36.1V38.2506C44.6624 38.2275 45.2405 38.1755 45.8071 38.0888C45.3562 37.0828 44.7491 36.3602 44.0785 36.0942V36.1ZM47.3449 45.7258C47.7785 45.8356 48.2005 45.9628 48.611 46.1074C49.2816 45.1997 49.721 44.1071 49.8251 42.9219H47.7727C47.7323 43.9278 47.582 44.876 47.3391 45.7258H47.3449ZM47.3507 38.9791C47.5877 39.8231 47.738 40.7655 47.7785 41.7656H49.8309C49.721 40.5863 49.2874 39.4994 48.6226 38.5917C48.2121 38.7421 47.7843 38.8692 47.3507 38.9791Z" fill="#F37329"/>
<path d="M53.3281 31.9375H32.5156V58.5312C32.5156 59.1672 33.0359 59.6875 33.6719 59.6875H53.3281C53.9641 59.6875 54.4844 59.1672 54.4844 58.5312V33.0938C54.4844 32.4578 53.9641 31.9375 53.3281 31.9375ZM50.1484 56.7969H36.8516C36.5336 56.7969 36.2734 56.5367 36.2734 56.2188C36.2734 55.9008 36.5336 55.6406 36.8516 55.6406H50.1484C50.4664 55.6406 50.7266 55.9008 50.7266 56.2188C50.7266 56.5367 50.4664 56.7969 50.1484 56.7969ZM38.2969 53.3281C38.2969 53.0102 38.557 52.75 38.875 52.75H48.125C48.443 52.75 48.7031 53.0102 48.7031 53.3281C48.7031 53.6461 48.443 53.9062 48.125 53.9062H38.875C38.557 53.9062 38.2969 53.6461 38.2969 53.3281ZM43.5 49.8594C39.3548 49.8594 35.9844 46.4889 35.9844 42.3438C35.9844 38.1986 39.3548 34.8281 43.5 34.8281C47.6452 34.8281 51.0156 38.1986 51.0156 42.3438C51.0156 46.4889 47.6452 49.8594 43.5 49.8594Z" fill="#F37329"/>
<path d="M44.0781 42.9221V45.2808C44.795 45.3039 45.5119 45.3675 46.2114 45.4831C46.4369 44.7085 46.5814 43.8413 46.6219 42.9221H44.0781ZM44.0781 48.5877C44.7545 48.3217 45.3558 47.5991 45.8067 46.5931C45.2402 46.5064 44.662 46.4544 44.0781 46.4313V48.5819V48.5877ZM46.2172 39.2221C45.5177 39.3435 44.8008 39.4186 44.0781 39.4417V41.7658H46.6219C46.5814 40.8524 46.4369 39.991 46.2172 39.2221ZM46.3328 48.0269C46.8589 47.7667 47.3387 47.4314 47.7723 47.0383C47.5064 46.9574 47.2405 46.8822 46.9688 46.8186C46.7837 47.2638 46.5698 47.6685 46.3328 48.0269ZM52.1719 30.7814V28.0411C52.1719 27.6711 51.825 27.3936 51.4608 27.4803L37.4297 30.7814H52.1719Z" fill="#F37329"/>
</svg>
