<svg width="86" height="86" viewBox="0 0 86 86" fill="none" xmlns="http://www.w3.org/2000/svg">
<circle cx="43" cy="43" r="42.5" stroke="#FDFDFD" stroke-dasharray="2 2"/>
<circle cx="43" cy="43" r="35" fill="#FDFDFD"/>
<path d="M30.6726 35.7822C30.304 35.5726 30.304 35.0451 30.6653 34.8355C31.5542 34.308 33.4837 33.2023 34.387 32.6748L45.1546 26.4238C45.7616 26.0697 46.5132 26.0697 47.113 26.4238L61.6456 34.7632C62.0142 34.9728 62.0142 35.5003 61.6529 35.7171C60.6917 36.2736 56.5148 38.7017 55.6404 39.2076C55.532 38.998 55.3513 38.8173 55.1562 38.68L46.9612 33.9033C46.7155 33.7587 46.4409 33.6865 46.1591 33.6865C44.5548 33.6792 43.955 35.8617 45.3497 36.6638L52.6702 40.9347V40.9419L47.1636 44.1433C46.5638 44.4902 45.7978 44.4974 45.2052 44.1433M50.8853 58.1628C48.3198 62.9902 44.3236 60.6994 46.5277 56.0166C47.5249 54.0726 49.1148 52.8947 50.4878 53.48C51.6874 54.0726 51.8681 56.1683 50.8853 58.1628ZM48.1464 56.8115C47.5683 58.0111 48.6234 58.6181 49.2737 57.3679C49.8591 56.1033 48.7607 55.6046 48.1464 56.8115ZM47.6622 45.0105C46.7445 45.5453 45.5882 45.5453 44.6777 45.0033L35.3843 39.6773C35.3843 40.3277 35.3987 44.3167 35.3987 44.866C39.5974 47.641 44.1501 49.9679 48.8257 51.789C49.7652 51.247 51.738 50.1052 52.6847 49.5488L52.663 42.1054L47.6622 45.0105ZM55.8644 40.2482L55.8861 47.6916C56.2907 47.4386 56.9989 47.1929 56.9628 46.6003L56.9411 39.6195L55.8644 40.2482ZM53.7109 51.3193C54.0794 51.2253 54.513 51.2253 54.8816 51.3193L54.8527 40.0025C54.8527 39.8001 54.737 39.5978 54.5636 39.4966L46.4554 34.7705C45.7905 34.3947 45.2052 35.3775 45.87 35.7822L53.6892 40.3421L53.7109 51.3193ZM54.2962 52.266C52.2583 52.3166 52.2655 55.3011 54.3034 55.3517C56.3341 55.2794 56.3341 52.331 54.2962 52.266ZM37.2054 47.1929C34.77 45.7332 32.154 43.9193 30.145 42.3439C28.7937 41.007 26.8425 42.3005 25.7007 44.4902C24.7251 46.4847 24.8986 48.5732 26.1054 49.1658C28.6202 50.0546 31.229 51.1242 34.1052 52.555C34.3364 50.4376 35.4782 48.4503 37.2054 47.1929ZM48.3126 52.6707C46.253 51.8541 44.2874 51.0013 42.0905 49.8957C40.2839 51.0736 39.1349 53.0609 39.0409 55.2433C41.2306 56.5513 43.1962 57.8738 44.9378 59.1601C44.5476 56.9199 46.2675 53.574 48.3126 52.6707ZM41.0861 49.3826C40.1105 48.8767 39.106 48.3203 38.1593 47.771C36.3454 48.8189 35.0736 51.3265 35.088 53.0537C36.0853 53.5667 37.1187 54.1304 38.0726 54.6796C38.1304 53.1187 39.3517 50.5244 41.0861 49.3826ZM34.0546 53.4728C33.1513 53.863 32.0528 54.5134 31.3519 55.0337C32.3636 55.5974 33.7655 56.7103 34.5388 57.563C35.1314 56.8332 36.2081 55.8503 37.0898 55.2867C36.1431 54.7375 35.0446 54.1666 34.0474 53.6607L34.0546 53.4728Z" fill="#F37329"/>
</svg>
